<?xml version="1.0" encoding="UTF-8" standalone="no"?>
<!-- Created with Inkscape (http://www.inkscape.org/) -->

<svg
   width="210mm"
   height="297mm"
   viewBox="0 0 210 297"
   version="1.1"
   id="svg1"
   xml:space="preserve"
   xmlns="http://www.w3.org/2000/svg"
   xmlns:svg="http://www.w3.org/2000/svg"><defs
     id="defs1" /><g
     id="layer1"><path
       style="fill:#000000;stroke-width:1.24247"
       d="M 29.726781,182.06567 C 26.232736,178.20089 19.346617,170.15115 17.079154,167.28085 l -1.879267,-2.37891 -0.400301,-4.91741 c -0.220165,-2.70457 -0.586314,-7.27438 -0.813663,-10.1551 -0.227352,-2.88072 -0.54356,-5.59013 -0.702686,-6.02089 -0.159126,-0.43076 -1.264888,-1.35752 -2.457247,-2.05948 -3.2942903,-1.9394 -3.7737652,-2.52116 -3.5619103,-4.32181 0.097373,-0.82761 0.2733782,-4.12486 0.3911231,-7.32721 L 7.8692843,124.2776 5.3979575,113.52234 2.9266301,102.76707 3.7766515,100.56137 C 4.2441618,99.348242 5.5167967,96.048601 6.604726,93.228826 l 1.9780529,-5.126879 5.3593871,-5.596434 c 2.947664,-3.078037 5.74541,-5.904721 6.217215,-6.281503 0.471803,-0.376789 3.405569,-1.535397 6.519481,-2.574681 3.113909,-1.039275 7.567025,-2.529368 9.895814,-3.311306 2.328788,-0.781946 4.517235,-1.4217 4.863217,-1.4217 0.345981,0 3.76771,1.145576 7.603845,2.545738 3.836133,1.400153 8.414386,3.037077 10.173893,3.637629 3.06703,1.046815 3.329105,1.222448 6.347917,4.254183 7.193809,7.224603 7.491686,7.633268 9.769265,13.402909 4.450049,11.272988 4.218366,10.210608 3.150963,14.448778 -0.375275,1.49003 -0.984484,4.09082 -1.353808,5.77952 -0.369323,1.68868 -1.137304,5.10222 -1.70661,7.58559 l -1.035111,4.51524 0.555916,6.94547 c 0.430978,5.38452 0.46417,7.06181 0.147722,7.46321 -0.224505,0.28477 -1.693382,1.42731 -3.26418,2.53898 -3.332341,2.35834 -2.95847,1.10814 -3.789643,12.67231 -0.835508,11.62468 -0.637064,10.70211 -2.868719,13.33617 -1.070892,1.26399 -4.713437,5.56684 -8.094549,9.56189 l -6.147474,7.26375 h -9.333657 -9.333658 z m 21.319312,0.44855 0.810848,-0.90862 -0.642012,-2.61326 c -0.353107,-1.43732 -1.294887,-4.8077 -2.092845,-7.48977 -1.398184,-4.69947 -1.48303,-4.87269 -2.33805,-4.77269 -0.48797,0.0571 -1.195056,-0.0697 -1.571302,-0.28165 -0.521152,-0.29362 -0.883754,-0.24769 -1.522402,0.19284 -0.626112,0.43186 -1.00608,0.48371 -1.501088,0.20482 -0.364528,-0.20537 -1.339937,-0.36967 -2.167577,-0.36514 -0.827639,0.005 -1.852219,-0.002 -2.276843,-0.0134 -0.424624,-0.0116 -1.042259,0.003 -1.372522,0.0333 -0.330263,0.0303 -0.82421,-0.0103 -1.097657,-0.0903 -0.538941,-0.15752 -0.848575,1.14215 -2.573996,10.80416 -0.724084,4.0547 -0.834938,5.28196 -0.513888,5.6892 0.336523,0.42686 1.978426,0.51923 9.228919,0.51923 h 8.819568 z M 27.030422,170.87038 c -1.136966,-4.19249 -2.067213,-8.25475 -2.067213,-9.02725 0,-1.25091 -0.132041,-1.47082 -1.207125,-2.01053 -0.663918,-0.33328 -1.351902,-0.97295 -1.528856,-1.42147 -0.176953,-0.44851 -0.80011,-3.41145 -1.384795,-6.5843 -0.584684,-3.17285 -1.093367,-5.79994 -1.130406,-5.83798 -0.217173,-0.223 -3.921808,-1.57737 -4.315029,-1.57752 -0.376092,-1.4e-4 -0.430472,0.50037 -0.264884,2.43805 0.114604,1.34102 0.448975,5.44537 0.743054,9.12078 0.294081,3.6754 0.60773,7.17966 0.697,7.78725 0.10903,0.74203 1.24772,2.40209 3.468844,5.05704 5.830066,6.96884 8.847093,10.34039 8.953206,10.00527 0.05688,-0.17964 -0.826827,-3.75684 -1.963796,-7.94934 z m 4.928229,2.34799 c 0.505085,-2.83106 0.997958,-5.57064 1.095271,-6.08796 0.133228,-0.70825 -0.01779,-1.07368 -0.611367,-1.4794 -0.849895,-0.58089 -2.435375,-1.0522 -3.523565,-1.0474 -0.372065,0.002 -0.952044,-0.25956 -1.288844,-0.58042 -0.336799,-0.32088 -0.694508,-0.49692 -0.794907,-0.39124 -0.246974,0.25999 3.637758,14.73379 3.954517,14.73379 0.137807,0 0.663809,-2.31631 1.168895,-5.14737 z m 22.812251,-2.67186 c 0.968174,-3.80392 1.76032,-7.11585 1.76032,-7.35984 0,-0.63275 -2.016792,-0.15328 -2.900115,0.68945 -0.386515,0.36878 -1.380237,0.76017 -2.208271,0.86978 -2.575468,0.34098 -2.585833,0.44245 -0.708551,6.93729 0.918784,3.17874 1.67701,5.93394 1.684943,6.12268 0.04986,1.18631 0.82923,-1.19921 2.371674,-7.25936 z m 8.703951,-2.62622 c 1.271253,-1.50647 2.322408,-2.9016 2.3359,-3.10026 0.0135,-0.19867 0.374519,-4.58749 0.802284,-9.75293 0.427756,-5.16542 0.65925,-9.53688 0.514425,-9.71432 -0.149847,-0.1836 -1.149871,0.0263 -2.32045,0.48725 -2.347987,0.92437 -2.150562,0.44216 -3.332994,8.14048 -0.588241,3.82978 -0.662301,4.02951 -2.090062,5.63637 -1.218249,1.37105 -1.480801,1.91496 -1.483541,3.07329 -0.0019,0.77408 -0.754938,4.44806 -1.673568,8.16439 -0.918632,3.71632 -1.601216,6.82962 -1.516855,6.91843 0.14484,0.15247 3.588952,-3.71911 8.764861,-9.8527 z m -19.811028,-4.18392 c 0,-1.30039 -0.08578,-1.44486 -0.857827,-1.44486 -0.687061,0 -0.879996,0.2038 -0.969198,1.02386 -0.162654,1.49533 0.16632,2.11413 1.053447,1.98152 0.655446,-0.098 0.773578,-0.3363 0.773578,-1.56052 z m -6.632904,-0.0149 c 0.294243,-1.15822 0.112239,-1.49017 -0.915969,-1.67072 -0.557829,-0.0979 -0.707079,0.109 -0.797499,1.1059 -0.182341,2.01032 1.228126,2.47525 1.713468,0.56482 z m 3.030033,0.19549 c 0,-0.59602 0.0386,-1.20556 0.08579,-1.35456 0.04717,-0.149 -0.261638,-0.32286 -0.686261,-0.38635 -0.692126,-0.1035 -0.772044,0.0367 -0.772044,1.35457 0,1.22919 0.11242,1.47002 0.686261,1.47002 0.533759,0 0.686261,-0.24083 0.686261,-1.08368 z m 7.123568,-0.18061 c 0.111178,-1.34773 -0.314974,-2.08082 -1.039466,-1.78815 -0.606711,0.24509 -1.122568,2.08314 -0.758626,2.70305 0.126153,0.21488 0.562219,0.34075 0.969036,0.27972 0.544339,-0.0816 0.76327,-0.39712 0.829056,-1.19462 z m -13.514525,-0.97119 c 0.126827,-0.5673 0.05795,-1.07476 -0.165629,-1.22024 -0.498589,-0.32438 -0.898342,0.37859 -0.791101,1.39119 0.04661,0.44016 0.09762,0.95468 0.11335,1.14343 0.04967,0.59607 0.612311,-0.28078 0.843378,-1.31438 z m 16.133467,0.58046 c 0.114555,-0.31424 0.208277,-0.89509 0.208277,-1.29075 0,-0.91287 -1.14073,-0.76365 -1.311819,0.17158 -0.252521,1.38035 0.668026,2.31394 1.103542,1.11917 z m 2.551233,-1.74377 c -0.06194,-0.52706 -0.267017,-0.99388 -0.455738,-1.03737 -0.41224,-0.095 -0.653557,1.3669 -0.359017,2.17491 0.321229,0.88125 0.94899,0.005 0.814755,-1.13754 z m -21.321741,-0.48431 c -0.0863,-0.34767 -0.156921,-0.0632 -0.156921,0.63213 0,0.69536 0.07061,0.97981 0.156921,0.63214 0.0863,-0.34768 0.0863,-0.91659 0,-1.26427 z m -2.017252,0 c -0.07182,-0.91342 -0.274117,-1.35457 -0.621189,-1.35457 -0.369864,0 -0.480847,0.30493 -0.394403,1.08367 0.141327,1.27311 0.310089,1.62547 0.778497,1.62547 0.188975,0 0.295669,-0.60956 0.237095,-1.35457 z m 26.078953,-0.75023 c 0.07782,-0.82962 -0.03502,-1.14615 -0.408663,-1.14615 -0.72697,0 -1.000624,0.61166 -0.747901,1.67167 0.292277,1.22592 1.023423,0.89369 1.156564,-0.52552 z m -17.843899,-0.3334 c 0.166167,-0.34768 0.210203,-1.52616 0.09786,-2.61884 -0.175518,-1.70708 -0.312933,-2.00296 -0.976312,-2.10213 -0.726887,-0.10862 -0.772044,0.0116 -0.772044,2.04747 0,1.18959 0.09372,2.42 0.208277,2.73426 0.277026,0.75998 1.065842,0.72673 1.442225,-0.0608 z m 3.153326,-2.05479 c 0.125483,-1.82808 0.04566,-2.63195 -0.297176,-2.99275 -0.863109,-0.90833 -1.244757,-0.27457 -1.349551,2.24103 -0.119889,2.878 0.05071,3.53635 0.873646,3.3716 0.483385,-0.0967 0.635209,-0.61127 0.773081,-2.61988 z m 3.703437,0.31314 c 0.05531,-1.20625 -0.07234,-2.66918 -0.283686,-3.25096 l -0.384254,-1.05782 -0.831487,1.01351 c -0.672862,0.82014 -0.831487,1.41163 -0.831487,3.10046 0,2.37478 0.14661,2.64379 1.359681,2.49487 0.812384,-0.0998 0.877399,-0.25371 0.971233,-2.30006 z m 2.944719,0.88376 c 0.496613,-2.61398 0.163953,-4.28949 -0.851646,-4.28949 -0.573944,0 -0.64955,0.28731 -0.64955,2.46834 0,1.35757 0.102937,2.57669 0.228753,2.70914 0.523904,0.55152 1.071567,0.16932 1.272443,-0.88799 z m -12.869467,-1.38588 c 0.09329,-2.15246 -0.146021,-2.76382 -0.843414,-2.15452 -0.616728,0.53882 -0.661488,3.81956 -0.05523,4.04847 0.70182,0.26505 0.815448,0.0257 0.898647,-1.89395 z m 25.834712,-4.02521 c 0.345055,-2.03436 0.56221,-3.76742 0.482569,-3.85127 -0.172342,-0.18142 -3.351718,4.05888 -3.687367,4.91782 -0.312225,0.79899 -0.344053,4.56458 -0.04128,4.88331 0.132105,0.13908 0.775356,-0.31051 1.429448,-0.99909 1.068961,-1.12532 1.252715,-1.6261 1.816624,-4.95077 z m -10.155408,4.9511 c 0.319699,-1.34092 0.03978,-2.54551 -0.62238,-2.67837 -0.508016,-0.10198 -0.600478,0.16171 -0.600478,1.7121 0,1.37767 0.126142,1.83259 0.508158,1.83259 0.279487,0 0.601101,-0.38986 0.7147,-0.86632 z m -23.526346,-1.2775 c 0,-0.9804 -0.149447,-2.19636 -0.332104,-2.70211 -0.357086,-0.98872 -3.790372,-5.74468 -3.993027,-5.53134 -0.06717,0.0707 0.224844,2.06858 0.648958,4.43967 0.764339,4.2732 0.78161,4.31648 1.966295,4.92636 0.65735,0.33843 1.310989,0.62312 1.452529,0.63266 0.141542,0.01 0.257349,-0.7848 0.257349,-1.76524 z m 5.146959,-0.36341 c 0,-1.72194 -0.407303,-2.5948 -0.85499,-1.83224 -0.298045,0.50766 0.175463,3.61702 0.55082,3.61702 0.167293,0 0.30417,-0.80314 0.30417,-1.78478 z m 20.866922,0.27742 c -0.155348,-1.65594 -0.965348,-1.78031 -0.965348,-0.14822 0,0.93304 0.149743,1.29437 0.536436,1.29437 0.396376,0 0.508361,-0.29926 0.428912,-1.14615 z m -23.33489,-0.75027 c -0.07385,-1.07445 -0.259987,-1.5352 -0.620207,-1.5352 -0.676972,0 -0.916382,2.33317 -0.282804,2.75605 0.836219,0.55811 1.009205,0.32425 0.903011,-1.22085 z m 25.94695,0.2105 c 0.25846,-0.70905 -0.266626,-1.39134 -0.802467,-1.0427 -0.540776,0.35182 -0.458269,1.64493 0.104952,1.64493 0.262893,0 0.576771,-0.27101 0.69751,-0.60223 z m 0.30598,-2.86962 c 0.679095,-0.30043 4.737396,-6.27763 4.517072,-6.65292 -0.113205,-0.19281 -0.505322,-0.35059 -0.871369,-0.35059 -0.592575,0 -1.982708,-0.60114 -8.857296,-3.83021 -1.013596,-0.47609 -2.044648,-0.86563 -2.291228,-0.86563 -0.530912,0 -1.870657,1.69992 -1.870657,2.37355 0,0.25853 0.791906,2.44398 1.759792,4.85657 1.217247,3.03417 1.984207,4.48786 2.487696,4.71515 0.689005,0.31104 4.253502,0.14003 5.12599,-0.24592 z m -19.964851,-4.86515 1.932894,-4.84751 -0.731937,-0.84591 c -1.430898,-1.6537 -1.601786,-1.63633 -6.536661,0.66506 -3.447184,1.60757 -5.048532,2.16757 -6.198452,2.16757 -0.852765,0 -1.550481,0.0875 -1.550481,0.19455 0,0.10696 1.093262,1.7325 2.429473,3.61219 l 2.429473,3.41764 2.288572,0.005 c 1.258715,0.003 2.520186,0.16295 2.803269,0.35534 0.283083,0.1924 0.669105,0.29878 0.857826,0.23643 0.18872,-0.0624 1.212933,-2.29476 2.276024,-4.9609 z m 3.089485,4.3061 c 1.025837,-0.32356 1.538567,-0.31752 2.255969,0.0266 0.842725,0.40422 0.987778,0.35952 1.571695,-0.48432 0.759791,-1.09801 1.022441,-1.14085 1.824466,-0.29752 0.648073,0.68146 3.221142,0.89583 3.221862,0.26843 6.51e-4,-0.56597 -2.344137,-6.71471 -2.903067,-7.61272 -0.274625,-0.44124 -1.187978,-1.0791 -2.029673,-1.41749 -1.452183,-0.58383 -1.583417,-0.58226 -2.569147,0.0307 -0.669289,0.41619 -1.348851,1.37331 -1.910481,2.69076 -0.876914,2.05703 -2.596783,6.72093 -2.596783,7.0419 0,0.3176 1.794013,0.17665 3.135159,-0.24635 z m 26.008073,-9.01551 c 1.333627,-0.45216 2.42478,-0.99744 2.42478,-1.21171 0,-0.21428 -0.969359,-2.09224 -2.154137,-4.17323 l -2.154137,-3.78364 -4.279561,-1.31227 c -5.333448,-1.63542 -8.557588,-3.42482 -9.881334,-5.48413 -1.735447,-2.69977 -4.52058,-8.02299 -4.52058,-8.64016 0,-0.33087 0.63723,-2.30026 1.416063,-4.37644 l 1.416062,-3.77487 -0.966944,-1.33456 -0.966946,-1.33456 -1.469611,1.75009 -1.469613,1.75009 -2.007932,-2.30117 -2.007929,-2.3012 -1.089142,1.73098 c -0.599028,0.95204 -1.089141,2.00969 -1.089141,2.35031 0,0.34066 0.540429,2.37462 1.200956,4.51994 0.660526,2.14533 1.200958,4.28652 1.200958,4.75821 0,0.47169 -0.441151,1.45765 -0.980333,2.191 -0.539183,0.73337 -2.003432,2.80802 -3.253882,4.61032 -1.250453,1.80233 -2.623605,3.45971 -3.051451,3.6831 -0.427847,0.22338 -2.630809,1.16396 -4.895471,2.09014 -6.308514,2.58005 -6.299816,2.57351 -9.181419,6.90688 l -1.289416,1.93904 0.946286,0.3901 c 2.601057,1.07223 3.554746,1.33063 5.778603,1.56573 2.38723,0.25239 2.463007,0.23318 6.787951,-1.72127 2.405575,-1.08705 4.463847,-2.07131 4.573942,-2.18721 0.110091,-0.11591 -0.06492,-1.20534 -0.388939,-2.42097 l -0.58911,-2.21026 2.959401,-5.20457 c 1.627671,-2.86253 3.154679,-5.2046 3.393352,-5.2046 0.238673,0 0.776428,0.48765 1.195012,1.08367 0.418585,0.596 0.872247,1.08164 1.008138,1.07919 0.135892,-0.003 0.595915,-0.5714 1.022274,-1.26427 0.426359,-0.6929 0.985667,-1.25979 1.242905,-1.25979 0.25724,0 0.989261,0.90715 1.626717,2.01588 0.637455,1.10876 1.31818,2.20595 1.512724,2.43824 0.194546,0.23228 1.033315,1.56017 1.863935,2.95087 1.781346,2.98247 2.231491,5.63977 1.228388,7.2514 -0.321344,0.51629 -0.53125,0.99451 -0.466456,1.06272 0.0648,0.0683 1.968638,0.95568 4.230766,1.97216 2.262129,1.01646 4.344573,2.00426 4.627656,2.19509 0.758627,0.51144 3.734637,0.15218 6.496615,-0.78427 z m 8.847642,-5.31035 c 0.04122,-0.13532 -1.07375,-0.9775 -2.477703,-1.87151 -2.504817,-1.59504 -3.099057,-2.49527 -2.27709,-3.44966 0.759395,-0.88173 4.162922,-8.21031 4.145615,-8.92644 -0.01073,-0.44463 -0.670319,-2.759 -1.465718,-5.14304 -1.338065,-4.0106 -1.516304,-4.34319 -2.384324,-4.44911 -1.308584,-0.15973 -1.479875,0.63814 -0.540519,2.51769 0.669734,1.34006 0.803964,2.24283 0.915835,6.15944 l 0.131078,4.58926 -1.687033,1.9127 c -2.86602,3.24939 -3.528047,4.06305 -3.528047,4.33615 0,0.35568 3.399415,6.4535 4.016086,7.20401 0.449019,0.54646 0.684538,0.46029 2.783697,-1.01824 1.261251,-0.88837 2.326902,-1.72592 2.368123,-1.86125 z m -57.059325,-0.27931 2.223797,-3.10364 -1.919197,-2.68429 c -1.593177,-2.22832 -2.042261,-2.64561 -2.643635,-2.4565 -1.578042,0.49625 -1.748362,1.0343 -0.947665,2.99367 0.405857,0.99318 0.737924,2.03882 0.737924,2.32365 0,0.28482 -0.929842,1.13157 -2.066316,1.88171 -1.136474,0.75012 -2.0017087,1.43184 -1.922744,1.51499 0.33778,0.35559 3.839713,2.61639 4.065766,2.62481 0.136551,0.005 1.248982,-1.3874 2.47207,-3.0944 z m -4.374417,-3.25843 c 0.210194,-0.57369 -2.0558284,-6.37835 -2.5588948,-6.5549 -0.3149631,-0.11054 -0.4192933,0.94469 -0.4192933,4.24072 v 4.38784 l 1.4154571,-0.83586 c 0.778503,-0.45971 1.481731,-1.01673 1.562731,-1.2378 z m 62.089377,-0.50105 c -0.118739,-1.19203 -0.31303,-3.1426 -0.431769,-4.33463 -0.118731,-1.19204 -0.31175,-2.16541 -0.428918,-2.16304 -0.330091,0.007 -3.26943,6.10968 -3.052504,6.33806 0.54963,0.57859 3.2467,2.27455 3.655847,2.29883 0.37508,0.0223 0.428452,-0.42143 0.257344,-2.13922 z m -60.800771,-5.77057 0.880166,-0.35228 -0.01146,-5.33692 c -0.01026,-4.80253 -0.08036,-5.42409 -0.699959,-6.2075 -0.41366,-0.52302 -0.813201,-0.73932 -1.000794,-0.54183 -0.488807,0.51461 -2.7485286,6.60743 -2.7485286,7.41075 0,1.08584 1.8285436,5.37147 2.2937936,5.37604 0.223616,0.003 0.80265,-0.15451 1.286739,-0.34826 z m 61.758916,-12.24465 c 1.356596,-6.07482 1.995464,-9.47225 1.816586,-9.66056 -0.08732,-0.0918 -0.680121,0.51045 -1.317343,1.3386 -0.637214,0.82814 -1.814814,2.32854 -2.616885,3.3342 -0.802062,1.00566 -1.458304,2.11426 -1.458304,2.46355 0,0.61629 1.61705,6.32644 1.963871,6.93488 0.348038,0.61055 0.714929,-0.39325 1.612075,-4.41067 z m -64.859674,1.00957 c 0.49101,-1.30694 0.892747,-2.65518 0.892747,-2.99607 0,-0.49619 -1.5716648,-2.97864 -3.6881564,-5.82547 -0.1477022,-0.19867 -0.6135628,-0.83014 -1.0352426,-1.40328 -0.4216792,-0.57314 -0.7666901,-0.90757 -0.7666901,-0.74316 0,0.2993 2.6230179,12.03159 2.9713482,13.29031 0.2544412,0.91943 0.5859952,0.44588 1.6259939,-2.32233 z m 5.48791,-2.55405 c 0.452611,-0.68026 0.455319,-0.90086 0.0219,-1.7832 -0.739051,-1.5045 -1.049587,-1.53593 -1.807882,-0.18296 -0.646521,1.15354 -0.653931,1.27654 -0.11937,1.98138 0.728955,0.96118 1.258525,0.95695 1.905358,-0.0153 z m 52.621859,-1.74731 c 0.235906,-0.003 0.428917,-0.15969 0.428917,-0.34884 0,-0.64265 -3.161674,-5.10878 -3.526088,-4.98092 -0.199353,0.07 -0.88392,0.79208 -1.52126,1.6047 l -1.158802,1.47751 1.9879,1.31546 c 1.249099,0.82658 2.242947,1.24514 2.674163,1.12624 0.377439,-0.10401 0.879272,-0.19143 1.11517,-0.19415 z M 21.943352,112.1026 c 1.075545,-0.31454 2.036498,-0.7098 2.135453,-0.87836 0.187062,-0.31862 -3.590804,-7.26023 -3.954543,-7.26622 -0.113676,-0.002 -1.166708,1.47975 -2.340068,3.29251 -2.023951,3.12687 -2.111799,3.35079 -1.712584,4.3654 0.74006,1.88084 1.188771,2.14645 2.644986,1.5656 0.69917,-0.27887 2.151209,-0.76438 3.226756,-1.07893 z m -4.108271,-7.6353 c 2.593498,-3.9574 5.279934,-8.052968 5.969858,-9.101269 0.689921,-1.048294 1.177561,-1.986904 1.083643,-2.085774 -0.36957,-0.389043 -14.390564,-4.199532 -14.60847,-3.970135 -0.07534,0.07932 0.102875,2.390843 0.396052,5.136718 0.293172,2.745873 0.801095,7.79951 1.128718,11.23029 0.375825,3.93553 0.728375,6.19119 0.955212,6.11159 0.197743,-0.0694 2.481488,-3.36402 5.074987,-7.32142 z m -7.102943,5.3571 c -0.10249,-0.94369 -0.498093,-4.80421 -0.8791105,-8.57896 -0.7972476,-7.898348 -0.9785651,-9.037208 -1.3715291,-8.614655 -0.1568289,0.16864 -0.8201901,1.688279 -1.474137,3.376976 -0.6539449,1.688693 -1.4364615,3.674705 -1.7389244,4.413329 -0.9449943,2.30774 -1.0875932,1.98834 4.2788069,9.58393 0.5965471,0.84434 1.1491191,1.53518 1.2279391,1.53518 0.07881,0 0.05945,-0.77211 -0.04304,-1.7158 z m 59.842852,-7.31469 c 1.013706,-10.151832 1.21117,-13.365121 0.821294,-13.365121 -0.478856,0 -13.145823,4.210462 -13.366794,4.443076 -0.190608,0.200658 0.67366,1.603278 7.384125,11.983695 4.650289,7.19352 4.105049,7.51697 5.161375,-3.06165 z m 4.760863,3.84458 c 1.956366,-2.51109 2.443883,-3.36572 2.266529,-3.97341 -0.124274,-0.42582 -0.962435,-2.643524 -1.862576,-4.928238 -0.90014,-2.284716 -1.740494,-4.519758 -1.86746,-4.966775 -0.273205,-0.961903 -0.868298,-1.084478 -0.876801,-0.180598 -0.0031,0.347663 -0.152696,2.095065 -0.332049,3.883105 -1.708533,17.032516 -1.642946,15.470196 -0.598889,14.264466 0.428325,-0.49464 1.900384,-2.33899 3.271246,-4.09855 z m -40.539548,3.47011 c 0.383695,-0.54634 0.943653,-1.49421 1.244352,-2.10636 0.691514,-1.40776 0.688384,-1.41307 -4.590473,-7.799834 -5.036379,-6.093375 -4.903128,-5.976776 -5.624703,-4.92238 -2.702025,3.948234 -4.636709,6.963084 -4.636709,7.225414 0,0.17359 1.042259,2.17835 2.316131,4.45501 l 2.316131,4.13938 4.138822,7.9e-4 c 4.117699,8e-4 4.142381,-0.004 4.836449,-0.9923 z m 27.757424,-0.95927 c 0.880746,-1.07396 1.580502,-2.08988 1.555012,-2.25762 -0.07596,-0.49993 -2.470594,-4.40553 -2.967117,-4.83933 -0.366189,-0.31993 -0.844151,0.40734 -2.363151,3.59581 -1.047266,2.19827 -1.90412,4.13924 -1.90412,4.3133 0,0.26443 0.724341,0.47059 3.840444,1.09302 0.130666,0.0261 0.958184,-0.83124 1.838932,-1.90518 z m -8.236006,1.02099 c 0.490877,-0.13847 1.397149,-1.66433 3.002392,-5.05505 1.264607,-2.67119 2.299283,-5.066484 2.299283,-5.32286 0,-0.420727 -2.936959,-4.945333 -3.210057,-4.945333 -0.0627,0 -1.175945,1.324735 -2.473865,2.943848 -1.297919,1.619102 -2.522912,3.122675 -2.722207,3.341285 -1.035838,1.13613 -5.319095,6.65882 -5.319095,6.85825 0,0.12757 0.347419,0.81273 0.772044,1.52266 l 0.772043,1.29079 3.088176,-0.21763 c 1.698495,-0.11962 3.404575,-0.30687 3.791286,-0.41596 z m -8.938246,-4.06868 c 1.698498,-2.11608 4.681783,-5.836054 6.629524,-8.266591 2.235986,-2.790245 3.449917,-4.588128 3.2933,-4.877532 -0.952538,-1.760139 -13.67768,-21.589682 -13.854666,-21.589682 -0.122378,0 -1.650578,2.235048 -3.396001,4.966774 -1.745421,2.731708 -4.717011,7.323708 -6.603529,10.204438 -1.886518,2.880724 -3.577396,5.512321 -3.757504,5.848018 -0.258615,0.482014 0.122688,1.165568 1.813473,3.250979 1.177517,1.452351 2.224139,2.7219 2.325829,2.821232 0.101681,0.09941 1.953907,2.375034 4.116042,5.057074 5.48643,6.80572 5.511996,6.83417 5.951561,6.62242 0.216589,-0.10441 1.783476,-1.92106 3.481971,-4.03713 z M 63.885068,89.923753 c 3.384093,-1.141718 6.196315,-2.231105 6.24939,-2.420855 0.05306,-0.189757 -1.78928,-1.445057 -4.094107,-2.789565 C 56.604609,79.209042 51.481818,76.207927 50.183307,75.423688 46.547671,73.22793 44.47549,72.095483 44.34488,72.232981 c -0.299844,0.315644 12.3749,19.790299 12.872604,19.778656 0.283081,-0.0063 3.283495,-0.946174 6.667584,-2.087884 z M 28.140852,88.693076 c 1.049474,-1.639027 3.843515,-5.987215 6.208979,-9.662609 2.365464,-3.67541 4.173213,-6.730328 4.01722,-6.78872 -0.155996,-0.05833 -1.106637,0.404705 -2.11254,1.02907 -1.005903,0.624364 -2.761285,1.673622 -3.900847,2.33169 -1.139563,0.658068 -4.233654,2.450297 -6.87576,3.982723 -2.642105,1.532443 -6.772541,3.916125 -9.178742,5.297104 -2.406204,1.380971 -4.374916,2.643043 -4.374916,2.804608 0,0.161581 0.965054,0.562596 2.144566,0.891155 6.799979,1.894183 11.132307,3.037118 11.614934,3.064213 0.321767,0.01802 1.3387,-1.20254 2.457106,-2.949234 z m -8.909984,-7.249475 c 2.114818,-1.255488 6.050094,-3.553365 8.745059,-5.106406 2.694965,-1.553024 4.833629,-2.893495 4.752586,-2.978819 -0.08106,-0.08533 -2.690748,0.691605 -5.799343,1.726485 l -5.651992,1.881592 -2.959482,3.109013 c -1.627714,1.709957 -3.063018,3.230923 -3.189566,3.37992 -0.54312,0.639509 0.490525,0.132653 4.102738,-2.011785 z m 45.528733,-0.789597 -2.918463,-3.072323 -5.46876,-1.972575 c -3.007818,-1.084927 -5.52842,-1.909777 -5.601339,-1.833014 -0.184291,0.194011 0.557727,0.655934 8.162098,5.081113 3.680074,2.141529 6.995613,4.113172 7.367874,4.381399 1.737343,1.251884 1.120602,0.21773 -1.54141,-2.5846 z m 30.888511,77.258626 c 0,-0.47998 0.09316,-0.50467 0.514693,-0.13638 0.283082,0.24733 0.514703,0.51105 0.514703,0.58605 0,0.0751 -0.231621,0.1364 -0.514703,0.1364 -0.283081,0 -0.514693,-0.26373 -0.514693,-0.58607 z m 1.058197,-0.64692 c -1.753118,-1.90411 -1.09574,-2.23267 0.831152,-0.41543 1.379456,1.30098 1.576136,1.61919 1.008796,1.63223 -0.387611,0.01 -1.215582,-0.53866 -1.839948,-1.2168 z m 1.319507,-0.77951 c -1.461988,-1.55844 -1.698471,-1.96091 -1.152125,-1.96091 0.378089,0 1.447879,0.81273 2.377294,1.80609 0.929415,0.99335 1.844255,1.80609 2.032985,1.80609 0.18872,0 -0.41731,-0.81274 -1.346725,-1.80609 -1.582748,-1.69163 -1.635561,-1.80609 -0.833205,-1.80609 0.582325,0 1.44572,0.62792 2.69621,1.96091 l 1.83958,1.9609 h -1.88722 c -1.829864,0 -1.943124,-0.0596 -3.726794,-1.9609 z m 4.283104,0.0421 c -1.8252,-1.77289 -1.94255,-1.97038 -1.17071,-1.97012 0.55813,2.1e-4 1.57708,0.68836 2.91661,1.96978 1.88335,1.80164 1.98311,1.96951 1.17071,1.97012 -0.59939,4.3e-4 -1.54744,-0.63983 -2.91661,-1.96978 z m 2.15881,-0.0294 c -1.9293,-1.9143 -1.95985,-1.97354 -1.01767,-1.97354 0.7227,0 1.44838,0.50853 2.8351,1.9867 1.70132,1.81354 1.79003,1.98555 1.01767,1.97353 -0.54273,-0.01 -1.55927,-0.72079 -2.8351,-1.98669 z m 2.16057,0.0132 -1.86379,-1.98671 2.39019,-0.005 c 1.31462,-0.003 2.5601,-0.12499 2.76775,-0.27092 0.67914,-0.47737 1.20921,-1.90272 0.98463,-2.64763 -0.33688,-1.11735 -1.56577,-1.41055 -5.91223,-1.41055 -3.87091,0 -4.02208,-0.0298 -5.037588,-0.99334 l -1.046916,-0.99335 0.830604,0.99335 0.83061,0.99334 h -0.841293 c -0.462697,0 -1.164175,-0.23808 -1.558812,-0.52907 -0.394647,-0.29099 -0.794143,-0.44841 -0.88778,-0.34987 -0.199278,0.2098 -1.804651,-1.47432 -1.81238,-1.90127 -0.0031,-0.15957 -0.142788,-0.51884 -0.310882,-0.79836 -0.340252,-0.56581 -0.378394,-3.5769 -0.04967,-3.92292 0.115543,-0.12168 1.017158,0.58171 2.003601,1.563 l 1.793525,1.78414 -1.801435,-1.99789 c -0.990786,-1.09885 -1.801432,-2.16409 -1.801432,-2.3672 0,-0.58262 2.131455,-2.59478 3.196293,-3.01741 0.563199,-0.22353 3.818025,-0.38337 7.806225,-0.38337 h 6.84028 v 1.9867 1.98671 h -6.67159 c -6.505264,0 -6.684914,0.0199 -7.20575,0.80281 -0.696517,1.04684 -0.675791,1.8412 0.06632,2.54215 0.479961,0.45331 1.70239,0.59142 6.09057,0.6881 6.15634,0.13565 7.15181,0.46196 8.69324,2.84962 1.72702,2.67517 0.1597,7.77543 -2.72719,8.87468 -2.1667,0.82502 -2.77135,0.63605 -4.7651,-1.48921 z m -4.46071,-7.15353 c 0,-0.0603 -0.57903,-0.66992 -1.28673,-1.35457 l -1.286745,-1.24481 1.182485,1.35456 c 1.10063,1.2608 1.39099,1.52065 1.39099,1.24482 z m -4.803825,-0.36912 c 0,-0.0648 -0.424629,-0.51171 -0.943609,-0.99334 l -0.943611,-0.87572 0.831859,0.99336 c 0.777492,0.92844 1.055361,1.159 1.055361,0.8757 z m 1.02939,-1.06989 c 0,-0.0571 -0.810648,-0.91051 -1.801432,-1.8964 l -1.801439,-1.79252 1.702755,1.89642 c 1.582228,1.76216 1.900116,2.06205 1.900116,1.7925 z m 17.499665,10.22936 c 0,-0.19244 0.23161,-0.25631 0.5147,-0.14196 0.28307,0.11437 0.51469,0.27179 0.51469,0.34988 0,0.078 -0.23162,0.14196 -0.51469,0.14196 -0.28309,0 -0.5147,-0.15743 -0.5147,-0.34988 z m 1.37379,-0.55174 c -1.20794,-1.35358 -0.49215,-1.58795 0.77516,-0.25381 0.75198,0.7916 0.92942,1.15543 0.56352,1.15543 -0.29373,0 -0.89614,-0.40573 -1.33868,-0.90162 z m 9.04855,0.37172 c -0.39316,-1.07858 0.0818,-1.29111 0.88179,-0.39462 l 0.82506,0.92452 h -0.75685 c -0.41626,0 -0.84376,-0.23845 -0.95,-0.5299 z m 1.28279,-1.05408 c -0.81219,-0.87121 -1.42337,-1.80585 -1.35818,-2.07702 0.0725,-0.30164 0.83894,0.31322 1.97442,1.58399 2.15601,2.41286 1.59328,2.86305 -0.61624,0.49303 z m 5.79453,0.80556 c 0,-0.75555 0.0201,-0.75919 0.68626,-0.12462 0.37745,0.35959 0.68627,0.70989 0.68627,0.77842 0,0.0686 -0.30882,0.12462 -0.68627,0.12462 -0.47395,0 -0.68626,-0.24081 -0.68626,-0.77842 z m 0.90466,-0.25378 c -0.49757,-0.54672 -0.90466,-1.38539 -0.90466,-1.86373 0,-0.8028 0.12631,-0.73874 1.64165,0.83248 0.90292,0.93624 1.78593,1.70224 1.96227,1.70224 0.17633,0 -0.57585,-0.95367 -1.67152,-2.11925 -1.42512,-1.51608 -1.95918,-2.34221 -1.87647,-2.90271 0.0992,-0.67214 0.52499,-0.34959 2.99683,2.27039 l 2.88119,3.05386 -2.06231,0.0103 c -1.80894,0.01 -2.17346,-0.11169 -2.96698,-0.98364 z m 2.26253,-2.31587 -3.16719,-3.34805 v -6.76607 -6.7661 h 1.88722 1.88722 v 7.65647 7.65647 l -1.27523,-1.24481 -1.27522,-1.24483 1.36101,1.68176 1.36099,1.68178 4.71806,0.034 4.71804,0.034 v 1.98669 1.98672 h -3.52386 -3.52387 z m 18.72148,0.54864 c -2.45045,-2.50551 -3.98182,-4.61279 -3.62506,-4.98837 0.0705,-0.0742 1.81641,1.6476 3.87966,3.82639 2.52714,2.66864 3.54448,3.96141 3.11735,3.96141 -0.34872,0 -1.86609,-1.25975 -3.37195,-2.79943 z m 0.46164,-2.02765 c -2.91469,-3.07465 -4.53235,-5.04479 -4.45593,-5.42682 0.0838,-0.41891 1.67066,1.03662 5.26264,4.82707 3.66316,3.86556 4.94509,5.42683 4.45594,5.42683 -0.42435,0 -2.43507,-1.84428 -5.26265,-4.82708 z m 4.2331,2.28812 c -2.2947,-2.43499 -2.33649,-2.50963 -1.02018,-1.82234 0.75489,0.39414 2.22176,1.52963 3.25974,2.52332 1.73284,1.65892 1.81629,1.80797 1.0202,1.82234 -0.6285,0.0116 -1.52534,-0.68288 -3.25976,-2.52332 z m 2.58268,0.55226 c -1.7231,-1.83676 -1.79901,-1.98671 -1.00593,-1.98671 0.58511,0 1.4503,0.63158 2.7216,1.98671 1.7231,1.83675 1.79901,1.9867 1.00593,1.9867 -0.58511,0 -1.4503,-0.63156 -2.7216,-1.9867 z m 2.05878,0 -1.86375,-1.98671 h 2.03257 c 1.87345,0 2.1412,0.10607 3.41959,1.35457 l 1.38699,1.35457 -1.32357,-1.49983 -1.32359,-1.49982 1.23238,-0.61565 c 3.51506,-1.75593 3.77423,-7.82344 0.44569,-10.43449 -0.87107,-0.68331 -1.45376,-0.76354 -5.76079,-0.79326 l -4.79171,-0.0331 -1.27338,-1.23073 -1.27337,-1.23071 1.35023,1.52807 c 0.74261,0.84045 1.28304,1.5717 1.20094,1.62502 -0.082,0.0533 -0.5762,0.49329 -1.098,0.9777 l -0.94874,0.8808 -1.45318,-1.4223 -1.45316,-1.42229 1.40083,1.62517 c 0.83443,0.96807 1.34453,1.88076 1.26159,2.2573 -0.20084,0.91156 -0.4802,0.80003 -1.94106,-0.7749 -1.56316,-1.6852 -1.49034,-2.23149 0.58067,-4.35606 1.95848,-2.00914 3.82592,-2.54496 8.86972,-2.54496 4.82619,0 7.0107,0.68395 8.93396,2.79714 1.75163,1.92462 2.41964,3.52921 2.60507,6.25754 0.30215,4.4455 -1.56883,8.39448 -4.79915,10.12932 l -1.3721,0.7369 -0.90471,-0.83966 c -0.72785,-0.67552 -0.78765,-0.69271 -0.30593,-0.0879 0.32933,0.41346 0.4955,0.86046 0.36927,0.99334 -0.56485,0.59464 -1.47192,0.10044 -3.20331,-1.7451 z m 16.12715,1.60417 c 0,-0.21041 0.15442,-0.28209 0.34313,-0.1593 0.18873,0.12284 0.34313,0.29493 0.34313,0.38254 0,0.0877 -0.1544,0.15929 -0.34313,0.15929 -0.18871,0 -0.34313,-0.17213 -0.34313,-0.38253 z m 0.89033,-0.6654 c -0.52454,-0.5764 -0.90085,-1.31628 -0.83626,-1.64422 0.0891,-0.45171 0.48835,-0.19768 1.64725,1.04793 1.2649,1.35957 1.40968,1.64422 0.83624,1.64422 -0.38143,0 -1.12269,-0.47157 -1.64723,-1.04793 z m 13.24474,-1.12396 c -1.00127,-1.16912 -1.79818,-2.22939 -1.77089,-2.35613 0.0273,-0.12679 -1.08698,-1.47611 -2.47618,-2.99859 -1.38922,-1.52247 -3.24086,-3.62151 -4.11478,-4.66454 -0.87391,-1.04301 -1.72503,-1.89641 -1.89137,-1.89641 -0.16633,0 -1.1078,-0.85849 -2.09214,-1.90775 -1.41144,-1.50454 -1.78971,-2.15348 -1.78971,-3.07036 v -1.16262 l 2.14456,0.003 2.14458,0.003 6.17634,7.31213 6.17636,7.31213 0.093,-7.31468 0.0929,-7.3147 h 2.05168 2.05167 v 9.82965 9.82964 l -1.80143,-1.79234 -1.80143,-1.79236 1.87548,2.07684 1.8755,2.07685 h -2.03845 -2.03845 l -2.41045,-2.43824 -2.41045,-2.43822 2.22037,2.43822 c 1.22119,1.34104 2.0704,2.42784 1.88713,2.41514 -0.18325,-0.0128 -1.15243,-0.97967 -2.15372,-2.14878 z m -76.35063,0.43335 c -0.70264,-0.75753 -1.16834,-1.49231 -1.03484,-1.63283 0.25239,-0.26569 2.85942,2.21627 2.85942,2.72224 0,0.5954 -0.5867,0.2451 -1.82458,-1.08941 z m 63.97397,-0.92503 c -1.0112,-1.07789 -1.78059,-2.14287 -1.70973,-2.36661 0.0707,-0.22373 0.95613,0.47514 1.96735,1.55303 1.0112,1.07787 1.78058,2.14288 1.70973,2.36659 -0.0709,0.22376 -0.95615,-0.47509 -1.96735,-1.55301 z m -54.54788,-0.70837 c -1.07485,-1.14782 -1.78532,-2.20817 -1.71565,-2.56056 0.089,-0.45047 0.57952,-0.10965 1.9535,1.35763 1.07485,1.14781 1.78532,2.20817 1.71564,2.56056 -0.089,0.45046 -0.5795,0.10966 -1.95349,-1.35763 z m 26.68659,1.11252 c -0.48555,-0.446 -1.09586,-1.13604 -1.35628,-1.53338 -0.2604,-0.39734 0.17545,-0.0798 0.96858,0.70544 1.31578,1.30286 1.59925,1.64577 1.35626,1.64069 -0.0472,-8e-4 -0.48304,-0.36672 -0.96856,-0.81275 z m -35.15365,-0.99988 c -0.72613,-0.78281 -1.20913,-1.5402 -1.07338,-1.68312 0.13576,-0.14292 0.87597,0.40248 1.64495,1.212 0.76897,0.8095 1.25199,1.5669 1.07338,1.68313 -0.17861,0.11616 -0.91885,-0.4292 -1.64495,-1.21201 z m 63.02483,-1.55752 c -1.07486,-1.14782 -1.78534,-2.20817 -1.71565,-2.56057 0.089,-0.45045 0.57951,-0.10964 1.95349,1.35765 1.07487,1.14781 1.78533,2.20816 1.71565,2.56056 -0.0891,0.45045 -0.57951,0.10964 -1.95349,-1.35764 z m -62.26122,0.19605 c -1.8254,-1.96795 -1.57267,-2.70491 0.27351,-0.79752 0.84924,0.87741 1.54409,1.72399 1.54409,1.88131 0,0.59273 -0.58734,0.24253 -1.8176,-1.08379 z m 7.73659,-0.88187 c -1.18846,-1.27004 -1.80144,-2.22715 -1.80144,-2.81283 0,-0.80795 0.17242,-0.70625 1.91783,1.13116 1.38161,1.45445 1.88528,2.2409 1.80143,2.81284 -0.10449,0.71273 -0.30062,0.59703 -1.91782,-1.13117 z m -7.0897,-0.60548 c -1.78657,-1.92604 -1.29537,-2.76521 0.5239,-0.89508 1.234,1.26848 1.71106,2.30735 1.05957,2.30735 -0.15043,0 -0.86298,-0.63553 -1.58347,-1.41227 z m 61.61433,-0.87601 c -1.07486,-1.14782 -1.78534,-2.20817 -1.71565,-2.56056 0.089,-0.45048 0.57951,-0.10966 1.95349,1.35764 1.07487,1.1478 1.78533,2.20815 1.71565,2.56056 -0.0891,0.45045 -0.57951,0.10964 -1.95349,-1.35764 z m -54.52463,-0.68581 c -1.18846,-1.27004 -1.80144,-2.22716 -1.80144,-2.81283 0,-0.80797 0.17242,-0.70626 1.91783,1.13114 1.38161,1.45446 1.88528,2.2409 1.80143,2.81284 -0.10449,0.71273 -0.30062,0.59704 -1.91782,-1.13115 z m -6.21069,0.0116 c -0.85418,-0.83879 -1.35412,-1.59019 -1.17998,-1.77352 0.17416,-0.18332 0.92698,0.35206 1.77685,1.26368 1.879,2.01548 1.37492,2.44606 -0.59687,0.50984 z m 31.93558,-1.47221 c -1.8777,-1.99441 -2.68339,-3.51216 -1.86442,-3.51216 0.56744,0 3.43191,3.48559 3.78482,4.60554 0.20346,0.64568 0.33491,1.17395 0.29209,1.17395 -0.0429,0 -1.03844,-1.0203 -2.21249,-2.26733 z m 28.83288,0.0156 c -1.18847,-1.27004 -1.80144,-2.22715 -1.80144,-2.81285 0,-0.80795 0.17242,-0.70625 1.91783,1.13117 1.38162,1.45446 1.88528,2.24089 1.80142,2.81284 -0.10448,0.71274 -0.30061,0.59704 -1.91781,-1.13116 z m -60.05322,-0.0103 c -0.89822,-0.96347 -1.33031,-1.69742 -1.16501,-1.97894 0.18498,-0.31511 0.68499,0.005 1.69043,1.08396 0.89821,0.96347 1.3303,1.69741 1.16503,1.97892 -0.18501,0.31514 -0.68501,-0.005 -1.69045,-1.08394 z m 4.08618,-2.47399 c -2.1388,-2.13899 -3.14475,-3.39191 -3.01315,-3.7529 0.10859,-0.29808 0.3216,-0.54194 0.47323,-0.54194 0.15163,0 1.55974,1.3588 3.12913,3.01957 2.03172,2.14998 2.82004,3.23072 2.73747,3.75288 -0.0964,0.60994 -0.65626,0.19302 -3.32668,-2.47761 z m -3.42557,1.00159 c -1.11983,-1.20117 -1.34105,-1.63053 -1.01627,-1.97243 0.32477,-0.3419 0.69868,-0.14557 1.7177,0.90192 0.71643,0.73644 1.30258,1.54023 1.30258,1.78618 0,0.977 -0.63859,0.74891 -2.00401,-0.71567 z m 59.36285,-0.71653 c -1.23973,-1.32484 -1.79386,-2.19335 -1.71563,-2.68901 0.10206,-0.647 0.32832,-0.53394 1.94561,0.97234 1.49776,1.39493 1.80932,1.88325 1.71566,2.68901 -0.11354,0.97712 -0.12831,0.96974 -1.94564,-0.97234 z m -29.01163,-0.19887 c -1.21827,-1.30554 -1.61298,-1.97175 -1.44355,-2.43652 0.19926,-0.5466 0.4601,-0.40078 1.79302,1.0024 1.09275,1.15037 1.52503,1.87999 1.44355,2.43653 -0.10522,0.71846 -0.27668,0.62257 -1.79302,-1.00241 z m -29.48705,-0.3418 c -0.69413,-0.74834 -1.26207,-1.54736 -1.26207,-1.7756 0,-0.94669 0.65524,-0.69885 2.01858,0.76354 1.1809,1.26668 1.35981,1.62639 0.97581,1.96188 -0.36941,0.32272 -0.74081,0.11911 -1.73232,-0.94982 z m 2.93067,-1.61184 -2.8263,-2.99082 0.94665,-1.8826 0.94666,-1.8826 1.97299,-0.003 1.97301,-0.003 v 4.87647 c 0,2.68204 -0.042,4.87647 -0.0934,4.87647 -0.0514,0 -1.36519,-1.34587 -2.91964,-2.99081 z m 55.59777,-0.34449 c -1.18847,-1.27003 -1.80144,-2.22716 -1.80144,-2.81284 0,-0.80795 0.17242,-0.70626 1.91783,1.13115 1.38162,1.45446 1.88528,2.24091 1.80142,2.81284 -0.10448,0.71272 -0.30061,0.59703 -1.91781,-1.13115 z m -71.08501,-13.43009 c -0.62436,-0.67813 -1.07764,-1.41477 -1.00729,-1.63696 0.0703,-0.22221 0.81467,0.33263 1.65404,1.23295 0.92608,0.99337 1.32212,1.63699 1.00728,1.63699 -0.28535,0 -1.02967,-0.55485 -1.65403,-1.23298 z m 14.38267,-2.92104 v -4.15402 h -4.013 c -3.89528,0 -4.04374,-0.0293 -5.05994,-0.99337 l -1.04692,-0.99333 0.83062,0.99333 0.8306,0.99337 h -0.99535 c -1.33723,0 -5.98688,-4.75335 -5.98688,-6.1204 0,-0.82634 0.17721,-0.72262 2.14457,1.25514 l 2.14456,2.1559 -2.14456,-2.35754 -2.14457,-2.35754 v -2.2479 -2.2479 h 1.88722 1.88722 l 0.0292,2.07701 c 0.016,1.14236 0.005,2.93038 -0.0249,3.97341 l -0.0541,1.8964 h 5.85813 5.85809 v -3.97341 -3.97341 h 2.05879 2.05878 v 10.11412 10.11416 h -2.05878 -2.05879 z m -6.51948,-4.62828 c 0,-0.0623 -0.50182,-0.59045 -1.11516,-1.17395 l -1.11518,-1.06094 1.00779,1.17395 c 0.93943,1.0943 1.22255,1.34001 1.22255,1.06094 z m 15.90241,8.22489 c -0.34326,-0.94171 0.20318,-1.0707 0.99678,-0.23527 l 0.75298,0.79268 h -0.77328 c -0.42531,0 -0.86472,-0.25084 -0.97648,-0.55741 z m 1.60224,-0.70145 c -0.63747,-0.69236 -1.04849,-1.37524 -0.91337,-1.51747 0.13512,-0.14225 0.89434,0.42424 1.68716,1.25885 0.90198,0.94954 1.24382,1.51748 0.91336,1.51748 -0.29047,0 -1.04969,-0.56649 -1.68715,-1.25886 z m 16.31628,0.0848 -0.64009,-1.17397 1.08081,1.06094 c 1.21403,1.19171 1.26142,1.28699 0.6401,1.28699 -0.24241,0 -0.72877,-0.52828 -1.08082,-1.17396 z m 0.44674,-0.54184 c -0.86004,-0.94367 -2.06594,-2.69107 -2.67979,-3.8831 l -1.11611,-2.16731 3.6363,3.78634 c 1.99997,2.08251 3.63629,3.82989 3.63629,3.88311 0,0.0531 -0.43042,0.0967 -0.9565,0.0967 -0.69287,0 -1.38748,-0.47289 -2.52019,-1.71579 z m -0.16558,-2.70914 c -2.28069,-2.43371 -4.57457,-5.23767 -5.09755,-6.23102 -0.94792,-1.80053 -0.94042,-1.79552 2.43137,1.62549 l 3.38221,3.43157 -3.76961,-4.15401 c -2.07329,-2.28472 -4.54167,-4.87996 -5.48528,-5.76722 l -1.71564,-1.61318 1.44568,1.61335 c 1.07893,1.204 1.36425,1.75075 1.12464,2.155 -0.26436,0.44601 -0.57176,0.27859 -1.74047,-0.94792 l -1.41943,-1.4896 1.15261,-2.22164 1.15261,-2.22164 1.52293,0.099 1.52291,0.099 3.03877,5.96011 c 6.19972,12.15983 7.1403,14.08756 6.87372,14.08756 -0.15004,0 -2.1388,-1.99122 -4.41947,-4.42493 z m 9.81863,3.64652 c 0,-0.76917 0.0101,-0.77031 0.77205,-0.0942 0.42462,0.37634 0.83637,0.72664 0.91501,0.77842 0.0787,0.0519 -0.26879,0.0942 -0.77204,0.0942 -0.7082,0 -0.91502,-0.17595 -0.91502,-0.77842 z m 1.2381,-0.6264 c -0.71669,-0.77267 -1.24985,-1.67388 -1.18481,-2.00273 0.0878,-0.44436 0.59984,-0.0837 1.99378,1.40483 1.49263,1.5939 1.73451,2.00272 1.1848,2.00272 -0.37987,0 -1.27706,-0.63217 -1.99377,-1.40482 z m 5.96764,1.02228 c 0,-0.21038 0.15442,-0.28208 0.34313,-0.15929 0.18873,0.12282 0.34314,0.29492 0.34314,0.38253 0,0.0877 -0.15441,0.1593 -0.34314,0.1593 -0.18871,0 -0.34313,-0.17215 -0.34313,-0.38254 z m 0.89033,-0.6654 c -0.52454,-0.57637 -0.90084,-1.31626 -0.83625,-1.64423 0.089,-0.4517 0.48834,-0.19765 1.64724,1.04796 1.26491,1.35956 1.40968,1.64421 0.83624,1.64421 -0.38143,0 -1.12268,-0.47159 -1.64723,-1.04794 z m 11.25242,0.41581 c -0.20626,-0.34767 -0.95716,-1.60743 -1.66866,-2.79944 l -1.29365,-2.16733 2.68923,2.70914 c 2.16347,2.17951 1.98723,1.93235 -0.90157,-1.26426 -3.11522,-3.44718 -3.75361,-3.98774 -4.82019,-4.08153 -0.96605,-0.0849 -1.62502,-0.52987 -3.07645,-2.07701 l -1.84705,-1.96889 h 5.55623 5.55625 l 0.58797,-0.94467 c 0.52706,-0.84681 0.53553,-1.04327 0.0817,-1.89641 -0.47484,-0.8926 -0.68265,-0.95827 -3.34478,-1.05698 -2.73443,-0.10145 -2.82519,-0.0791 -2.4757,0.60839 0.55431,1.09034 0.50624,1.12236 -1.68552,1.12236 h -2.04833 l -1.72611,-2.69284 c -0.94936,-1.48105 -1.72611,-2.78144 -1.72611,-2.88976 0,-0.10837 2.89516,-0.19424 6.43371,-0.19098 6.03269,0.005 6.51861,0.0566 7.79607,0.81826 2.02716,1.20867 2.92702,2.83265 2.92547,5.27965 -8e-4,1.38155 -0.21763,2.39711 -0.68314,3.20086 -0.78284,1.35167 -2.56238,2.61221 -3.69049,2.61419 -0.42463,7.4e-4 -0.77205,0.0705 -0.77205,0.15542 0,0.0846 0.74209,1.34452 1.64909,2.79947 0.90698,1.45495 2.00044,3.25491 2.42988,3.99993 l 0.78083,1.35456 h -2.17579 c -1.70058,0 -2.25771,-0.13808 -2.55083,-0.63213 z m -10.37106,-1.65255 c -1.25904,-1.3445 -1.79508,-2.18956 -1.71565,-2.70468 0.0977,-0.63393 0.39659,-0.41869 1.94193,1.39869 2.44752,2.8784 2.25996,3.961 -0.22628,1.30599 z m -60.05124,-0.36482 c -1.07487,-1.14782 -1.78533,-2.20818 -1.71566,-2.56058 0.0891,-0.45045 0.57952,-0.10965 1.9535,1.35763 1.07485,1.14783 1.78533,2.20819 1.71565,2.56058 -0.089,0.45046 -0.57951,0.10965 -1.95349,-1.35763 z m 25.85371,0.12102 c -0.73036,-0.78738 -1.25073,-1.51289 -1.15636,-1.61222 0.0944,-0.0993 0.76914,0.46361 1.49949,1.25099 0.73036,0.78739 1.25074,1.5129 1.15637,1.61223 -0.0944,0.0993 -0.76913,-0.46361 -1.4995,-1.251 z m 27.02154,-0.44556 c -1.18848,-1.27004 -1.80144,-2.22716 -1.80144,-2.81284 0,-0.80796 0.17243,-0.70625 1.91783,1.13116 1.38162,1.45445 1.88528,2.2409 1.80143,2.81285 -0.10449,0.71272 -0.30063,0.59702 -1.91782,-1.13117 z m -26.31855,-0.98139 c -0.71267,-0.76832 -1.23795,-1.57949 -1.16731,-1.80261 0.0705,-0.22313 0.79751,0.31194 1.61523,1.18907 0.81771,0.87712 1.343,1.6883 1.1673,1.80261 -0.17571,0.11425 -0.90256,-0.42076 -1.61522,-1.18907 z m 33.499,-0.79416 c -1.22448,-1.40145 -1.79011,-2.33823 -1.71566,-2.84141 0.0934,-0.63089 0.40226,-0.40154 1.93591,1.43722 1.07781,1.29224 1.78013,2.45543 1.71565,2.84141 -0.0846,0.50604 -0.52143,0.18169 -1.9359,-1.43722 z m -60.02257,-0.0613 c -1.0973,-1.22388 -1.80143,-2.33382 -1.80143,-2.83968 0,-0.72467 0.24424,-0.57331 1.91782,1.18851 1.40857,1.48281 1.88693,2.23685 1.80144,2.83966 -0.10534,0.74269 -0.28776,0.62963 -1.91783,-1.18849 z m 52.84212,-0.33073 c -1.18848,-1.27003 -1.80144,-2.22716 -1.80144,-2.81283 0,-0.80796 0.17243,-0.70627 1.91783,1.13115 1.38162,1.45446 1.88528,2.2409 1.80143,2.81284 -0.10449,0.71273 -0.30063,0.59703 -1.91782,-1.13116 z m -25.57988,-0.20233 c -1.19271,-1.28585 -1.61769,-2.24185 -0.9966,-2.24185 0.15042,0 0.87638,0.64994 1.61323,1.44433 0.89315,0.96289 1.22535,1.56474 0.9966,1.80555 -0.22876,0.24083 -0.76651,-0.0951 -1.61323,-1.00803 z m -27.25739,-1.71815 c -0.98812,-1.18204 -1.79876,-2.47252 -1.80144,-2.8677 -0.004,-0.55988 0.4186,-0.27275 1.91298,1.3004 1.4351,1.51075 1.88854,2.23258 1.80144,2.86771 -0.10546,0.76918 -0.28487,0.64724 -1.91298,-1.30041 z m 60.043,0.11436 c -1.18845,-1.27001 -1.80143,-2.22714 -1.80143,-2.81282 0,-0.80795 0.17242,-0.70627 1.91783,1.13114 1.38161,1.45446 1.88528,2.24091 1.80142,2.81284 -0.10449,0.71273 -0.30061,0.59704 -1.91782,-1.13116 z m -32.13823,0.11695 c -1.78657,-1.92603 -1.29536,-2.76521 0.52391,-0.8951 1.23399,1.26851 1.71106,2.30737 1.05956,2.30737 -0.15042,0 -0.86299,-0.63552 -1.58347,-1.41227 z m 24.9325,-0.47807 c -1.3549,-1.44796 -1.80144,-2.19 -1.80144,-2.99355 v -1.06838 l 1.91523,2.0162 c 1.53409,1.61496 1.89258,2.21067 1.80143,2.99355 -0.11272,0.96843 -0.13027,0.95975 -1.91522,-0.94782 z M 141.0173,124.1335 c -1.02769,-1.00913 -1.37925,-1.59061 -1.18387,-1.95813 0.21837,-0.41077 0.58456,-0.19377 1.70969,1.0131 1.93325,2.07366 1.47049,2.90535 -0.52582,0.94503 z m -28.87333,-0.89879 c -1.17715,-1.11417 -1.74124,-1.92976 -1.74124,-2.51763 0,-0.47827 0.12066,-0.86958 0.26809,-0.86958 0.14744,0 1.13994,0.93465 2.20553,2.07702 1.59143,1.70608 1.85452,2.1557 1.47314,2.51762 -0.37445,0.35534 -0.80124,0.12167 -2.20552,-1.20743 z m 60.06774,-0.26837 c -0.96863,-1.03251 -1.76113,-2.07535 -1.76113,-2.31744 0,-0.89923 0.93085,-0.38689 2.64576,1.45622 1.40845,1.51374 1.67489,1.98135 1.32049,2.31746 -0.3484,0.33038 -0.8232,0.0169 -2.20512,-1.45624 z m -7.16543,-0.31342 c -1.18848,-1.27004 -1.80144,-2.22715 -1.80144,-2.81285 0,-0.80795 0.17243,-0.70624 1.91783,1.13118 1.38162,1.45445 1.88528,2.24087 1.80143,2.81283 -0.10449,0.71272 -0.30063,0.59704 -1.91782,-1.13116 z m -23.33825,-0.0102 c -0.8982,-0.96344 -1.33029,-1.69741 -1.16501,-1.97892 0.18499,-0.31512 0.68501,0.005 1.69043,1.08395 0.89821,0.96347 1.33029,1.69742 1.16503,1.97894 -0.18502,0.31512 -0.685,-0.005 -1.69045,-1.08397 z m 0.66062,-1.47238 c -1.11983,-1.20119 -1.34105,-1.63054 -1.01627,-1.97244 0.32477,-0.3419 0.69868,-0.14557 1.71771,0.90193 0.7164,0.73644 1.30257,1.54023 1.30257,1.78619 0,0.97696 -0.6386,0.74891 -2.00401,-0.71568 z m 22.66591,-0.70225 -1.78972,-1.90776 v -3.14931 -3.1493 h 1.88722 1.88721 v 5.05705 c 0,2.7814 -0.0438,5.05708 -0.0975,5.05708 -0.0537,0 -0.90288,-0.85849 -1.88722,-1.90776 z m -21.82736,-0.58245 c -0.85069,-0.9171 -1.25408,-1.63621 -1.12167,-1.9995 0.30684,-0.84173 0.64353,-0.70938 2.04832,0.80509 1.09639,1.18199 1.21256,1.45938 0.8374,1.99949 -0.39872,0.57403 -0.54804,0.50588 -1.76405,-0.80508 z M 92.260305,102.6853 C 90.34916,100.59648 88.7855,98.689198 88.7855,98.446862 c 0,-0.242318 1.7757,1.423414 3.946003,3.701658 2.170304,2.27823 3.946005,4.18551 3.946005,4.23843 0,0.0529 -0.21204,0.0962 -0.471199,0.0962 -0.259159,0 -2.034858,-1.70904 -3.946004,-3.79786 z m 0.997963,-1.42711 c -2.724947,-2.873723 -4.839959,-5.345482 -4.700014,-5.492804 0.139938,-0.147313 2.602419,2.203914 5.472177,5.224954 2.869758,3.02105 4.98476,5.49281 4.700011,5.49281 -0.284749,0 -2.747233,-2.35123 -5.472174,-5.22496 z m 4.963327,3.05764 c -2.6522,-2.82145 -1.777571,-2.82755 0.977762,-0.007 1.203063,1.23162 1.884503,2.16344 1.584973,2.16734 -0.289,0.004 -1.442219,-0.96848 -2.562735,-2.16051 z m 2.230355,0.18062 c -2.447327,-2.60876 -1.451318,-2.62191 1.23118,-0.0163 1.58862,1.54307 1.87718,1.97394 1.33057,1.9867 -0.40476,0.01 -1.48096,-0.81834 -2.56175,-1.97042 z m 2.0705,0.016 c -1.49266,-1.5939 -1.73451,-2.00271 -1.18482,-2.00271 0.88719,0 3.33381,2.62284 3.17858,3.40755 -0.0879,0.44436 -0.59984,0.0837 -1.99376,-1.40484 z m 6.92233,0.42184 c -0.89608,-0.96116 -1.44396,-1.88163 -1.44396,-2.42588 0,-0.79707 0.17211,-0.6981 1.88721,1.08499 1.03798,1.07911 1.88722,2.17076 1.88722,2.42587 0,0.87562 -0.88815,0.46212 -2.33047,-1.08498 z m 8.84995,-2.60517 -2.47809,-4.154031 h -1.91614 c -1.60747,0 -2.08497,-0.160002 -2.96429,-0.993344 l -1.04818,-0.993344 0.94361,1.103412 c 0.80476,0.941059 0.94361,1.417625 0.94361,3.238637 v 2.13522 l -1.88722,-1.96203 -1.88721,-1.962032 v -2.269917 -2.26996 h 6.12315 c 5.49626,0 6.18132,-0.06765 6.69107,-0.660573 0.74499,-0.866615 0.72073,-1.971581 -0.0596,-2.715018 -0.55392,-0.527731 -1.80979,-0.597816 -10.71203,-0.597816 H 99.958822 l -1.897863,-1.896395 -1.897844,-1.896411 1.702592,1.896411 c 1.58612,1.766644 1.644795,1.895882 0.857678,1.888958 -0.982126,-0.0089 -4.427391,-3.013194 -3.990483,-3.48004 0.157166,-0.16792 6.268168,-0.305329 13.580018,-0.305329 h 13.29425 l 1.26074,1.012029 c 1.62879,1.307465 2.36859,2.852948 2.36859,4.948089 0,2.782099 -1.67993,5.195429 -3.9491,5.673185 -1.18839,0.250194 -1.17129,0.303448 1.39333,4.343659 1.10591,1.74222 2.12467,3.37085 2.26393,3.61919 0.1918,0.34209 -0.28308,0.45153 -1.95935,0.45153 h -2.21251 z m 9.60767,3.80414 c 0,-0.19244 0.2316,-0.25631 0.51468,-0.14196 0.28309,0.11438 0.51471,0.27181 0.51471,0.34988 0,0.078 -0.23162,0.14197 -0.51471,0.14197 -0.28308,0 -0.51468,-0.15745 -0.51468,-0.34989 z m 0.89032,-0.69807 c -0.52454,-0.57635 -0.90085,-1.31625 -0.83624,-1.6442 0.0891,-0.45171 0.48833,-0.19765 1.64723,1.04794 1.26491,1.35957 1.40968,1.64422 0.83623,1.64422 -0.38143,0 -1.12267,-0.47157 -1.64722,-1.04796 z m 1.25423,-1.0771 c -1.46097,-1.43732 -2.14455,-2.3821 -2.14455,-2.96398 0,-0.72982 0.39955,-0.43599 2.74503,2.01867 1.50978,1.58003 2.74505,2.91726 2.74505,2.97159 0,0.0544 -0.27022,0.0953 -0.60048,0.0912 -0.33027,-0.004 -1.56553,-0.95705 -2.74505,-2.11746 z m 1.02263,-1.22301 c -2.26856,-2.39811 -3.16718,-3.59941 -3.16718,-4.233885 0,-0.795722 0.21912,-0.65721 2.15378,1.361355 1.68172,1.75462 2.37999,2.24719 3.18569,2.24719 0.7961,0 1.45775,0.45396 2.89565,1.98671 1.69649,1.80837 1.7888,1.9867 1.02846,1.9867 -0.53815,0 -1.50986,-0.67465 -2.73146,-1.89639 -1.75331,-1.75358 -1.79288,-1.77464 -0.52548,-0.27969 0.75387,0.88918 1.52507,1.74009 1.7138,1.89087 0.1887,0.15077 -0.046,0.27664 -0.52148,0.27966 -0.63756,0.004 -1.69632,-0.87366 -4.03178,-3.34252 z m 5.41108,1.36137 c -1.68972,-1.80116 -1.78627,-1.98671 -1.03402,-1.98671 0.45786,0 1.37509,0.5262 2.04634,1.17395 l 1.21659,1.17397 -1.00708,-1.17397 -1.0071,-1.17395 h 3.4955 3.49551 v 1.98671 1.9867 h -1.47546 c -0.8115,0 -1.6834,-0.2032 -1.93757,-0.45152 -0.36967,-0.36122 -0.41365,-0.36122 -0.21994,0 0.16901,0.31512 -0.0526,0.45152 -0.73342,0.45152 -0.72786,0 -1.44883,-0.50449 -2.83935,-1.9867 z m 5.83322,1.4891 c 0,-0.0751 -0.27022,-0.35948 -0.60048,-0.63213 -0.54422,-0.44932 -0.55637,-0.43654 -0.12956,0.13637 0.44826,0.6017 0.73004,0.79304 0.73004,0.49576 z m 3.54971,-0.0597 c -0.34327,-0.94171 0.20319,-1.07069 0.99677,-0.23527 l 0.75297,0.79267 h -0.77328 c -0.4253,0 -0.86471,-0.25081 -0.97646,-0.5574 z m 1.60222,-0.70145 c -0.63746,-0.69237 -1.04846,-1.37524 -0.91336,-1.51748 0.13511,-0.14224 0.89434,0.42425 1.68715,1.25886 0.90199,0.94954 1.24382,1.51747 0.91337,1.51747 -0.29046,0 -1.04969,-0.56649 -1.68716,-1.25885 z m 16.31628,0.0847 -0.6401,-1.17396 1.08082,1.06094 c 1.21404,1.19171 1.26143,1.28699 0.64009,1.28699 -0.24238,0 -0.72874,-0.52829 -1.08081,-1.17397 z m 0.44674,-0.54182 c -0.86003,-0.94369 -2.06594,-2.69109 -2.67979,-3.88311 l -1.11609,-2.167316 3.63629,3.786356 c 1.99996,2.08249 3.6363,3.82989 3.6363,3.8831 0,0.0531 -0.43043,0.0967 -0.95651,0.0967 -0.69287,0 -1.38749,-0.47289 -2.5202,-1.71578 z m -0.16559,-2.70916 c -2.28067,-2.433702 -4.57456,-5.237668 -5.09754,-6.23102 -0.94791,-1.800528 -0.94043,-1.795503 2.43137,1.625481 l 3.38223,3.431589 -3.76963,-4.154019 c -2.07329,-2.28471 -4.54166,-4.879967 -5.48526,-5.767211 l -1.71566,-1.61319 1.4457,1.613341 c 1.07891,1.204017 1.36425,1.750765 1.12464,2.155005 -0.26435,0.446015 -0.57177,0.278593 -1.74049,-0.947914 l -1.41942,-1.489593 1.15261,-2.221652 1.15262,-2.221636 1.52291,0.09903 1.52293,0.09902 3.03877,5.960119 c 6.1997,12.15984 7.14029,14.08756 6.87371,14.08756 -0.15004,0 -2.13881,-1.99122 -4.41949,-4.42493 z m 7.35179,4.14672 c 0.32619,-0.11451 0.33959,-0.27646 0.053,-0.64007 -0.21109,-0.26775 -0.33334,-0.83082 -0.27168,-1.25125 0.10148,-0.69195 0.24079,-0.62531 1.46877,0.70284 l 1.35665,1.46729 -1.5217,-0.0628 c -0.83695,-0.0345 -1.32518,-0.13173 -1.08497,-0.21603 z m 1.51152,-1.62953 c -1.17228,-1.24961 -1.7897,-2.21148 -1.7897,-2.78814 0,-0.79255 0.20539,-0.66642 2.05878,1.26432 1.80357,1.87884 2.61339,3.43158 1.78971,3.43158 -0.148,0 -1.07444,-0.85849 -2.05879,-1.90776 z m 11.93552,1.12933 c 0,-0.76918 0.0101,-0.7703 0.77204,-0.0942 0.42463,0.37636 0.83638,0.72664 0.91501,0.77842 0.0787,0.0518 -0.26878,0.0942 -0.77204,0.0942 -0.7082,0 -0.91501,-0.17595 -0.91501,-0.77843 z m 1.23811,-0.6264 c -0.7167,-0.77264 -1.24986,-1.67388 -1.18481,-2.00271 0.0878,-0.44438 0.59983,-0.0837 1.99376,1.40483 1.49265,1.5939 1.7345,2.00271 1.18482,2.00271 -0.37988,0 -1.27708,-0.63218 -1.99377,-1.40483 z m 5.96762,0.81877 c 0,-0.47999 0.0932,-0.50467 0.51471,-0.13638 0.28307,0.24733 0.5147,0.51105 0.5147,0.58606 0,0.0751 -0.23163,0.13638 -0.5147,0.13638 -0.28308,0 -0.51471,-0.26374 -0.51471,-0.58606 z m 1.06456,-0.64002 c -0.62085,-0.67434 -1.07578,-1.49484 -1.01093,-1.82332 0.0884,-0.44782 0.54398,-0.14105 1.82068,1.22608 1.37873,1.47633 1.57112,1.82332 1.01094,1.82332 -0.3805,0 -1.19982,-0.55175 -1.82069,-1.22608 z m 0.70375,-1.42343 c -1.07487,-1.14782 -1.78532,-2.20817 -1.71566,-2.56057 0.089,-0.45045 0.5795,-0.10966 1.9535,1.35763 1.07486,1.14783 1.78532,2.20819 1.71565,2.56056 -0.089,0.45047 -0.57951,0.10966 -1.95349,-1.35762 z m -101.625435,0.7037 c -0.657157,-0.47419 -1.486104,-1.40886 -1.842108,-2.07701 -0.570893,-1.07144 -0.419048,-0.98181 1.286737,0.75957 1.063717,1.08589 1.934027,2.02055 1.934027,2.07701 0,0.2013 -0.199145,0.0915 -1.378656,-0.75957 z m 56.451125,-0.58267 c -0.73036,-0.78739 -1.25075,-1.51289 -1.15638,-1.61222 0.0944,-0.0993 0.76914,0.46363 1.4995,1.25101 0.73037,0.78738 1.25072,1.51288 1.15637,1.61221 -0.0944,0.0994 -0.76915,-0.46361 -1.49949,-1.251 z m 38.0017,-0.44557 c -1.18846,-1.27003 -1.80143,-2.22714 -1.80143,-2.81283 0,-0.807964 0.17241,-0.706254 1.91783,1.13116 1.38161,1.45445 1.88528,2.24089 1.80142,2.81284 -0.10449,0.71272 -0.30062,0.59703 -1.91782,-1.13117 z m -76.86124,-0.36111 c -1.35491,-1.44798 -1.80144,-2.19001 -1.80144,-2.99356 v -1.068383 l 1.91522,2.016203 c 1.53409,1.61496 1.89258,2.21068 1.80144,2.99357 -0.1127,0.96842 -0.13027,0.95974 -1.91522,-0.94783 z m 63.27713,-0.57886 c -1.43826,-1.5304 -1.98415,-2.37446 -1.93502,-2.991973 0.0377,-0.473086 0.0514,-2.770124 0.0304,-5.104501 l -0.038,-4.244323 h -3.77445 -3.77443 v -1.986705 -1.986699 h 9.60766 9.60765 v 1.986699 1.986705 h -3.76733 -3.76733 l -0.093,7.236291 -0.093,7.236306 z m -69.74249,0.62627 c -0.6474,-0.75308 -0.64577,-0.75823 0.20066,-0.63213 0.47654,0.071 0.90391,0.40627 0.96783,0.75927 0.15469,0.85442 -0.37414,0.79688 -1.16849,-0.12717 z m 46.02786,-0.66755 c -0.71266,-0.76832 -1.23794,-1.57949 -1.16729,-1.80262 0.0707,-0.22313 0.7975,0.31196 1.61523,1.18908 0.81773,0.87713 1.34301,1.68829 1.1673,1.80261 -0.17571,0.11438 -0.90256,-0.42076 -1.61524,-1.18907 z m 44.50448,-0.85529 c -1.09731,-1.22389 -1.80144,-2.333857 -1.80144,-2.839684 0,-0.724685 0.24425,-0.573333 1.91783,1.188494 1.40856,1.48281 1.88693,2.23685 1.80144,2.83966 -0.10533,0.7427 -0.28777,0.62964 -1.91783,-1.18847 z m -7.20574,-0.33074 c -1.18846,-1.27004 -1.80143,-2.227176 -1.80143,-2.812844 0,-0.80796 0.17241,-0.706257 1.91783,1.13114 1.38161,1.454474 1.88528,2.240914 1.80142,2.812874 -0.10449,0.71271 -0.30062,0.59703 -1.91782,-1.13117 z m -36.56005,-0.20234 c -1.19271,-1.285844 -1.6177,-2.241862 -0.9966,-2.241862 0.15042,0 0.87636,0.64996 1.61323,1.444352 0.89315,0.96288 1.22534,1.56473 0.99659,1.80556 -0.22874,0.2408 -0.76648,-0.0952 -1.61322,-1.00805 z m -20.39961,-1.603769 c -1.18848,-1.270026 -1.80144,-2.227161 -1.80144,-2.812832 0,-0.807948 0.17241,-0.706249 1.91783,1.131152 1.38161,1.45446 1.88528,2.240919 1.80141,2.812849 -0.10449,0.71272 -0.30061,0.59703 -1.9178,-1.131169 z m 64.1654,-0.269639 c -1.076,-1.265182 -1.80144,-2.455196 -1.80144,-2.955154 0,-0.734381 0.23487,-0.589785 1.91523,1.179161 1.50542,1.584763 1.89089,2.217107 1.80143,2.955161 -0.10871,0.89681 -0.19468,0.84385 -1.91522,-1.179168 z m -43.11842,0.386594 c -1.78655,-1.926043 -1.29537,-2.765201 0.52392,-0.895087 1.23398,1.268481 1.71104,2.307361 1.05956,2.307361 -0.15043,0 -0.86299,-0.63553 -1.58348,-1.412274 z m 35.91268,-0.478065 c -1.3549,-1.447978 -1.80143,-2.190005 -1.80143,-2.993554 V 95.11259 l 1.91523,2.016188 c 1.53409,1.614969 1.89258,2.210691 1.80143,2.993552 -0.1127,0.96844 -0.13028,0.95977 -1.91523,-0.947809 z m -35.00916,-1.048056 c -1.02767,-1.009148 -1.37922,-1.590627 -1.18387,-1.958121 0.21838,-0.410784 0.58456,-0.193797 1.70969,1.013074 1.93324,2.073671 1.4705,2.905362 -0.52582,0.945047 z m -21.9505,-0.759456 c -2.95951,-3.160482 -3.05062,-3.113334 6.09056,-3.151731 l 7.892,-0.03312 v 1.996484 1.996475 h -5.38984 -5.38984 l -1.38654,-1.354565 -1.38653,-1.354579 1.18203,1.354579 c 0.65011,0.745012 1.00865,1.354565 0.79673,1.354565 -0.21189,0 -0.43518,0.251024 -0.4962,0.557848 -0.0777,0.389857 -0.6534,-0.02149 -1.91237,-1.365919 z m 64.16245,-0.367896 c -0.98916,-1.054403 -1.79849,-2.115178 -1.79849,-2.357267 0,-0.571488 0.7643,-0.565078 1.35425,0.01154 0.36967,0.361219 0.41365,0.361219 0.21995,0 -0.1904,-0.354998 1.30264,-0.451529 6.98382,-0.451529 h 7.22599 v 1.986714 1.986696 h -4.22051 c -2.90119,0 -4.36495,-0.141132 -4.68259,-0.451516 -0.36969,-0.361222 -0.41366,-0.361222 -0.21994,0 0.17801,0.331938 -0.16459,0.451516 -1.29358,0.451516 -0.84467,0 -1.58856,0.166762 -1.65309,0.370574 -0.0647,0.203802 -0.92666,-0.492144 -1.91581,-1.546545 z m 1.63282,-0.405275 c 0,-0.07501 -0.27021,-0.359464 -0.60047,-0.632135 -0.54423,-0.4493 -0.55637,-0.436535 -0.12956,0.136382 0.44827,0.601697 0.73003,0.793044 0.73003,0.495753 z M 90.74776,96.448809 c -1.079247,-1.148112 -1.96226,-2.321043 -1.96226,-2.606494 0,-0.665436 3.663553,3.124938 3.886039,4.020569 0.092,0.370381 0.138302,0.673414 0.102884,0.673414 -0.03536,0 -0.947417,-0.939371 -2.026655,-2.087489 z m 95.91574,0.197047 c -1.18846,-1.270032 -1.80143,-2.227153 -1.80143,-2.812845 0,-0.807944 0.17241,-0.706244 1.91783,1.131176 1.38161,1.454445 1.88528,2.240888 1.80142,2.812839 -0.10449,0.712723 -0.30062,0.597038 -1.91782,-1.13117 z m -34.31843,-0.0102 c -0.8982,-0.963445 -1.33029,-1.697398 -1.16502,-1.97892 0.18501,-0.315131 0.68501,0.0048 1.69045,1.083956 0.89821,0.963468 1.33031,1.697415 1.16503,1.97894 -0.18501,0.315116 -0.68501,-0.0046 -1.69046,-1.083976 z m 0.66063,-1.472372 c -1.11984,-1.20118 -1.34106,-1.630546 -1.01628,-1.972451 0.32478,-0.341893 0.6987,-0.145566 1.71772,0.901939 0.71642,0.736444 1.30256,1.540221 1.30256,1.786176 0,0.976976 -0.6386,0.748915 -2.004,-0.715664 z m 33.64607,-0.702259 -1.7897,-1.907755 v -3.149313 -3.149298 h 1.88721 1.88722 v 5.057067 c 0,2.781381 -0.0439,5.057064 -0.0975,5.057064 -0.0537,0 -0.90288,-0.858488 -1.88723,-1.907762 z M 90.660531,94.089139 c -1.19913,-1.150368 -1.597216,-1.749518 -1.344602,-2.023699 0.254035,-0.275722 0.791798,0.07486 1.8409,1.200186 2.047593,2.196326 1.63989,2.872866 -0.496298,0.823513 z m 63.183719,-0.210601 c -0.85069,-0.917114 -1.25409,-1.636215 -1.12166,-1.999505 0.30683,-0.84174 0.64352,-0.709396 2.04832,0.805065 1.09638,1.182008 1.21255,1.459396 0.83739,1.999513 -0.39872,0.574017 -0.54804,0.505877 -1.76405,-0.805073 z M 91.185181,92.573601 c -1.006924,-1.080067 -1.39601,-1.740514 -1.167257,-1.981323 0.471561,-0.496416 3.301392,2.538963 2.940359,3.15394 -0.184468,0.314198 -0.71256,-0.03509 -1.773102,-1.172617 z m 0.890302,-1.59049 c -1.890026,-2.037606 -1.249164,-2.723409 0.681231,-0.728996 1.3227,1.366562 1.641809,2.14126 0.882003,2.14126 -0.139284,0 -0.84274,-0.635518 -1.563234,-1.412264 z m 1.037692,-1.074724 c -1.776482,-1.915175 -0.979338,-2.432259 0.850256,-0.551537 0.737857,0.758487 1.341555,1.508604 1.341555,1.666959 0,0.685843 -0.986854,0.183633 -2.191811,-1.115422 z m 1.403621,-0.688908 c -1.40464,-1.514311 -1.486033,-1.716841 -0.801099,-1.993543 0.268025,-0.108237 1.18281,0.572713 2.131671,1.586845 1.565027,1.67269 1.611846,1.776501 0.801092,1.776501 -0.544593,0 -1.32807,-0.503467 -2.131664,-1.369803 z M 127.9024,88.241357 v -1.986698 h 7.892 7.892 v 1.986698 1.986706 h -7.892 -7.892 z m 64.1654,0 v -1.986698 h 7.89202 7.89199 v 1.986698 1.986706 h -7.89199 -7.89202 z"
       id="path1" /></g></svg>
