<?xml version="1.0" encoding="UTF-8" standalone="no"?>
<!-- Created with Inkscape (http://www.inkscape.org/) -->

<svg
   width="300mm"
   height="200mm"
   version="1.1"
   viewBox="0 0 300 200"
   xml:space="preserve"
   id="svg4"
   xmlns="http://www.w3.org/2000/svg"
   xmlns:svg="http://www.w3.org/2000/svg"><defs
     id="defs4"><meshgradient
       id="meshgradient12"
       x="2.5668762"
       y="18.754181"
       gradientUnits="userSpaceOnUse"><meshrow
         id="meshrow4"><meshpatch
           id="meshpatch4"><stop
             stop-color="#fff"
             path="c 98.2612,0  196.522,0  294.784,0"
             id="stop1" /><stop
             stop-color="#e42aff"
             path="c 0,51.0984  0,102.197  0,153.295"
             id="stop2" /><stop
             stop-color="#fff"
             path="c -98.2612,0  -196.522,0  -294.784,0"
             id="stop3" /><stop
             stop-color="#e42aff"
             path="c 0,-51.0984  0,-102.197  0,-153.295"
             id="stop4" /></meshpatch></meshrow></meshgradient></defs><path
     d="m41.119 168.34c-5.0262-5.1095-14.932-15.752-18.194-19.546l-2.7033-3.1451-0.57583-6.5011c-0.31671-3.5756-0.84341-9.6172-1.1704-13.426-0.32704-3.8085-0.78191-7.3905-1.0108-7.96-0.2289-0.56949-1.8195-1.7947-3.5347-2.7228-4.7388-2.564-5.4285-3.3331-5.1238-5.7137 0.14007-1.0942 0.39325-5.4533 0.56263-9.687l0.30796-7.6976-7.11-28.438 1.2228-2.9161c0.67251-1.6038 2.5032-5.9662 4.0682-9.6941l2.8454-6.7781 7.7094-7.3988c4.2402-4.0694 8.2647-7.8064 8.9434-8.3046 0.67868-0.49814 4.8989-2.0299 9.3782-3.4039 4.4793-1.374 10.885-3.344 14.235-4.3778 3.35-1.0338 6.498-1.8796 6.9957-1.8796s5.4198 1.5145 10.938 3.3656c5.5183 1.8511 12.104 4.0152 14.635 4.8092 4.4119 1.384 4.7889 1.6162 9.1314 5.6243 10.348 9.5514 10.777 10.092 14.053 17.719 6.4014 14.904 6.0681 13.499 4.5326 19.102-0.53982 1.9699-1.4162 5.4083-1.9474 7.6409-0.53126 2.2325-1.636 6.7455-2.4549 10.029l-1.489 5.9694 0.79968 9.1824c0.61997 7.1187 0.66772 9.3362 0.2125 9.8668-0.32295 0.37648-2.4359 1.887-4.6955 3.3567-4.7936 3.1179-4.2557 1.465-5.4514 16.754-1.2019 15.369-0.91642 14.149-4.1266 17.631-1.5405 1.6711-6.7803 7.3597-11.644 12.641l-8.8431 9.6032h-26.853zm30.668 0.59302 1.1664-1.2013-0.92353-3.4549c-0.50795-1.9002-1.8627-6.3561-3.0106-9.902-2.0113-6.213-2.1333-6.442-3.3633-6.3098-0.70194 0.0755-1.7191-0.0921-2.2603-0.37235-0.74967-0.38818-1.2713-0.32746-2.19 0.25495-0.90067 0.57095-1.4472 0.63949-2.1593 0.27078-0.52437-0.27151-1.9275-0.48873-3.1181-0.48273-1.1906 7e-3 -2.6644-3e-3 -3.2752-0.0177-0.61083-0.0154-1.4993 4e-3 -1.9744 0.044-0.47509 0.04-1.1856-0.0136-1.579-0.11939-0.77526-0.20825-1.2207 1.51-3.7027 14.284-1.0416 5.3606-1.201 6.9831-0.73921 7.5215 0.48408 0.56433 2.8459 0.68645 13.276 0.68645h12.687zm-34.546-15.394c-1.6355-5.5427-2.9737-10.913-2.9737-11.935 0-1.6538-0.18995-1.9445-1.7364-2.658-0.95505-0.44062-1.9447-1.2863-2.1993-1.8793-0.25454-0.59295-1.151-4.5102-1.992-8.7049-0.84106-4.1947-1.5728-7.6679-1.6261-7.7182-0.3124-0.29482-5.6415-2.0854-6.2071-2.0856-0.54101-1.9e-4 -0.61923 0.66152-0.38103 3.2233 0.16486 1.7729 0.64585 7.1991 1.0689 12.058 0.42303 4.8591 0.87422 9.492 1.0026 10.295 0.15683 0.98101 1.7948 3.1757 4.9899 6.6857 8.3865 9.2133 12.726 13.671 12.879 13.228 0.08185-0.23749-1.1894-4.9668-2.8249-10.51zm7.0892 3.1042c0.72656-3.7428 1.4356-7.3648 1.5755-8.0487 0.19165-0.93635-0.0256-1.4195-0.87945-1.9558-1.2226-0.76799-3.5033-1.3911-5.0686-1.3847-0.53522 3e-3 -1.3695-0.34315-1.854-0.76735-0.48448-0.42423-0.99905-0.65696-1.1435-0.51724-0.35528 0.34371 5.2329 19.479 5.6885 19.479 0.19824 0 0.95489-3.0623 1.6815-6.8052zm32.815-3.5324c1.3927-5.029 2.5322-9.4076 2.5322-9.7302 0-0.83654-2.9011-0.20265-4.1718 0.91149-0.55599 0.48756-1.9855 1.005-3.1766 1.1499-3.7048 0.4508-3.7197 0.58495-1.0192 9.1716 1.3217 4.2025 2.4124 7.845 2.4238 8.0946 0.07178 1.5684 1.1928-1.5854 3.4116-9.5973zm12.521-3.472c1.8287-1.9916 3.3408-3.8361 3.3602-4.0988 0.01942-0.26265 0.53874-6.065 1.1541-12.894 0.61533-6.829 0.94833-12.608 0.74-12.843-0.21556-0.24274-1.6541 0.0348-3.338 0.64417-3.3776 1.2221-3.0936 0.58457-4.7945 10.762-0.84618 5.0632-0.95272 5.3273-3.0065 7.4516-1.7524 1.8126-2.1301 2.5317-2.1341 4.0631-0.0028 1.0234-1.086 5.8806-2.4074 10.794-1.3214 4.9132-2.3033 9.0292-2.182 9.1466 0.20835 0.20157 5.1627-4.9169 12.608-13.026zm-28.498-5.5314c0-1.7192-0.12342-1.9102-1.234-1.9102-0.98833 0-1.2659 0.26943-1.3942 1.3536-0.23398 1.9769 0.23925 2.795 1.5154 2.6197 0.94286-0.12956 1.1128-0.4446 1.1128-2.0631zm-9.5414-0.0197c0.42326-1.5312 0.16146-1.9701-1.3176-2.2088-0.80244-0.12942-1.0171 0.14412-1.1472 1.4621-0.2623 2.6578 1.7667 3.2724 2.4648 0.74673zm4.3587 0.25844c0-0.78797 0.05553-1.5938 0.12342-1.7908 0.0679-0.19699-0.37637-0.42684-0.98718-0.51078-0.99562-0.13683-1.1106 0.0485-1.1106 1.7908 0 1.6251 0.16172 1.9435 0.98718 1.9435 0.76781 0 0.98718-0.31839 0.98718-1.4327zm10.247-0.23877c0.15993-1.7818-0.4531-2.751-1.4953-2.364-0.87275 0.32403-1.6148 2.754-1.0913 3.5736 0.18147 0.28408 0.80875 0.45049 1.3939 0.36981 0.78303-0.10789 1.098-0.52503 1.1926-1.5794zm-19.441-1.284c0.18244-0.75001 0.08343-1.4209-0.23826-1.6132-0.7172-0.42885-1.2923 0.50053-1.138 1.8392 0.06703 0.58192 0.1404 1.2622 0.16305 1.5117 0.07149 0.78804 0.8808-0.37121 1.2132-1.7377zm23.208 0.7674c0.1648-0.41545 0.29961-1.1834 0.29961-1.7064 0-1.2069-1.6409-1.0096-1.887 0.22684-0.36325 1.8249 0.96094 3.0592 1.5874 1.4796zm3.6699-2.3054c-0.08904-0.6968-0.38409-1.314-0.65556-1.3715-0.593-0.1256-0.94014 1.8071-0.51645 2.8754 0.46209 1.1651 1.3651 7e-3 1.172-1.5039zm-30.671-0.64029c-0.12414-0.45963-0.22573-0.0835-0.22573 0.83572 0 0.91931 0.10156 1.2954 0.22573 0.83573 0.12414-0.45965 0.12414-1.2118 0-1.6714zm-2.9018 0c-0.10328-1.2076-0.39432-1.7908-0.89358-1.7908-0.53204 0-0.6917 0.40313-0.56734 1.4327 0.2033 1.6831 0.44606 2.149 1.1199 2.149 0.27183 0 0.4253-0.80587 0.34105-1.7908zm37.514-0.99185c0.11191-1.0968-0.05035-1.5153-0.58786-1.5153-1.0457 0-1.4394 0.80865-1.0758 2.2101 0.42044 1.6207 1.4722 1.1815 1.6637-0.69478zm-25.668-0.44077c0.23904-0.45966 0.30239-2.0177 0.14083-3.4623-0.25247-2.2569-0.45015-2.648-1.4044-2.7792-1.0456-0.1436-1.1106 0.0154-1.1106 2.7069 0 1.5727 0.13479 3.1994 0.29961 3.6149 0.39849 1.0047 1.5332 0.96078 2.0746-0.0804zm4.536-2.7166c0.1805-2.4168 0.06574-3.4796-0.42749-3.9566-1.2416-1.2009-1.7906-0.36299-1.9413 2.9628-0.17246 3.8049 0.07293 4.6753 1.2567 4.4575 0.69534-0.12785 0.91375-0.80814 1.1121-3.4636zm5.3274 0.41399c0.07955-1.5947-0.104-3.5288-0.40809-4.298l-0.55274-1.3985-1.1961 1.3399c-0.9679 1.0843-1.1961 1.8663-1.1961 4.099 0 3.1396 0.2109 3.4953 1.9559 3.2984 1.1686-0.13194 1.2621-0.33542 1.3971-3.0408zm4.236 1.1684c0.71437-3.4558 0.23584-5.671-1.2251-5.671-0.82561 0-0.93437 0.37985-0.93437 3.2633 0 1.7948 0.14808 3.4066 0.32906 3.5817 0.75364 0.72915 1.5414 0.22386 1.8304-1.174zm-18.513-1.8322c0.13421-2.8457-0.21005-3.654-1.2132-2.8484-0.88716 0.71234-0.95155 5.0497-0.07941 5.3523 1.0096 0.35042 1.173 0.0339 1.2927-2.5039zm37.163-5.3216c0.49637-2.6896 0.80874-4.9808 0.69417-5.0916-0.24791-0.23986-4.8214 5.3661-5.3043 6.5017-0.44913 1.0563-0.49491 6.0347-0.05941 6.456 0.19004 0.18387 1.1154-0.41052 2.0563-1.3209 1.5377-1.4877 1.802-2.1498 2.6132-6.5452zm-14.609 6.5457c0.45989-1.7728 0.05726-3.3653-0.89529-3.541-0.73077-0.13483-0.86377 0.21378-0.86377 2.2635 0 1.8214 0.18145 2.4228 0.73097 2.4228 0.40205 0 0.86468-0.51542 1.0281-1.1453zm-33.843-1.6889c0-1.2961-0.21498-2.9037-0.47774-3.5724-0.51366-1.3072-5.4524-7.5948-5.7439-7.3128-0.09667 0.0935 0.32343 2.7348 0.93351 5.8695 1.0995 5.6494 1.1243 5.7067 2.8285 6.513 0.9456 0.44743 1.8859 0.82381 2.0895 0.83641 0.2036 0.0132 0.3702-1.0376 0.3702-2.3338zm7.4039-0.48045c0-2.2765-0.58592-3.4305-1.2299-2.4223-0.42874 0.67116 0.2524 4.7819 0.79235 4.7819 0.24065 0 0.43755-1.0618 0.43755-2.3596zm30.017 0.36677c-0.22347-2.1892-1.3887-2.3537-1.3887-0.19596 0 1.2335 0.2154 1.7112 0.77167 1.7112 0.57018 0 0.73127-0.39565 0.61698-1.5153zm-33.567-0.9919c-0.10616-1.4205-0.37399-2.0296-0.89217-2.0296-0.97382 0-1.3182 3.0846-0.40681 3.6437 1.2029 0.73787 1.4517 0.42869 1.299-1.614zm37.325 0.27829c0.37179-0.93741-0.38355-1.8394-1.1543-1.3785-0.7779 0.46512-0.65922 2.1747 0.15097 2.1747 0.37818 0 0.82968-0.3583 1.0034-0.79619zm0.44015-3.7938c0.97687-0.39719 6.8147-8.2994 6.4978-8.7956-0.16284-0.25491-0.7269-0.4635-1.2535-0.4635-0.85241 0-2.8521-0.79475-12.741-5.0638-1.4581-0.62942-2.9412-1.1444-3.2959-1.1444-0.76371 0-2.6909 2.2474-2.6909 3.138 0 0.34179 1.1392 3.2311 2.5314 6.4207 1.751 4.0114 2.8543 5.9332 3.5785 6.2337 0.99112 0.41121 6.1186 0.18513 7.3737-0.32512zm-28.719-6.432 2.7805-6.4087-1.0529-1.1184c-2.0583-2.1863-2.3042-2.1633-9.4029 0.87925-4.9587 2.1253-7.2623 2.8657-8.9164 2.8657-1.2267 0-2.2304 0.11568-2.2304 0.25721 0 0.1414 1.5726 2.2905 3.4948 4.7755l3.4948 4.5184 3.2921 7e-3c1.8106 4e-3 3.6253 0.21544 4.0325 0.46979 0.40721 0.25437 0.9625 0.39501 1.234 0.31257 0.27147-0.0825 1.7448-3.0338 3.2741-6.5586zm4.4442 5.693c1.4757-0.42777 2.2132-0.41978 3.2452 0.0352 1.2123 0.53441 1.4209 0.47531 2.2609-0.6403 1.093-1.4516 1.4708-1.5083 2.6245-0.39334 0.93226 0.90094 4.6336 1.1844 4.6346 0.35489 9.49e-4 -0.74826-3.372-8.8773-4.176-10.065-0.39505-0.58335-1.7089-1.4266-2.9197-1.874-2.089-0.77187-2.2777-0.76979-3.6957 0.0406-0.96277 0.55023-1.9403 1.8156-2.7482 3.5574-1.2614 2.7195-3.7355 8.8855-3.7355 9.3098 0 0.41989 2.5807 0.23355 4.5099-0.32568zm37.412-11.919c1.9184-0.59778 3.488-1.3187 3.488-1.602 0-0.28329-1.3944-2.7661-3.0987-5.5173l-3.0987-5.0022-6.1561-1.7349c-7.6721-2.1621-12.31-4.5278-14.214-7.2503-2.4964-3.5693-6.5028-10.607-6.5028-11.423 0-0.43743 0.91665-3.0411 2.037-5.7859l2.037-4.9906-2.7819-3.5288-4.2281 4.6275-2.8884-3.0423-2.8884-3.0423-1.5667 2.2885c-0.86169 1.2587-1.5667 2.6569-1.5667 3.1073 0 0.45037 0.77741 3.1394 1.7276 5.9756 0.95017 2.8363 1.7276 5.667 1.7276 6.2907 0 0.6236-0.63459 1.9271-1.4102 2.8966-0.77561 0.96956-2.8819 3.7124-4.6807 6.0951-1.7988 2.3828-3.774 4.574-4.3895 4.8693-0.61546 0.29532-3.7844 1.5388-7.0421 2.7633-9.0748 3.411-9.0623 3.4023-13.207 9.1313l-1.8548 2.5635 1.3612 0.51575c3.7416 1.4175 5.1135 1.7592 8.3125 2.07 3.434 0.33368 3.543 0.30828 9.7644-2.2756 3.4604-1.4372 6.4212-2.7384 6.5796-2.8916 0.15836-0.15324-0.09336-1.5935-0.55949-3.2007l-0.84743-2.9221 4.2571-6.8808c2.3414-3.7845 4.538-6.8808 4.8813-6.8808s1.1169 0.6447 1.719 1.4327c0.60214 0.78795 1.2547 1.43 1.4502 1.4268 0.19548-4e-3 0.85723-0.75543 1.4705-1.6714 0.6133-0.91606 1.4179-1.6655 1.7879-1.6655s1.423 1.1993 2.34 2.6651c0.91697 1.4658 1.8962 2.9164 2.176 3.2235 0.27986 0.30709 1.4864 2.0627 2.6813 3.9012 2.5624 3.943 3.21 7.4561 1.767 9.5868-0.46225 0.68257-0.7642 1.3148-0.67099 1.405 0.09322 0.0903 2.8319 1.2635 6.0859 2.6073 3.2541 1.3438 6.2497 2.6498 6.6569 2.902 1.0913 0.67616 5.3723 0.2012 9.3454-1.0368zm12.727-7.0206c0.0592-0.1789-1.5446-1.2923-3.5642-2.4743-3.6032-2.1088-4.458-3.2989-3.2756-4.5607 1.0924-1.1657 5.9884-10.855 5.9635-11.801-0.0154-0.58783-0.96426-3.6476-2.1084-6.7994-1.9248-5.3023-2.1812-5.742-3.4298-5.882-1.8824-0.21118-2.1288 0.84366-0.77753 3.3286 0.9634 1.7716 1.1565 2.9652 1.3174 8.1432l0.18856 6.0673-2.4268 2.5287c-4.1228 4.2959-5.0751 5.3716-5.0751 5.7327 0 0.47023 4.89 8.532 5.7771 9.5242 0.64591 0.72246 0.98471 0.60853 4.0043-1.3462 1.8143-1.1745 3.3472-2.2818 3.4065-2.4607zm-82.08-0.36927 3.1989-4.1032-2.7608-3.5488c-2.2918-2.946-2.9378-3.4977-3.8029-3.2476-2.27 0.65608-2.515 1.3674-1.3632 3.9578 0.58382 1.313 1.0615 2.6954 1.0615 3.072 0 0.37655-1.3376 1.496-2.9724 2.4878-1.6348 0.9917-2.8794 1.893-2.7659 2.0029 0.4859 0.47011 5.5234 3.459 5.8486 3.4702 0.19643 7e-3 1.7967-1.8342 3.5561-4.091zm-6.2926-4.3078c0.30236-0.75846-2.9573-8.4326-3.681-8.666-0.45307-0.14615-0.60315 1.2489-0.60315 5.6065v5.801l2.0361-1.1051c1.1199-0.60776 2.1315-1.3442 2.248-1.6364zm89.315-0.66244c-0.1708-1.576-0.45029-4.1547-0.62109-5.7307-0.1708-1.576-0.44846-2.8628-0.617-2.8597-0.47484 9e-3 -4.7031 8.0774-4.391 8.3793 0.79064 0.76493 4.6704 3.0071 5.2589 3.0392 0.53955 0.0295 0.61632-0.55715 0.37018-2.8282zm-87.462-7.6291 1.2661-0.46574-0.01648-7.0558c-0.01475-6.3492-0.1156-7.171-1.0069-8.2067-0.59505-0.69147-1.1698-0.97743-1.4396-0.71634-0.70315 0.68035-3.9537 8.7354-3.9537 9.7975 0 1.4356 2.6304 7.1014 3.2996 7.1075 0.32167 4e-3 1.1546-0.20427 1.851-0.46042zm88.84-16.188c1.9514-8.0313 2.8704-12.523 2.6131-12.772-0.12559-0.12136-0.97836 0.67485-1.895 1.7697-0.91663 1.0948-2.6106 3.0785-3.7644 4.408-1.1538 1.3296-2.0978 2.7952-2.0978 3.257 0 0.81477 2.3261 8.364 2.825 9.1684 0.50066 0.80719 1.0284-0.5199 2.319-5.8312zm-93.3 1.3348c0.70631-1.7279 1.2842-3.5103 1.2842-3.961 0-0.65599-2.2608-3.938-5.3054-7.7016-0.21247-0.26266-0.88261-1.0975-1.4892-1.8552-0.60658-0.75773-1.1029-1.1999-1.1029-0.98251 0 0.3957 3.7732 15.907 4.2743 17.571 0.36601 1.2156 0.84295 0.58948 2.339-3.0703zm7.8943-3.3766c0.65108-0.89935 0.65497-1.191 0.0315-2.3575-1.0631-1.989-1.5098-2.0306-2.6006-0.24189-0.93002 1.525-0.94068 1.6877-0.17171 2.6195 1.0486 1.2707 1.8104 1.2652 2.7408-0.0202zm75.696-2.3101c0.33936-4e-3 0.617-0.21112 0.617-0.46118 0-0.84963-4.548-6.7541-5.0723-6.5851-0.28676 0.0925-1.2715 1.0472-2.1883 2.1215l-1.6669 1.9534 2.8596 1.7391c1.7968 1.0928 3.2265 1.6462 3.8468 1.489 0.54294-0.1375 1.2648-0.25308 1.6042-0.25668zm-66.413-2.1283c1.5472-0.41584 2.9295-0.9384 3.0718-1.1612 0.26908-0.42123-5.1653-9.5985-5.6886-9.6064-0.16353-3e-3 -1.6783 1.9563-3.3662 4.3529-2.9114 4.1339-3.0378 4.43-2.4635 5.7713 1.0646 2.4866 1.71 2.8378 3.8048 2.0698 1.0058-0.36869 3.0945-1.0106 4.6417-1.4264zm-5.9097-10.094c3.7307-5.2319 7.5951-10.647 8.5876-12.032 0.99244-1.3859 1.6939-2.6268 1.5588-2.7575-0.53162-0.51434-20.701-5.552-21.014-5.2488-0.10838 0.10486 0.14798 3.1608 0.56972 6.7911 0.42173 3.6302 1.1524 10.311 1.6237 14.847 0.54062 5.203 1.0478 8.1852 1.3741 8.0799 0.28445-0.0917 3.5696-4.4474 7.3003-9.6794zm-10.218 7.0824c-0.14743-1.2476-0.7165-6.3515-1.2646-11.342-1.1468-10.442-1.4077-11.948-1.9729-11.389-0.2256 0.22295-1.1798 2.232-2.1205 4.4646-0.9407 2.2326-2.0663 4.8582-2.5014 5.8347-1.3594 3.051-1.5645 2.6287 6.155 12.671 0.85813 1.1163 1.653 2.0296 1.7664 2.0296 0.11337 0 0.08551-1.0208-0.06191-2.2684zm86.084-9.6705c1.4582-13.421 1.7423-17.67 1.1814-17.67-0.68884 0-18.91 5.5665-19.228 5.874-0.27419 0.26528 0.96906 2.1196 10.622 15.843 6.6894 9.5103 5.9051 9.9379 7.4246-4.0477zm6.8485 5.0828c2.8142-3.3198 3.5155-4.4497 3.2604-5.2531-0.17878-0.56296-1.3845-3.4949-2.6793-6.5154s-2.5037-5.9754-2.6863-6.5664c-0.393-1.2717-1.249-1.4338-1.2613-0.23877-4e-3 0.45964-0.21963 2.7698-0.47765 5.1337-2.4577 22.518-2.3634 20.453-0.86149 18.859 0.61614-0.65394 2.7337-3.0923 4.7057-5.4185zm-58.316 4.5877c0.55195-0.72229 1.3574-1.9754 1.79-2.7847 0.99475-1.8612 0.99024-1.8682-6.6034-10.312-7.2448-8.0558-7.0531-7.9017-8.0911-6.5077-3.8869 5.2198-6.6699 9.2056-6.6699 9.5525 0 0.22949 1.4993 2.8799 3.3317 5.8898l3.3317 5.4725 5.9537 1e-3c5.9233 1e-3 5.9588-5e-3 6.9572-1.3119zm39.929-1.2682c1.2669-1.4198 2.2735-2.763 2.2369-2.9847-0.10932-0.66094-3.5539-5.8244-4.2682-6.3979-0.52676-0.42296-1.2143 0.53853-3.3994 4.7539-1.5065 2.9062-2.7391 5.4723-2.7391 5.7025 0 0.34959 1.042 0.62215 5.5245 1.445 0.18797 0.0345 1.3784-1.099 2.6453-2.5188zm-11.847 1.3498c0.70613-0.18306 2.0098-2.2004 4.3189-6.6831 1.8191-3.5315 3.3075-6.6982 3.3075-7.0372 0-0.55623-4.2248-6.538-4.6176-6.538-0.0902 0-1.6916 1.7514-3.5586 3.892-1.8671 2.1406-3.6292 4.1284-3.9159 4.4174-1.49 1.502-7.6515 8.8034-7.6515 9.067 0 0.16865 0.49976 1.0745 1.1106 2.013l1.1106 1.7065 4.4423-0.28772c2.4433-0.15815 4.8975-0.4057 5.4537-0.54993zm-12.858-5.379c2.4433-2.7976 6.7347-7.7156 9.5365-10.929 3.2164-3.6889 4.9627-6.0658 4.7374-6.4484-1.3702-2.327-19.675-28.543-19.93-28.543-0.17604 0-2.3743 2.9549-4.8851 6.5664-2.5108 3.6115-6.7854 9.6824-9.4991 13.491-2.7137 3.8085-5.1461 7.2876-5.4051 7.7314-0.37202 0.63726 0.17649 1.541 2.6087 4.298 1.6939 1.9201 3.1994 3.5985 3.3457 3.7298 0.14627 0.13142 2.8107 3.14 5.9209 6.6858 7.8922 8.9976 7.929 9.0352 8.5613 8.7553 0.31156-0.13803 2.5655-2.5398 5.0088-5.3373zm26.62-21.012c4.868-1.5094 8.9134-2.9497 8.9897-3.2005 0.07639-0.25087-2.5739-1.9105-5.8893-3.688-13.573-7.277-20.942-11.245-22.81-12.282-5.2298-2.9029-8.2107-4.4001-8.3985-4.2183-0.43133 0.4173 17.801 26.164 18.517 26.149 0.40721-8e-3 4.7233-1.2509 9.5913-2.7603zm-51.418-1.627c1.5097-2.1669 5.5289-7.9155 8.9316-12.775 3.4027-4.8591 6.0031-8.8979 5.7787-8.9751-0.22441-0.07712-1.5919 0.53505-3.0389 1.3605-1.447 0.82545-3.9721 2.2126-5.6114 3.0826-1.6392 0.87001-6.0901 3.2395-9.8907 5.2654-3.8006 2.026-9.7423 5.1774-13.204 7.0031-3.4613 1.8257-6.2933 3.4943-6.2933 3.7079 0 0.21362 1.3882 0.74379 3.0849 1.1782 9.7817 2.5042 16.014 4.0153 16.708 4.0511 0.46286 0.0238 1.9257-1.5898 3.5345-3.8991zm-12.817-9.5843c3.0422-1.6598 8.703-4.6978 12.58-6.751 3.8767-2.0532 6.9532-3.8254 6.8366-3.9382-0.11666-0.11281-3.8706 0.91435-8.3423 2.2825l-8.1304 2.4876-4.2572 4.1103c-2.3415 2.2607-4.4061 4.2715-4.5882 4.4685-0.78128 0.84547 0.70562 0.17538 5.9018-2.6597zm65.493-1.0439-4.1982-4.0618-7.8668-2.6079c-4.3267-1.4343-7.9526-2.5248-8.0575-2.4234-0.26512 0.2565 0.80228 0.86719 11.741 6.7176 5.2938 2.8312 10.063 5.4379 10.599 5.7925 2.4992 1.6551 1.612 0.28785-2.2173-3.417zm44.433 102.14c0-0.63457 0.13406-0.66721 0.74037-0.1803 0.40721 0.32697 0.74039 0.67563 0.74039 0.77478 0 0.0993-0.33318 0.18034-0.74039 0.18034s-0.74037-0.34867-0.74037-0.77482zm1.5222-0.85527c-2.5218-2.5174-1.5762-2.9517 1.1956-0.54923 1.9843 1.72 2.2673 2.1407 1.4511 2.1579-0.55758 0.0132-1.7486-0.71214-2.6467-1.6087zm1.8981-1.0306c-2.1031-2.0604-2.4432-2.5924-1.6573-2.5924 0.54389 0 2.0828 1.0745 3.4197 2.3878 1.337 1.3133 2.653 2.3878 2.9244 2.3878 0.27146 0-0.6003-1.0745-1.9373-2.3878-2.2768-2.2364-2.3527-2.3878-1.1986-2.3878 0.83766 0 2.0797 0.83015 3.8785 2.5924l2.6462 2.5924h-2.7148c-2.6322 0-2.7952-0.0788-5.361-2.5924zm6.1612 0.0557c-2.6255-2.3439-2.7944-2.605-1.6841-2.6046 0.80287 2.8e-4 2.2686 0.91006 4.1955 2.6042 2.7092 2.3819 2.8527 2.6038 1.6841 2.6046-0.86222 5.7e-4 -2.226-0.84589-4.1955-2.6042zm3.1054-0.0389c-2.7753-2.5308-2.8192-2.6092-1.4639-2.6092 1.0396 0 2.0835 0.67231 4.0783 2.6265 2.4473 2.3976 2.575 2.625 1.4639 2.6091-0.78071-0.0132-2.243-0.95294-4.0783-2.6265zm3.108 0.0174-2.681-2.6266 3.4383-7e-3c1.8911-4e-3 3.6827-0.16525 3.9814-0.35817 0.97694-0.63112 1.7394-2.5155 1.4164-3.5003-0.4846-1.4772-2.2524-1.8648-8.5047-1.8648-5.5683 0-5.7857-0.0393-7.2465-1.3132l-1.506-1.3133 2.3896 2.6265h-1.2102c-0.66558 0-1.6746-0.31476-2.2423-0.69946-0.56771-0.38471-1.1424-0.59283-1.2771-0.46256-0.28666 0.27737-2.596-1.9491-2.6071-2.5136-4e-3 -0.21096-0.2054-0.68594-0.4472-1.0555-0.48945-0.74803-0.54431-4.7289-0.0715-5.1864 0.16621-0.16087 1.4632 0.76906 2.8822 2.0664l2.58 2.3588-2.5914-2.6413c-1.4252-1.4528-2.5913-2.8611-2.5913-3.1296 0-0.77027 3.0661-3.4305 4.5978-3.9892 0.81017-0.29552 5.4922-0.50683 11.229-0.50683h9.8397v5.2531h-9.597c-9.3578 0-9.6162 0.0263-10.365 1.0614-1.0019 1.384-0.97213 2.4342 0.0954 3.3609 0.69042 0.59931 2.4489 0.78189 8.7613 0.90971 8.8558 0.17934 10.288 0.61074 12.505 3.7674 2.4843 3.5368 0.22973 10.28-3.923 11.733-3.1168 1.0907-3.9866 0.8409-6.8546-1.9688zm-6.4167-9.4574c0-0.0797-0.83293-0.88568-1.851-1.7908l-1.851-1.6457 1.701 1.7908c1.5832 1.6669 2.0009 2.0104 2.0009 1.6457zm-6.9103-0.48801c0-0.0857-0.61084-0.67651-1.3574-1.3133l-1.3574-1.1578 1.1966 1.3133c1.1184 1.2275 1.5181 1.5323 1.5181 1.1577zm1.4808-1.4145c0-0.0755-1.1661-1.2038-2.5914-2.5072l-2.5914-2.3698 2.4494 2.5072c2.276 2.3297 2.7333 2.7262 2.7333 2.3698zm25.173 13.524c0-0.25443 0.33317-0.33886 0.74039-0.18768 0.4072 0.1512 0.74039 0.35932 0.74039 0.46256 0 0.10312-0.33319 0.18768-0.74039 0.18768-0.40722 0-0.74039-0.20813-0.74039-0.46256zm1.9762-0.72944c-1.7376-1.7895-0.70795-2.0994 1.1151-0.33555 1.0817 1.0465 1.337 1.5276 0.81062 1.5276-0.42253 0-1.2891-0.5364-1.9257-1.192zm13.016 0.49144c-0.56556-1.426 0.11767-1.7069 1.2685-0.52172l1.1868 1.2223h-1.0887c-0.59878 0-1.2137-0.31525-1.3666-0.70056zm1.8453-1.3936c-1.1683-1.1518-2.0475-2.3874-1.9537-2.746 0.10429-0.39879 1.2068 0.4141 2.8402 2.0941 3.1014 3.19 2.2919 3.7851-0.88646 0.65182zm8.3354 1.065c0-0.99888 0.029-1.0037 0.98718-0.16476 0.54296 0.4754 0.98721 0.93852 0.98721 1.0291 0 0.0907-0.44425 0.16475-0.98721 0.16475-0.68177 0-0.98718-0.31836-0.98718-1.0291zm1.3014-0.33552c-0.71575-0.7228-1.3014-1.8316-1.3014-2.464 0-1.0614 0.1817-0.97666 2.3615 1.1006 1.2988 1.2378 2.569 2.2505 2.8227 2.2505 0.25364 0-0.82836-1.2608-2.4045-2.8018-2.05-2.0044-2.8183-3.0966-2.6993-3.8376 0.14269-0.88861 0.75519-0.46218 4.3109 3.0016l4.1446 4.0374-2.9666 0.0136c-2.6021 0.0132-3.1265-0.14766-4.268-1.3004zm3.2546-3.0617-4.556-4.4263v-17.89h5.4295v20.245l-1.8344-1.6457-1.8344-1.6457 1.9578 2.2234 1.9578 2.2234 13.574 0.09v5.2531h-10.138zm26.931 0.72533c-3.525-3.3124-5.7278-6.0984-5.2146-6.595 0.1014-0.0981 2.6129 2.1782 5.5809 5.0588 3.6353 3.5281 5.0987 5.2372 4.4843 5.2372-0.50162 0-2.6844-1.6655-4.8505-3.701zm0.66407-2.6807c-4.1928-4.0649-6.5198-6.6695-6.4098-7.1746 0.12055-0.55382 2.4032 1.3705 7.5703 6.3817 5.2694 5.1105 7.1135 7.1746 6.4098 7.1746-0.61043 0-3.5028-2.4383-7.5703-6.3817zm6.0893 3.025c-3.3009-3.2192-3.361-3.3179-1.4675-2.4092 1.0859 0.52108 3.196 2.0223 4.6891 3.336 2.4927 2.1932 2.6127 2.3902 1.4676 2.4092-0.9041 0.0154-2.1942-0.90281-4.6892-3.336zm3.7152 0.73012c-2.4787-2.4283-2.5879-2.6266-1.447-2.6266 0.84168 0 2.0862 0.83498 3.915 2.6266 2.4787 2.4283 2.5879 2.6266 1.447 2.6266-0.84168 0-2.0862-0.83496-3.915-2.6266zm2.9616 0-2.681-2.6266h2.9238c2.6949 0 3.0801 0.14023 4.919 1.7908l1.9952 1.7908-3.8079-3.9657 1.7728-0.81394c5.0564-2.3214 5.4292-10.343 0.64112-13.795-1.253-0.90338-2.0912-1.0094-8.2869-1.0487l-6.8928-0.0438-3.6635-3.2542 1.9423 2.0202c1.0682 1.1111 1.8456 2.0779 1.7276 2.1484-0.11796 0.0705-0.82886 0.65216-1.5795 1.2926l-1.3648 1.1645-2.0904-1.8804-2.0904-1.8804 2.0151 2.1486c1.2003 1.2798 1.9341 2.4865 1.8148 2.9843-0.28891 1.2051-0.69077 1.0577-2.7922-1.0245-2.2486-2.2279-2.1438-2.9502 0.83529-5.759 2.8173-2.6562 5.5036-3.3646 12.759-3.3646 6.9424 0 10.085 0.90422 12.851 3.698 2.5197 2.5445 3.4806 4.6658 3.7474 8.2729 0.43463 5.8772-2.2568 11.098-6.9036 13.392l-1.9738 0.97423-1.3014-1.1101c-1.047-0.89308-1.133-0.9158-0.44008-0.1162 0.47374 0.54661 0.71278 1.1376 0.53119 1.3132-0.81254 0.78616-2.1174 0.13279-4.6079-2.3071zm23.199 2.1208c0-0.27817 0.22214-0.37294 0.4936-0.21061 0.27148 0.16241 0.49358 0.38992 0.49358 0.50575 0 0.11594-0.2221 0.21059-0.49358 0.21059-0.27146 0-0.4936-0.22756-0.4936-0.50573zm1.2807-0.8797c-0.75455-0.76204-1.2959-1.7402-1.203-2.1738 0.12817-0.59718 0.70249-0.26134 2.3696 1.3854 1.8196 1.7974 2.0278 2.1738 1.2029 2.1738-0.54867 0-1.615-0.62345-2.3695-1.3854zm19.052-1.486c-1.4403-1.5456-2.5867-2.9474-2.5474-3.115 0.0393-0.16763-1.5636-1.9515-3.562-3.9643-1.9984-2.0128-4.662-4.7879-5.9191-6.1668-1.2571-1.3789-2.4814-2.5072-2.7207-2.5072s-1.5936-1.135-3.0095-2.5222c-2.0304-1.9891-2.5745-2.847-2.5745-4.0592v-1.537l6.1699 8e-3 17.769 19.334 0.13378-9.6705 0.13364-9.6705h5.9026v25.991l-2.5914-2.3696-2.5913-2.3696 5.3958 5.4914h-5.8646l-6.9348-6.447 3.194 3.2235c1.7567 1.7729 2.9783 3.2098 2.7146 3.193-0.2636-0.0169-1.6578-1.2952-3.0981-2.8408zm-109.83 0.57292c-1.0108-1.0015-1.6807-1.9729-1.4886-2.1587 0.36306-0.35125 4.1133 2.9301 4.1133 3.599 0 0.78716-0.84397 0.32404-2.6246-1.4403zm92.026-1.223c-1.4546-1.425-2.5614-2.833-2.4594-3.1288 0.1017-0.29579 1.3754 0.62816 2.83 2.0532 1.4546 1.425 2.5614 2.833 2.4594 3.1288-0.102 0.29583-1.3754-0.6281-2.83-2.0532zm-78.467-0.93651c-1.5462-1.5175-2.5682-2.9193-2.468-3.3852 0.12803-0.59556 0.83364-0.14497 2.8101 1.7949 1.5462 1.5175 2.5682 2.9193 2.4679 3.3852-0.12803 0.59554-0.83361 0.14498-2.8101-1.7949zm38.389 1.4708c-0.69847-0.58964-1.5764-1.5019-1.951-2.0272-0.37458-0.52531 0.25239-0.1055 1.3933 0.93264 1.8928 1.7225 2.3005 2.1758 1.951 2.1691-0.0679-9.6e-4 -0.69486-0.48483-1.3933-1.0745zm-50.568-1.3219c-1.0445-1.0349-1.7393-2.0362-1.544-2.2252 0.19529-0.18896 1.2601 0.5321 2.3662 1.6023 1.1062 1.0702 1.801 2.0716 1.5441 2.2252-0.25694 0.15357-1.3218-0.56743-2.3663-1.6024zm90.661-2.0591c-1.5462-1.5175-2.5682-2.9194-2.468-3.3852 0.12803-0.59553 0.83362-0.14496 2.8101 1.7949 1.5462 1.5175 2.5682 2.9193 2.468 3.3852-0.12817 0.59553-0.83362 0.14495-2.8101-1.7949zm-89.562 0.25919c-2.6258-2.6018-2.2623-3.5761 0.39344-1.0544 1.2216 1.16 2.2212 2.2792 2.2212 2.4872 0 0.78363-0.84488 0.32065-2.6146-1.4328zm11.129-1.1659c-1.7096-1.6791-2.5914-2.9444-2.5914-3.7188 0-1.0682 0.24803-0.9337 2.7588 1.4955 1.9874 1.9229 2.712 2.9626 2.5914 3.7188-0.15031 0.94227-0.43244 0.78931-2.7588-1.4955zm-10.198-0.80049c-2.57-2.5464-1.8634-3.6558 0.75363-1.1834 1.7751 1.677 2.4614 3.0505 1.5242 3.0505-0.21638 0-1.2414-0.84022-2.2778-1.8671zm88.632-1.1581c-1.5462-1.5175-2.5682-2.9194-2.468-3.3852 0.12803-0.59556 0.83362-0.14497 2.8101 1.7949 1.5462 1.5175 2.5682 2.9193 2.468 3.3852-0.12817 0.59553-0.83362 0.14495-2.8101-1.7949zm-78.433-0.90668c-1.7096-1.6791-2.5914-2.9445-2.5914-3.7188 0-1.0682 0.24803-0.93372 2.7588 1.4954 1.9874 1.9229 2.712 2.9626 2.5914 3.7188-0.15031 0.94228-0.43244 0.78933-2.7588-1.4954zm-8.934 0.0154c-1.2287-1.1089-1.9479-2.1023-1.6974-2.3447 0.25052-0.24235 1.3334 0.46545 2.556 1.6707 2.7029 2.6646 1.9778 3.2338-0.85859 0.67404zm45.939-1.9464c-2.7011-2.6368-3.86-4.6433-2.682-4.6433 0.81626 0 4.9368 4.6082 5.4444 6.0888 0.29268 0.85362 0.48177 1.552 0.42017 1.552-0.0617 0-1.4938-1.3489-3.1827-2.9976zm41.476 0.0206c-1.7096-1.6791-2.5914-2.9444-2.5914-3.7188 0-1.0682 0.24803-0.93371 2.7588 1.4955 1.9874 1.9229 2.712 2.9626 2.5913 3.7188-0.15029 0.94229-0.43243 0.78933-2.7588-1.4955zm-86.386-0.0136c-1.2921-1.2738-1.9137-2.2441-1.6759-2.6163 0.26609-0.41659 0.98535 7e-3 2.4317 1.4331 1.2921 1.2738 1.9136 2.2441 1.6759 2.6163-0.26613 0.41663-0.98538-7e-3 -2.4317-1.433zm5.8779-3.2708c-3.0766-2.8279-4.5237-4.4843-4.3344-4.9616 0.1562-0.39408 0.46262-0.71649 0.68074-0.71649 0.21811 0 2.2437 1.7964 4.5012 3.9921 2.9226 2.8424 4.0566 4.2712 3.9378 4.9615-0.13867 0.80639-0.94402 0.25519-4.7854-3.2756zm-4.9277 1.3242c-1.6109-1.588-1.9291-2.1557-1.4619-2.6077 0.46717-0.45201 1.005-0.19245 2.4709 1.1924 1.0306 0.97362 1.8738 2.0363 1.8738 2.3614 0 1.2916-0.9186 0.9901-2.8828-0.94617zm85.393-0.9473c-1.7834-1.7515-2.5805-2.8998-2.4679-3.555 0.14681-0.85538 0.47229-0.70591 2.7988 1.2855 2.1545 1.8442 2.6027 2.4898 2.468 3.555-0.16333 1.2918-0.18458 1.2821-2.7988-1.2855zm-41.733-0.26292c-1.7525-1.726-2.3203-2.6068-2.0765-3.2212 0.28663-0.72264 0.66185-0.52986 2.5792 1.3252 1.5719 1.5209 2.1938 2.4855 2.0766 3.2212-0.15136 0.94985-0.39801 0.82309-2.5793-1.3252zm-42.417-0.45188c-0.9985-0.98935-1.8155-2.0457-1.8155-2.3474 0-1.2516 0.94256-0.92393 2.9037 1.0094 1.6987 1.6746 1.9561 2.1502 1.4037 2.5937-0.53139 0.42667-1.0656 0.15748-2.4919-1.2557zm4.2158-2.131-4.0656-3.9541 1.3618-2.4889 1.3618-2.4889 5.6763-8e-3v6.447c0 3.5458-0.0605 6.447-0.13436 6.447-0.074 0-1.9638-1.7793-4.1999-3.954zm79.977-0.45544c-1.7096-1.6791-2.5914-2.9444-2.5914-3.7188 0-1.0682 0.24803-0.93372 2.7588 1.4954 1.9874 1.9229 2.712 2.9626 2.5913 3.7188-0.15029 0.94227-0.43243 0.78931-2.7588-1.4954zm-102.26-17.755c-0.89815-0.89653-1.5502-1.8704-1.449-2.1642 0.1011-0.29378 1.1719 0.43976 2.3793 1.63 1.3322 1.3133 1.9019 2.1642 1.449 2.1642-0.41048 0-1.4812-0.73354-2.3793-1.6301zm20.689-3.8618v-5.4919h-5.7727c-5.6034 0-5.8169-0.0387-7.2787-1.3133l-1.506-1.3132 1.1948 1.3132 1.1948 1.3133h-1.4318c-1.9236 0-8.6121-6.2842-8.6121-8.0916 0-1.0925 0.25492-0.95536 3.085 1.6594l3.0849 2.8502-6.1699-6.2336v-5.9437h5.4295l0.042 2.7459c0.023 1.5103 7e-3 3.8742-0.0359 5.2531l-0.0778 2.5072h16.854v-10.506h5.9231v26.743h-5.9231zm-9.3782-6.1189c0-0.0824-0.72187-0.78062-1.6042-1.552l-1.6042-1.4026 1.4497 1.552c1.3514 1.4467 1.7586 1.7716 1.7586 1.4026zm22.876 10.874c-0.49378-1.245 0.29227-1.4155 1.4339-0.31104l1.0832 1.048h-1.1124c-0.6118 0-1.2439-0.33162-1.4047-0.73693zm2.3048-0.92736c-0.91699-0.91535-1.5082-1.8182-1.3139-2.0062 0.19437-0.18807 1.2865 0.56087 2.427 1.6643 1.2975 1.2554 1.7892 2.0062 1.3139 2.0062-0.41785 0-1.51-0.74893-2.427-1.6643zm23.471 0.11211-0.92076-1.5521 1.5547 1.4026c1.7464 1.5755 1.8146 1.7015 0.92078 1.7015-0.34871 0-1.0483-0.69842-1.5548-1.552zm0.64264-0.71635c-1.2372-1.2476-2.9718-3.5578-3.8549-5.1337l-1.6055-2.8653 5.2308 5.0058c2.8769 2.7532 5.2308 5.0634 5.2308 5.1337 0 0.0702-0.61916 0.12784-1.3759 0.12784-0.99668 0-1.9959-0.62519-3.6253-2.2684zm-0.23818-3.5817c-3.2808-3.2175-6.5805-6.9245-7.3328-8.2378-1.3636-2.3804-1.3528-2.3738 3.4975 2.149l4.8653 4.5368-5.4226-5.4919c-2.9824-3.0206-6.5332-6.4516-7.8906-7.6246l-2.4679-2.1327 2.0796 2.133c1.552 1.5918 1.9625 2.3146 1.6178 2.849-0.38028 0.58966-0.82247 0.36832-2.5036-1.2532l-2.0418-1.9694 3.316-5.8743 4.3814 0.26177 4.3713 7.8796c8.9183 16.076 10.271 18.625 9.8878 18.625-0.21584 0-3.0766-2.6325-6.3574-5.85zm14.124 4.8209c0-1.0169 0.0145-1.0184 1.1106-0.12454 0.61082 0.49755 1.2031 0.96067 1.3162 1.0291 0.11321 0.0686-0.38666 0.12454-1.1106 0.12454-1.0187 0-1.3162-0.23262-1.3162-1.0291zm1.781-0.82814c-1.031-1.0215-1.7979-2.213-1.7043-2.6477 0.1263-0.58747 0.86286-0.11066 2.868 1.8573 2.1471 2.1072 2.4951 2.6477 1.7043 2.6477-0.54645 0-1.837-0.83577-2.868-1.8573zm8.5844 1.3515c0-0.27814 0.22212-0.37293 0.49358-0.21059 0.27149 0.16237 0.49361 0.3899 0.49361 0.50573 0 0.11594-0.22212 0.2106-0.49361 0.2106-0.27146 0-0.49358-0.22759-0.49358-0.50574zm1.2807-0.8797c-0.75455-0.762-1.2958-1.7402-1.2029-2.1738 0.12803-0.59718 0.70247-0.26131 2.3695 1.3855 1.8196 1.7974 2.0278 2.1738 1.2029 2.1738-0.54868 0-1.615-0.62347-2.3695-1.3854zm16.187 0.54972c-0.29671-0.45964-1.3769-2.1251-2.4004-3.701l-1.8609-2.8654 3.8684 3.5817c3.1121 2.8815 2.8586 2.5547-1.2969-1.6714-4.4812-4.5574-5.3996-5.272-6.9338-5.396-1.3897-0.11224-2.3376-0.70052-4.4255-2.7459l-2.657-2.603h15.985l0.84578-1.2489c0.75818-1.1195 0.77036-1.3793 0.11753-2.5072-0.68305-1.1801-0.98199-1.2669-4.8114-1.3974-3.9335-0.13413-4.064-0.10458-3.5613 0.80433 0.79737 1.4415 0.72823 1.4838-2.4246 1.4838h-2.9465l-2.483-3.5601c-1.3656-1.958-2.483-3.6772-2.483-3.8204 0-0.14327 4.1647-0.2568 9.2549-0.25249 8.678 7e-3 9.377 0.0748 11.215 1.0818 2.9161 1.5979 4.2105 3.7449 4.2083 6.98-1e-3 1.8265-0.31306 3.1691-0.98269 4.2318-1.1261 1.787-3.686 3.4535-5.3088 3.4561-0.61082 9.7e-4 -1.1106 0.0932-1.1106 0.20548 0 0.11185 1.0675 1.7775 2.3722 3.7011 1.3047 1.9235 2.8776 4.3032 3.4954 5.2882l1.1232 1.7908h-3.1299c-2.4463 0-3.2477-0.18255-3.6694-0.83572zm-14.919-2.1848c-1.8111-1.7775-2.5822-2.8947-2.468-3.5758 0.14054-0.83809 0.5705-0.55353 2.7935 1.8492 3.5207 3.8054 3.2509 5.2367-0.32551 1.7266zm-86.383-0.48232c-1.5462-1.5175-2.5682-2.9194-2.468-3.3852 0.12817-0.59552 0.83364-0.14497 2.8101 1.7949 1.5462 1.5175 2.5682 2.9194 2.468 3.3853-0.12803 0.59553-0.83363 0.14496-2.8101-1.7949zm37.19 0.16c-1.0506-1.041-1.7992-2.0001-1.6634-2.1315 0.13579-0.13128 1.1064 0.61292 2.157 1.6539 1.0506 1.041 1.7992 2.0002 1.6634 2.1315-0.13579 0.13128-1.1064-0.61292-2.157-1.6539zm38.87-0.58906c-1.7096-1.6791-2.5914-2.9444-2.5914-3.7188 0-1.0682 0.24804-0.93371 2.7588 1.4955 1.9875 1.9229 2.712 2.9626 2.5914 3.7188-0.15031 0.94226-0.43246 0.7893-2.7588-1.4955zm-37.859-1.2975c-1.0252-1.0158-1.7808-2.0882-1.6792-2.3832 0.10141-0.29499 1.1472 0.41241 2.3235 1.572 1.1763 1.1596 1.9319 2.232 1.6792 2.3832-0.25276 0.15105-1.2983-0.55627-2.3235-1.572zm48.188-1.0499c-1.7614-1.8528-2.5751-3.0913-2.468-3.7565 0.13435-0.83408 0.57865-0.53086 2.7848 1.9001 1.5504 1.7084 2.5607 3.2462 2.468 3.7565-0.12169 0.66902-0.75007 0.24021-2.7848-1.9001zm-86.342-0.081c-1.5785-1.618-2.5914-3.0855-2.5914-3.7542 0-0.95806 0.35133-0.75796 2.7588 1.5713 2.0262 1.9604 2.7143 2.9573 2.5914 3.7542-0.15153 0.98188-0.41393 0.83241-2.7588-1.5713zm76.013-0.43725c-1.7096-1.6791-2.5914-2.9444-2.5914-3.7187 0-1.0682 0.24804-0.93374 2.7588 1.4954 1.9875 1.9229 2.712 2.9626 2.5914 3.7188-0.15031 0.94227-0.43246 0.78931-2.7588-1.4955zm-36.797-0.26749c-1.7157-1.7-2.327-2.9639-1.4336-2.9639 0.21638 0 1.2607 0.85926 2.3206 1.9095 1.2848 1.273 1.7627 2.0687 1.4336 2.3871-0.32907 0.31839-1.1026-0.12573-2.3206-1.3327zm-39.21-2.2715c-1.4214-1.5627-2.5875-3.2688-2.5914-3.7913-6e-3 -0.7402 0.60216-0.3606 2.7518 1.7192 2.0644 1.9973 2.7166 2.9516 2.5914 3.7913-0.1517 1.0169-0.40978 0.85569-2.7518-1.7192zm86.372 0.15119c-1.7096-1.679-2.5913-2.9444-2.5913-3.7187 0-1.0682 0.24802-0.93373 2.7588 1.4954 1.9874 1.9229 2.712 2.9626 2.5913 3.7188-0.15031 0.94228-0.43243 0.78933-2.7588-1.4955zm-46.231 0.15462c-2.57-2.5463-1.8634-3.6558 0.75364-1.1834 1.7751 1.677 2.4614 3.0505 1.5242 3.0505-0.21639 0-1.2414-0.8402-2.2778-1.8671zm35.865-0.63204c-1.949-1.9143-2.5914-2.8953-2.5914-3.9577v-1.4125l2.755 2.6655c2.2068 2.1351 2.7225 2.9226 2.5914 3.9577-0.16215 1.2803-0.1874 1.2688-2.755-1.2531zm-34.566-1.3856c-1.4783-1.3341-1.984-2.1029-1.703-2.5888 0.31412-0.54306 0.84089-0.25617 2.4594 1.3394 2.781 2.7415 2.1153 3.8411-0.75639 1.2494zm-41.534-1.1883c-1.6933-1.473-2.5048-2.5513-2.5048-3.3285 0-0.6323 0.17357-1.1496 0.38565-1.1496 0.21209 0 1.6398 1.2357 3.1726 2.746 2.2893 2.2556 2.6677 2.85 2.1191 3.3285-0.53865 0.46978-1.1526 0.16085-3.1726-1.5963zm86.407-0.3548c-1.3934-1.365-2.5334-2.7438-2.5334-3.0638 0-1.1888 1.339-0.51149 3.8059 1.9252 2.0261 2.0013 2.4093 2.6195 1.8995 3.0638-0.50116 0.43678-1.1842 0.0223-3.172-1.9252zm-10.307-0.41437c-1.7096-1.6791-2.5914-2.9444-2.5914-3.7188 0-1.0682 0.24804-0.9337 2.7588 1.4955 1.9875 1.9229 2.712 2.9626 2.5914 3.7187-0.15031 0.94226-0.43246 0.78933-2.7588-1.4955zm-33.572-0.0135c-1.2921-1.2737-1.9136-2.2441-1.6759-2.6163 0.26612-0.4166 0.98539 7e-3 2.4317 1.4331 1.2921 1.2738 1.9136 2.2441 1.6759 2.6163-0.26615 0.41661-0.98537-7e-3 -2.4317-1.4331zm0.9503-1.9466c-1.6109-1.588-1.9291-2.1557-1.4619-2.6077 0.46718-0.45201 1.005-0.19245 2.4709 1.1924 1.0305 0.97362 1.8737 2.0363 1.8737 2.3615 0 1.2916-0.91863 0.99011-2.8828-0.94618zm32.605-0.92842-2.5745-2.5222v-8.3272h5.4295v6.6858c0 3.6772-0.063 6.6858-0.14025 6.6858-0.0772 0-1.2988-1.135-2.7148-2.5222zm-31.399-0.77003c-1.2237-1.2125-1.804-2.1632-1.6135-2.6435 0.44139-1.1128 0.92572-0.93784 2.9465 1.0644 1.5771 1.5627 1.7443 1.9294 1.2046 2.6435-0.57356 0.7589-0.78835 0.6688-2.5376-1.0644zm-73.287-22.74c-2.7492-2.7616-4.9985-5.2831-4.9985-5.6035 0-0.32036 2.5543 1.8818 5.6763 4.8938 3.122 3.012 5.6763 5.5335 5.6763 5.6035 0 0.0699-0.30502 0.12718-0.6778 0.12718-0.3728 0-2.9271-2.2595-5.6763-5.021zm1.4356-1.8867c-3.9198-3.7992-6.9622-7.0671-6.7609-7.2618 0.2013-0.19475 3.7436 2.9137 7.8717 6.9077 4.1281 3.994 7.1705 7.2618 6.7609 7.2618-0.40962 0-3.9519-3.1085-7.8717-6.9077zm7.1397 4.0424c-3.8152-3.7301-2.557-3.7382 1.4065-9e-3 1.7306 1.6283 2.7109 2.8602 2.28 2.8654-0.41572 5e-3 -2.0746-1.2804-3.6865-2.8563zm3.2084 0.23879c-3.5205-3.449-2.0877-3.4663 1.771-0.0216 2.2852 2.04 2.7003 2.6097 1.914 2.6266-0.58225 0.0132-2.1304-1.0819-3.6851-2.605zm2.9784 0.0212c-2.1472-2.1072-2.4951-2.6477-1.7044-2.6477 1.2762 0 4.7957 3.4676 4.5724 4.505-0.12644 0.58747-0.86286 0.11066-2.868-1.8573zm9.9577 0.5577c-1.289-1.2707-2.0771-2.4876-2.0771-3.2072 0-1.0538 0.24758-0.92293 2.7147 1.4344 1.4931 1.4266 2.7148 2.8699 2.7148 3.2072 0 1.1576-1.2776 0.61095-3.3524-1.4344zm12.731-3.4442-3.5647-5.4919h-2.7564c-2.3123 0-2.9992-0.21153-4.2641-1.3133l-1.5078-1.3133 1.3574 1.4588c1.1576 1.2441 1.3574 1.8742 1.3574 4.2817v2.8229l-2.7148-2.5939-2.7147-2.5939v-6.002h8.8081c7.9063 0 8.8918-0.0894 9.6251-0.87332 1.0717-1.1457 1.0368-2.6066-0.0858-3.5894-0.7968-0.6977-2.6034-0.79035-15.409-0.79035h-14.507l-2.7301-2.5072-2.73-2.5072 2.4492 2.5072c2.2816 2.3356 2.366 2.5065 1.2338 2.4973-1.4128-0.0118-6.3688-3.9836-5.7403-4.6008 0.22607-0.222 9.0167-0.40367 19.535-0.40367h19.124l1.8136 1.338c2.343 1.7286 3.4072 3.7718 3.4072 6.5417 0 3.6781-2.4166 6.8687-5.6808 7.5003-1.7095 0.33077-1.6849 0.40118 2.0043 5.7426 1.5908 2.3033 3.0563 4.4565 3.2566 4.7848 0.27591 0.45226-0.40721 0.59695-2.8185 0.59695h-3.1827zm13.821 5.0293c0-0.25442 0.33316-0.33886 0.74037-0.18768 0.40723 0.15121 0.74041 0.35935 0.74041 0.46256 0 0.10312-0.33318 0.18769-0.74041 0.18769-0.40721 0-0.74037-0.20815-0.74037-0.46257zm1.2807-0.9229c-0.75454-0.76197-1.2959-1.7402-1.2029-2.1737 0.12818-0.59718 0.70246-0.2613 2.3695 1.3854 1.8196 1.7974 2.0278 2.1738 1.2029 2.1738-0.54869 0-1.615-0.62344-2.3695-1.3855zm1.8042-1.424c-2.1016-1.9002-3.0849-3.1493-3.0849-3.9186 0-0.96487 0.57476-0.57641 3.9487 2.6688 2.1718 2.0889 3.9487 3.8568 3.9487 3.9286 0 0.0719-0.3887 0.12599-0.86378 0.12057-0.47509-5e-3 -2.252-1.2653-3.9487-2.7994zm1.471-1.6169c-3.2633-3.1705-4.556-4.7586-4.556-5.5975 0-1.052 0.31521-0.86887 3.0982 1.7998 2.4191 2.3197 3.4236 2.9709 4.5826 2.9709 1.1452 0 2.097 0.60017 4.1654 2.6266 2.4404 2.3908 2.5732 2.6265 1.4794 2.6265-0.77413 0-2.1719-0.89193-3.9292-2.5072-2.5221-2.3183-2.579-2.3462-0.7559-0.36976 1.0844 1.1756 2.1938 2.3005 2.4653 2.4998 0.27144 0.19933-0.0662 0.36573-0.75015 0.36973-0.91712 5e-3 -2.4401-1.155-5.7997-4.419zm7.7838 1.7998c-2.4306-2.3812-2.5695-2.6266-1.4874-2.6266 0.65863 0 1.9781 0.69567 2.9437 1.552l1.75 1.5521-2.8974-3.1041h10.057v5.2531h-2.1224c-1.1673 0-2.4216-0.26864-2.7872-0.59693-0.53177-0.47756-0.59503-0.47756-0.31639 0 0.24312 0.4166-0.0757 0.59693-1.055 0.59693-1.047 0-2.0841-0.66696-4.0844-2.6265zm8.391 1.9687c0-0.0993-0.38871-0.47525-0.86379-0.83571-0.78285-0.59403-0.80033-0.57714-0.18637 0.18029 0.64482 0.79548 1.0502 1.0484 1.0502 0.65542zm5.1062-0.0789c-0.49379-1.245 0.29229-1.4155 1.4338-0.31104l1.0831 1.048h-1.1124c-0.61179 0-1.2439-0.33158-1.4046-0.73692zm2.3048-0.92736c-0.91699-0.91536-1.5082-1.8182-1.3139-2.0062 0.19435-0.18805 1.2865 0.56088 2.427 1.6643 1.2975 1.2554 1.7892 2.0062 1.3139 2.0062-0.41782 0-1.51-0.74893-2.427-1.6643zm23.471 0.11198-0.92079-1.552 1.5548 1.4026c1.7464 1.5755 1.8146 1.7015 0.92076 1.7015-0.34866 0-1.0483-0.69844-1.5547-1.5521zm0.64262-0.71632c-1.2372-1.2476-2.9718-3.5578-3.8549-5.1337l-1.6055-2.8653 5.2308 5.0058c2.8769 2.7532 5.2308 5.0634 5.2308 5.1337 0 0.0702-0.61917 0.12785-1.3759 0.12785-0.99669 0-1.9959-0.6252-3.6253-2.2684zm-0.2382-3.5817c-3.2807-3.2175-6.5805-6.9245-7.3328-8.2378-1.3636-2.3804-1.3528-2.3738 3.4975 2.149l4.8653 4.5368-5.4226-5.4919c-2.9824-3.0205-6.5332-6.4516-7.8905-7.6246l-2.468-2.1327 2.0796 2.1329c1.552 1.5918 1.9625 2.3146 1.6178 2.8491-0.38026 0.58966-0.82248 0.36832-2.5037-1.2532l-2.0418-1.9693 1.658-2.9372 1.658-2.9372 4.3814 0.26184 4.3713 7.8796c8.9182 16.076 10.271 18.625 9.8878 18.625-0.21583 0-3.0767-2.6325-6.3574-5.85zm10.576 5.4822c0.46922-0.15139 0.48849-0.3655 0.0762-0.84622-0.30365-0.35398-0.4795-1.0984-0.39081-1.6542 0.14598-0.9148 0.34638-0.8267 2.1128 0.9292l1.9515 1.9398-2.189-0.083c-1.2039-0.0456-1.9063-0.17415-1.5607-0.2856zm2.1743-2.1544c-1.6863-1.6521-2.5745-2.9237-2.5745-3.6861 0-1.0478 0.29546-0.88105 2.9616 1.6715 2.5944 2.4839 3.7594 4.5368 2.5745 4.5368-0.2129 0-1.5456-1.135-2.9616-2.5222zm17.169 1.493c0-1.0169 0.0145-1.0184 1.1106-0.12454 0.61082 0.49757 1.2031 0.96067 1.3162 1.0291 0.11322 0.0685-0.38663 0.12454-1.1106 0.12454-1.0187 0-1.3162-0.23262-1.3162-1.0291zm1.781-0.82814c-1.031-1.0215-1.7979-2.213-1.7043-2.6477 0.1263-0.5875 0.86285-0.11066 2.868 1.8573 2.1472 2.1072 2.4951 2.6477 1.7044 2.6477-0.54645 0-1.8371-0.83579-2.868-1.8573zm8.5844 1.0825c0-0.63458 0.13408-0.66721 0.74042-0.18031 0.40719 0.32699 0.74038 0.67564 0.74038 0.77481 0 0.0993-0.33319 0.18031-0.74038 0.18031-0.40722 0-0.74042-0.34869-0.74042-0.77481zm1.5314-0.84615c-0.89309-0.89152-1.5475-1.9763-1.4542-2.4106 0.12716-0.59205 0.78251-0.18647 2.619 1.621 1.9833 1.9518 2.26 2.4106 1.4542 2.4106-0.54735 0-1.7259-0.72945-2.6191-1.621zm1.0123-1.8819c-1.5462-1.5175-2.5682-2.9193-2.468-3.3852 0.12803-0.59552 0.83361-0.14497 2.8101 1.7949 1.5462 1.5175 2.5682 2.9194 2.468 3.3852-0.12803 0.59555-0.83362 0.14498-2.8101-1.7949zm-146.19 0.93034c-0.94531-0.62691-2.1378-1.8626-2.6499-2.7459-0.82121-1.4165-0.60278-1.298 1.851 1.0042 1.5302 1.4356 2.7821 2.6713 2.7821 2.7459 0 0.26613-0.28648 0.12097-1.9832-1.0042zm81.205-0.77033c-1.0506-1.041-1.7992-2.0001-1.6634-2.1315 0.1358-0.13128 1.1064 0.61295 2.157 1.6539 1.0506 1.041 1.7992 2.0001 1.6634 2.1314-0.1358 0.13141-1.1064-0.61292-2.157-1.6539zm54.665-0.58907c-1.7096-1.6791-2.5914-2.9444-2.5914-3.7188 0-1.0682 0.24801-0.93371 2.7588 1.4955 1.9874 1.9229 2.712 2.9626 2.5913 3.7188-0.15031 0.94226-0.43244 0.78931-2.7588-1.4955zm-110.56-0.47748c-1.949-1.9143-2.5914-2.8953-2.5914-3.9577v-1.4125l2.755 2.6656c2.2068 2.1351 2.7225 2.9227 2.5914 3.9577-0.16212 1.2803-0.18739 1.2688-2.755-1.2531zm91.024-0.76529c-2.0689-2.0233-2.8542-3.1392-2.7835-3.9556 0.0543-0.62545 0.074-3.6623 0.0437-6.7485l-0.0547-5.6113h-10.859v-5.2531h27.641v5.2531h-10.839l-0.13377 9.5668-0.13378 9.5669zm-100.32 0.82797c-0.93128-0.99562-0.92893-1.0024 0.28865-0.83572 0.6855 0.0939 1.3003 0.53711 1.3922 1.0038 0.22252 1.1296-0.5382 1.0535-1.6809-0.16812zm66.211-0.88255c-1.0252-1.0158-1.7808-2.0882-1.6791-2.3832 0.1017-0.29499 1.1472 0.41243 2.3235 1.572 1.1763 1.1596 1.9319 2.232 1.6792 2.3832-0.25277 0.15122-1.2983-0.55627-2.3235-1.572zm64.019-1.1308c-1.5785-1.6181-2.5914-3.0855-2.5914-3.7542 0-0.95808 0.35136-0.75799 2.7588 1.5713 2.0262 1.9604 2.7143 2.9573 2.5914 3.7542-0.15151 0.98189-0.41395 0.83242-2.7588-1.5712zm-10.365-0.43726c-1.7096-1.6791-2.5914-2.9445-2.5914-3.7188 0-1.0682 0.24801-0.93372 2.7588 1.4954 1.9874 1.9229 2.712 2.9626 2.5913 3.7188-0.15031 0.94225-0.43244 0.78931-2.7588-1.4955zm-52.591-0.2675c-1.7157-1.7-2.327-2.9639-1.4336-2.9639 0.21638 0 1.2606 0.85929 2.3206 1.9095 1.2848 1.273 1.7626 2.0687 1.4336 2.3871-0.32904 0.31836-1.1026-0.12586-2.3206-1.3327zm-29.345-2.1203c-1.7096-1.6791-2.5914-2.9444-2.5914-3.7188 0-1.0682 0.24802-0.9337 2.7588 1.4955 1.9874 1.9229 2.712 2.9626 2.5913 3.7188-0.15031 0.94226-0.43242 0.78931-2.7587-1.4955zm92.302-0.35648c-1.5478-1.6726-2.5914-3.2459-2.5914-3.9069 0-0.9709 0.33786-0.77974 2.755 1.5589 2.1655 2.0952 2.72 2.9312 2.5914 3.9069-0.15639 1.1856-0.28006 1.1156-2.755-1.5589zm-62.026 0.5111c-2.5699-2.5464-1.8634-3.6558 0.75366-1.1834 1.7751 1.677 2.4613 3.0505 1.5242 3.0505-0.21639 0-1.2414-0.84021-2.2778-1.8671zm51.66-0.63203c-1.949-1.9143-2.5914-2.8953-2.5914-3.9577v-1.4125l2.755 2.6655c2.2068 2.1351 2.7225 2.9227 2.5914 3.9577-0.16212 1.2803-0.18741 1.2689-2.755-1.2531zm-50.36-1.3856c-1.4783-1.3342-1.984-2.1029-1.703-2.5888 0.31414-0.54308 0.84089-0.25621 2.4594 1.3394 2.781 2.7415 2.1153 3.8411-0.75639 1.2494zm-31.576-1.004c-4.2572-4.1784-4.3883-4.116 8.7612-4.1668l11.353-0.0438v5.279h-15.507l-1.9945-1.7908-1.9945-1.7908 1.7004 1.7908c0.93517 0.98495 1.4509 1.7908 1.1461 1.7908-0.3048 0-0.626 0.33187-0.71378 0.73751-0.11177 0.51542-0.93991-0.0284-2.7509-1.8058zm92.297-0.48638c-1.4229-1.394-2.5871-2.7964-2.5871-3.1165 0-0.75554 1.0994-0.74707 1.9481 0.0153 0.53176 0.47756 0.59503 0.47756 0.31639 0-0.27388-0.46933 1.8738-0.59695 10.046-0.59695h10.395v5.2531h-6.0712c-4.1734 0-6.279-0.18658-6.7359-0.59693-0.53179-0.47756-0.59504-0.47756-0.31638 0 0.25607 0.43884-0.23676 0.59693-1.8608 0.59693-1.215 0-2.2851 0.22048-2.378 0.48993-0.0931 0.26944-1.333-0.65065-2.7559-2.0446zm2.3488-0.5358c0-0.0992-0.3887-0.47523-0.86377-0.83572-0.78288-0.59401-0.80034-0.57713-0.18637 0.1803 0.64483 0.79548 1.0501 1.0485 1.0501 0.65542zm-150.68-0.19174c-1.5525-1.5179-2.8227-3.0686-2.8227-3.446 0-0.87975 5.27 4.1314 5.59 5.3154 0.13235 0.48967 0.19894 0.8903 0.148 0.8903-0.0509 0-1.3629-1.2419-2.9154-2.7598zm137.97 0.26051c-1.7096-1.6791-2.5914-2.9444-2.5914-3.7188 0-1.0682 0.24801-0.9337 2.7588 1.4955 1.9874 1.9229 2.712 2.9626 2.5913 3.7188-0.15031 0.94227-0.43244 0.78932-2.7588-1.4955zm-49.367-0.0135c-1.2921-1.2737-1.9136-2.2441-1.6759-2.6163 0.26614-0.41662 0.98539 6e-3 2.4317 1.4331 1.2921 1.2738 1.9136 2.2441 1.6759 2.6163-0.26614 0.4166-0.98538-6e-3 -2.4317-1.4331zm0.95031-1.9466c-1.6109-1.588-1.9291-2.1557-1.4619-2.6077 0.4672-0.452 1.0051-0.19244 2.4709 1.1924 1.0306 0.97363 1.8737 2.0363 1.8737 2.3614 0 1.2916-0.91863 0.99012-2.8828-0.94615zm48.4-0.92843-2.5745-2.5222v-8.3272h5.4295v6.6858c0 3.6772-0.0632 6.6858-0.14025 6.6858-0.0772 0-1.2988-1.135-2.7148-2.5222zm-138.08-0.49165c-1.7249-1.5209-2.2976-2.313-1.9342-2.6755 0.36541-0.36452 1.139 0.099 2.6481 1.5867 2.9454 2.9037 2.359 3.7981-0.71393 1.0887zm90.889-0.27842c-1.2237-1.2125-1.804-2.1632-1.6135-2.6435 0.44137-1.1128 0.9257-0.93787 2.9465 1.0644 1.5771 1.5627 1.7442 1.9294 1.2046 2.6435-0.57356 0.75889-0.78835 0.66881-2.5376-1.0644zm-90.135-1.7252c-1.4485-1.4279-2.0082-2.3011-1.6791-2.6194 0.67833-0.65629 4.749 3.3567 4.2297 4.1697-0.26536 0.41539-1.025-0.0464-2.5506-1.5503zm1.2807-2.1027c-2.7188-2.6938-1.7969-3.6005 0.97994-0.96378 1.9027 1.8067 2.3617 2.8309 1.2688 2.8309-0.20035 0-1.2123-0.8402-2.2487-1.8671zm1.4927-1.4208c-2.5554-2.532-1.4088-3.2156 1.2231-0.72916 1.0614 1.0028 1.9298 1.9945 1.9298 2.2038 0 0.90673-1.4196 0.24277-3.1529-1.4747zm2.0191-0.91077c-2.0206-2.002-2.1376-2.2698-1.1524-2.6356 0.38555-0.1431 1.7015 0.75716 3.0664 2.0979 2.2513 2.2114 2.3186 2.3486 1.1524 2.3486-0.7834 0-1.9104-0.66561-3.0664-1.811zm48.025-1.2931v-2.6266h22.705v5.2531h-22.705zm92.302 0v-2.6266h22.705v5.2531h-22.705z"
     fill="url(#meshgradient12)"
     stroke-width="1.7134"
     id="path4" /><script
     id="mesh_polyfill"
     type="text/javascript">
!function(){const t=&quot;http://www.w3.org/2000/svg&quot;,e=&quot;http://www.w3.org/1999/xlink&quot;,s=&quot;http://www.w3.org/1999/xhtml&quot;,r=2;if(document.createElementNS(t,&quot;meshgradient&quot;).x)return;const n=(t,e,s,r)=&gt;{let n=new x(.5*(e.x+s.x),.5*(e.y+s.y)),o=new x(.5*(t.x+e.x),.5*(t.y+e.y)),i=new x(.5*(s.x+r.x),.5*(s.y+r.y)),a=new x(.5*(n.x+o.x),.5*(n.y+o.y)),h=new x(.5*(n.x+i.x),.5*(n.y+i.y)),l=new x(.5*(a.x+h.x),.5*(a.y+h.y));return[[t,o,a,l],[l,h,i,r]]},o=t=&gt;{let e=t[0].distSquared(t[1]),s=t[2].distSquared(t[3]),r=.25*t[0].distSquared(t[2]),n=.25*t[1].distSquared(t[3]),o=e&gt;s?e:s,i=r&gt;n?r:n;return 18*(o&gt;i?o:i)},i=(t,e)=&gt;Math.sqrt(t.distSquared(e)),a=(t,e)=&gt;t.scale(2/3).add(e.scale(1/3)),h=t=&gt;{let e,s,r,n,o,i,a,h=new g;return t.match(/(\w+\(\s*[^)]+\))+/g).forEach(t=&gt;{let l=t.match(/[\w.-]+/g),d=l.shift();switch(d){case&quot;translate&quot;:2===l.length?e=new g(1,0,0,1,l[0],l[1]):(console.error(&quot;mesh.js: translate does not have 2 arguments!&quot;),e=new g(1,0,0,1,0,0)),h=h.append(e);break;case&quot;scale&quot;:1===l.length?s=new g(l[0],0,0,l[0],0,0):2===l.length?s=new g(l[0],0,0,l[1],0,0):(console.error(&quot;mesh.js: scale does not have 1 or 2 arguments!&quot;),s=new g(1,0,0,1,0,0)),h=h.append(s);break;case&quot;rotate&quot;:if(3===l.length&amp;&amp;(e=new g(1,0,0,1,l[1],l[2]),h=h.append(e)),l[0]){r=l[0]*Math.PI/180;let t=Math.cos(r),e=Math.sin(r);Math.abs(t)&lt;1e-16&amp;&amp;(t=0),Math.abs(e)&lt;1e-16&amp;&amp;(e=0),a=new g(t,e,-e,t,0,0),h=h.append(a)}else console.error(&quot;math.js: No argument to rotate transform!&quot;);3===l.length&amp;&amp;(e=new g(1,0,0,1,-l[1],-l[2]),h=h.append(e));break;case&quot;skewX&quot;:l[0]?(r=l[0]*Math.PI/180,n=Math.tan(r),o=new g(1,0,n,1,0,0),h=h.append(o)):console.error(&quot;math.js: No argument to skewX transform!&quot;);break;case&quot;skewY&quot;:l[0]?(r=l[0]*Math.PI/180,n=Math.tan(r),i=new g(1,n,0,1,0,0),h=h.append(i)):console.error(&quot;math.js: No argument to skewY transform!&quot;);break;case&quot;matrix&quot;:6===l.length?h=h.append(new g(...l)):console.error(&quot;math.js: Incorrect number of arguments for matrix!&quot;);break;default:console.error(&quot;mesh.js: Unhandled transform type: &quot;+d)}}),h},l=t=&gt;{let e=[],s=t.split(/[ ,]+/);for(let t=0,r=s.length-1;t&lt;r;t+=2)e.push(new x(parseFloat(s[t]),parseFloat(s[t+1])));return e},d=(t,e)=&gt;{for(let s in e)t.setAttribute(s,e[s])},c=(t,e,s,r,n)=&gt;{let o,i,a=[0,0,0,0];for(let h=0;h&lt;3;++h)e[h]&lt;t[h]&amp;&amp;e[h]&lt;s[h]||t[h]&lt;e[h]&amp;&amp;s[h]&lt;e[h]?a[h]=0:(a[h]=.5*((e[h]-t[h])/r+(s[h]-e[h])/n),o=Math.abs(3*(e[h]-t[h])/r),i=Math.abs(3*(s[h]-e[h])/n),a[h]&gt;o?a[h]=o:a[h]&gt;i&amp;&amp;(a[h]=i));return a},u=[[1,0,0,0,0,0,0,0,0,0,0,0,0,0,0,0],[0,0,0,0,1,0,0,0,0,0,0,0,0,0,0,0],[-3,3,0,0,-2,-1,0,0,0,0,0,0,0,0,0,0],[2,-2,0,0,1,1,0,0,0,0,0,0,0,0,0,0],[0,0,0,0,0,0,0,0,1,0,0,0,0,0,0,0],[0,0,0,0,0,0,0,0,0,0,0,0,1,0,0,0],[0,0,0,0,0,0,0,0,-3,3,0,0,-2,-1,0,0],[0,0,0,0,0,0,0,0,2,-2,0,0,1,1,0,0],[-3,0,3,0,0,0,0,0,-2,0,-1,0,0,0,0,0],[0,0,0,0,-3,0,3,0,0,0,0,0,-2,0,-1,0],[9,-9,-9,9,6,3,-6,-3,6,-6,3,-3,4,2,2,1],[-6,6,6,-6,-3,-3,3,3,-4,4,-2,2,-2,-2,-1,-1],[2,0,-2,0,0,0,0,0,1,0,1,0,0,0,0,0],[0,0,0,0,2,0,-2,0,0,0,0,0,1,0,1,0],[-6,6,6,-6,-4,-2,4,2,-3,3,-3,3,-2,-1,-2,-1],[4,-4,-4,4,2,2,-2,-2,2,-2,2,-2,1,1,1,1]],f=t=&gt;{let e=[];for(let s=0;s&lt;16;++s){e[s]=0;for(let r=0;r&lt;16;++r)e[s]+=u[s][r]*t[r]}return e},p=(t,e,s)=&gt;{const r=e*e,n=s*s,o=e*e*e,i=s*s*s;return t[0]+t[1]*e+t[2]*r+t[3]*o+t[4]*s+t[5]*s*e+t[6]*s*r+t[7]*s*o+t[8]*n+t[9]*n*e+t[10]*n*r+t[11]*n*o+t[12]*i+t[13]*i*e+t[14]*i*r+t[15]*i*o},y=t=&gt;{let e=[],s=[],r=[];for(let s=0;s&lt;4;++s)e[s]=[],e[s][0]=n(t[0][s],t[1][s],t[2][s],t[3][s]),e[s][1]=[],e[s][1].push(...n(...e[s][0][0])),e[s][1].push(...n(...e[s][0][1])),e[s][2]=[],e[s][2].push(...n(...e[s][1][0])),e[s][2].push(...n(...e[s][1][1])),e[s][2].push(...n(...e[s][1][2])),e[s][2].push(...n(...e[s][1][3]));for(let t=0;t&lt;8;++t){s[t]=[];for(let r=0;r&lt;4;++r)s[t][r]=[],s[t][r][0]=n(e[0][2][t][r],e[1][2][t][r],e[2][2][t][r],e[3][2][t][r]),s[t][r][1]=[],s[t][r][1].push(...n(...s[t][r][0][0])),s[t][r][1].push(...n(...s[t][r][0][1])),s[t][r][2]=[],s[t][r][2].push(...n(...s[t][r][1][0])),s[t][r][2].push(...n(...s[t][r][1][1])),s[t][r][2].push(...n(...s[t][r][1][2])),s[t][r][2].push(...n(...s[t][r][1][3]))}for(let t=0;t&lt;8;++t){r[t]=[];for(let e=0;e&lt;8;++e)r[t][e]=[],r[t][e][0]=s[t][0][2][e],r[t][e][1]=s[t][1][2][e],r[t][e][2]=s[t][2][2][e],r[t][e][3]=s[t][3][2][e]}return r};class x{constructor(t,e){this.x=t||0,this.y=e||0}toString(){return`(x=${this.x}, y=${this.y})`}clone(){return new x(this.x,this.y)}add(t){return new x(this.x+t.x,this.y+t.y)}scale(t){return void 0===t.x?new x(this.x*t,this.y*t):new x(this.x*t.x,this.y*t.y)}distSquared(t){let e=this.x-t.x,s=this.y-t.y;return e*e+s*s}transform(t){let e=this.x*t.a+this.y*t.c+t.e,s=this.x*t.b+this.y*t.d+t.f;return new x(e,s)}}class g{constructor(t,e,s,r,n,o){void 0===t?(this.a=1,this.b=0,this.c=0,this.d=1,this.e=0,this.f=0):(this.a=t,this.b=e,this.c=s,this.d=r,this.e=n,this.f=o)}toString(){return`affine: ${this.a} ${this.c} ${this.e} \n       ${this.b} ${this.d} ${this.f}`}append(t){t instanceof g||console.error(&quot;mesh.js: argument to Affine.append is not affine!&quot;);let e=this.a*t.a+this.c*t.b,s=this.b*t.a+this.d*t.b,r=this.a*t.c+this.c*t.d,n=this.b*t.c+this.d*t.d,o=this.a*t.e+this.c*t.f+this.e,i=this.b*t.e+this.d*t.f+this.f;return new g(e,s,r,n,o,i)}}class w{constructor(t,e){this.nodes=t,this.colors=e}paintCurve(t,e){if(o(this.nodes)&gt;r){const s=n(...this.nodes);let r=[[],[]],o=[[],[]];for(let t=0;t&lt;4;++t)r[0][t]=this.colors[0][t],r[1][t]=(this.colors[0][t]+this.colors[1][t])/2,o[0][t]=r[1][t],o[1][t]=this.colors[1][t];let i=new w(s[0],r),a=new w(s[1],o);i.paintCurve(t,e),a.paintCurve(t,e)}else{let s=Math.round(this.nodes[0].x);if(s&gt;=0&amp;&amp;s&lt;e){let r=4*(~~this.nodes[0].y*e+s);t[r]=Math.round(this.colors[0][0]),t[r+1]=Math.round(this.colors[0][1]),t[r+2]=Math.round(this.colors[0][2]),t[r+3]=Math.round(this.colors[0][3])}}}}class m{constructor(t,e){this.nodes=t,this.colors=e}split(){let t=[[],[],[],[]],e=[[],[],[],[]],s=[[[],[]],[[],[]]],r=[[[],[]],[[],[]]];for(let s=0;s&lt;4;++s){const r=n(this.nodes[0][s],this.nodes[1][s],this.nodes[2][s],this.nodes[3][s]);t[0][s]=r[0][0],t[1][s]=r[0][1],t[2][s]=r[0][2],t[3][s]=r[0][3],e[0][s]=r[1][0],e[1][s]=r[1][1],e[2][s]=r[1][2],e[3][s]=r[1][3]}for(let t=0;t&lt;4;++t)s[0][0][t]=this.colors[0][0][t],s[0][1][t]=this.colors[0][1][t],s[1][0][t]=(this.colors[0][0][t]+this.colors[1][0][t])/2,s[1][1][t]=(this.colors[0][1][t]+this.colors[1][1][t])/2,r[0][0][t]=s[1][0][t],r[0][1][t]=s[1][1][t],r[1][0][t]=this.colors[1][0][t],r[1][1][t]=this.colors[1][1][t];return[new m(t,s),new m(e,r)]}paint(t,e){let s,n=!1;for(let t=0;t&lt;4;++t)if((s=o([this.nodes[0][t],this.nodes[1][t],this.nodes[2][t],this.nodes[3][t]]))&gt;r){n=!0;break}if(n){let s=this.split();s[0].paint(t,e),s[1].paint(t,e)}else{new w([...this.nodes[0]],[...this.colors[0]]).paintCurve(t,e)}}}class b{constructor(t){this.readMesh(t),this.type=t.getAttribute(&quot;type&quot;)||&quot;bilinear&quot;}readMesh(t){let e=[[]],s=[[]],r=Number(t.getAttribute(&quot;x&quot;)),n=Number(t.getAttribute(&quot;y&quot;));e[0][0]=new x(r,n);let o=t.children;for(let t=0,r=o.length;t&lt;r;++t){e[3*t+1]=[],e[3*t+2]=[],e[3*t+3]=[],s[t+1]=[];let r=o[t].children;for(let n=0,o=r.length;n&lt;o;++n){let o=r[n].children;for(let r=0,i=o.length;r&lt;i;++r){let i=r;0!==t&amp;&amp;++i;let h,d=o[r].getAttribute(&quot;path&quot;),c=&quot;l&quot;;null!=d&amp;&amp;(c=(h=d.match(/\s*([lLcC])\s*(.*)/))[1]);let u=l(h[2]);switch(c){case&quot;l&quot;:0===i?(e[3*t][3*n+3]=u[0].add(e[3*t][3*n]),e[3*t][3*n+1]=a(e[3*t][3*n],e[3*t][3*n+3]),e[3*t][3*n+2]=a(e[3*t][3*n+3],e[3*t][3*n])):1===i?(e[3*t+3][3*n+3]=u[0].add(e[3*t][3*n+3]),e[3*t+1][3*n+3]=a(e[3*t][3*n+3],e[3*t+3][3*n+3]),e[3*t+2][3*n+3]=a(e[3*t+3][3*n+3],e[3*t][3*n+3])):2===i?(0===n&amp;&amp;(e[3*t+3][3*n+0]=u[0].add(e[3*t+3][3*n+3])),e[3*t+3][3*n+1]=a(e[3*t+3][3*n],e[3*t+3][3*n+3]),e[3*t+3][3*n+2]=a(e[3*t+3][3*n+3],e[3*t+3][3*n])):(e[3*t+1][3*n]=a(e[3*t][3*n],e[3*t+3][3*n]),e[3*t+2][3*n]=a(e[3*t+3][3*n],e[3*t][3*n]));break;case&quot;L&quot;:0===i?(e[3*t][3*n+3]=u[0],e[3*t][3*n+1]=a(e[3*t][3*n],e[3*t][3*n+3]),e[3*t][3*n+2]=a(e[3*t][3*n+3],e[3*t][3*n])):1===i?(e[3*t+3][3*n+3]=u[0],e[3*t+1][3*n+3]=a(e[3*t][3*n+3],e[3*t+3][3*n+3]),e[3*t+2][3*n+3]=a(e[3*t+3][3*n+3],e[3*t][3*n+3])):2===i?(0===n&amp;&amp;(e[3*t+3][3*n+0]=u[0]),e[3*t+3][3*n+1]=a(e[3*t+3][3*n],e[3*t+3][3*n+3]),e[3*t+3][3*n+2]=a(e[3*t+3][3*n+3],e[3*t+3][3*n])):(e[3*t+1][3*n]=a(e[3*t][3*n],e[3*t+3][3*n]),e[3*t+2][3*n]=a(e[3*t+3][3*n],e[3*t][3*n]));break;case&quot;c&quot;:0===i?(e[3*t][3*n+1]=u[0].add(e[3*t][3*n]),e[3*t][3*n+2]=u[1].add(e[3*t][3*n]),e[3*t][3*n+3]=u[2].add(e[3*t][3*n])):1===i?(e[3*t+1][3*n+3]=u[0].add(e[3*t][3*n+3]),e[3*t+2][3*n+3]=u[1].add(e[3*t][3*n+3]),e[3*t+3][3*n+3]=u[2].add(e[3*t][3*n+3])):2===i?(e[3*t+3][3*n+2]=u[0].add(e[3*t+3][3*n+3]),e[3*t+3][3*n+1]=u[1].add(e[3*t+3][3*n+3]),0===n&amp;&amp;(e[3*t+3][3*n+0]=u[2].add(e[3*t+3][3*n+3]))):(e[3*t+2][3*n]=u[0].add(e[3*t+3][3*n]),e[3*t+1][3*n]=u[1].add(e[3*t+3][3*n]));break;case&quot;C&quot;:0===i?(e[3*t][3*n+1]=u[0],e[3*t][3*n+2]=u[1],e[3*t][3*n+3]=u[2]):1===i?(e[3*t+1][3*n+3]=u[0],e[3*t+2][3*n+3]=u[1],e[3*t+3][3*n+3]=u[2]):2===i?(e[3*t+3][3*n+2]=u[0],e[3*t+3][3*n+1]=u[1],0===n&amp;&amp;(e[3*t+3][3*n+0]=u[2])):(e[3*t+2][3*n]=u[0],e[3*t+1][3*n]=u[1]);break;default:console.error(&quot;mesh.js: &quot;+c+&quot; invalid path type.&quot;)}if(0===t&amp;&amp;0===n||r&gt;0){let e=window.getComputedStyle(o[r]).stopColor.match(/^rgb\s*\(\s*(\d+)\s*,\s*(\d+)\s*,\s*(\d+)\s*\)$/i),a=window.getComputedStyle(o[r]).stopOpacity,h=255;a&amp;&amp;(h=Math.floor(255*a)),e&amp;&amp;(0===i?(s[t][n]=[],s[t][n][0]=Math.floor(e[1]),s[t][n][1]=Math.floor(e[2]),s[t][n][2]=Math.floor(e[3]),s[t][n][3]=h):1===i?(s[t][n+1]=[],s[t][n+1][0]=Math.floor(e[1]),s[t][n+1][1]=Math.floor(e[2]),s[t][n+1][2]=Math.floor(e[3]),s[t][n+1][3]=h):2===i?(s[t+1][n+1]=[],s[t+1][n+1][0]=Math.floor(e[1]),s[t+1][n+1][1]=Math.floor(e[2]),s[t+1][n+1][2]=Math.floor(e[3]),s[t+1][n+1][3]=h):3===i&amp;&amp;(s[t+1][n]=[],s[t+1][n][0]=Math.floor(e[1]),s[t+1][n][1]=Math.floor(e[2]),s[t+1][n][2]=Math.floor(e[3]),s[t+1][n][3]=h))}}e[3*t+1][3*n+1]=new x,e[3*t+1][3*n+2]=new x,e[3*t+2][3*n+1]=new x,e[3*t+2][3*n+2]=new x,e[3*t+1][3*n+1].x=(-4*e[3*t][3*n].x+6*(e[3*t][3*n+1].x+e[3*t+1][3*n].x)+-2*(e[3*t][3*n+3].x+e[3*t+3][3*n].x)+3*(e[3*t+3][3*n+1].x+e[3*t+1][3*n+3].x)+-1*e[3*t+3][3*n+3].x)/9,e[3*t+1][3*n+2].x=(-4*e[3*t][3*n+3].x+6*(e[3*t][3*n+2].x+e[3*t+1][3*n+3].x)+-2*(e[3*t][3*n].x+e[3*t+3][3*n+3].x)+3*(e[3*t+3][3*n+2].x+e[3*t+1][3*n].x)+-1*e[3*t+3][3*n].x)/9,e[3*t+2][3*n+1].x=(-4*e[3*t+3][3*n].x+6*(e[3*t+3][3*n+1].x+e[3*t+2][3*n].x)+-2*(e[3*t+3][3*n+3].x+e[3*t][3*n].x)+3*(e[3*t][3*n+1].x+e[3*t+2][3*n+3].x)+-1*e[3*t][3*n+3].x)/9,e[3*t+2][3*n+2].x=(-4*e[3*t+3][3*n+3].x+6*(e[3*t+3][3*n+2].x+e[3*t+2][3*n+3].x)+-2*(e[3*t+3][3*n].x+e[3*t][3*n+3].x)+3*(e[3*t][3*n+2].x+e[3*t+2][3*n].x)+-1*e[3*t][3*n].x)/9,e[3*t+1][3*n+1].y=(-4*e[3*t][3*n].y+6*(e[3*t][3*n+1].y+e[3*t+1][3*n].y)+-2*(e[3*t][3*n+3].y+e[3*t+3][3*n].y)+3*(e[3*t+3][3*n+1].y+e[3*t+1][3*n+3].y)+-1*e[3*t+3][3*n+3].y)/9,e[3*t+1][3*n+2].y=(-4*e[3*t][3*n+3].y+6*(e[3*t][3*n+2].y+e[3*t+1][3*n+3].y)+-2*(e[3*t][3*n].y+e[3*t+3][3*n+3].y)+3*(e[3*t+3][3*n+2].y+e[3*t+1][3*n].y)+-1*e[3*t+3][3*n].y)/9,e[3*t+2][3*n+1].y=(-4*e[3*t+3][3*n].y+6*(e[3*t+3][3*n+1].y+e[3*t+2][3*n].y)+-2*(e[3*t+3][3*n+3].y+e[3*t][3*n].y)+3*(e[3*t][3*n+1].y+e[3*t+2][3*n+3].y)+-1*e[3*t][3*n+3].y)/9,e[3*t+2][3*n+2].y=(-4*e[3*t+3][3*n+3].y+6*(e[3*t+3][3*n+2].y+e[3*t+2][3*n+3].y)+-2*(e[3*t+3][3*n].y+e[3*t][3*n+3].y)+3*(e[3*t][3*n+2].y+e[3*t+2][3*n].y)+-1*e[3*t][3*n].y)/9}}this.nodes=e,this.colors=s}paintMesh(t,e){let s=(this.nodes.length-1)/3,r=(this.nodes[0].length-1)/3;if(&quot;bilinear&quot;===this.type||s&lt;2||r&lt;2){let n;for(let o=0;o&lt;s;++o)for(let s=0;s&lt;r;++s){let r=[];for(let t=3*o,e=3*o+4;t&lt;e;++t)r.push(this.nodes[t].slice(3*s,3*s+4));let i=[];i.push(this.colors[o].slice(s,s+2)),i.push(this.colors[o+1].slice(s,s+2)),(n=new m(r,i)).paint(t,e)}}else{let n,o,a,h,l,d,u;const x=s,g=r;s++,r++;let w=new Array(s);for(let t=0;t&lt;s;++t){w[t]=new Array(r);for(let e=0;e&lt;r;++e)w[t][e]=[],w[t][e][0]=this.nodes[3*t][3*e],w[t][e][1]=this.colors[t][e]}for(let t=0;t&lt;s;++t)for(let e=0;e&lt;r;++e)0!==t&amp;&amp;t!==x&amp;&amp;(n=i(w[t-1][e][0],w[t][e][0]),o=i(w[t+1][e][0],w[t][e][0]),w[t][e][2]=c(w[t-1][e][1],w[t][e][1],w[t+1][e][1],n,o)),0!==e&amp;&amp;e!==g&amp;&amp;(n=i(w[t][e-1][0],w[t][e][0]),o=i(w[t][e+1][0],w[t][e][0]),w[t][e][3]=c(w[t][e-1][1],w[t][e][1],w[t][e+1][1],n,o));for(let t=0;t&lt;r;++t){w[0][t][2]=[],w[x][t][2]=[];for(let e=0;e&lt;4;++e)n=i(w[1][t][0],w[0][t][0]),o=i(w[x][t][0],w[x-1][t][0]),w[0][t][2][e]=n&gt;0?2*(w[1][t][1][e]-w[0][t][1][e])/n-w[1][t][2][e]:0,w[x][t][2][e]=o&gt;0?2*(w[x][t][1][e]-w[x-1][t][1][e])/o-w[x-1][t][2][e]:0}for(let t=0;t&lt;s;++t){w[t][0][3]=[],w[t][g][3]=[];for(let e=0;e&lt;4;++e)n=i(w[t][1][0],w[t][0][0]),o=i(w[t][g][0],w[t][g-1][0]),w[t][0][3][e]=n&gt;0?2*(w[t][1][1][e]-w[t][0][1][e])/n-w[t][1][3][e]:0,w[t][g][3][e]=o&gt;0?2*(w[t][g][1][e]-w[t][g-1][1][e])/o-w[t][g-1][3][e]:0}for(let s=0;s&lt;x;++s)for(let r=0;r&lt;g;++r){let n=i(w[s][r][0],w[s+1][r][0]),o=i(w[s][r+1][0],w[s+1][r+1][0]),c=i(w[s][r][0],w[s][r+1][0]),x=i(w[s+1][r][0],w[s+1][r+1][0]),g=[[],[],[],[]];for(let t=0;t&lt;4;++t){(d=[])[0]=w[s][r][1][t],d[1]=w[s+1][r][1][t],d[2]=w[s][r+1][1][t],d[3]=w[s+1][r+1][1][t],d[4]=w[s][r][2][t]*n,d[5]=w[s+1][r][2][t]*n,d[6]=w[s][r+1][2][t]*o,d[7]=w[s+1][r+1][2][t]*o,d[8]=w[s][r][3][t]*c,d[9]=w[s+1][r][3][t]*x,d[10]=w[s][r+1][3][t]*c,d[11]=w[s+1][r+1][3][t]*x,d[12]=0,d[13]=0,d[14]=0,d[15]=0,u=f(d);for(let e=0;e&lt;9;++e){g[t][e]=[];for(let s=0;s&lt;9;++s)g[t][e][s]=p(u,e/8,s/8),g[t][e][s]&gt;255?g[t][e][s]=255:g[t][e][s]&lt;0&amp;&amp;(g[t][e][s]=0)}}h=[];for(let t=3*s,e=3*s+4;t&lt;e;++t)h.push(this.nodes[t].slice(3*r,3*r+4));l=y(h);for(let s=0;s&lt;8;++s)for(let r=0;r&lt;8;++r)(a=new m(l[s][r],[[[g[0][s][r],g[1][s][r],g[2][s][r],g[3][s][r]],[g[0][s][r+1],g[1][s][r+1],g[2][s][r+1],g[3][s][r+1]]],[[g[0][s+1][r],g[1][s+1][r],g[2][s+1][r],g[3][s+1][r]],[g[0][s+1][r+1],g[1][s+1][r+1],g[2][s+1][r+1],g[3][s+1][r+1]]]])).paint(t,e)}}}transform(t){if(t instanceof x)for(let e=0,s=this.nodes.length;e&lt;s;++e)for(let s=0,r=this.nodes[0].length;s&lt;r;++s)this.nodes[e][s]=this.nodes[e][s].add(t);else if(t instanceof g)for(let e=0,s=this.nodes.length;e&lt;s;++e)for(let s=0,r=this.nodes[0].length;s&lt;r;++s)this.nodes[e][s]=this.nodes[e][s].transform(t)}scale(t){for(let e=0,s=this.nodes.length;e&lt;s;++e)for(let s=0,r=this.nodes[0].length;s&lt;r;++s)this.nodes[e][s]=this.nodes[e][s].scale(t)}}document.querySelectorAll(&quot;rect,circle,ellipse,path,text&quot;).forEach((r,n)=&gt;{let o=r.getAttribute(&quot;id&quot;);o||(o=&quot;patchjs_shape&quot;+n,r.setAttribute(&quot;id&quot;,o));const i=r.style.fill.match(/^url\(\s*&quot;?\s*#([^\s&quot;]+)&quot;?\s*\)/),a=r.style.stroke.match(/^url\(\s*&quot;?\s*#([^\s&quot;]+)&quot;?\s*\)/);if(i&amp;&amp;i[1]){const a=document.getElementById(i[1]);if(a&amp;&amp;&quot;meshgradient&quot;===a.nodeName){const i=r.getBBox();let l=document.createElementNS(s,&quot;canvas&quot;);d(l,{width:i.width,height:i.height});const c=l.getContext(&quot;2d&quot;);let u=c.createImageData(i.width,i.height);const f=new b(a);&quot;objectBoundingBox&quot;===a.getAttribute(&quot;gradientUnits&quot;)&amp;&amp;f.scale(new x(i.width,i.height));const p=a.getAttribute(&quot;gradientTransform&quot;);null!=p&amp;&amp;f.transform(h(p)),&quot;userSpaceOnUse&quot;===a.getAttribute(&quot;gradientUnits&quot;)&amp;&amp;f.transform(new x(-i.x,-i.y)),f.paintMesh(u.data,l.width),c.putImageData(u,0,0);const y=document.createElementNS(t,&quot;image&quot;);d(y,{width:i.width,height:i.height,x:i.x,y:i.y});let g=l.toDataURL();y.setAttributeNS(e,&quot;xlink:href&quot;,g),r.parentNode.insertBefore(y,r),r.style.fill=&quot;none&quot;;const w=document.createElementNS(t,&quot;use&quot;);w.setAttributeNS(e,&quot;xlink:href&quot;,&quot;#&quot;+o);const m=&quot;patchjs_clip&quot;+n,M=document.createElementNS(t,&quot;clipPath&quot;);M.setAttribute(&quot;id&quot;,m),M.appendChild(w),r.parentElement.insertBefore(M,r),y.setAttribute(&quot;clip-path&quot;,&quot;url(#&quot;+m+&quot;)&quot;),u=null,l=null,g=null}}if(a&amp;&amp;a[1]){const o=document.getElementById(a[1]);if(o&amp;&amp;&quot;meshgradient&quot;===o.nodeName){const i=parseFloat(r.style.strokeWidth.slice(0,-2))*(parseFloat(r.style.strokeMiterlimit)||parseFloat(r.getAttribute(&quot;stroke-miterlimit&quot;))||1),a=r.getBBox(),l=Math.trunc(a.width+i),c=Math.trunc(a.height+i),u=Math.trunc(a.x-i/2),f=Math.trunc(a.y-i/2);let p=document.createElementNS(s,&quot;canvas&quot;);d(p,{width:l,height:c});const y=p.getContext(&quot;2d&quot;);let g=y.createImageData(l,c);const w=new b(o);&quot;objectBoundingBox&quot;===o.getAttribute(&quot;gradientUnits&quot;)&amp;&amp;w.scale(new x(l,c));const m=o.getAttribute(&quot;gradientTransform&quot;);null!=m&amp;&amp;w.transform(h(m)),&quot;userSpaceOnUse&quot;===o.getAttribute(&quot;gradientUnits&quot;)&amp;&amp;w.transform(new x(-u,-f)),w.paintMesh(g.data,p.width),y.putImageData(g,0,0);const M=document.createElementNS(t,&quot;image&quot;);d(M,{width:l,height:c,x:0,y:0});let S=p.toDataURL();M.setAttributeNS(e,&quot;xlink:href&quot;,S);const k=&quot;pattern_clip&quot;+n,A=document.createElementNS(t,&quot;pattern&quot;);d(A,{id:k,patternUnits:&quot;userSpaceOnUse&quot;,width:l,height:c,x:u,y:f}),A.appendChild(M),o.parentNode.appendChild(A),r.style.stroke=&quot;url(#&quot;+k+&quot;)&quot;,g=null,p=null,S=null}}})}();
</script></svg>
