<?xml version="1.0" encoding="UTF-8" standalone="no"?>
<!-- Created with Inkscape (http://www.inkscape.org/) -->

<svg
   width="270mm"
   height="170mm"
   viewBox="0 0 270 170"
   version="1.1"
   id="svg1"
   xml:space="preserve"
   xmlns="http://www.w3.org/2000/svg"
   xmlns:svg="http://www.w3.org/2000/svg"><defs
     id="defs1" /><g
     id="layer1"><path
       style="fill:#bce2ff;stroke-width:1.56008;fill-opacity:1"
       d="m 37.886751,147.05162 c -4.52873,-4.70107 -13.454009,-14.49267 -16.392924,-17.98406 l -2.435765,-2.89368 -0.518841,-5.98147 c -0.285361,-3.28981 -0.759936,-8.84846 -1.05461,-12.35254 -0.294676,-3.50406 -0.704522,-6.79976 -0.91077,-7.32372 C 16.367595,99.992177 14.934388,98.864875 13.38894,98.011017 9.1191232,95.651957 8.4976633,94.944316 8.7722538,92.754024 8.8984575,91.747343 9.1265873,87.736608 9.2791983,83.841304 L 9.5566758,76.758966 6.3535245,63.676408 3.1503731,50.593837 4.252108,47.910852 C 4.8580594,46.435219 6.5075546,42.421578 7.9176497,38.99164 l 2.5638063,-6.236269 6.946441,-6.80743 c 3.820548,-3.744083 7.446772,-7.182426 8.058297,-7.640738 0.611513,-0.458322 4.414048,-1.867638 8.450068,-3.131809 4.036021,-1.26416 9.807812,-3.07669 12.826217,-4.02783 3.018406,-0.951149 5.854913,-1.7293374 6.303347,-1.7293374 0.448433,0 4.883428,1.3934644 9.855536,3.0966034 4.972121,1.703127 10.90611,3.694262 13.186657,4.424764 3.975258,1.273333 4.314933,1.48697 8.227692,5.174734 9.32408,8.787914 9.710171,9.285008 12.662205,16.303124 5.767824,13.712316 5.467534,12.420052 4.084034,17.575306 -0.48639,1.812454 -1.276002,4.976021 -1.75471,7.030134 -0.478681,2.054088 -1.474075,6.206274 -2.211974,9.227013 l -1.341633,5.492279 0.720536,8.448381 c 0.558611,6.549649 0.601635,8.589896 0.191468,9.078148 -0.290987,0.346386 -2.194836,1.736156 -4.230781,3.088387 -4.319137,2.86866 -3.834554,1.347924 -4.911855,15.41442 -1.082926,14.14012 -0.825723,13.01791 -3.718224,16.22195 -1.388007,1.53751 -6.109212,6.77143 -10.491556,11.63096 l -7.967897,8.83553 h -12.0976 -12.097601 z m 27.632514,0.54562 1.050964,-1.10524 -0.832126,-3.17874 c -0.457675,-1.74833 -1.678341,-5.84802 -2.712598,-9.11046 -1.812217,-5.71637 -1.922194,-5.92707 -3.030407,-5.80544 -0.632471,0.0695 -1.548949,-0.0847 -2.036603,-0.34259 -0.675476,-0.35715 -1.145465,-0.30128 -1.973222,0.23457 -0.811531,0.52532 -1.304008,0.58838 -1.945603,0.24914 -0.472476,-0.24981 -1.736731,-0.44967 -2.809456,-0.44414 -1.072726,0.006 -2.400711,-0.003 -2.951072,-0.0163 -0.550374,-0.0142 -1.350901,0.004 -1.778959,0.0405 -0.428072,0.0368 -1.068281,-0.0125 -1.422706,-0.10984 -0.698534,-0.19161 -1.099867,1.3893 -3.336229,13.14203 -0.938499,4.93209 -1.082174,6.42492 -0.666053,6.92028 0.436173,0.51922 2.564282,0.63158 11.961831,0.63158 H 64.468302 Z M 34.391929,133.43382 c -1.473657,-5.09969 -2.679365,-10.04097 -2.679365,-10.98063 0,-1.52159 -0.171153,-1.78909 -1.564593,-2.44559 -0.860525,-0.40539 -1.752233,-1.18348 -1.981596,-1.72906 -0.229349,-0.54555 -1.037043,-4.14963 -1.794862,-8.00905 -0.75782,-3.85941 -1.417145,-7.05497 -1.465154,-7.10124 -0.28148,-0.27126 -5.083152,-1.9187 -5.592816,-1.91888 -0.487463,-1.7e-4 -0.557947,0.60865 -0.343323,2.96562 0.14854,1.63119 0.581928,6.62367 0.963091,11.09439 0.381167,4.47071 0.787695,8.73325 0.903401,9.47231 0.141309,0.9026 1.617195,2.92187 4.496059,6.15132 7.556493,8.47681 11.466945,12.57791 11.604477,12.17028 0.07375,-0.21851 -1.071663,-4.56977 -2.545319,-9.66947 z m 6.387606,2.85606 c 0.654649,-3.44366 1.293483,-6.77606 1.419608,-7.40532 0.172684,-0.8615 -0.02307,-1.306 -0.792412,-1.79951 -1.101564,-0.7066 -3.156547,-1.27989 -4.566978,-1.27405 -0.482249,0.003 -1.233976,-0.31572 -1.670511,-0.70602 -0.436536,-0.39032 -0.900174,-0.60444 -1.030291,-0.47589 -0.320118,0.31624 4.714983,17.92198 5.125543,17.92198 0.178619,0 0.860382,-2.81752 1.515041,-6.26119 z m 29.567553,-3.25001 c 1.254871,-4.62704 2.281597,-8.65563 2.281597,-8.95241 0,-0.76968 -2.614014,-0.18646 -3.758921,0.83863 -0.500966,0.44858 -1.788953,0.92465 -2.862196,1.05799 -3.338134,0.41477 -3.351562,0.53819 -0.91837,8.43843 1.190867,3.86657 2.173616,7.21797 2.183895,7.44755 0.06467,1.44301 1.074786,-1.4587 3.073995,-8.83019 z m 11.281418,-3.1945 c 1.647699,-1.83245 3.010135,-3.52948 3.02762,-3.77112 0.0175,-0.24166 0.485425,-5.58016 1.039856,-11.86334 0.554431,-6.28314 0.854471,-11.60054 0.666766,-11.81637 -0.194224,-0.22333 -1.490377,0.032 -3.007595,0.59268 -3.043292,1.1244 -2.787398,0.53785 -4.319989,9.90198 -0.762433,4.65849 -0.858424,4.90144 -2.708982,6.856 -1.579004,1.66773 -1.919303,2.32933 -1.922854,3.73831 -0.0025,0.94158 -0.978498,5.41057 -2.169157,9.93107 -1.190661,4.52047 -2.075371,8.30746 -1.966029,8.41548 0.187731,0.18546 4.651731,-4.52387 11.360364,-11.98469 z M 55.950913,124.7561 c 0,-1.58177 -0.111209,-1.75751 -1.111857,-1.75751 -0.890516,0 -1.140578,0.2479 -1.256193,1.24541 -0.210827,1.81889 0.215573,2.5716 1.365392,2.41029 0.849546,-0.1192 1.002658,-0.40906 1.002658,-1.89819 z m -8.597076,-0.0181 c 0.381373,-1.40885 0.145478,-1.81262 -1.187212,-2.03225 -0.723018,-0.11908 -0.916465,0.1326 -1.033661,1.34521 -0.236335,2.44532 1.591811,3.01086 2.220873,0.68704 z m 3.927301,0.23778 c 0,-0.72498 0.05003,-1.46642 0.111208,-1.64766 0.06118,-0.18125 -0.339118,-0.39272 -0.88948,-0.46995 -0.897088,-0.1259 -1.000661,0.0446 -1.000661,1.64768 0,1.49517 0.145711,1.78811 0.889479,1.78811 0.691821,0 0.88948,-0.29294 0.88948,-1.31818 z m 9.233045,-0.21968 c 0.144104,-1.63937 -0.408253,-2.53109 -1.347285,-2.17509 -0.786372,0.29813 -1.454991,2.5339 -0.983266,3.28796 0.163506,0.26138 0.728708,0.41448 1.255985,0.34025 0.705534,-0.0993 0.989294,-0.48306 1.074566,-1.45312 z m -17.516535,-1.18134 c 0.164388,-0.69006 0.07517,-1.30733 -0.214677,-1.4843 -0.646222,-0.39457 -1.164362,0.46052 -1.025365,1.69223 0.0604,0.53541 0.126501,1.16127 0.146916,1.39086 0.06442,0.72505 0.79363,-0.34154 1.093126,-1.59879 z m 20.911012,0.70606 c 0.148485,-0.38224 0.269956,-1.08878 0.269956,-1.57005 0,-1.11041 -1.478529,-0.9289 -1.700283,0.20871 -0.327298,1.67904 0.865838,2.81464 1.430327,1.36134 z m 3.306715,-2.1211 c -0.08023,-0.64111 -0.346078,-1.20894 -0.590683,-1.26184 -0.534315,-0.11556 -0.847096,1.66267 -0.465335,2.64552 0.416355,1.07195 1.230011,0.006 1.056018,-1.38368 z m -27.635663,-0.58914 c -0.111856,-0.42289 -0.203387,-0.0768 -0.203387,0.76891 0,0.84583 0.09151,1.19183 0.203387,0.76893 0.111856,-0.42291 0.111856,-1.11493 0,-1.53784 z m -2.61461,0 c -0.09306,-1.11107 -0.355294,-1.64768 -0.805141,-1.64768 -0.479385,0 -0.623242,0.37091 -0.511192,1.31816 0.183181,1.5486 0.401916,1.9772 1.009035,1.9772 0.244928,0 0.383211,-0.74145 0.307298,-1.64768 z m 33.801608,-0.91257 c 0.100838,-1.00914 -0.04537,-1.39416 -0.529676,-1.39416 -0.942245,0 -1.296929,0.74401 -0.969372,2.0334 0.378831,1.49118 1.326481,1.08707 1.499048,-0.63924 z m -23.127945,-0.40554 c 0.215377,-0.42292 0.272458,-1.8564 0.126891,-3.18553 -0.227483,-2.07647 -0.405597,-2.43637 -1.265421,-2.557 -0.942129,-0.13212 -1.000662,0.0142 -1.000662,2.49052 0,1.447 0.121447,2.94365 0.269958,3.32592 0.359052,0.92443 1.381462,0.88398 1.869299,-0.074 z m 4.087112,-2.49942 c 0.162639,-2.22366 0.05923,-3.20148 -0.385182,-3.64035 -1.118686,-1.10488 -1.613353,-0.33397 -1.749186,2.72596 -0.155393,3.50077 0.06571,4.30157 1.13236,4.10117 0.626521,-0.11763 0.823313,-0.74354 1.002008,-3.18678 z m 4.800127,0.38089 c 0.07168,-1.46726 -0.09371,-3.24675 -0.367699,-3.95442 l -0.498036,-1.28672 -1.077717,1.23282 c -0.872111,0.99761 -1.077715,1.71709 -1.077715,3.77136 0,2.88866 0.190024,3.21587 1.762317,3.03473 1.052959,-0.12139 1.137221,-0.30861 1.25885,-2.79777 z m 3.816727,1.075 c 0.64367,-3.17961 0.212501,-5.21769 -1.103845,-5.21769 -0.743898,0 -0.841899,0.34949 -0.841899,3.00247 0,1.65133 0.133423,3.13425 0.296489,3.29536 0.679053,0.67087 1.388889,0.20597 1.649255,-1.08014 z m -16.680454,-1.68576 c 0.120928,-2.61824 -0.189262,-3.36188 -1.093166,-2.62073 -0.799361,0.6554 -0.857376,4.64606 -0.07155,4.9245 0.909648,0.32241 1.056914,0.0312 1.164751,-2.30377 z m 33.485041,-4.89622 c 0.447241,-2.47456 0.728695,-4.58264 0.625471,-4.68463 -0.223374,-0.22068 -4.344252,4.93716 -4.779296,5.98197 -0.404676,0.97188 -0.445932,5.5523 -0.05353,5.94 0.17123,0.16917 1.004964,-0.37771 1.852747,-1.21528 1.385507,-1.36882 1.623684,-1.97797 2.354582,-6.02206 z m -13.162693,6.02245 c 0.414372,-1.63107 0.05159,-3.09632 -0.806682,-3.25793 -0.658445,-0.12405 -0.778285,0.1967 -0.778285,2.08257 0,1.67579 0.163493,2.22915 0.658626,2.22915 0.362255,0 0.779101,-0.47422 0.926341,-1.05379 z m -30.493102,-1.55393 c 0,-1.19254 -0.193707,-2.67162 -0.430457,-3.28681 -0.462821,-1.20267 -4.912797,-6.98776 -5.175458,-6.72825 -0.0871,0.086 0.291422,2.51619 0.841122,5.40035 0.990681,5.19787 1.013065,5.25052 2.548572,5.99237 0.852009,0.41166 1.699209,0.75796 1.882662,0.76955 0.183454,0.0121 0.333559,-0.95462 0.333559,-2.14721 z m 6.671109,-0.44205 c 0,-2.09454 -0.527926,-3.15628 -1.108175,-2.22871 -0.38631,0.61751 0.227418,4.3997 0.713932,4.3997 0.216829,0 0.394243,-0.97694 0.394243,-2.17099 z m 27.046159,0.33745 c -0.201353,-2.01425 -1.251215,-2.16554 -1.251215,-0.18029 0,1.13493 0.194082,1.57446 0.695295,1.57446 0.513744,0 0.658897,-0.36402 0.55592,-1.39417 z m -30.24496,-0.91261 c -0.09565,-1.30696 -0.336979,-1.8674 -0.80387,-1.8674 -0.877439,0 -1.187744,2.83804 -0.366545,3.35241 1.083847,0.67889 1.308051,0.39443 1.170415,-1.48501 z m 33.63052,0.25604 c 0.334996,-0.86248 -0.345586,-1.6924 -1.040103,-1.26832 -0.700906,0.42794 -0.593976,2.00087 0.136029,2.00087 0.340751,0 0.747566,-0.32966 0.90406,-0.73255 z m 0.396587,-3.49056 c 0.880187,-0.36544 6.140256,-7.63603 5.854693,-8.09253 -0.146721,-0.23453 -0.654958,-0.42645 -1.129405,-0.42645 -0.768045,0 -2.569842,-0.73122 -11.480165,-4.659023 -1.313753,-0.579108 -2.650124,-1.052933 -2.969723,-1.052933 -0.688125,0 -2.424611,2.067756 -2.424611,2.887146 0,0.31447 1.026416,2.97283 2.28091,5.90747 1.577708,3.69072 2.571787,5.45898 3.224373,5.73545 0.893031,0.37834 5.513072,0.17033 6.643928,-0.29913 z m -25.876962,-5.91792 2.50527,-5.89643 -0.948687,-1.02896 c -1.854614,-2.011542 -2.07611,-1.990417 -8.472336,0.80897 -4.46798,1.95542 -6.543531,2.6366 -8.033972,2.6366 -1.105285,0 -2.009619,0.10644 -2.009619,0.23665 0,0.1301 1.417003,2.10739 3.1489,4.39382 l 3.148913,4.15718 2.966275,0.006 c 1.631446,0.004 3.266471,0.19822 3.633391,0.43224 0.366907,0.23404 0.867238,0.36343 1.111843,0.28758 0.244605,-0.0759 1.572123,-2.79131 2.950022,-6.03437 z m 4.004356,5.2379 c 1.329618,-0.39358 1.99418,-0.38623 2.924021,0.0324 1.092285,0.4917 1.280288,0.43732 2.037122,-0.58912 0.984783,-1.3356 1.325211,-1.3877 2.36473,-0.36189 0.839994,0.82892 4.175003,1.08968 4.175937,0.32652 8.55e-4,-0.68845 -3.038288,-8.16769 -3.762732,-9.26002 -0.355956,-0.53672 -1.539773,-1.3126 -2.630721,-1.72421 -1.882209,-0.710175 -2.052299,-0.708261 -3.32993,0.0374 -0.867484,0.50625 -1.74828,1.67048 -2.476223,3.27301 -1.136599,2.50215 -3.365767,8.17525 -3.365767,8.56567 0,0.38633 2.325276,0.21488 4.063563,-0.29965 z m 33.709751,-10.96636 c 1.728539,-0.55 3.142821,-1.213271 3.142821,-1.473907 0,-0.260646 -1.256413,-2.544968 -2.792037,-5.076255 L 80.386829,90.044824 74.83998,88.448592 C 67.927156,86.459316 63.748264,84.282706 62.03253,81.777789 59.783168,78.493823 56.173289,72.018731 56.173289,71.268013 c 0,-0.402466 0.825929,-2.798006 1.835392,-5.323445 l 1.835392,-4.591703 -1.253276,-1.623341 -1.253289,-1.623342 -1.9048,2.128787 -1.9048,2.128787 -2.602531,-2.799113 -2.60253,-2.799151 -1.411676,2.105542 c -0.776405,1.158049 -1.411662,2.444561 -1.411662,2.858887 0,0.414374 0.700465,2.888458 1.556596,5.497997 0.856129,2.609551 1.556594,5.214067 1.556594,5.787825 0,0.573758 -0.571786,1.773066 -1.270643,2.665103 -0.698846,0.892062 -2.596698,3.415639 -4.21744,5.607937 -1.620741,2.192325 -3.400516,4.208346 -3.955062,4.48007 -0.554548,0.271723 -3.409862,1.415825 -6.345147,2.542419 -8.176625,3.138337 -8.165362,3.130388 -11.900279,8.401439 l -1.671243,2.358618 1.226506,0.474524 c 3.371299,1.304227 4.607402,1.618557 7.489791,1.904517 3.094152,0.30701 3.192373,0.28364 8.798053,-2.093719 3.117922,-1.322283 5.785699,-2.519519 5.928403,-2.660492 0.14269,-0.140991 -0.08412,-1.466163 -0.504115,-2.944838 l -0.763561,-2.688535 3.835755,-6.330765 c 2.109666,-3.481946 4.088863,-6.330812 4.39821,-6.330812 0.309347,0 1.006351,0.593176 1.548883,1.318161 0.542546,0.724966 1.130546,1.315695 1.306678,1.312714 0.17613,-0.0037 0.772387,-0.695046 1.325003,-1.537836 0.552604,-0.842836 1.277539,-1.532396 1.610955,-1.532396 0.333416,0 1.282206,1.103443 2.108435,2.452095 0.826215,1.348679 1.708528,2.683281 1.960675,2.965843 0.252162,0.282534 1.339313,1.897766 2.415902,3.5894 2.308841,3.62784 2.892291,6.860134 1.592135,8.820501 -0.416497,0.62801 -0.688568,1.209713 -0.604578,1.292675 0.08399,0.08308 2.551606,1.162486 5.483598,2.398917 2.932006,1.236407 5.631124,2.437957 5.998031,2.670067 0.98328,0.62211 4.840565,0.18512 8.420439,-0.95397 z m 11.467654,-6.459434 c 0.05334,-0.1646 -1.391708,-1.18902 -3.211422,-2.276484 -3.246549,-1.940181 -4.016759,-3.035207 -2.951396,-4.196119 0.984279,-1.072521 5.395685,-9.986916 5.37325,-10.858004 -0.01388,-0.540842 -0.868827,-3.356012 -1.899761,-6.255927 -1.734295,-4.878441 -1.965316,-5.283 -3.09038,-5.41184 -1.696098,-0.194293 -1.918111,0.776225 -0.700581,3.062485 0.868054,1.630032 1.042033,2.72815 1.187031,7.492264 l 0.169896,5.58232 -2.186604,2.326581 c -3.714723,3.952514 -4.572798,4.942238 -4.572798,5.274437 0,0.432643 4.406078,7.849952 5.20536,8.76286 0.581986,0.664711 0.88725,0.559888 3.608013,-1.238575 1.634749,-1.0806 3.01597,-2.099389 3.069392,-2.263998 z m -73.95608,-0.339753 2.882322,-3.775226 -2.487522,-3.265131 c -2.064958,-2.710498 -2.647028,-3.218089 -3.426484,-2.988054 -2.045342,0.603628 -2.266097,1.258108 -1.228293,3.641457 0.526042,1.208093 0.956442,2.480002 0.956442,2.826463 0,0.346451 -1.205192,1.376428 -2.678206,2.288885 -1.473013,0.91243 -2.594467,1.741668 -2.492119,1.842811 0.437806,0.432532 4.976753,3.182546 5.269745,3.192786 0.176989,0.0064 1.618839,-1.687622 3.204115,-3.763991 z m -5.669796,-3.963508 c 0.272438,-0.697834 -2.664614,-7.758543 -3.31665,-7.973295 -0.408232,-0.134459 -0.543457,1.149107 -0.543457,5.158361 v 5.337305 l 1.834611,-1.016729 c 1.009037,-0.559179 1.92051,-1.236734 2.025496,-1.505642 z M 95.145516,89.825186 C 94.991621,88.375217 94.739792,86.002568 94.585896,84.552598 94.432,83.10262 94.18182,81.918623 94.029961,81.921503 c -0.427845,0.0083 -4.237585,7.431735 -3.95643,7.709531 0.71239,0.703795 4.208132,2.766731 4.738442,2.796265 0.486151,0.02714 0.555323,-0.512615 0.333543,-2.602113 z m -78.805458,-7.019242 1.140805,-0.428511 -0.01485,-6.491762 c -0.01329,-5.841735 -0.104157,-6.597793 -0.907235,-7.550722 -0.536156,-0.636195 -1.054011,-0.8993 -1.297155,-0.659075 -0.633556,0.625966 -3.56244,8.037192 -3.56244,9.01434 0,1.320802 2.370023,6.53379 2.973045,6.539347 0.289835,0.0037 1.040336,-0.187942 1.667777,-0.423617 z M 96.387406,67.911707 c 1.758305,-7.389332 2.58636,-11.521922 2.354516,-11.750981 -0.11316,-0.111663 -0.881531,0.620905 -1.707442,1.628257 -0.825911,1.007338 -2.352228,2.832406 -3.391809,4.055678 -1.039577,1.223271 -1.89015,2.571758 -1.89015,2.996629 0,0.749648 2.095891,7.6954 2.545415,8.435498 0.451109,0.742666 0.926646,-0.478344 2.08947,-5.365081 z m -84.066322,1.228054 c 0.63641,-1.589744 1.157113,-3.229726 1.157113,-3.64438 0,-0.60356 -2.037076,-3.62318 -4.7803178,-7.086026 -0.1914399,-0.24166 -0.7952541,-1.009771 -1.3418034,-1.706932 -0.546551,-0.69716 -0.9937276,-1.103957 -0.9937276,-0.90397 0,0.364065 3.3997615,14.63507 3.8512418,16.166161 0.329788,1.118383 0.759523,0.542362 2.107494,-2.824853 z m 7.113024,-3.106712 c 0.58664,-0.82746 0.59015,-1.095795 0.02838,-2.169062 -0.957902,-1.830054 -1.360397,-1.868285 -2.343243,-0.22255 -0.837972,1.40315 -0.847577,1.552767 -0.154718,2.410124 0.944817,1.169167 1.631207,1.164022 2.469584,-0.01861 z m 68.204559,-2.125406 c 0.30577,-0.0037 0.555935,-0.194245 0.555935,-0.424325 0,-0.78171 -4.097923,-6.214253 -4.570257,-6.058726 -0.258383,0.08514 -1.145672,0.963476 -1.971745,1.951937 l -1.50195,1.797223 2.576568,1.600109 c 1.618991,1.005441 2.907146,1.514573 3.466049,1.369944 0.48921,-0.126517 1.139645,-0.232853 1.4454,-0.236162 z M 27.798444,61.949455 c 1.394035,-0.382603 2.639561,-0.863392 2.767813,-1.068426 0.242453,-0.387566 -4.65413,-8.83125 -5.125583,-8.838535 -0.147344,-0.0024 -1.512203,1.799948 -3.033026,4.004966 -2.623294,3.803483 -2.737156,4.075856 -2.219723,5.310015 0.959214,2.28783 1.5408,2.610914 3.428231,1.904376 0.906213,-0.339214 2.78824,-0.929782 4.182288,-1.312396 z m -5.324835,-9.287481 c 3.361502,-4.81373 6.843454,-9.795525 7.737691,-11.070665 0.894222,-1.275131 1.526266,-2.416844 1.404534,-2.537108 -0.47901,-0.473227 -18.651987,-5.108257 -18.93442,-4.829222 -0.09765,0.09648 0.133338,2.90819 0.513332,6.248238 0.379988,3.340044 1.03832,9.487223 1.462961,13.66038 0.487117,4.787127 0.944067,7.530883 1.238075,7.434058 0.2563,-0.08442 3.216321,-4.09195 6.577827,-8.905681 z m -9.206313,6.516307 C 13.134457,58.030389 12.621705,53.334503 12.127858,48.742946 11.094524,39.135498 10.859513,37.750203 10.350183,38.264191 c -0.203271,0.205132 -1.06307,2.0536 -1.9106677,4.107709 -0.847595,2.054106 -1.8618345,4.469865 -2.2538653,5.368317 -1.2248326,2.807105 -1.409659,2.418592 5.545874,11.657768 0.7732,1.027045 1.489403,1.867373 1.591564,1.867373 0.102148,0 0.07705,-0.939185 -0.05578,-2.087077 z m 77.563886,-8.897494 c 1.313882,-12.348557 1.569829,-16.25716 1.064495,-16.25716 -0.620662,0 -17.03864,5.121552 -17.325045,5.404501 -0.247055,0.244077 0.873149,1.950206 9.570751,14.576811 6.027362,8.750104 5.320662,9.143544 6.689799,-3.724152 z m 6.170663,4.676498 c 2.535713,-3.054457 3.167575,-4.094018 2.937717,-4.833204 -0.161086,-0.517963 -1.24744,-3.215549 -2.414138,-5.994646 -1.166698,-2.779098 -2.255899,-5.497775 -2.420463,-6.04152 -0.354105,-1.170047 -1.125422,-1.319145 -1.136451,-0.219678 -0.0036,0.422894 -0.197893,2.54841 -0.430373,4.723359 -2.214466,20.718132 -2.129453,18.817746 -0.776228,17.351112 0.555161,-0.601674 2.463141,-2.845117 4.239936,-4.985423 z m -52.544357,4.220996 c 0.497324,-0.66456 1.223089,-1.817537 1.612835,-2.562148 0.896297,-1.712381 0.89224,-1.718841 -5.949828,-9.487617 -6.527783,-7.411902 -6.355075,-7.270073 -7.290321,-5.98752 -3.502172,4.802581 -6.00976,8.469805 -6.00976,8.7889 0,0.211153 1.3509,2.649718 3.001996,5.419016 l 3.001997,5.035088 5.364432,10e-4 c 5.337059,0.001 5.369047,-0.0049 6.268649,-1.207021 z m 35.97713,-1.166843 c 1.14155,-1.306351 2.048527,-2.542104 2.015488,-2.74614 -0.09851,-0.608108 -3.202209,-5.35883 -3.845761,-5.886498 -0.474628,-0.389158 -1.094126,0.495484 -3.06294,4.373896 -1.357394,2.673947 -2.46798,5.034918 -2.46798,5.246643 0,0.321649 0.938836,0.572419 4.977695,1.329536 0.169364,0.03175 1.241934,-1.01111 2.383498,-2.317437 z M 69.75971,59.253357 c 0.636242,-0.168433 1.810883,-2.024469 3.891476,-6.148897 1.639094,-3.249202 2.980156,-6.162805 2.980156,-6.474658 0,-0.511767 -3.806656,-6.015439 -4.160628,-6.015439 -0.08127,0 -1.52418,1.61139 -3.206448,3.580859 -1.682268,1.969454 -3.270009,3.798381 -3.528315,4.064295 -1.342579,1.381973 -6.894224,8.099703 -6.894224,8.342286 0,0.155175 0.450301,0.988595 1.000661,1.852145 l 1.000674,1.5701 4.002658,-0.264723 c 2.201471,-0.145504 4.412765,-0.373273 4.91399,-0.505968 z m -11.585099,-4.94909 c 2.20147,-2.573972 6.068191,-7.0989 8.592707,-10.055374 2.898112,-3.394018 4.471518,-5.58094 4.268532,-5.932967 -1.234612,-2.141009 -17.727998,-26.261409 -17.9574,-26.261409 -0.158619,0 -2.139359,2.718684 -4.401643,6.041519 -2.262286,3.322815 -6.11384,8.908464 -8.559008,12.412547 -2.445168,3.504075 -4.636748,6.705115 -4.870194,7.113453 -0.335204,0.586316 0.159022,1.417781 2.350486,3.954449 1.526214,1.766621 2.882765,3.310884 3.014569,3.43171 0.13179,0.120921 2.532514,2.888961 5.334907,6.151359 7.111104,8.278389 7.144246,8.312996 7.713972,8.055426 0.280727,-0.127003 2.311615,-2.336753 4.513072,-4.910713 z M 82.160189,34.971392 c 4.38622,-1.38877 8.031211,-2.713887 8.099997,-2.944696 0.06883,-0.230819 -2.319132,-1.757749 -5.306469,-3.393191 C 72.723807,21.938157 66.084013,18.287639 64.40098,17.333701 59.688746,14.66281 57.00294,13.285317 56.833651,13.452567 c -0.388643,0.383945 16.039431,24.072663 16.684514,24.0585 0.366907,-0.0076 4.25583,-1.150913 8.642024,-2.539675 z M 35.831186,33.474413 c 1.360245,-1.993691 4.981674,-7.282771 8.047621,-11.753472 3.065934,-4.470722 5.409006,-8.186684 5.206824,-8.257711 -0.202197,-0.07096 -1.434346,0.492278 -2.738118,1.251747 -1.303787,0.759468 -3.578981,2.035772 -5.055995,2.836237 -1.477013,0.800466 -5.487344,2.98051 -8.911852,4.844534 -3.424493,1.864043 -8.778065,4.763523 -11.896805,6.443328 -3.118744,1.679795 -5.670443,3.214963 -5.670443,3.411489 0,0.196545 1.250832,0.684334 2.779628,1.083989 8.813633,2.30406 14.428879,3.694311 15.054415,3.727269 0.417054,0.02192 1.735125,-1.462755 3.184725,-3.58741 z M 24.282715,24.656246 c 2.741074,-1.527159 7.841692,-4.322267 11.3347,-6.211366 3.493022,-1.889079 6.264995,-3.51961 6.159956,-3.623398 -0.105115,-0.103793 -3.48755,0.84126 -7.516675,2.100075 l -7.325705,2.288743 -3.83586,3.781764 c -2.109717,2.079969 -3.970052,3.930052 -4.134075,4.111291 -0.703953,0.77789 0.635782,0.161356 5.317659,-2.447109 z M 83.293703,23.69579 79.510998,19.958656 72.422796,17.559242 c -3.898501,-1.319692 -7.16553,-2.323029 -7.26003,-2.229655 -0.238877,0.235993 0.722875,0.79787 10.579097,6.180599 4.769847,2.604929 9.067206,5.00321 9.549702,5.329478 2.251811,1.522775 1.452439,0.264844 -1.997862,-3.143874 z m 40.035407,93.97639 c 0,-0.58384 0.12079,-0.61388 0.66709,-0.16589 0.36691,0.30084 0.66712,0.62163 0.66712,0.71285 0,0.0914 -0.30021,0.16593 -0.66712,0.16593 -0.3669,0 -0.66709,-0.3208 -0.66709,-0.71289 z m 1.37156,-0.7869 c -2.27227,-2.31614 -1.42023,-2.7158 1.07727,-0.50533 1.78795,1.58249 2.04286,1.96956 1.30752,1.98542 -0.5024,0.0121 -1.57555,-0.65522 -2.38479,-1.48009 z m 1.71023,-0.9482 c -1.89492,-1.89565 -2.20143,-2.38522 -1.49329,-2.38522 0.49006,0 1.87662,0.98859 3.08127,2.1969 1.20464,1.20831 2.39039,2.19691 2.63501,2.19691 0.24459,0 -0.54089,-0.9886 -1.74554,-2.19691 -2.05144,-2.05767 -2.11988,-2.1969 -1.07993,-2.1969 0.75476,0 1.87384,0.76379 3.49464,2.38522 l 2.38433,2.38522 h -2.44609 c -2.37173,0 -2.51854,-0.0725 -4.8304,-2.38522 z m 5.55146,0.0513 c -2.3657,-2.15652 -2.5178,-2.39675 -1.5174,-2.39644 0.72341,2.6e-4 2.04411,0.83732 3.78031,2.39602 2.44105,2.19149 2.57036,2.39569 1.51739,2.39642 -0.77689,5.3e-4 -2.00569,-0.77827 -3.7803,-2.396 z m 2.79809,-0.0358 c -2.50061,-2.32853 -2.54021,-2.40059 -1.31902,-2.40059 0.9367,0 1.87727,0.61857 3.67464,2.41659 2.20513,2.20596 2.32011,2.41519 1.31903,2.40058 -0.70345,-0.0121 -2.02101,-0.87677 -3.67465,-2.41658 z m 2.80037,0.016 -2.41571,-2.4166 3.09799,-0.006 c 1.70391,-0.004 3.31822,-0.15204 3.58736,-0.32954 0.88025,-0.58067 1.56728,-2.31445 1.2762,-3.22055 -0.43663,-1.35913 -2.02944,-1.71577 -7.663,-1.71577 -5.01719,0 -5.21312,-0.0362 -6.52936,-1.20828 l -1.35693,-1.20831 1.07657,1.20831 1.07658,1.20828 h -1.09044 c -0.59971,0 -1.50891,-0.2896 -2.0204,-0.64355 -0.51153,-0.35396 -1.02931,-0.54545 -1.15069,-0.42559 -0.25829,0.2552 -2.33906,-1.79334 -2.34907,-2.31268 -0.004,-0.19409 -0.18507,-0.63111 -0.40294,-0.97111 -0.44101,-0.68824 -0.49044,-4.350891 -0.0644,-4.771785 0.14976,-0.148011 1.31837,0.707586 2.59692,1.901205 l 2.32465,2.17021 -2.3349,-2.43021 c -1.2842,-1.336626 -2.33488,-2.632365 -2.33488,-2.879421 0,-0.708699 2.76262,-3.156269 4.14279,-3.670347 0.72999,-0.271898 4.94866,-0.466317 10.11786,-0.466317 h 8.86588 v 2.416591 2.416609 h -8.64723 c -8.43166,0 -8.6645,0.0242 -9.33956,0.976522 -0.90278,1.273363 -0.87592,2.239613 0.0859,3.092243 0.62209,0.5514 2.20652,0.71939 7.89417,0.83699 7.97938,0.16501 9.26964,0.56192 11.26753,3.46624 2.23843,3.25405 0.20699,9.45793 -3.53478,10.79505 -2.80833,1.00354 -3.59203,0.77368 -6.17618,-1.81146 z m -5.78165,-8.70145 c 0,-0.0733 -0.7505,-0.81489 -1.66777,-1.6477 l -1.66779,-1.51416 1.53266,1.64767 c 1.42656,1.53362 1.8029,1.8497 1.8029,1.51419 z m -6.22637,-0.44901 c 0,-0.0789 -0.55038,-0.62243 -1.22304,-1.20828 l -1.22303,-1.06521 1.07819,1.20831 c 1.00773,1.12934 1.36788,1.40979 1.36788,1.06518 z m 1.33422,-1.30139 c 0,-0.0695 -1.05071,-1.10753 -2.33488,-2.30676 l -2.33489,-2.1804 2.20699,2.30678 c 2.05075,2.14347 2.46278,2.50825 2.46278,2.18038 z m 22.68178,12.44286 c 0,-0.23409 0.3002,-0.31177 0.66712,-0.17267 0.3669,0.13911 0.66711,0.33059 0.66711,0.42558 0,0.0949 -0.30021,0.17268 -0.66711,0.17268 -0.36692,0 -0.66712,-0.19149 -0.66712,-0.42559 z m 1.78061,-0.67113 c -1.56564,-1.64648 -0.63788,-1.93156 1.00471,-0.30873 0.97466,0.96289 1.20464,1.40545 0.73039,1.40545 -0.38071,0 -1.16151,-0.49352 -1.7351,-1.09672 z m 11.72806,0.45216 c -0.50958,-1.31197 0.10603,-1.57049 1.14292,-0.48002 l 1.06938,1.12458 h -0.98098 c -0.53952,0 -1.09361,-0.29005 -1.23132,-0.64456 z m 1.66266,-1.28217 c -1.0527,-1.05973 -1.84486,-2.19661 -1.76037,-2.52646 0.094,-0.36692 1.08737,0.381 2.5591,1.92674 2.79446,2.93497 2.06509,3.48257 -0.79873,0.59972 z m 7.51044,0.97987 c 0,-0.91903 0.0261,-0.92347 0.88948,-0.15159 0.48922,0.4374 0.8895,0.8635 0.8895,0.94687 0,0.0834 -0.40028,0.15158 -0.8895,0.15158 -0.6143,0 -0.88948,-0.29291 -0.88948,-0.94686 z m 1.17256,-0.3087 c -0.64491,-0.66502 -1.17256,-1.68516 -1.17256,-2.26701 0,-0.97652 0.16371,-0.8986 2.12779,1.01262 1.1703,1.13882 2.31479,2.07058 2.54335,2.07058 0.22854,0 -0.74637,-1.16004 -2.16651,-2.57783 -1.84712,-1.84414 -2.53934,-2.84903 -2.43213,-3.53082 0.12857,-0.81758 0.68045,-0.42524 3.88426,2.76167 l 3.73439,3.71468 -2.67302,0.0125 c -2.34461,0.0121 -2.81707,-0.13586 -3.84557,-1.19649 z m 2.93252,-2.81698 -4.10508,-4.07253 v -8.23016 -8.230197 h 2.44608 2.44608 v 9.313227 9.31323 l -1.65287,-1.51417 -1.65284,-1.51419 1.76404,2.04567 1.76401,2.04569 6.1152,0.0414 6.11518,0.0414 v 2.41658 2.41662 h -4.56737 -4.56738 z m 24.26539,0.66735 c -3.17609,-3.04768 -5.16093,-5.61094 -4.69852,-6.06779 0.0914,-0.0903 2.35429,2.00412 5.02852,4.65438 3.2755,3.24609 4.5941,4.8186 4.04048,4.8186 -0.45198,0 -2.41869,-1.53234 -4.37048,-3.40519 z m 0.59835,-2.46641 c -3.7778,-3.73996 -5.87449,-6.13642 -5.77545,-6.60111 0.10862,-0.50955 2.16539,1.26094 6.82105,5.87158 4.74792,4.70202 6.40947,6.60113 5.77547,6.60113 -0.55002,0 -3.15617,-2.24336 -6.82107,-5.8716 z m 5.48663,2.78324 c -2.97422,-2.96189 -3.02839,-3.05269 -1.32228,-2.21667 0.97843,0.47943 2.87968,1.86062 4.22504,3.06933 2.24598,2.01789 2.35414,2.19919 1.3223,2.21667 -0.81462,0.0142 -1.97703,-0.83064 -4.22506,-3.06933 z m 3.34748,0.67176 c -2.23336,-2.23421 -2.33174,-2.4166 -1.30381,-2.4166 0.75838,0 1.87978,0.76824 3.52754,2.4166 2.23336,2.2342 2.33175,2.4166 1.30381,2.4166 -0.75838,0 -1.87977,-0.76822 -3.52754,-2.4166 z m 2.66844,0 -2.41565,-2.4166 h 2.63447 c 2.42822,0 2.77526,0.12902 4.43221,1.64767 l 1.79772,1.64769 -1.71551,-1.82438 -1.71554,-1.82435 1.59732,-0.74888 c 4.55596,-2.13588 4.89187,-9.51632 0.57766,-12.69237 -1.12901,-0.831169 -1.88425,-0.928761 -7.4667,-0.96491 l -6.21067,-0.0403 -1.65046,-1.497049 -1.65045,-1.497013 1.75007,1.858718 c 0.96253,1.022314 1.66299,1.911797 1.55658,1.976653 -0.10629,0.06486 -0.74683,0.600031 -1.42315,1.189261 l -1.22969,1.0714 -1.88351,-1.73007 -1.88347,-1.730064 1.81565,1.976844 c 1.08153,1.17754 1.74268,2.28773 1.63518,2.74575 -0.26031,1.10881 -0.6224,0.97314 -2.51586,-0.94258 -2.02605,-2.04986 -1.93167,-2.714347 0.75262,-5.298647 2.53843,-2.443899 4.95888,-3.095665 11.49627,-3.095665 6.25536,0 9.08676,0.831942 11.57955,3.402405 2.27033,2.341082 3.13616,4.292897 3.3765,7.611587 0.39161,5.40745 -2.03341,10.21094 -6.2203,12.32118 l -1.77842,0.89636 -1.17262,-1.02136 c -0.94338,-0.82169 -1.0209,-0.84259 -0.39652,-0.10691 0.42685,0.50292 0.64223,1.04664 0.47861,1.20828 -0.73212,0.72332 -1.90779,0.12217 -4.15189,-2.12272 z m 20.90282,1.9513 c 0,-0.25594 0.20015,-0.34313 0.44475,-0.19378 0.24461,0.14943 0.44473,0.35875 0.44473,0.46532 0,0.10668 -0.20012,0.19376 -0.44473,0.19376 -0.2446,0 -0.44475,-0.20937 -0.44475,-0.4653 z m 1.15398,-0.80939 c -0.67987,-0.70112 -1.16761,-1.60111 -1.0839,-2.00001 0.11549,-0.54944 0.63297,-0.24045 2.13505,1.2747 1.63947,1.65375 1.82712,2 1.08386,2 -0.49437,0 -1.45513,-0.57361 -2.13501,-1.27469 z m 17.16685,-1.36717 c -1.29777,-1.4221 -2.33066,-2.71179 -2.2953,-2.86596 0.0354,-0.15423 -1.40886,-1.79553 -3.20943,-3.64746 -1.80061,-1.8519 -4.20056,-4.40515 -5.33327,-5.67388 -1.13271,-1.2687 -2.23586,-2.30676 -2.45145,-2.30676 -0.21559,0 -1.43586,-1.04426 -2.71169,-2.320576 -1.8294,-1.830086 -2.31969,-2.619457 -2.31969,-3.734743 v -1.414188 l 2.77962,0.0037 2.77964,0.0037 8.00532,8.894387 8.00534,8.89438 0.12054,-8.89748 0.12041,-8.897516 h 2.65924 2.65923 v 11.956666 11.95665 l -2.33489,-2.18019 -2.33487,-2.1802 2.43085,2.52625 2.43089,2.52625 h -2.64209 -2.64208 l -3.12426,-2.96584 -3.12425,-2.96582 2.87788,2.96582 c 1.58282,1.63122 2.6835,2.95319 2.44596,2.93774 -0.23752,-0.0156 -1.4937,-1.19166 -2.79148,-2.61375 z m -98.96004,0.52712 c -0.91071,-0.92145 -1.51432,-1.81522 -1.34129,-1.98615 0.32713,-0.32318 3.70618,2.69585 3.70618,3.3113 0,0.72424 -0.76044,0.29814 -2.36489,-1.32515 z m 82.91834,-1.12519 c -1.31065,-1.31114 -2.30787,-2.60656 -2.21603,-2.87871 0.0916,-0.27215 1.23927,0.57795 2.54993,1.88908 1.31065,1.31111 2.30785,2.60657 2.21603,2.87869 -0.0919,0.27218 -1.2393,-0.57789 -2.54993,-1.88906 z m -70.70094,-0.86165 c -1.39314,-1.3962 -2.31399,-2.68599 -2.2237,-3.11463 0.11536,-0.54795 0.75114,-0.13338 2.53198,1.6514 1.39315,1.39617 2.31401,2.68599 2.22369,3.11463 -0.11536,0.54793 -0.75111,0.13339 -2.53197,-1.6514 z m 34.58919,1.35325 c -0.62934,-0.54251 -1.42038,-1.38187 -1.75792,-1.86519 -0.3375,-0.48332 0.22742,-0.0971 1.25541,0.85809 1.70542,1.58478 2.07283,2.00189 1.75789,1.99572 -0.0612,-8.8e-4 -0.62609,-0.44607 -1.25538,-0.98862 z m -45.56357,-1.21624 c -0.94115,-0.9522 -1.56718,-1.87348 -1.39124,-2.04732 0.17597,-0.17385 1.13538,0.48957 2.13207,1.47425 0.99669,0.98467 1.62274,1.90597 1.39124,2.04734 -0.23151,0.1413 -1.19095,-0.52207 -2.13207,-1.47427 z m 81.68813,-1.89454 c -1.39315,-1.3962 -2.31402,-2.686 -2.2237,-3.11465 0.11536,-0.54792 0.75112,-0.13337 2.53198,1.65143 1.39316,1.39617 2.314,2.68598 2.22369,3.11463 -0.11548,0.54792 -0.75111,0.13336 -2.53197,-1.65141 z m -80.69839,0.23847 c -2.36595,-2.39379 -2.03838,-3.29023 0.3545,-0.9701 1.10072,1.06727 2.00134,2.09704 2.00134,2.2884 0,0.72099 -0.76127,0.29502 -2.35584,-1.3183 z m 10.0276,-1.0727 c -1.54039,-1.54486 -2.3349,-2.70908 -2.3349,-3.42149 0,-0.98278 0.22348,-0.85907 2.48575,1.37593 1.79074,1.76918 2.44356,2.7258 2.33488,3.42151 -0.13543,0.86695 -0.38964,0.72621 -2.48573,-1.37595 z m -9.18915,-0.7365 c -2.31561,-2.34281 -1.67895,-3.36356 0.67904,-1.08876 1.59943,1.54296 2.21775,2.80664 1.37333,2.80664 -0.19496,0 -1.11853,-0.77306 -2.05237,-1.71788 z m 79.85994,-1.06556 c -1.39315,-1.3962 -2.31402,-2.686 -2.2237,-3.11464 0.11536,-0.54796 0.75112,-0.13338 2.53198,1.65143 1.39316,1.39616 2.314,2.68596 2.22369,3.11462 -0.11548,0.54793 -0.75111,0.13337 -2.53197,-1.65141 z m -70.67079,-0.83421 c -1.54039,-1.54487 -2.3349,-2.7091 -2.3349,-3.4215 0,-0.9828 0.22348,-0.85908 2.48575,1.37591 1.79074,1.76919 2.44356,2.7258 2.33488,3.4215 -0.13543,0.86696 -0.38964,0.72624 -2.48573,-1.37591 z m -8.04984,0.0142 c -1.10713,-1.02029 -1.75511,-1.93428 -1.5294,-2.15729 0.22572,-0.22298 1.20147,0.42824 2.30302,1.53713 2.43542,2.4516 1.78206,2.97535 -0.77362,0.62016 z M 198.5886,107.279 c -2.43373,-2.42599 -3.478,-4.27216 -2.41652,-4.27216 0.73548,0 4.44819,4.23984 4.90561,5.60213 0.26371,0.78539 0.43409,1.42797 0.37858,1.42797 -0.0556,0 -1.34595,-1.24108 -2.86767,-2.75794 z m 37.37106,0.0189 c -1.54042,-1.54486 -2.3349,-2.70908 -2.3349,-3.42151 0,-0.98278 0.22348,-0.85908 2.48575,1.37593 1.79075,1.76919 2.44356,2.72579 2.33487,3.4215 -0.13542,0.86697 -0.38964,0.72624 -2.48572,-1.37592 z m -77.83654,-0.0125 c -1.16422,-1.17196 -1.72427,-2.06472 -1.51001,-2.40716 0.23975,-0.38329 0.88783,0.006 2.19101,1.31852 1.1642,1.17195 1.72424,2.06471 1.51002,2.40713 -0.23979,0.38333 -0.88786,-0.006 -2.19102,-1.31849 z m 5.29619,-3.00933 c -2.77215,-2.60184 -4.07599,-4.12587 -3.90542,-4.564972 0.14074,-0.362579 0.41684,-0.659218 0.61337,-0.659218 0.19652,0 2.02162,1.65283 4.05575,3.67297 2.63336,2.61521 3.65512,3.92981 3.5481,4.56495 -0.12495,0.74193 -0.85059,0.23479 -4.3118,-3.01373 z m -4.43996,1.21832 c -1.45144,-1.46109 -1.73817,-1.98335 -1.31722,-2.39924 0.42094,-0.41588 0.90557,-0.17707 2.22636,1.09709 0.92858,0.89579 1.6883,1.87351 1.6883,2.17269 0,1.1884 -0.82769,0.91095 -2.59744,-0.87054 z m 76.94174,-0.87158 c -1.60685,-1.61152 -2.32507,-2.66796 -2.22368,-3.27087 0.13228,-0.78701 0.42555,-0.64949 2.52176,1.18273 1.94127,1.69679 2.34511,2.29076 2.22371,3.27088 -0.14716,1.18855 -0.16631,1.17958 -2.52179,-1.18274 z m -37.60274,-0.24191 c -1.57903,-1.58803 -2.09063,-2.39841 -1.87102,-2.96374 0.25826,-0.66488 0.59635,-0.48751 2.32397,1.2193 1.41636,1.3993 1.97664,2.28681 1.87104,2.96376 -0.13638,0.87393 -0.35862,0.7573 -2.32399,-1.21932 z m -38.21893,-0.41575 c -0.89968,-0.91027 -1.6358,-1.88219 -1.6358,-2.15981 0,-1.15154 0.84927,-0.85008 2.61632,0.92876 1.5306,1.54077 1.7625,1.97831 1.26478,2.38639 -0.4788,0.39257 -0.96017,0.14489 -2.2453,-1.15534 z m 3.79851,-1.96062 -3.66323,-3.637998 1.22697,-2.289972 1.227,-2.289971 2.55724,-0.0037 2.55727,-0.0037 v 5.931668 c 0,3.262403 -0.0545,5.931673 -0.12107,5.931673 -0.0667,0 -1.76945,-1.6371 -3.78421,-3.63798 z m 72.06173,-0.41904 c -1.54042,-1.54485 -2.3349,-2.709085 -2.3349,-3.421492 0,-0.982788 0.22348,-0.859085 2.48575,1.375913 1.79075,1.769189 2.44356,2.725819 2.33487,3.421499 -0.13542,0.86695 -0.38964,0.72622 -2.48572,-1.37592 z M 143.82452,85.249264 c -0.80926,-0.824868 -1.39675,-1.720911 -1.30558,-1.991181 0.0911,-0.270287 1.05592,0.404609 2.14385,1.499745 1.20031,1.208324 1.71363,1.991217 1.30556,1.991217 -0.36985,0 -1.33458,-0.674914 -2.14383,-1.499781 z m 18.64176,-3.553113 v -5.052899 h -5.20136 c -5.04878,0 -5.2412,-0.03563 -6.55831,-1.208323 l -1.35695,-1.208273 1.07659,1.208273 1.07656,1.208323 h -1.29009 c -1.73323,0 -7.75976,-5.781913 -7.75976,-7.444776 0,-1.005149 0.22969,-0.878986 2.77963,1.526736 l 2.77962,2.62241 -2.77962,-2.867682 -2.77963,-2.867681 v -2.734317 -2.734316 h 2.44608 2.44607 l 0.0378,2.526448 c 0.0207,1.389552 0.006,3.564476 -0.0324,4.833205 l -0.0701,2.306756 h 7.59288 7.59283 v -4.833204 -4.833205 h 2.66844 2.66844 v 12.302685 12.302734 h -2.66844 -2.66844 z m -8.45007,-5.629783 c 0,-0.07579 -0.65043,-0.718216 -1.44539,-1.427977 l -1.44542,-1.290515 1.30623,1.427978 c 1.21761,1.331093 1.58458,1.629971 1.58458,1.290514 z m 20.61153,10.004653 c -0.44491,-1.145483 0.26334,-1.302391 1.29195,-0.286178 l 0.97596,0.964202 h -1.00227 c -0.55125,0 -1.12079,-0.305121 -1.26564,-0.678024 z m 2.0767,-0.853242 c -0.82624,-0.842174 -1.35898,-1.672819 -1.18385,-1.845828 0.17514,-0.173028 1.15918,0.516038 2.18677,1.531248 1.16909,1.155014 1.61215,1.845846 1.18384,1.845846 -0.37649,0 -1.36053,-0.689074 -2.18676,-1.531266 z m 21.14795,0.103158 -0.82963,-1.428008 1.40086,1.290513 c 1.57354,1.449583 1.63497,1.565484 0.82965,1.565484 -0.3142,0 -0.94457,-0.642593 -1.40088,-1.427989 z m 0.57904,-0.65909 c -1.11472,-1.147865 -2.67772,-3.273384 -3.47335,-4.723354 l -1.44662,-2.636288 4.71311,4.605653 c 2.5922,2.533136 4.71308,4.658628 4.71308,4.723364 0,0.06459 -0.55788,0.11763 -1.23974,0.11763 -0.89804,0 -1.79835,-0.575216 -3.26648,-2.087069 z m -0.21461,-3.295365 c -2.95606,-2.960332 -5.92922,-6.371034 -6.60707,-7.579332 -1.22863,-2.190141 -1.21891,-2.184047 3.15136,1.977226 l 4.38377,4.174117 -4.88589,-5.052884 c -2.68725,-2.779104 -5.88658,-5.93592 -7.10962,-7.015172 l -2.22369,-1.96225 1.87379,1.962458 c 1.39843,1.464529 1.76824,2.129589 1.45767,2.621313 -0.34264,0.542521 -0.74107,0.338874 -2.25586,-1.153037 l -1.83977,-1.81193 1.49394,-2.702374 1.49392,-2.702374 1.97391,0.120422 1.97388,0.120422 3.93864,7.2498 c 8.03562,14.791056 9.25472,17.135928 8.90921,17.135928 -0.19448,0 -2.77216,-2.422093 -5.72819,-5.382434 z m 12.72618,4.435585 c 0,-0.935615 0.0131,-0.936996 1.00067,-0.114585 0.55037,0.45777 1.08405,0.883871 1.18597,0.946859 0.10201,0.06312 -0.34839,0.114585 -1.00066,0.114585 -0.91792,0 -1.18598,-0.214026 -1.18598,-0.946859 z m 1.60473,-0.761953 c -0.92893,-0.939866 -1.61996,-2.036079 -1.53566,-2.436087 0.1138,-0.540521 0.77746,-0.101815 2.58419,1.708811 1.93464,1.938801 2.24814,2.436088 1.53565,2.436088 -0.49237,0 -1.65523,-0.768964 -2.58418,-1.708812 z m 7.73482,1.243488 c 0,-0.255898 0.20013,-0.343111 0.44473,-0.193757 0.24462,0.149401 0.44475,0.358743 0.44475,0.465306 0,0.106681 -0.20013,0.193775 -0.44475,0.193775 -0.2446,0 -0.44473,-0.209407 -0.44473,-0.465324 z m 1.15397,-0.809382 c -0.67987,-0.701091 -1.1676,-1.601081 -1.08388,-2.000022 0.11536,-0.549436 0.63294,-0.240413 2.13502,1.274733 1.63949,1.653746 1.82713,1.999995 1.08388,1.999995 -0.49438,0 -1.45513,-0.573643 -2.13502,-1.274706 z m 14.58456,0.505788 c -0.26734,-0.422899 -1.24061,-1.955261 -2.1628,-3.405203 l -1.67673,-2.636312 3.48558,3.295365 c 2.80413,2.651125 2.5757,2.350484 -1.16854,-1.537826 -4.03772,-4.193111 -4.86516,-4.850641 -6.24758,-4.964726 -1.25212,-0.103271 -2.10623,-0.644527 -3.98747,-2.526448 l -2.394,-2.394932 h 7.20157 7.2016 l 0.76208,-1.149084 c 0.68314,-1.030049 0.69411,-1.269021 0.1059,-2.306769 -0.61545,-1.085747 -0.88481,-1.165628 -4.33526,-1.285697 -3.54417,-0.123403 -3.6618,-0.09622 -3.20882,0.740038 0.71845,1.326275 0.65615,1.365224 -2.18465,1.365224 h -2.65489 l -2.23726,-3.275536 c -1.23049,-1.80153 -2.23725,-3.383308 -2.23725,-3.515067 0,-0.13182 3.7525,-0.236271 8.3389,-0.232305 7.81913,0.0061 8.44894,0.06885 10.10469,0.995322 2.62745,1.47021 3.79378,3.445598 3.79177,6.422097 -9e-4,1.680499 -0.28207,2.915814 -0.88543,3.893484 -1.01466,1.644154 -3.32117,3.177459 -4.78334,3.179867 -0.55037,8.89e-4 -1.00068,0.08576 -1.00068,0.189051 0,0.102907 0.96185,1.635459 2.13744,3.405243 1.17556,1.769775 2.59281,3.95923 3.14943,4.865458 l 1.01204,1.647674 h -2.82009 c -2.20417,0 -2.92628,-0.167958 -3.3062,-0.768918 z m -13.4422,-2.010143 c -1.63188,-1.635427 -2.32665,-2.663353 -2.2237,-3.289936 0.12663,-0.771108 0.51404,-0.509285 2.51699,1.70135 3.17229,3.501248 2.92919,4.818111 -0.29329,1.588586 z M 144.7449,83.526108 c -1.39316,-1.396192 -2.31402,-2.686005 -2.22372,-3.114655 0.11549,-0.547927 0.75114,-0.133382 2.53199,1.6514 1.39313,1.39621 2.31401,2.686014 2.2237,3.114655 -0.11536,0.547936 -0.75112,0.133382 -2.53197,-1.6514 z m 33.50967,0.147201 c -0.94665,-0.957752 -1.62111,-1.840252 -1.49879,-1.961084 0.12235,-0.120787 0.9969,0.563936 1.94353,1.521688 0.94663,0.957771 1.62111,1.84028 1.4988,1.961103 -0.12235,0.120787 -0.99689,-0.563936 -1.94354,-1.521707 z m 35.02332,-0.541974 c -1.54042,-1.544856 -2.33489,-2.70908 -2.33489,-3.421497 0,-0.982796 0.22349,-0.859075 2.48574,1.375932 1.79076,1.769168 2.44356,2.725798 2.33489,3.421506 -0.13543,0.866951 -0.38966,0.726208 -2.48574,-1.375941 z m -34.11216,-1.193749 c -0.92371,-0.934567 -1.60454,-1.921264 -1.51299,-2.192666 0.0914,-0.271419 1.03368,0.379436 2.09356,1.446363 1.05984,1.066918 1.74069,2.053634 1.51296,2.192675 -0.22774,0.138976 -1.16983,-0.511806 -2.09353,-1.446372 z m 43.41893,-0.966006 c -1.58708,-1.704698 -2.32021,-2.844191 -2.22371,-3.456252 0.12105,-0.767406 0.52138,-0.488428 2.50917,1.748214 1.39699,1.571869 2.30728,2.986756 2.22371,3.456257 -0.10965,0.615542 -0.67584,0.221009 -2.50917,-1.748219 z m -77.79682,-0.07453 c -1.42224,-1.488713 -2.33488,-2.838826 -2.33488,-3.454148 0,-0.881479 0.31656,-0.697366 2.48574,1.445689 1.82568,1.803671 2.44569,2.720876 2.33488,3.454123 -0.13653,0.903404 -0.37296,0.765872 -2.48574,-1.445664 z m 68.49005,-0.40229 c -1.54042,-1.544856 -2.33489,-2.709092 -2.33489,-3.421493 0,-0.982792 0.22349,-0.859098 2.48574,1.375919 1.79076,1.769186 2.44356,2.725798 2.33489,3.421497 -0.13543,0.86696 -0.38966,0.726227 -2.48574,-1.375923 z m -33.15475,-0.246117 c -1.5459,-1.564086 -2.09673,-2.726955 -1.29172,-2.726955 0.19496,0 1.1359,0.790583 2.09095,1.756864 1.15764,1.171245 1.58821,1.903332 1.29172,2.196245 -0.2965,0.292949 -0.99349,-0.115671 -2.09095,-1.226154 z M 144.79413,78.15871 c -1.28073,-1.437818 -2.33142,-3.007541 -2.3349,-3.488233 -0.005,-0.68103 0.54256,-0.33177 2.47947,1.581789 1.86007,1.837658 2.44778,2.715681 2.33488,3.488242 -0.13668,0.935625 -0.36922,0.787301 -2.47945,-1.581798 z m 77.82329,0.139107 c -1.54037,-1.544825 -2.33487,-2.709065 -2.33487,-3.421479 0,-0.98278 0.22347,-0.859097 2.48574,1.375904 1.79074,1.769187 2.44357,2.725816 2.33487,3.421506 -0.13543,0.866951 -0.38963,0.726227 -2.48574,-1.375931 z m -41.65519,0.142251 c -2.31562,-2.342793 -1.67896,-3.363561 0.67905,-1.088783 1.59941,1.543001 2.21775,2.806657 1.37333,2.806657 -0.19497,0 -1.11855,-0.773039 -2.05238,-1.717874 z m 32.31566,-0.581514 C 211.52177,76.097275 210.943,75.194666 210.943,74.217238 V 72.91768 l 2.48237,2.45248 c 1.98838,1.964416 2.45303,2.68903 2.33489,3.641311 -0.1461,1.177989 -0.16885,1.167436 -2.48237,-1.152912 z M 182.1333,76.583716 c -1.33202,-1.227492 -1.78768,-1.934797 -1.53444,-2.381844 0.28303,-0.499655 0.75767,-0.235699 2.21597,1.232323 2.50573,2.522373 1.90594,3.534028 -0.68153,1.149521 z m -37.42348,-1.093277 c -1.52573,-1.355261 -2.25686,-2.347334 -2.25686,-3.062411 0,-0.581762 0.15639,-1.057746 0.34748,-1.057746 0.1911,0 1.4775,1.136896 2.85864,2.52646 2.06269,2.075253 2.40369,2.622165 1.90938,3.062399 -0.48534,0.432232 -1.03851,0.147998 -2.85864,-1.468702 z m 77.85537,-0.326441 c -1.25547,-1.255931 -2.28264,-2.524429 -2.28264,-2.818904 0,-1.093812 1.20649,-0.470608 3.42923,1.771327 1.82554,1.841294 2.17087,2.410088 1.71152,2.818928 -0.45156,0.40187 -1.06697,0.02056 -2.85811,-1.771351 z m -9.2873,-0.381277 c -1.54042,-1.54486 -2.33489,-2.709076 -2.33489,-3.421514 0,-0.98278 0.22349,-0.859062 2.48574,1.375952 1.79076,1.769175 2.44356,2.725766 2.33489,3.42149 -0.13543,0.866944 -0.38966,0.726232 -2.48574,-1.375928 z m -30.24931,-0.01241 c -1.16419,-1.171916 -1.72423,-2.064708 -1.51001,-2.407133 0.23978,-0.383308 0.88786,0.0061 2.19101,1.318502 1.1642,1.171953 1.72422,2.064721 1.51003,2.407157 -0.23981,0.383309 -0.88785,-0.0061 -2.19103,-1.318526 z m 0.85624,-1.790985 c -1.45144,-1.461111 -1.73817,-1.983368 -1.31721,-2.39925 0.42094,-0.415883 0.90558,-0.177069 2.22637,1.097096 0.92855,0.895797 1.6883,1.873516 1.6883,2.172699 0,1.18836 -0.82772,0.910964 -2.59746,-0.870545 z m 29.37789,-0.854207 -2.31971,-2.320574 v -3.83078 -3.830768 h 2.44608 2.44605 v 6.15133 c 0,3.383259 -0.0568,6.151366 -0.12637,6.151366 -0.0696,0 -1.17024,-1.044255 -2.44607,-2.320574 z m -28.29102,-0.708482 c -1.10261,-1.115549 -1.62546,-1.990264 -1.45383,-2.432165 0.39771,-1.02387 0.8341,-0.86288 2.65489,0.979301 1.42105,1.437757 1.57163,1.77517 1.08537,2.432153 -0.5168,0.698243 -0.71033,0.615347 -2.28643,-0.979289 z M 118.93808,50.494372 c -2.47709,-2.540813 -4.50379,-4.860806 -4.50379,-5.15558 0,-0.294753 2.30153,1.731423 5.11452,4.502648 2.81298,2.77121 5.11451,5.0912 5.11451,5.155573 0,0.06434 -0.27483,0.117016 -0.61072,0.117016 -0.3359,0 -2.63743,-2.078855 -5.11452,-4.619669 z m 1.29348,-1.735917 c -3.53187,-3.495559 -6.27319,-6.502176 -6.09181,-6.681375 0.18138,-0.17919 3.37307,2.680812 7.09264,6.355565 3.71956,3.674766 6.46086,6.681384 6.0918,6.681384 -0.36908,0 -3.56076,-2.860006 -7.09263,-6.355574 z m 6.4331,3.719273 c -3.43759,-3.431974 -2.30395,-3.439395 1.2673,-0.0086 1.55933,1.498127 2.44256,2.63158 2.05433,2.636325 -0.37458,0.0049 -1.8693,-1.178048 -3.32163,-2.628017 z m 2.89082,0.219704 c -3.17205,-3.173262 -1.88109,-3.189258 1.59577,-0.01983 2.05905,1.876971 2.43307,2.401076 1.7246,2.416596 -0.52462,0.01216 -1.91953,-0.995418 -3.32037,-2.396793 z m 2.68365,0.01947 c -1.93469,-1.938799 -2.24816,-2.436069 -1.53569,-2.436069 1.14992,0 4.32104,3.190388 4.11984,4.1449 -0.11392,0.540513 -0.77746,0.10181 -2.58415,-1.708831 z m 8.9722,0.513121 c -1.16143,-1.169143 -1.87155,-2.28879 -1.87155,-2.950808 0,-0.969547 0.22308,-0.84916 2.44607,1.319767 1.34535,1.312616 2.44607,2.640485 2.44607,2.950798 0,1.065092 -1.15116,0.562116 -3.02059,-1.319757 z m 11.47066,-3.168894 -3.21192,-5.05291 h -2.48355 c -2.08349,0 -2.7024,-0.194624 -3.8421,-1.208291 l -1.35857,-1.208291 1.22303,1.342177 c 1.04307,1.144691 1.22304,1.72438 1.22304,3.939436 v 2.597253 l -2.44607,-2.386587 -2.44607,-2.386591 v -2.761097 -2.76115 h 7.93638 c 7.12385,0 8.01177,-0.08229 8.67247,-0.803513 0.96559,-1.054138 0.93416,-2.398205 -0.0773,-3.302513 -0.71794,-0.641924 -2.34572,-0.727174 -13.88414,-0.727174 h -13.07091 l -2.45987,-2.306751 -2.45984,-2.30677 2.20676,2.30677 c 2.05582,2.148922 2.13187,2.306126 1.11166,2.297705 -1.27294,-0.01083 -5.73845,-3.665211 -5.17216,-4.233077 0.2037,-0.204256 8.12433,-0.371398 17.60143,-0.371398 h 17.23103 l 1.63407,1.231019 c 2.11112,1.590383 3.07,3.470289 3.07,6.018792 0,3.384108 -2.17742,6.319652 -5.11854,6.900787 -1.54031,0.304334 -1.51814,0.369112 1.80593,5.283572 1.4334,2.119213 2.75384,4.100258 2.93433,4.402335 0.24861,0.416114 -0.3669,0.549236 -2.53956,0.549236 h -2.86769 z m 12.45274,4.627305 c 0,-0.23408 0.30019,-0.31177 0.6671,-0.172677 0.36692,0.13913 0.66713,0.330625 0.66713,0.425589 0,0.09488 -0.30021,0.172691 -0.66713,0.172691 -0.36691,0 -0.6671,-0.19152 -0.6671,-0.425603 z m 1.15397,-0.849122 c -0.67987,-0.701065 -1.16761,-1.60107 -1.08387,-1.999985 0.11549,-0.549453 0.63294,-0.240417 2.13502,1.274702 1.63948,1.653763 1.82712,2.000008 1.08386,2.000008 -0.49438,0 -1.45512,-0.573612 -2.13501,-1.274725 z m 1.62565,-1.310171 c -1.8936,-1.748337 -2.77962,-2.897555 -2.77962,-3.605347 0,-0.887743 0.51788,-0.530332 3.55791,2.455485 1.95686,1.921928 3.55793,3.548516 3.55793,3.614603 0,0.06617 -0.35023,0.115922 -0.77829,0.110935 -0.42807,-0.0049 -2.02913,-1.164143 -3.55793,-2.575651 z m 1.32545,-1.487653 c -2.94034,-2.91703 -4.10507,-4.378276 -4.10507,-5.150043 0,-0.967906 0.28401,-0.799422 2.79158,1.655935 2.17972,2.134296 3.08476,2.733453 4.12905,2.733453 1.03185,0 1.88943,0.552191 3.75313,2.416607 2.19887,2.199678 2.31851,2.416597 1.33302,2.416597 -0.69751,0 -1.95697,-0.820636 -3.54032,-2.306744 -2.27251,-2.133033 -2.3238,-2.158649 -0.68109,-0.340212 0.97711,1.081587 1.97668,2.116623 2.2213,2.30003 0.24458,0.183394 -0.0596,0.336502 -0.6759,0.340175 -0.82636,0.0049 -2.19864,-1.062709 -5.2257,-4.065798 z m 7.01345,1.655952 c -2.19009,-2.190907 -2.31523,-2.416607 -1.34023,-2.416607 0.59344,0 1.7823,0.640062 2.65232,1.427977 l 1.57685,1.428002 -1.3053,-1.428002 -1.30532,-1.427977 h 4.5306 4.53063 v 2.416607 2.416597 h -1.91239 c -1.05181,0 -2.1819,-0.247169 -2.51133,-0.549224 -0.47914,-0.439383 -0.53614,-0.439383 -0.28508,0 0.21906,0.383308 -0.0682,0.549224 -0.9506,0.549224 -0.94339,0 -1.87787,-0.613656 -3.68015,-2.416597 z m 7.56058,1.811322 c 0,-0.09135 -0.35024,-0.437266 -0.7783,-0.768915 -0.70537,-0.546546 -0.72112,-0.531002 -0.16792,0.16588 0.581,0.7319 0.94622,0.964643 0.94622,0.603035 z m 4.60088,-0.07262 c -0.44492,-1.145483 0.26336,-1.302373 1.29194,-0.286179 l 0.97594,0.964194 h -1.00227 c -0.55124,0 -1.12077,-0.305082 -1.26561,-0.678015 z m 2.07668,-0.853234 c -0.82624,-0.84219 -1.35894,-1.672825 -1.18384,-1.845843 0.17512,-0.173019 1.15918,0.516051 2.18676,1.531261 1.16909,1.155008 1.61216,1.845831 1.18384,1.845831 -0.37647,0 -1.36053,-0.689071 -2.18676,-1.531249 z m 21.14796,0.103028 -0.82966,-1.427989 1.40088,1.290512 c 1.57354,1.449581 1.63498,1.565479 0.82963,1.565479 -0.31416,0 -0.94453,-0.642605 -1.40085,-1.428002 z m 0.57902,-0.659063 c -1.11471,-1.147892 -2.67772,-3.273408 -3.47335,-4.723365 l -1.44658,-2.636295 4.71309,4.605674 c 2.59219,2.533115 4.71309,4.658629 4.71309,4.723353 0,0.0646 -0.55789,0.117625 -1.23975,0.117625 -0.89805,0 -1.79836,-0.575218 -3.2665,-2.087053 z m -0.21463,-3.295387 c -2.95603,-2.960324 -5.9292,-6.371032 -6.60705,-7.579332 -1.22861,-2.190139 -1.21891,-2.184027 3.15137,1.977214 l 4.38379,4.17414 -4.88592,-5.052894 c -2.68724,-2.779092 -5.88656,-5.935929 -7.10959,-7.015161 l -2.22371,-1.962264 1.87381,1.962448 c 1.3984,1.46455 1.76824,2.129607 1.45767,2.621319 -0.34262,0.542528 -0.74108,0.338877 -2.25588,-1.153031 l -1.83976,-1.81192 1.49394,-2.702389 1.49393,-2.70237 1.97389,0.12046 1.97391,0.120446 3.93863,7.249812 c 8.03559,14.791071 9.25471,17.135925 8.90919,17.135925 -0.19447,0 -2.77216,-2.422094 -5.72822,-5.382428 z m 9.52886,5.044016 c 0.42278,-0.139288 0.44014,-0.336282 0.0687,-0.778573 -0.2736,-0.325687 -0.43205,-1.010599 -0.35213,-1.522004 0.13153,-0.841679 0.3121,-0.760619 1.90371,0.854926 l 1.75839,1.784792 -1.97232,-0.07639 c -1.08479,-0.04196 -1.7176,-0.160235 -1.40625,-0.262776 z m 1.95912,-1.982139 c -1.51944,-1.52001 -2.31969,-2.690016 -2.31969,-3.391457 0,-0.964047 0.26622,-0.810625 2.66845,1.537903 2.33765,2.285395 3.38728,4.174129 2.31968,4.174129 -0.19183,0 -1.3926,-1.044257 -2.66844,-2.320575 z m 15.46993,1.373703 c 0,-0.935621 0.0131,-0.936984 1.00066,-0.114584 0.55037,0.457799 1.08405,0.883875 1.18597,0.94686 0.10201,0.06301 -0.34837,0.114584 -1.00066,0.114584 -0.91792,0 -1.18597,-0.214024 -1.18597,-0.946873 z m 1.60475,-0.761946 c -0.92893,-0.939829 -1.61998,-2.036085 -1.53566,-2.436069 0.1138,-0.540538 0.77745,-0.101812 2.58415,1.708817 1.93468,1.938798 2.24813,2.43607 1.53568,2.43607 -0.49237,0 -1.65525,-0.768976 -2.58417,-1.708818 z m 7.73478,0.995942 c 0,-0.583854 0.12081,-0.613874 0.66714,-0.165891 0.36689,0.300849 0.66711,0.621635 0.66711,0.712876 0,0.09135 -0.30022,0.165891 -0.66711,0.165891 -0.36692,0 -0.66714,-0.32081 -0.66714,-0.712876 z m 1.37981,-0.778512 c -0.8047,-0.820259 -1.39434,-1.818304 -1.31029,-2.217864 0.11458,-0.544722 0.70507,-0.17157 2.35983,1.491389 1.787,1.795788 2.03637,2.217863 1.31031,2.217863 -0.49318,0 -1.55512,-0.671142 -2.35985,-1.491388 z m 0.91215,-1.731442 c -1.39316,-1.396193 -2.314,-2.685989 -2.22371,-3.114645 0.11535,-0.547921 0.7511,-0.133388 2.53198,1.651405 1.39316,1.396205 2.314,2.686013 2.22369,3.114631 -0.11535,0.547946 -0.75111,0.13339 -2.53196,-1.651391 z m -131.7194,0.855969 c -0.85175,-0.576799 -1.92617,-1.713719 -2.38761,-2.526448 -0.73993,-1.303286 -0.54312,-1.194261 1.66778,0.923931 1.37872,1.320863 2.50675,2.457771 2.50675,2.526448 0,0.244859 -0.25812,0.111299 -1.78692,-0.923931 z m 73.1678,-0.708752 c -0.94665,-0.957772 -1.62113,-1.840261 -1.49882,-1.961084 0.12236,-0.120787 0.99691,0.563954 1.94355,1.521712 0.94664,0.95776 1.62109,1.840248 1.4988,1.961072 -0.12236,0.120908 -0.99692,-0.563929 -1.94353,-1.5217 z m 49.25499,-0.541986 c -1.54039,-1.544848 -2.33488,-2.709064 -2.33488,-3.42149 0,-0.982796 0.22346,-0.859079 2.48575,1.375928 1.79074,1.769175 2.44357,2.725791 2.33487,3.421503 -0.13543,0.866943 -0.38964,0.726219 -2.48574,-1.375941 z M 141.67467,51.05709 c -1.75613,-1.761304 -2.33489,-2.663901 -2.33489,-3.641328 v -1.299567 l 2.48236,2.452483 c 1.98838,1.964417 2.45303,2.689042 2.3349,3.64134 -0.14608,1.177973 -0.16884,1.167415 -2.48237,-1.152928 z m 82.01515,-0.704119 c -1.86417,-1.861558 -2.57171,-2.888261 -2.50804,-3.639397 0.0489,-0.575455 0.0667,-3.369542 0.0394,-6.209048 l -0.0493,-5.162739 h -4.89217 -4.89214 V 32.925184 30.50859 h 12.45275 12.45273 v 2.416594 2.416603 h -4.88294 -4.88294 l -0.12053,8.802129 -0.12054,8.80215 z m -90.39507,0.761788 c -0.83911,-0.916037 -0.83699,-0.922301 0.26008,-0.768915 0.61766,0.08636 1.17158,0.494181 1.25443,0.923566 0.2005,1.039305 -0.48493,0.969314 -1.51451,-0.154688 z m 59.65791,-0.811999 c -0.9237,-0.934574 -1.60452,-1.921272 -1.51295,-2.192684 0.0916,-0.271412 1.03366,0.379465 2.09354,1.446381 1.05988,1.06693 1.74071,2.053614 1.51297,2.192672 -0.22775,0.13913 -1.16983,-0.511807 -2.09356,-1.446369 z m 57.68342,-1.040364 c -1.42225,-1.488724 -2.3349,-2.838874 -2.3349,-3.454155 0,-0.881497 0.31659,-0.697395 2.48575,1.445668 1.82568,1.803671 2.4457,2.720876 2.33489,3.454126 -0.13651,0.903411 -0.37298,0.765886 -2.48574,-1.445639 z m -9.33955,-0.402309 c -1.54039,-1.54486 -2.33488,-2.709108 -2.33488,-3.421508 0,-0.982791 0.22346,-0.859081 2.48575,1.375905 1.79074,1.769203 2.44357,2.725819 2.33487,3.421543 -0.13543,0.866932 -0.38964,0.72622 -2.48574,-1.37594 z M 193.91009,48.61396 c -1.54589,-1.564084 -2.09674,-2.726972 -1.29171,-2.726972 0.19496,0 1.13587,0.790603 2.09095,1.756891 1.15763,1.171235 1.5882,1.903317 1.2917,2.19626 -0.29647,0.292906 -0.99345,-0.1158 -2.09094,-1.226179 z m -26.44046,-1.950804 c -1.54042,-1.544843 -2.3349,-2.709089 -2.3349,-3.421492 0,-0.982778 0.22347,-0.859072 2.48575,1.375919 1.79074,1.769186 2.44357,2.725824 2.33486,3.421512 -0.13544,0.866944 -0.38962,0.72622 -2.48571,-1.375939 z m 83.16645,-0.327985 c -1.39463,-1.538951 -2.3349,-2.986468 -2.3349,-3.594611 0,-0.893292 0.30442,-0.717407 2.48238,1.434315 1.95122,1.927687 2.45084,2.696861 2.3349,3.594621 -0.14092,1.090867 -0.25235,1.026448 -2.48238,-1.434325 z m -55.88691,0.470248 c -2.31559,-2.342814 -1.67896,-3.363555 0.67907,-1.088772 1.59939,1.542963 2.21772,2.806644 1.37332,2.806644 -0.19497,0 -1.11855,-0.773051 -2.05239,-1.717872 z m 46.54736,-0.581512 c -1.75611,-1.761302 -2.33488,-2.663894 -2.33488,-3.641321 v -1.299559 l 2.48238,2.452464 c 1.98838,1.964428 2.45302,2.689056 2.33488,3.641318 -0.14607,1.177998 -0.16886,1.167452 -2.48238,-1.152902 z m -45.37628,-1.274842 c -1.332,-1.227515 -1.78765,-1.934817 -1.53445,-2.381834 0.28305,-0.499671 0.75767,-0.235731 2.21598,1.232291 2.50571,2.522387 1.90594,3.534044 -0.68153,1.149543 z m -28.45062,-0.923792 c -3.8359,-3.84437 -3.95399,-3.78702 7.89414,-3.833726 l 10.22903,-0.04029 v 2.428496 2.428487 h -6.98592 -6.98591 l -1.79714,-1.647675 -1.79711,-1.647693 1.53207,1.647693 c 0.84261,0.906223 1.30733,1.647675 1.03265,1.647675 -0.27464,0 -0.56405,0.305343 -0.64314,0.678559 -0.10071,0.474217 -0.84689,-0.02614 -2.47867,-1.661486 z m 83.16262,-0.447504 c -1.28207,-1.282563 -2.33107,-2.572876 -2.33107,-2.867349 0,-0.695151 0.99063,-0.687353 1.75529,0.01404 0.47913,0.439383 0.53614,0.439383 0.28507,0 -0.24677,-0.431815 1.68839,-0.549234 9.05192,-0.549234 h 9.3658 v 2.416614 2.416591 h -5.47032 c -3.76031,0 -5.65752,-0.171672 -6.06923,-0.549218 -0.47916,-0.439386 -0.53615,-0.439386 -0.28507,0 0.23073,0.403764 -0.21333,0.549218 -1.67664,0.549218 -1.09479,0 -2.05897,0.202848 -2.14262,0.450761 -0.0839,0.247903 -1.20106,-0.598637 -2.48313,-1.881198 z m 2.11635,-0.492972 c 0,-0.09124 -0.35023,-0.437247 -0.77828,-0.76892 -0.7054,-0.546523 -0.72113,-0.530996 -0.16793,0.165893 0.58101,0.731895 0.94621,0.964648 0.94621,0.603027 z M 116.97762,42.908386 c -1.39883,-1.396549 -2.54333,-2.823287 -2.54333,-3.170506 0,-0.809427 4.74843,3.801135 5.0368,4.890569 0.11925,0.450527 0.17925,0.819131 0.13335,0.819131 -0.0459,0 -1.22798,-1.142639 -2.62682,-2.539194 z m 124.31891,0.239686 c -1.54039,-1.544851 -2.33488,-2.709081 -2.33488,-3.421509 0,-0.982772 0.22346,-0.859067 2.48575,1.375948 1.79074,1.769169 2.44357,2.725787 2.33487,3.421501 -0.13543,0.866946 -0.38964,0.72623 -2.48574,-1.37594 z m -44.48101,-0.01241 c -1.16419,-1.171922 -1.72422,-2.064693 -1.51002,-2.407132 0.2398,-0.383322 0.88787,0.0059 2.19104,1.318509 1.1642,1.17195 1.72425,2.064714 1.51003,2.407157 -0.2398,0.383304 -0.88786,-0.0056 -2.19105,-1.318534 z m 0.85626,-1.790974 c -1.45145,-1.461101 -1.73819,-1.983375 -1.31723,-2.399265 0.42096,-0.415874 0.90561,-0.177064 2.22638,1.097108 0.92858,0.8958 1.68829,1.873504 1.68829,2.17268 0,1.188382 -0.82771,0.910972 -2.59744,-0.870523 z m 43.60955,-0.854219 -2.31968,-2.320569 v -3.830783 -3.830766 h 2.44606 2.44608 V 36.6597 c 0,3.383236 -0.057,6.151347 -0.12637,6.151347 -0.0696,0 -1.17026,-1.044254 -2.44609,-2.320577 z M 116.86456,40.038111 c -1.55422,-1.399293 -2.07019,-2.12809 -1.74276,-2.461601 0.32925,-0.335385 1.02626,0.09106 2.38604,1.459891 2.65393,2.671582 2.1255,3.494517 -0.64328,1.00171 z m 81.89408,-0.256172 c -1.1026,-1.115565 -1.62545,-1.990271 -1.45381,-2.432172 0.39769,-1.023882 0.83408,-0.8629 2.65489,0.979271 1.42104,1.437779 1.57161,1.77519 1.08536,2.432182 -0.5168,0.698226 -0.71033,0.615342 -2.28644,-0.979281 z m -81.21405,-1.587308 c -1.30512,-1.31378 -1.80941,-2.117139 -1.51292,-2.410056 0.6112,-0.603834 4.27902,3.088362 3.81107,3.836412 -0.2391,0.382186 -0.92357,-0.04268 -2.29815,-1.426356 z m 1.15394,-1.934652 c -2.44973,-2.478518 -1.61908,-3.31272 0.88295,-0.886741 1.71438,1.662268 2.12799,2.604601 1.14318,2.604601 -0.18052,0 -1.09229,-0.773036 -2.02613,-1.71786 z m 1.34497,-1.30728 c -2.30254,-2.329594 -1.26935,-2.958569 1.10204,-0.670882 0.95635,0.922613 1.73882,1.835045 1.73882,2.027667 0,0.834251 -1.27908,0.223368 -2.84086,-1.356785 z m 1.81927,-0.837978 c -1.82059,-1.84199 -1.92608,-2.088344 -1.03833,-2.424921 0.3474,-0.131658 1.53307,0.696641 2.76291,1.930217 2.02847,2.03464 2.08917,2.160913 1.03833,2.160913 -0.70587,0 -1.72134,-0.612411 -2.76291,-1.666209 z m 43.27196,-1.189776 v -2.416594 h 10.22904 10.22903 v 2.416597 2.416604 h -10.22903 -10.22904 z m 83.16645,0 v -2.416594 h 10.22907 10.22901 v 2.416594 2.416604 h -10.22901 -10.22907 z"
       id="path1" /></g></svg>
