<?xml version="1.0" encoding="UTF-8" standalone="no"?>
<!-- Created with Inkscape (http://www.inkscape.org/) -->

<svg
   width="300mm"
   height="200mm"
   viewBox="0 0 300 200"
   version="1.1"
   id="svg1"
   xml:space="preserve"
   inkscape:version="1.3.2 (091e20e, 2023-11-25, custom)"
   sodipodi:docname="dibujo-r12.svg"
   xmlns:inkscape="http://www.inkscape.org/namespaces/inkscape"
   xmlns:sodipodi="http://sodipodi.sourceforge.net/DTD/sodipodi-0.dtd"
   xmlns="http://www.w3.org/2000/svg"
   xmlns:svg="http://www.w3.org/2000/svg"><sodipodi:namedview
     id="namedview1"
     pagecolor="#ffffff"
     bordercolor="#000000"
     borderopacity="0.25"
     inkscape:showpageshadow="2"
     inkscape:pageopacity="0.0"
     inkscape:pagecheckerboard="0"
     inkscape:deskcolor="#d1d1d1"
     inkscape:document-units="mm"
     inkscape:zoom="0.45344416"
     inkscape:cx="396.96177"
     inkscape:cy="561.25984"
     inkscape:window-width="1366"
     inkscape:window-height="705"
     inkscape:window-x="1912"
     inkscape:window-y="305"
     inkscape:window-maximized="1"
     inkscape:current-layer="layer1" /><defs
     id="defs1"><meshgradient
       inkscape:collect="always"
       id="meshgradient12"
       gradientUnits="userSpaceOnUse"
       x="2.5668762"
       y="18.754181"><meshrow
         id="meshrow12"><meshpatch
           id="meshpatch12"><stop
             path="c 98.2612,0  196.522,0  294.784,0"
             style="stop-color:#ffffff;stop-opacity:1"
             id="stop13" /><stop
             path="c 0,51.0984  0,102.197  0,153.295"
             style="stop-color:#e42aff;stop-opacity:1"
             id="stop14" /><stop
             path="c -98.2612,0  -196.522,0  -294.784,0"
             style="stop-color:#ffffff;stop-opacity:1"
             id="stop15" /><stop
             path="c 0,-51.0984  0,-102.197  0,-153.295"
             style="stop-color:#e42aff;stop-opacity:1"
             id="stop16" /></meshpatch></meshrow></meshgradient></defs><g
     inkscape:label="Capa 1"
     inkscape:groupmode="layer"
     id="layer1"><path
       style="fill:url(#meshgradient12);stroke-width:1.71343;fill-opacity:1"
       d="M 41.118748,168.3449 C 36.092576,163.23541 26.186931,152.59313 22.925202,148.79842 l -2.703313,-3.14508 -0.575831,-6.50113 c -0.316706,-3.57562 -0.843409,-9.6172 -1.17045,-13.4257 -0.327044,-3.80849 -0.781908,-7.39051 -1.01081,-7.96 -0.228901,-0.56949 -1.819534,-1.79473 -3.534737,-2.72277 -4.7388189,-2.56401 -5.4285409,-3.33313 -5.1237889,-5.71371 0.140066,-1.09415 0.393254,-5.45333 0.562628,-9.687041 l 0.307956,-7.69764 -3.5549899,-14.21915 -3.5549901,-14.21916 1.222751,-2.91608 c 0.67251,-1.60383 2.5031881,-5.96617 4.06817,-9.69409 l 2.8454179,-6.77806 7.709449,-7.398845 c 4.240203,-4.069362 8.264736,-7.806421 8.943432,-8.304551 0.678682,-0.49814 4.898893,-2.029894 9.378235,-3.403894 4.479343,-1.373988 10.885116,-3.343987 14.235067,-4.37776 3.349952,-1.033783 6.498025,-1.879579 6.995715,-1.879579 0.49769,0 5.419831,1.514525 10.938082,3.36563 5.518266,1.851092 12.104053,4.015212 14.635098,4.809179 4.411906,1.383958 4.788892,1.616155 9.131433,5.624305 10.348254,9.551395 10.776754,10.091675 14.053044,17.719495 6.40137,14.90362 6.0681,13.49909 4.53263,19.10222 -0.53982,1.96992 -1.41616,5.40833 -1.94745,7.6409 -0.53126,2.23254 -1.63599,6.74546 -2.45494,10.02864 l -1.489,5.96943 0.79968,9.182361 c 0.61997,7.11868 0.66772,9.33618 0.2125,9.86685 -0.32295,0.37648 -2.43592,1.88699 -4.6955,3.3567 -4.793557,3.11788 -4.255747,1.46503 -5.45138,16.7536 -1.201877,15.36858 -0.916422,14.14888 -4.126639,17.63128 -1.540468,1.67108 -6.780257,7.35972 -11.643964,12.64143 l -8.843102,9.60315 H 58.189188 44.76277 Z m 30.667708,0.59302 1.166403,-1.20126 -0.923528,-3.4549 c -0.507947,-1.90023 -1.862692,-6.35609 -3.010553,-9.90196 -2.011274,-6.213 -2.133331,-6.44201 -3.363272,-6.30981 -0.701942,0.0755 -1.719087,-0.0921 -2.260306,-0.37235 -0.749671,-0.38818 -1.271284,-0.32746 -2.189964,0.25495 -0.90067,0.57095 -1.447241,0.63949 -2.15931,0.27078 -0.524374,-0.27151 -1.927496,-0.48873 -3.118051,-0.48273 -1.190556,0.007 -2.664408,-0.003 -3.275222,-0.0177 -0.610827,-0.0154 -1.499285,0.004 -1.974362,0.044 -0.475092,0.04 -1.185622,-0.0136 -1.578978,-0.11939 -0.775262,-0.20825 -1.220678,1.51 -3.702685,14.28379 -1.041585,5.36058 -1.201042,6.9831 -0.739213,7.5215 0.484082,0.56433 2.845946,0.68645 13.275735,0.68645 H 70.620053 Z M 37.240049,153.54401 c -1.635525,-5.54274 -2.97367,-10.91331 -2.97367,-11.93461 0,-1.65378 -0.189953,-1.94452 -1.73645,-2.65805 -0.955046,-0.44062 -1.944701,-1.2863 -2.199257,-1.87928 -0.254541,-0.59295 -1.150954,-4.51015 -1.992012,-8.70486 -0.84106,-4.19471 -1.572807,-7.6679 -1.626089,-7.71819 -0.312398,-0.29482 -5.641493,-2.08539 -6.207139,-2.08558 -0.541006,-1.9e-4 -0.619232,0.66152 -0.381034,3.22326 0.164856,1.77291 0.645848,7.19913 1.068879,12.05825 0.423034,4.85912 0.874216,9.49198 1.002631,10.29525 0.156831,0.98101 1.79483,3.17572 4.989913,6.68573 8.386509,9.21326 12.72649,13.67066 12.879129,13.22761 0.08185,-0.23749 -1.189376,-4.96678 -2.824901,-10.50953 z m 7.08923,3.10419 c 0.726556,-3.74284 1.435561,-7.36475 1.57554,-8.04868 0.191651,-0.93635 -0.0256,-1.41947 -0.879452,-1.95585 -1.222561,-0.76799 -3.503266,-1.39108 -5.068621,-1.38474 -0.53522,0.003 -1.369518,-0.34315 -1.854003,-0.76735 -0.484485,-0.42423 -0.99905,-0.65696 -1.143459,-0.51724 -0.35528,0.34371 5.232883,19.47901 5.68854,19.47901 0.198238,0 0.954887,-3.0623 1.681455,-6.80515 z m 32.815295,-3.53237 c 1.392707,-5.02903 2.53221,-9.40761 2.53221,-9.73018 0,-0.83654 -2.901141,-0.20265 -4.171806,0.91149 -0.555993,0.48756 -1.985454,1.00499 -3.176584,1.14991 -3.704799,0.4508 -3.719702,0.58495 -1.019245,9.17155 1.321674,4.20249 2.412369,7.84505 2.423777,8.09457 0.07178,1.56838 1.192842,-1.58543 3.411648,-9.59734 z m 12.520584,-3.47203 c 1.828685,-1.99165 3.340773,-3.83611 3.360178,-4.09875 0.01942,-0.26265 0.538745,-6.06495 1.154076,-12.894 0.61533,-6.82901 0.948327,-12.60837 0.740004,-12.84295 -0.215558,-0.24274 -1.654082,0.0348 -3.337954,0.64417 -3.377571,1.22208 -3.093569,0.58457 -4.794502,10.76224 -0.84618,5.06321 -0.952715,5.32727 -3.00654,7.45164 -1.752445,1.81262 -2.130122,2.5317 -2.134063,4.06309 -0.0028,1.02338 -1.085978,5.88062 -2.407421,10.79386 -1.321445,4.9132 -2.303332,9.02919 -2.18198,9.1466 0.208351,0.20157 5.162684,-4.9169 12.608202,-13.0259 z m -28.498056,-5.53142 c 0,-1.71919 -0.123424,-1.91019 -1.233984,-1.91019 -0.988332,0 -1.265861,0.26943 -1.394175,1.35361 -0.233985,1.97691 0.239251,2.79501 1.515368,2.61969 0.942861,-0.12956 1.112791,-0.4446 1.112791,-2.06311 z m -9.54139,-0.0197 c 0.423263,-1.53125 0.161457,-1.9701 -1.317618,-2.20881 -0.802435,-0.12942 -1.01713,0.14412 -1.147199,1.46208 -0.262295,2.65777 1.766658,3.27244 2.464817,0.74673 z m 4.358681,0.25844 c 0,-0.78797 0.05553,-1.59382 0.123423,-1.79081 0.0679,-0.19699 -0.376367,-0.42684 -0.987182,-0.51078 -0.995625,-0.13683 -1.110575,0.0485 -1.110575,1.79083 0,1.62507 0.161716,1.94346 0.987181,1.94346 0.767812,0 0.987182,-0.31839 0.987182,-1.4327 z m 10.247215,-0.23877 c 0.159933,-1.78179 -0.453096,-2.75098 -1.495272,-2.36405 -0.872748,0.32403 -1.61481,2.75404 -1.09127,3.57361 0.181466,0.28408 0.808751,0.45049 1.393944,0.36981 0.783031,-0.10789 1.09796,-0.52503 1.192598,-1.57937 z m -19.440575,-1.28397 c 0.182444,-0.75001 0.08343,-1.42091 -0.238258,-1.61325 -0.717204,-0.42885 -1.292257,0.50053 -1.137992,1.83925 0.06703,0.58192 0.140396,1.26215 0.163053,1.51169 0.07149,0.78804 0.880804,-0.37121 1.213197,-1.73769 z m 23.207906,0.7674 c 0.164795,-0.41545 0.299609,-1.18337 0.299609,-1.70645 0,-1.20688 -1.640933,-1.0096 -1.887045,0.22684 -0.363248,1.82491 0.960943,3.05917 1.587436,1.47961 z m 3.66993,-2.30538 c -0.08904,-0.6968 -0.384092,-1.31397 -0.655565,-1.37146 -0.593005,-0.1256 -0.940142,1.80712 -0.516448,2.87536 0.462088,1.16507 1.365117,0.007 1.172013,-1.5039 z m -30.671203,-0.64029 c -0.124143,-0.45963 -0.225728,-0.0835 -0.225728,0.83572 0,0.91931 0.101558,1.29537 0.225728,0.83573 0.124142,-0.45965 0.124142,-1.21179 0,-1.67145 z m -2.901803,0 c -0.103284,-1.20759 -0.39432,-1.79082 -0.893579,-1.79082 -0.532041,0 -0.691699,0.40313 -0.567342,1.43268 0.203302,1.68313 0.446063,2.14897 1.119869,2.14897 0.271831,0 0.425304,-0.80587 0.341052,-1.79083 z m 37.514424,-0.99185 c 0.111914,-1.09681 -0.05035,-1.51528 -0.587856,-1.51528 -1.045742,0 -1.439386,0.80865 -1.075849,2.21006 0.420442,1.62073 1.472183,1.18151 1.663705,-0.69478 z m -25.668351,-0.44077 c 0.239035,-0.45966 0.302386,-2.01768 0.140829,-3.46228 -0.25247,-2.25687 -0.450148,-2.64804 -1.404416,-2.77915 -1.045614,-0.1436 -1.110576,0.0154 -1.110576,2.70689 0,1.57271 0.134787,3.19939 0.29961,3.61487 0.398491,1.00474 1.533204,0.96078 2.074625,-0.0804 z m 4.536047,-2.71657 c 0.180503,-2.41684 0.06574,-3.47961 -0.427491,-3.95661 -1.241565,-1.20087 -1.790566,-0.36299 -1.94132,2.96278 -0.172461,3.80491 0.07293,4.67529 1.25674,4.45748 0.69534,-0.12785 0.913747,-0.80814 1.112071,-3.46365 z m 5.327379,0.41399 c 0.07955,-1.59474 -0.104003,-3.52883 -0.408087,-4.29798 l -0.552741,-1.39851 -1.196095,1.33993 c -0.967905,1.08428 -1.196093,1.86627 -1.196093,4.09901 0,3.13962 0.210897,3.49526 1.955892,3.29838 1.168618,-0.13194 1.262135,-0.33542 1.397124,-3.04083 z m 4.235962,1.16839 c 0.714372,-3.45585 0.235842,-5.67099 -1.225093,-5.67099 -0.825609,0 -0.934374,0.37985 -0.934374,3.26331 0,1.7948 0.148078,3.40655 0.329055,3.58166 0.753642,0.72915 1.541447,0.22386 1.830412,-1.17398 z m -18.512659,-1.83222 c 0.134211,-2.8457 -0.21005,-3.65395 -1.213241,-2.84841 -0.887163,0.71234 -0.951551,5.0497 -0.07941,5.35233 1.009565,0.35042 1.173007,0.0339 1.292689,-2.50392 z m 37.163085,-5.32159 c 0.496367,-2.68955 0.808736,-4.98077 0.694174,-5.09162 -0.24791,-0.23986 -4.821431,5.36609 -5.304261,6.50167 -0.449126,1.05631 -0.494914,6.03467 -0.05941,6.45605 0.190039,0.18387 1.115351,-0.41052 2.056256,-1.32086 1.537693,-1.48774 1.802031,-2.14981 2.613212,-6.54524 z m -14.608501,6.54567 c 0.459887,-1.77278 0.05726,-3.36533 -0.89529,-3.54097 -0.730769,-0.13483 -0.863772,0.21378 -0.863772,2.2635 0,1.82137 0.181451,2.42281 0.73097,2.42281 0.402046,0 0.864679,-0.51542 1.028092,-1.14534 z m -33.842508,-1.68894 c 0,-1.29614 -0.214983,-2.90372 -0.477739,-3.57236 -0.513657,-1.30715 -5.452425,-7.59484 -5.743937,-7.31278 -0.09667,0.0935 0.323432,2.73479 0.933512,5.86952 1.099499,5.64945 1.124341,5.70667 2.828511,6.51297 0.945595,0.44743 1.885852,0.82381 2.089456,0.83641 0.203605,0.0132 0.370197,-1.03755 0.370197,-2.33376 z m 7.403874,-0.48045 c 0,-2.27651 -0.585915,-3.43049 -1.229899,-2.42234 -0.428743,0.67116 0.252398,4.78194 0.792351,4.78194 0.240646,0 0.437548,-1.06181 0.437548,-2.3596 z m 30.016947,0.36677 c -0.22347,-2.18925 -1.388651,-2.35368 -1.388651,-0.19596 0,1.23354 0.2154,1.71125 0.771667,1.71125 0.570175,0 0.731272,-0.39565 0.616984,-1.51529 z m -33.567109,-0.9919 c -0.106161,-1.4205 -0.373994,-2.02963 -0.892169,-2.02963 -0.973818,0 -1.318207,3.0846 -0.406806,3.64366 1.202898,0.73787 1.451729,0.42869 1.298975,-1.61403 z m 37.324543,0.27829 c 0.371793,-0.93741 -0.383546,-1.83944 -1.154349,-1.37851 -0.777895,0.46512 -0.659219,2.1747 0.15097,2.1747 0.37818,0 0.82968,-0.3583 1.003364,-0.79619 z m 0.440149,-3.79382 c 0.976868,-0.39719 6.81471,-8.29943 6.497781,-8.79559 -0.162838,-0.25491 -0.7269,-0.4635 -1.253461,-0.4635 -0.852408,0 -2.852117,-0.79475 -12.741162,-5.06379 -1.458058,-0.62942 -2.941218,-1.14441 -3.295922,-1.14441 -0.76371,0 -2.690933,2.2474 -2.690933,3.13798 0,0.34179 1.139158,3.2311 2.531448,6.4207 1.751006,4.01136 2.854275,5.93324 3.578542,6.23373 0.991123,0.41121 6.118636,0.18513 7.373707,-0.32512 z m -28.719324,-6.43205 2.780452,-6.40871 -1.052892,-1.11835 c -2.058327,-2.1863 -2.304152,-2.16334 -9.402949,0.87925 -4.958749,2.12531 -7.262282,2.86567 -8.916435,2.86567 -1.226691,0 -2.230358,0.11568 -2.230358,0.25721 0,0.1414 1.572649,2.29047 3.494779,4.77554 l 3.494794,4.51835 3.292095,0.007 c 1.810647,0.004 3.625265,0.21544 4.032488,0.46979 0.407209,0.25437 0.962497,0.39501 1.233969,0.31257 0.271473,-0.0825 1.744808,-3.03382 3.274057,-6.55863 z m 4.4442,5.69295 c 1.475665,-0.42777 2.213224,-0.41978 3.2452,0.0352 1.212263,0.53441 1.420916,0.47531 2.260882,-0.6403 1.092953,-1.45164 1.470774,-1.50827 2.624475,-0.39334 0.93226,0.90094 4.633592,1.18435 4.634628,0.35489 9.49e-4,-0.74826 -3.372018,-8.87728 -4.176036,-10.06451 -0.395054,-0.58335 -1.708903,-1.42664 -2.919683,-1.87401 -2.088953,-0.77187 -2.277726,-0.76979 -3.695694,0.0406 -0.96277,0.55023 -1.940313,1.81561 -2.748215,3.55736 -1.261444,2.71953 -3.735467,8.8855 -3.735467,9.30984 0,0.41989 2.580687,0.23355 4.50991,-0.32568 z m 37.412477,-11.91909 c 1.918405,-0.59778 3.488033,-1.31868 3.488033,-1.60196 0,-0.28329 -1.394419,-2.76607 -3.098718,-5.51727 l -3.098719,-5.00224 -6.156123,-1.73491 c -7.672138,-2.1621 -12.310046,-4.5278 -14.214238,-7.250341 -2.496435,-3.56927 -6.502829,-10.60691 -6.502829,-11.42285 0,-0.43743 0.916651,-3.04109 2.036994,-5.78594 l 2.036995,-4.99062 -1.390938,-1.76437 -1.390952,-1.76438 -2.114026,2.31374 -2.114026,2.31373 -2.888396,-3.0423 -2.888396,-3.04233 -1.566736,2.28846 c -0.861687,1.25866 -1.566722,2.65694 -1.566722,3.10727 0,0.45037 0.777406,3.1394 1.727575,5.97565 0.950168,2.83626 1.727573,5.66705 1.727573,6.29066 0,0.6236 -0.634592,1.92711 -1.410213,2.89664 -0.775608,0.96956 -2.881923,3.71239 -4.680689,6.09514 -1.798765,2.3828 -3.774033,4.573961 -4.389492,4.869301 -0.61546,0.29532 -3.784406,1.53883 -7.042107,2.7633 -9.074756,3.41099 -9.062256,3.40234 -13.207422,9.13134 l -1.854814,2.56353 1.361227,0.51575 c 3.741607,1.41754 5.113485,1.75917 8.31248,2.06998 3.434018,0.33368 3.543027,0.30828 9.764443,-2.27562 3.460399,-1.43716 6.421209,-2.73841 6.579587,-2.89163 0.158364,-0.15324 -0.09336,-1.59354 -0.559487,-3.20068 l -0.847432,-2.92211 4.25708,-6.88078 c 2.341395,-3.784451 4.537989,-6.880811 4.881315,-6.880811 0.343326,0 1.11689,0.6447 1.719015,1.43268 0.60214,0.78795 1.254727,1.42999 1.450205,1.42676 0.195476,-0.004 0.857227,-0.75543 1.470543,-1.67145 0.613303,-0.91606 1.417866,-1.66552 1.787905,-1.66552 0.370039,0 1.423045,1.19931 2.340028,2.66512 0.916968,1.46585 1.896195,2.91641 2.176039,3.22351 0.279859,0.30709 1.486425,2.062651 2.681268,3.901241 2.562447,3.94302 3.209984,7.45614 1.767017,9.58682 -0.462246,0.68257 -0.764201,1.31481 -0.670986,1.40498 0.09322,0.0903 2.831878,1.26348 6.085925,2.60733 3.254061,1.34382 6.249654,2.64976 6.656863,2.90204 1.091285,0.67616 5.372259,0.2012 9.345351,-1.03685 z m 12.727282,-7.02062 c 0.0592,-0.1789 -1.54458,-1.29232 -3.56417,-2.47426 -3.603158,-2.10875 -4.457969,-3.29891 -3.275585,-4.56067 1.092394,-1.16571 5.988355,-10.854561 5.963455,-11.801331 -0.0154,-0.58783 -0.96426,-3.64758 -2.10843,-6.79943 -1.924795,-5.30227 -2.181192,-5.74198 -3.429835,-5.88201 -1.882399,-0.21118 -2.128799,0.84366 -0.777534,3.32855 0.963403,1.77164 1.156492,2.96516 1.317417,8.14317 l 0.188557,6.0673 -2.426783,2.528711 c -4.122754,4.29591 -5.075081,5.37162 -5.075081,5.73267 0,0.47023 4.890048,8.53195 5.777124,9.52417 0.645912,0.72246 0.984707,0.60853 4.004325,-1.34618 1.81431,-1.17448 3.34725,-2.28178 3.40654,-2.46069 z m -82.079524,-0.36927 3.19892,-4.10321 -2.760754,-3.54881 c -2.291776,-2.94598 -2.937782,-3.497661 -3.802854,-3.24765 -2.270006,0.65608 -2.51501,1.36741 -1.363211,3.95783 0.583823,1.31305 1.061499,2.69545 1.061499,3.07201 0,0.37655 -1.337572,1.49601 -2.972385,2.48775 -1.634811,0.9917 -2.879447,1.89298 -2.765857,2.00291 0.485896,0.47011 5.523408,3.45904 5.848583,3.47017 0.196429,0.007 1.796654,-1.83424 3.556059,-4.091 z m -6.292575,-4.30785 c 0.302363,-0.75846 -2.957299,-8.432591 -3.680956,-8.666001 -0.453073,-0.14615 -0.603151,1.24894 -0.603151,5.606501 v 5.80101 l 2.036127,-1.10506 c 1.119872,-0.60776 2.131462,-1.34419 2.24798,-1.63645 z m 89.315219,-0.66244 c -0.1708,-1.57595 -0.45029,-4.15472 -0.62109,-5.73067 -0.1708,-1.575951 -0.44846,-2.862811 -0.617,-2.859671 -0.47484,0.009 -4.703051,8.077391 -4.391013,8.379321 0.79064,0.76493 4.670363,3.0071 5.258923,3.0392 0.53955,0.0295 0.61632,-0.55715 0.37018,-2.82818 z m -87.461565,-7.629071 1.266113,-0.46574 -0.01648,-7.05575 c -0.01475,-6.34925 -0.115598,-7.171 -1.006887,-8.20671 -0.595048,-0.69147 -1.169785,-0.97743 -1.439636,-0.71634 -0.703148,0.68035 -3.953745,8.73545 -3.953745,9.79749 0,1.43555 2.63035,7.10143 3.299609,7.10747 0.321671,0.004 1.154609,-0.20427 1.850969,-0.46042 z M 106.0452,82.329449 c 1.95144,-8.0313 2.87045,-12.52292 2.61314,-12.77188 -0.12559,-0.12136 -0.97836,0.67485 -1.89499,1.76972 -0.91663,1.09485 -2.6106,3.07848 -3.76437,4.40802 -1.15377,1.32955 -2.09777,2.79519 -2.09777,3.25698 0,0.81477 2.32611,8.36396 2.82501,9.16835 0.50066,0.80719 1.02843,-0.5199 2.31898,-5.83119 z m -93.300289,1.33475 c 0.706314,-1.72786 1.284211,-3.51032 1.284211,-3.961 0,-0.65599 -2.260831,-3.93795 -5.3053939,-7.70164 -0.212468,-0.26266 -0.882606,-1.0975 -1.489189,-1.85523 -0.6065849,-0.75773 -1.1028799,-1.19987 -1.1028799,-0.98251 0,0.3957 3.7731959,15.90654 4.2742678,17.57065 0.366012,1.21555 0.84295,0.58948 2.338984,-3.07027 z m 7.894329,-3.37662 c 0.651078,-0.89935 0.654973,-1.19099 0.0315,-2.3575 -1.06312,-1.98905 -1.509825,-2.0306 -2.600628,-0.24189 -0.930016,1.52505 -0.940676,1.68767 -0.171713,2.61951 1.048597,1.27074 1.810381,1.26515 2.740847,-0.0202 z m 75.696244,-2.31006 c 0.339356,-0.004 0.616999,-0.21112 0.616999,-0.46118 0,-0.84963 -4.548044,-6.75414 -5.07226,-6.5851 -0.286764,0.0925 -1.271514,1.04718 -2.188324,2.12152 l -1.666927,1.95336 2.859582,1.73912 c 1.796824,1.09279 3.226471,1.64616 3.846765,1.48896 0.542945,-0.1375 1.264825,-0.25308 1.604165,-0.25668 z m -66.413157,-2.12831 c 1.547158,-0.41584 2.929494,-0.9384 3.071833,-1.16125 0.269085,-0.42123 -5.165346,-9.59849 -5.688584,-9.60641 -0.163528,-0.003 -1.678306,1.95633 -3.366178,4.35291 -2.91144,4.13393 -3.037809,4.42996 -2.46354,5.77134 1.064575,2.4866 1.710043,2.83775 3.804792,2.06983 1.005753,-0.36869 3.094505,-1.01056 4.641677,-1.42642 z m -5.909723,-10.09436 c 3.730735,-5.23193 7.595149,-10.64654 8.58761,-12.03246 0.992445,-1.38591 1.693913,-2.62682 1.55881,-2.75753 -0.531625,-0.51434 -20.700749,-5.55204 -21.014205,-5.24876 -0.108376,0.10486 0.147985,3.16084 0.569718,6.79106 0.421727,3.63022 1.152371,10.31146 1.623655,14.84717 0.540623,5.20302 1.047765,8.18515 1.374068,8.07991 0.284452,-0.0917 3.569606,-4.44745 7.300344,-9.67939 z m -10.217548,7.08243 c -0.147431,-1.24761 -0.716504,-6.35147 -1.264596,-11.34193 -1.146836,-10.44213 -1.407661,-11.94777 -1.972937,-11.38913 -0.225598,0.22295 -1.1798389,2.23201 -2.1205379,4.46458 -0.940696,2.23256 -2.0663409,4.8582 -2.5014329,5.8347 -1.3593701,3.05098 -1.5644981,2.62872 6.1550408,12.67058 0.858129,1.11627 1.653,2.0296 1.766383,2.0296 0.113368,0 0.08551,-1.02078 -0.06191,-2.2684 z m 86.083613,-9.67049 c 1.458201,-13.42137 1.742261,-17.66954 1.181421,-17.66954 -0.68884,0 -18.910188,5.56649 -19.228053,5.87403 -0.274191,0.26528 0.969057,2.11963 10.622016,15.84321 6.689416,9.5103 5.905091,9.93792 7.424616,-4.0477 z m 6.848461,5.08279 c 2.81424,-3.31983 3.51551,-4.4497 3.2604,-5.25311 -0.17878,-0.56296 -1.38446,-3.49491 -2.67931,-6.51545 -1.29485,-3.02054 -2.50369,-5.97541 -2.68633,-6.56639 -0.393,-1.2717 -1.24904,-1.43375 -1.26128,-0.23877 -0.004,0.45964 -0.21963,2.76982 -0.47765,5.13372 -2.45771,22.51808 -2.36336,20.4526 -0.86149,18.85854 0.61614,-0.65394 2.7337,-3.09229 4.70566,-5.41854 z m -58.315907,4.5877 c 0.551951,-0.72229 1.357435,-1.97544 1.789991,-2.78474 0.994748,-1.86115 0.990245,-1.86817 -6.603365,-10.31188 -7.244804,-8.05584 -7.053125,-7.90168 -8.0911,-6.50771 -3.886855,5.21982 -6.669881,9.20565 -6.669881,9.55247 0,0.22949 1.499285,2.87992 3.33174,5.88981 l 3.33174,5.47252 5.953669,10e-4 c 5.923289,0.001 5.958791,-0.005 6.957206,-1.31188 z m 39.928909,-1.26821 c 1.266939,-1.41985 2.27354,-2.76296 2.236872,-2.98472 -0.109325,-0.66094 -3.553944,-5.8244 -4.268185,-6.39791 -0.526762,-0.42296 -1.214306,0.53853 -3.399378,4.7539 -1.506492,2.90625 -2.739066,5.47234 -2.739066,5.70246 0,0.34959 1.041959,0.62215 5.524452,1.44504 0.187967,0.0345 1.37835,-1.09895 2.645305,-2.51877 z m -11.847455,1.34981 c 0.706128,-0.18306 2.009793,-2.20035 4.318921,-6.6831 1.819135,-3.53148 3.307501,-6.69822 3.307501,-7.03716 0,-0.55623 -4.224785,-6.53805 -4.617638,-6.53805 -0.0902,0 -1.691598,1.75138 -3.558648,3.89196 -1.867051,2.14055 -3.629192,4.12837 -3.91587,4.41739 -1.49005,1.50204 -7.651495,8.80339 -7.651495,9.06705 0,0.16865 0.499762,1.07448 1.110575,2.01305 l 1.110589,1.70651 4.442316,-0.28772 c 2.443283,-0.15815 4.897469,-0.4057 5.453749,-0.54993 z m -12.857623,-5.37905 c 2.443283,-2.7976 6.73473,-7.71564 9.536542,-10.92897 3.216445,-3.68888 4.962676,-6.0658 4.737394,-6.44841 -1.370224,-2.32702 -19.675266,-28.542943 -19.929866,-28.542943 -0.176042,0 -2.374349,2.954878 -4.885126,6.566395 -2.510778,3.611494 -6.785392,9.682414 -9.499141,13.490928 -2.713749,3.8085 -5.146055,7.28763 -5.405143,7.73144 -0.372023,0.63726 0.176489,1.54096 2.608667,4.29801 1.693855,1.9201 3.199412,3.59853 3.345693,3.72985 0.146266,0.13142 2.810689,3.13995 5.920901,6.68578 7.892198,8.9976 7.92898,9.03521 8.561285,8.75526 0.311563,-0.13803 2.565526,-2.53976 5.008794,-5.33734 z m 26.620188,-21.01248 c 4.868009,-1.50942 8.913371,-2.94966 8.989712,-3.20052 0.07639,-0.25087 -2.573869,-1.91046 -5.889339,-3.68799 C 79.782355,32.361817 72.413236,28.39415 70.545337,27.357335 c -5.229833,-2.902934 -8.210652,-4.4001 -8.398535,-4.21832 -0.431332,0.417302 17.801224,26.164044 18.517164,26.148644 0.407209,-0.008 4.723296,-1.2509 9.591276,-2.76031 z m -51.417846,-1.62703 c 1.509657,-2.1669 5.528868,-7.915481 8.931583,-12.774589 3.402701,-4.859129 6.003139,-8.897927 5.778749,-8.975125 -0.224406,-0.07712 -1.591896,0.535046 -3.038877,1.360497 -1.446996,0.825449 -3.972101,2.212636 -5.611352,3.082644 -1.63925,0.870009 -6.090082,3.239451 -9.890742,5.265417 -3.800645,2.025988 -9.74226,5.177369 -13.203567,7.003116 -3.461311,1.82573 -6.293294,3.49427 -6.293294,3.70787 0,0.21362 1.388226,0.74379 3.084948,1.17816 9.781734,2.50423 16.013767,4.01526 16.708013,4.05108 0.462864,0.0238 1.925713,-1.58984 3.534539,-3.89907 z m -12.816971,-9.58427 c 3.042157,-1.659836 8.703035,-4.697777 12.57972,-6.750998 3.8767,-2.053198 6.95315,-3.825387 6.836574,-3.938191 -0.116661,-0.112811 -3.870628,0.914347 -8.342318,2.282525 l -8.13037,2.487585 -4.257196,4.110316 c -2.341452,2.260673 -4.406129,4.271488 -4.588168,4.468472 -0.781276,0.845471 0.705617,0.175375 5.901758,-2.659709 z m 65.492838,-1.043898 -4.198203,-4.06181 -7.86678,-2.60787 c -4.326718,-1.434344 -7.952602,-2.524849 -8.057482,-2.423363 -0.265115,0.256495 0.802277,0.867187 11.74112,6.717558 5.293774,2.83124 10.063161,5.437879 10.598655,5.792492 2.499153,1.655071 1.611977,0.287853 -2.21731,-3.417007 z M 135.94622,136.41303 c 0,-0.63457 0.13406,-0.66721 0.74037,-0.1803 0.40721,0.32697 0.74039,0.67563 0.74039,0.77478 0,0.0993 -0.33318,0.18034 -0.74039,0.18034 -0.40721,0 -0.74037,-0.34867 -0.74037,-0.77482 z m 1.52221,-0.85527 c -2.52185,-2.51736 -1.57622,-2.95174 1.1956,-0.54923 1.98434,1.71998 2.26726,2.14067 1.45114,2.15791 -0.55758,0.0132 -1.74861,-0.71214 -2.64674,-1.60868 z m 1.89809,-1.03057 c -2.10306,-2.06035 -2.44324,-2.59245 -1.65732,-2.59245 0.54389,0 2.08276,1.07448 3.41972,2.38777 1.33697,1.31328 2.65296,2.38777 2.92445,2.38777 0.27146,0 -0.6003,-1.07449 -1.93727,-2.38777 -2.27678,-2.23644 -2.35274,-2.38777 -1.19855,-2.38777 0.83766,0 2.07966,0.83015 3.87849,2.59245 l 2.64622,2.59244 h -2.71476 c -2.63225,0 -2.79518,-0.0788 -5.36098,-2.59244 z m 6.16123,0.0557 c -2.62554,-2.34388 -2.79435,-2.60498 -1.68406,-2.60464 0.80287,2.8e-4 2.26862,0.91006 4.19553,2.60418 2.70918,2.38188 2.85269,2.60382 1.68406,2.60462 -0.86222,5.7e-4 -2.22599,-0.84589 -4.19553,-2.60416 z m 3.10544,-0.0389 c -2.77529,-2.53083 -2.81924,-2.60915 -1.46391,-2.60915 1.03959,0 2.08348,0.67231 4.07827,2.62654 2.44734,2.39761 2.57495,2.62502 1.46391,2.60914 -0.78071,-0.0132 -2.243,-0.95294 -4.07827,-2.62653 z m 3.10796,0.0174 -2.68105,-2.62655 3.43827,-0.007 c 1.89108,-0.004 3.6827,-0.16525 3.9814,-0.35817 0.97694,-0.63112 1.73944,-2.51552 1.41639,-3.50034 -0.4846,-1.47721 -2.25236,-1.86484 -8.50472,-1.86484 -5.56828,0 -5.78573,-0.0393 -7.24654,-1.31325 l -1.50598,-1.31329 1.19482,1.31329 1.19483,1.31325 h -1.21021 c -0.66558,0 -1.67465,-0.31476 -2.24233,-0.69946 -0.56771,-0.38471 -1.14237,-0.59283 -1.27708,-0.46256 -0.28666,0.27737 -2.59598,-1.94914 -2.60709,-2.5136 -0.004,-0.21096 -0.2054,-0.68594 -0.4472,-1.05548 -0.48945,-0.74803 -0.54431,-4.72889 -0.0715,-5.18635 0.16621,-0.16087 1.46318,0.76906 2.88217,2.06638 l 2.57999,2.35875 -2.59137,-2.64134 c -1.42525,-1.45275 -2.59134,-2.86106 -2.59134,-3.12958 0,-0.77027 3.06607,-3.43048 4.59784,-3.98922 0.81017,-0.29552 5.49222,-0.50683 11.22921,-0.50683 h 9.83972 v 2.62654 2.62656 h -9.59705 c -9.3578,0 -9.61622,0.0263 -10.36543,1.06136 -1.00194,1.38399 -0.97213,2.43419 0.0954,3.36089 0.69042,0.59931 2.44888,0.78189 8.76126,0.90971 8.85585,0.17934 10.28783,0.61074 12.50517,3.76738 2.48431,3.53675 0.22973,10.27962 -3.92304,11.7329 -3.1168,1.09073 -3.98658,0.8409 -6.85458,-1.96883 z m -6.41671,-9.45742 c 0,-0.0797 -0.83293,-0.88568 -1.85095,-1.79084 l -1.85098,-1.64571 1.70101,1.79081 c 1.58325,1.66686 2.00092,2.0104 2.00092,1.64574 z m -6.91027,-0.48801 c 0,-0.0857 -0.61084,-0.67651 -1.35739,-1.31326 l -1.35737,-1.15775 1.19663,1.31328 c 1.11841,1.22746 1.51813,1.53227 1.51813,1.15773 z m 1.48077,-1.41446 c 0,-0.0755 -1.16612,-1.20375 -2.59135,-2.50716 l -2.59136,-2.36983 2.44941,2.50719 c 2.27601,2.32969 2.7333,2.72616 2.7333,2.3698 z m 25.17317,13.52388 c 0,-0.25443 0.33317,-0.33886 0.74039,-0.18768 0.4072,0.1512 0.74039,0.35932 0.74039,0.46256 0,0.10312 -0.33319,0.18768 -0.74039,0.18768 -0.40722,0 -0.74039,-0.20813 -0.74039,-0.46256 z m 1.97619,-0.72944 c -1.73761,-1.78952 -0.70795,-2.09937 1.11507,-0.33555 1.08172,1.04654 1.33696,1.52755 0.81062,1.52755 -0.42253,0 -1.2891,-0.5364 -1.92569,-1.192 z m 13.01629,0.49144 c -0.56556,-1.42595 0.11767,-1.70693 1.26846,-0.52172 l 1.18684,1.22228 h -1.08873 c -0.59878,0 -1.21374,-0.31525 -1.36657,-0.70056 z m 1.84529,-1.39356 c -1.16833,-1.1518 -2.04751,-2.38745 -1.95374,-2.74596 0.10429,-0.39879 1.20681,0.4141 2.8402,2.09414 3.10141,3.18995 2.29192,3.78513 -0.88646,0.65182 z m 8.33539,1.065 c 0,-0.99888 0.029,-1.0037 0.98718,-0.16476 0.54296,0.4754 0.98721,0.93852 0.98721,1.02913 0,0.0907 -0.44425,0.16475 -0.98721,0.16475 -0.68177,0 -0.98718,-0.31836 -0.98718,-1.02912 z m 1.30136,-0.33552 c -0.71575,-0.7228 -1.30136,-1.83157 -1.30136,-2.46397 0,-1.06135 0.1817,-0.97666 2.36151,1.1006 1.29885,1.23776 2.56905,2.25047 2.82272,2.25047 0.25364,0 -0.82836,-1.26082 -2.40448,-2.80179 -2.05002,-2.00435 -2.81827,-3.09655 -2.69928,-3.83757 0.14269,-0.88861 0.75519,-0.46218 4.31091,3.0016 l 4.14458,4.0374 -2.96663,0.0136 c -2.60214,0.0132 -3.1265,-0.14766 -4.26797,-1.30044 z m 3.25463,-3.06172 -4.55599,-4.42634 v -8.94518 -8.94522 h 2.71476 2.71476 v 10.12234 10.12235 l -1.83442,-1.64572 -1.83439,-1.64574 1.95781,2.22339 1.95777,2.22342 6.7869,0.045 6.78688,0.045 v 2.62653 2.62657 h -5.06906 -5.06906 z m 26.93074,0.72533 c -3.52496,-3.31245 -5.72782,-6.09841 -5.21462,-6.59495 0.1014,-0.0981 2.61289,2.17824 5.58086,5.05875 3.63529,3.5281 5.09872,5.23723 4.48429,5.23723 -0.50162,0 -2.68436,-1.66547 -4.85053,-3.70103 z m 0.66407,-2.68068 c -4.19276,-4.06489 -6.51975,-6.66954 -6.40983,-7.17461 0.12055,-0.55382 2.40323,1.37049 7.57028,6.3817 5.26944,5.11052 7.11349,7.17462 6.40985,7.17462 -0.61043,0 -3.50284,-2.43826 -7.5703,-6.38171 z m 6.08929,3.02504 c -3.30091,-3.21922 -3.36103,-3.3179 -1.46752,-2.40925 1.0859,0.52108 3.19598,2.02227 4.68912,3.33599 2.49268,2.1932 2.61272,2.39025 1.46755,2.40925 -0.9041,0.0154 -2.1942,-0.90281 -4.68915,-3.33599 z m 3.71517,0.73012 c -2.47867,-2.42831 -2.58786,-2.62655 -1.44702,-2.62655 0.84168,0 2.08625,0.83498 3.91501,2.62655 2.47867,2.4283 2.58787,2.62655 1.44702,2.62655 -0.84168,0 -2.08625,-0.83496 -3.91501,-2.62655 z m 2.96155,0 -2.68099,-2.62655 h 2.92384 c 2.69494,0 3.0801,0.14023 4.91905,1.79082 l 1.99519,1.79083 -1.90395,-1.98287 -1.90398,-1.98285 1.77277,-0.81394 c 5.0564,-2.32144 5.42921,-10.34308 0.64112,-13.79506 -1.25303,-0.90338 -2.09122,-1.00945 -8.28686,-1.04874 l -6.89285,-0.0438 -1.83175,-1.62711 -1.83174,-1.62707 1.9423,2.0202 c 1.06825,1.11113 1.84565,2.07789 1.72755,2.14838 -0.11796,0.0705 -0.82886,0.65216 -1.57946,1.29258 l -1.36477,1.16448 -2.09039,-1.88037 -2.09036,-1.88037 2.01509,2.14859 c 1.20032,1.27984 1.9341,2.48648 1.81479,2.98429 -0.28891,1.20514 -0.69077,1.05769 -2.79221,-1.02447 -2.24859,-2.22794 -2.14385,-2.95016 0.83529,-5.75898 2.81726,-2.65622 5.50357,-3.36461 12.75904,-3.36461 6.94245,0 10.08486,0.90422 12.85146,3.698 2.51971,2.54447 3.48064,4.66585 3.74738,8.27287 0.43463,5.87724 -2.25676,11.09804 -6.90355,13.39162 l -1.97376,0.97423 -1.30142,-1.11009 c -1.04701,-0.89308 -1.13304,-0.9158 -0.44008,-0.1162 0.47374,0.54661 0.71278,1.13757 0.53119,1.31325 -0.81254,0.78616 -2.11735,0.13279 -4.60794,-2.30714 z m 23.19881,2.12082 c 0,-0.27817 0.22214,-0.37294 0.4936,-0.21061 0.27148,0.16241 0.49358,0.38992 0.49358,0.50575 0,0.11594 -0.2221,0.21059 -0.49358,0.21059 -0.27146,0 -0.4936,-0.22756 -0.4936,-0.50573 z m 1.28074,-0.8797 c -0.75455,-0.76204 -1.29587,-1.74021 -1.20296,-2.17377 0.12817,-0.59718 0.70249,-0.26134 2.36957,1.38544 1.81955,1.79743 2.02781,2.17376 1.20291,2.17376 -0.54867,0 -1.61497,-0.62345 -2.36952,-1.38543 z m 19.05248,-1.48595 c -1.44032,-1.54565 -2.58667,-2.94739 -2.54742,-3.11495 0.0393,-0.16763 -1.56361,-1.95152 -3.56196,-3.96434 -1.99839,-2.01279 -4.66196,-4.78787 -5.91909,-6.16682 -1.25712,-1.37892 -2.48145,-2.50717 -2.72072,-2.50717 -0.23927,0 -1.59357,-1.13498 -3.00954,-2.52218 -2.03035,-1.98908 -2.57449,-2.84703 -2.57449,-4.05921 v -1.53705 l 3.08494,0.004 3.08496,0.004 8.88463,9.66711 8.88466,9.66711 0.13378,-9.67048 0.13364,-9.67051 h 2.95133 2.95132 v 12.99544 12.99542 l -2.59135,-2.3696 -2.59134,-2.36961 2.69786,2.74572 2.6979,2.74573 h -2.9323 -2.93229 l -3.46743,-3.22351 -3.46742,-3.22348 3.19399,3.22348 c 1.75668,1.77294 2.97826,3.20976 2.71462,3.19297 -0.2636,-0.0169 -1.65776,-1.29519 -3.0981,-2.84083 z m -109.82995,0.57292 c -1.01075,-1.00151 -1.68066,-1.97293 -1.48862,-2.15871 0.36306,-0.35125 4.11327,2.93006 4.11327,3.59898 0,0.78716 -0.84397,0.32404 -2.62465,-1.44027 z m 92.0262,-1.22295 c -1.45461,-1.42505 -2.56137,-2.83301 -2.45944,-3.12881 0.1017,-0.29579 1.37539,0.62816 2.83002,2.0532 1.45461,1.42502 2.56135,2.83303 2.45944,3.12879 -0.102,0.29583 -1.37542,-0.6281 -2.83002,-2.05318 z m -78.46683,-0.93651 c -1.54616,-1.5175 -2.56816,-2.91934 -2.46795,-3.38522 0.12803,-0.59556 0.83364,-0.14497 2.8101,1.79487 1.54617,1.51747 2.56818,2.91934 2.46794,3.38522 -0.12803,0.59554 -0.83361,0.14498 -2.81009,-1.79487 z m 38.38852,1.47082 c -0.69847,-0.58964 -1.5764,-1.50192 -1.95101,-2.02723 -0.37458,-0.52531 0.25239,-0.1055 1.3933,0.93264 1.89275,1.72246 2.30051,2.17581 1.95098,2.1691 -0.0679,-9.6e-4 -0.69486,-0.48483 -1.39327,-1.07451 z m -50.56834,-1.3219 c -1.04453,-1.03493 -1.73932,-2.03625 -1.54405,-2.22519 0.19529,-0.18896 1.26009,0.5321 2.36625,1.60233 1.10617,1.07021 1.80099,2.07155 1.54406,2.22521 -0.25694,0.15357 -1.32176,-0.56743 -2.36626,-1.60235 z m 90.66087,-2.05914 c -1.54617,-1.5175 -2.5682,-2.91935 -2.46795,-3.38524 0.12803,-0.59553 0.83362,-0.14496 2.81009,1.7949 1.54619,1.51747 2.56818,2.91933 2.46795,3.38522 -0.12817,0.59553 -0.83362,0.14495 -2.81009,-1.79488 z m -89.56241,0.25919 c -2.62583,-2.60176 -2.26228,-3.57608 0.39344,-1.05438 1.22162,1.15999 2.22116,2.27923 2.22116,2.48721 0,0.78363 -0.84488,0.32065 -2.6146,-1.43283 z m 11.12904,-1.16589 c -1.70959,-1.67908 -2.59137,-2.94444 -2.59137,-3.71875 0,-1.06816 0.24803,-0.9337 2.75879,1.49547 1.98744,1.92288 2.71196,2.96261 2.59135,3.71876 -0.15031,0.94227 -0.43244,0.78931 -2.75877,-1.49548 z m -10.1985,-0.80049 c -2.56996,-2.54635 -1.86337,-3.65578 0.75363,-1.18335 1.77511,1.67701 2.46135,3.05047 1.52418,3.05047 -0.21638,0 -1.24139,-0.84022 -2.27781,-1.86712 z m 88.63187,-1.15814 c -1.54617,-1.51749 -2.5682,-2.91935 -2.46795,-3.38523 0.12803,-0.59556 0.83362,-0.14497 2.81009,1.7949 1.54619,1.51746 2.56818,2.91931 2.46795,3.38522 -0.12817,0.59553 -0.83362,0.14495 -2.81009,-1.79489 z m -78.43337,-0.90668 c -1.70959,-1.67908 -2.59137,-2.94446 -2.59137,-3.71875 0,-1.06819 0.24803,-0.93372 2.75879,1.49544 1.98744,1.9229 2.71196,2.96262 2.59135,3.71876 -0.15031,0.94228 -0.43244,0.78933 -2.75877,-1.49545 z m -8.93404,0.0154 c -1.22874,-1.10893 -1.9479,-2.10233 -1.6974,-2.34471 0.25052,-0.24235 1.33345,0.46545 2.55599,1.67067 2.70293,2.66459 1.97781,3.23385 -0.85859,0.67404 z m 45.93914,-1.94635 c -2.70106,-2.63675 -3.86003,-4.64331 -2.68195,-4.64331 0.81626,0 4.93678,4.60818 5.44444,6.08883 0.29268,0.85362 0.48177,1.55203 0.42017,1.55203 -0.0617,0 -1.49379,-1.3489 -3.18266,-2.99755 z m 41.47595,0.0206 c -1.70962,-1.67908 -2.59137,-2.94444 -2.59137,-3.71877 0,-1.06816 0.24803,-0.93371 2.75879,1.49547 1.98745,1.9229 2.71196,2.96261 2.59133,3.71876 -0.15029,0.94229 -0.43243,0.78933 -2.75875,-1.49546 z m -86.38622,-0.0136 c -1.29209,-1.27377 -1.91366,-2.2441 -1.67587,-2.61629 0.26609,-0.41659 0.98535,0.007 2.43168,1.43307 1.29207,1.27377 1.91363,2.24409 1.67588,2.61626 -0.26613,0.41663 -0.98538,-0.007 -2.43169,-1.43304 z m 5.87794,-3.27077 c -3.07665,-2.82789 -4.52371,-4.48432 -4.3344,-4.96157 0.1562,-0.39408 0.46262,-0.71649 0.68074,-0.71649 0.21811,0 2.24368,1.79642 4.50124,3.99207 2.92261,2.84241 4.05661,4.27122 3.93783,4.96154 -0.13867,0.80639 -0.94402,0.25519 -4.78541,-3.27555 z m -4.92766,1.32416 c -1.61087,-1.58802 -1.92909,-2.15566 -1.4619,-2.60768 0.46717,-0.45201 1.00504,-0.19245 2.4709,1.1924 1.03058,0.97362 1.87375,2.03628 1.87375,2.36145 0,1.29165 -0.9186,0.9901 -2.88275,-0.94617 z m 85.39313,-0.9473 c -1.78335,-1.75152 -2.58046,-2.89975 -2.46793,-3.55504 0.14681,-0.85538 0.47229,-0.70591 2.79875,1.28549 2.15451,1.8442 2.6027,2.48978 2.46797,3.55505 -0.16333,1.29181 -0.18458,1.28206 -2.79879,-1.2855 z m -41.73308,-0.26292 c -1.75247,-1.726 -2.32026,-2.60678 -2.07653,-3.22123 0.28663,-0.72264 0.66185,-0.52986 2.57924,1.32523 1.57193,1.52087 2.19375,2.48548 2.07655,3.22125 -0.15136,0.94985 -0.39801,0.82309 -2.57926,-1.32525 z m -42.41695,-0.45188 c -0.9985,-0.98935 -1.81548,-2.04571 -1.81548,-2.34745 0,-1.25158 0.94256,-0.92393 2.90371,1.00945 1.69872,1.67463 1.95609,2.15019 1.4037,2.59372 -0.53139,0.42667 -1.06564,0.15748 -2.49193,-1.25572 z m 4.21575,-2.13095 -4.06561,-3.95406 1.36175,-2.48892 1.36177,-2.48892 2.83813,-0.004 2.83816,-0.004 v 6.447 c 0,3.54583 -0.0605,6.44701 -0.13436,6.44701 -0.074,0 -1.96381,-1.77933 -4.19988,-3.95404 z m 79.97709,-0.45544 c -1.70962,-1.67907 -2.59137,-2.94445 -2.59137,-3.71875 0,-1.06817 0.24803,-0.93372 2.75879,1.49545 1.98745,1.92289 2.71196,2.96263 2.59133,3.71875 -0.15029,0.94227 -0.43243,0.78931 -2.75875,-1.49545 z M 158.69287,101.17326 c -0.89815,-0.89653 -1.55018,-1.870411 -1.44899,-2.164161 0.1011,-0.29378 1.1719,0.43976 2.37933,1.630041 1.33216,1.3133 1.90186,2.1642 1.44897,2.1642 -0.41048,0 -1.48117,-0.73354 -2.37931,-1.63008 z m 20.68939,-3.861801 v -5.49188 h -5.77268 c -5.60335,0 -5.8169,-0.0387 -7.27869,-1.3133 l -1.50599,-1.31325 1.19484,1.31325 1.19481,1.3133 h -1.4318 c -1.92361,0 -8.6121,-6.28424 -8.6121,-8.09156 0,-1.09248 0.25492,-0.95536 3.08495,1.65937 l 3.08494,2.85024 -3.08494,-3.11682 -3.08495,-3.11682 v -2.97187 -2.97187 h 2.71476 2.71475 l 0.042,2.74594 c 0.023,1.51028 0.007,3.87416 -0.0359,5.25311 l -0.0778,2.50716 h 8.42689 8.42683 v -5.2531 -5.25311 h 2.96155 2.96155 v 13.37152 13.371571 h -2.96155 -2.96155 z m -9.37824,-6.11888 c 0,-0.0824 -0.72187,-0.78062 -1.60415,-1.55204 l -1.60418,-1.40263 1.4497,1.55204 c 1.35136,1.44673 1.75863,1.77157 1.75863,1.40263 z m 22.87553,10.873831 c -0.49378,-1.245 0.29227,-1.41553 1.43386,-0.31104 l 1.08316,1.04797 h -1.11236 c -0.6118,0 -1.24389,-0.33162 -1.40466,-0.73693 z m 2.30481,-0.92736 c -0.91699,-0.91535 -1.50825,-1.818161 -1.31388,-2.006191 0.19437,-0.18807 1.2865,0.56087 2.42697,1.664281 1.2975,1.25535 1.78923,2.0062 1.31387,2.0062 -0.41785,0 -1.50997,-0.74893 -2.42696,-1.66429 z m 23.47087,0.11211 -0.92076,-1.552061 1.55474,1.402631 c 1.74638,1.57551 1.81455,1.70148 0.92078,1.70148 -0.34871,0 -1.04833,-0.69842 -1.55476,-1.55205 z m 0.64264,-0.71635 c -1.23716,-1.247591 -2.97184,-3.557771 -3.85486,-5.133711 l -1.60552,-2.86532 5.2308,5.00579 c 2.87694,2.753211 5.23078,5.063361 5.23078,5.133721 0,0.0702 -0.61916,0.12784 -1.37592,0.12784 -0.99668,0 -1.99588,-0.62519 -3.62528,-2.26838 z m -0.23818,-3.581651 c -3.28076,-3.21753 -6.58049,-6.92454 -7.3328,-8.23782 -1.36358,-2.38041 -1.35279,-2.37379 3.49751,2.14901 l 4.86529,4.53675 -5.42256,-5.49186 c -2.98242,-3.02055 -6.53317,-6.45163 -7.89055,-7.62464 l -2.46794,-2.13273 2.0796,2.13295 c 1.55204,1.59177 1.96247,2.31461 1.61779,2.84905 -0.38028,0.58966 -0.82247,0.36832 -2.50365,-1.25321 l -2.04185,-1.96935 1.65803,-2.93715 1.65802,-2.93715 2.19073,0.13089 2.19069,0.13088 4.37126,7.87965 c 8.91827,16.076081 10.27128,18.624661 9.88781,18.624661 -0.21584,0 -3.07665,-2.63252 -6.35738,-5.850041 z m 14.12404,4.820931 c 0,-1.01689 0.0145,-1.0184 1.11059,-0.12454 0.61082,0.49755 1.20312,0.96067 1.31624,1.02912 0.11321,0.0686 -0.38666,0.12454 -1.11058,0.12454 -1.01874,0 -1.31625,-0.23262 -1.31625,-1.02912 z m 1.781,-0.82814 c -1.03096,-1.021521 -1.7979,-2.212981 -1.70434,-2.647741 0.1263,-0.58747 0.86286,-0.11066 2.86804,1.857281 2.14714,2.10723 2.49508,2.64772 1.70433,2.64772 -0.54645,0 -1.83704,-0.83577 -2.86803,-1.85726 z m 8.58442,1.35152 c 0,-0.27814 0.22212,-0.37293 0.49358,-0.21059 0.27149,0.16237 0.49361,0.3899 0.49361,0.50573 0,0.11594 -0.22212,0.2106 -0.49361,0.2106 -0.27146,0 -0.49358,-0.22759 -0.49358,-0.50574 z m 1.28073,-0.8797 c -0.75455,-0.762 -1.29585,-1.740181 -1.20294,-2.173781 0.12803,-0.59718 0.70247,-0.26131 2.36954,1.385471 1.81957,1.79743 2.02782,2.17375 1.20293,2.17375 -0.54868,0 -1.61496,-0.62347 -2.36953,-1.38544 z m 16.18655,0.54972 c -0.29671,-0.45964 -1.37688,-2.125121 -2.40037,-3.701041 l -1.8609,-2.86535 3.86844,3.58166 c 3.11214,2.881451 2.85862,2.554691 -1.2969,-1.67143 -4.48123,-4.5574 -5.39955,-5.27205 -6.93382,-5.39605 -1.38966,-0.11224 -2.33758,-0.70052 -4.42546,-2.74594 l -2.65696,-2.603 h 7.9926 7.99264 l 0.84578,-1.24891 c 0.75818,-1.11954 0.77036,-1.37927 0.11753,-2.50718 -0.68305,-1.18007 -0.98199,-1.26689 -4.81145,-1.39739 -3.93346,-0.13413 -4.06401,-0.10458 -3.56128,0.80433 0.79737,1.4415 0.72823,1.48383 -2.42461,1.48383 h -2.94651 l -2.483,-3.56011 c -1.36565,-1.95804 -2.483,-3.67724 -2.483,-3.82045 0,-0.14327 4.16468,-0.2568 9.25486,-0.25249 8.67799,0.007 9.37698,0.0748 11.2146,1.0818 2.91606,1.59794 4.2105,3.74494 4.20827,6.98003 -0.001,1.8265 -0.31306,3.16914 -0.98269,4.23175 -1.12611,1.78699 -3.68597,3.45351 -5.30875,3.45612 -0.61082,9.7e-4 -1.11059,0.0932 -1.11059,0.20548 0,0.11185 1.0675,1.77754 2.37221,3.70108 1.30469,1.92354 2.87761,4.303201 3.49537,5.288161 l 1.12321,1.79082 h -3.12986 c -2.44627,0 -3.2477,-0.18255 -3.66935,-0.83572 z m -14.91872,-2.184771 c -1.81112,-1.77752 -2.58221,-2.89474 -2.46795,-3.57577 0.14054,-0.83809 0.5705,-0.55353 2.79346,1.84916 3.52074,3.805431 3.25094,5.236701 -0.32551,1.72661 z m -86.38337,-0.48232 c -1.54619,-1.51749 -2.56819,-2.91935 -2.46797,-3.38525 0.12817,-0.59552 0.83364,-0.14497 2.8101,1.79487 1.54616,1.51751 2.56819,2.919371 2.46796,3.385261 -0.12803,0.59553 -0.83363,0.14496 -2.81009,-1.794881 z m 37.19042,0.16 c -1.05063,-1.04097 -1.79917,-2.00014 -1.66342,-2.13146 0.13579,-0.13128 1.1064,0.61292 2.15701,1.65389 1.05061,1.040981 1.79918,2.000151 1.66343,2.131471 -0.13579,0.13128 -1.10639,-0.61292 -2.15702,-1.653901 z m 38.87033,-0.58906 c -1.70962,-1.67908 -2.59136,-2.94445 -2.59136,-3.71876 0,-1.06817 0.24804,-0.93371 2.75878,1.49547 1.98746,1.92288 2.71197,2.96261 2.59136,3.718771 -0.15031,0.94226 -0.43246,0.7893 -2.75878,-1.495481 z M 197.916,97.573879 c -1.02517,-1.01577 -1.78078,-2.08819 -1.67917,-2.38317 0.10141,-0.29499 1.14722,0.41241 2.32351,1.57203 1.17626,1.15961 1.93189,2.23204 1.67915,2.38316 -0.25276,0.15105 -1.29833,-0.55627 -2.32349,-1.57202 z m 48.18813,-1.04993 c -1.76141,-1.85281 -2.57506,-3.09129 -2.46797,-3.75653 0.13435,-0.83408 0.57865,-0.53086 2.78479,1.9001 1.55043,1.70842 2.56071,3.24623 2.46796,3.75652 -0.12169,0.66902 -0.75007,0.24021 -2.78478,-1.90009 z m -86.34213,-0.081 c -1.57846,-1.61805 -2.59135,-3.08546 -2.59135,-3.75424 0,-0.95806 0.35133,-0.75796 2.75878,1.57128 2.02621,1.96037 2.71433,2.95726 2.59135,3.75422 -0.15153,0.98188 -0.41393,0.83241 -2.75878,-1.57126 z m 76.01309,-0.43725 c -1.70962,-1.67906 -2.59136,-2.94445 -2.59136,-3.71874 0,-1.06818 0.24804,-0.93374 2.75878,1.49545 1.98746,1.92289 2.71197,2.96262 2.59136,3.71876 -0.15031,0.94227 -0.43246,0.78931 -2.75878,-1.49547 z m -36.79651,-0.26749 c -1.71571,-1.69998 -2.32704,-2.96387 -1.43361,-2.96387 0.21638,0 1.26067,0.85926 2.32063,1.90949 1.28479,1.27301 1.76266,2.06869 1.4336,2.38706 -0.32907,0.31839 -1.10262,-0.12573 -2.32062,-1.33268 z m -39.2096,-2.27151 c -1.42141,-1.56273 -2.58751,-3.26883 -2.59137,-3.79128 -0.006,-0.7402 0.60216,-0.3606 2.75182,1.71921 2.06438,1.99731 2.71665,2.95162 2.59135,3.7913 -0.1517,1.0169 -0.40978,0.85569 -2.7518,-1.71923 z m 86.37151,0.15119 c -1.70957,-1.67903 -2.59134,-2.94442 -2.59134,-3.71873 0,-1.06816 0.24802,-0.93373 2.75878,1.49544 1.98744,1.92289 2.71197,2.96263 2.59134,3.71876 -0.15031,0.94228 -0.43243,0.78933 -2.75878,-1.49547 z m -46.23066,0.15462 c -2.56997,-2.54634 -1.86337,-3.65579 0.75364,-1.18338 1.77509,1.67705 2.46135,3.05049 1.52418,3.05049 -0.21639,0 -1.24141,-0.8402 -2.27782,-1.86711 z m 35.86526,-0.63204 c -1.94901,-1.9143 -2.59136,-2.89532 -2.59136,-3.95767 v -1.41246 l 2.75504,2.66554 c 2.20679,2.13508 2.72248,2.92265 2.59136,3.95767 -0.16215,1.28033 -0.1874,1.26885 -2.75504,-1.25308 z m -34.56555,-1.38559 c -1.47833,-1.33414 -1.98405,-2.10289 -1.70299,-2.58878 0.31412,-0.54306 0.84089,-0.25617 2.45938,1.33939 2.78096,2.74151 2.11529,3.84106 -0.75639,1.24939 z m -41.53413,-1.18826 c -1.69332,-1.47301 -2.50476,-2.55127 -2.50476,-3.32847 0,-0.6323 0.17357,-1.14964 0.38565,-1.14964 0.21209,0 1.63979,1.23567 3.17264,2.74595 2.28926,2.25555 2.66771,2.84998 2.1191,3.32846 -0.53865,0.46978 -1.15258,0.16085 -3.17263,-1.5963 z m 86.40711,-0.3548 c -1.39337,-1.36505 -2.53337,-2.74375 -2.53337,-3.06381 0,-1.18884 1.33902,-0.51149 3.8059,1.92522 2.02606,2.00126 2.40933,2.61947 1.89952,3.06383 -0.50116,0.43678 -1.18417,0.0223 -3.17205,-1.92524 z m -10.30743,-0.41437 c -1.70962,-1.67907 -2.59136,-2.94443 -2.59136,-3.71876 0,-1.06817 0.24804,-0.9337 2.75878,1.49549 1.98746,1.92288 2.71197,2.96257 2.59136,3.71874 -0.15031,0.94226 -0.43246,0.78933 -2.75878,-1.49547 z m -33.57194,-0.0135 c -1.29206,-1.27373 -1.91362,-2.24408 -1.67587,-2.61626 0.26612,-0.4166 0.98539,0.007 2.43168,1.43306 1.29207,1.27377 1.91361,2.2441 1.67589,2.61628 -0.26615,0.41661 -0.98537,-0.007 -2.4317,-1.43308 z m 0.9503,-1.94658 c -1.61087,-1.58805 -1.9291,-2.15568 -1.4619,-2.60769 0.46718,-0.45201 1.00505,-0.19245 2.47092,1.19241 1.03054,0.97362 1.87374,2.03628 1.87374,2.36146 0,1.2916 -0.91863,0.99011 -2.88276,-0.94618 z m 32.60479,-0.92842 -2.57451,-2.52218 v -4.16359 -4.16358 h 2.71476 2.71473 v 6.68575 c 0,3.67719 -0.063,6.68578 -0.14025,6.68578 -0.0772,0 -1.29878,-1.13497 -2.71475,-2.52218 z m -31.39854,-0.77003 c -1.22372,-1.21247 -1.804,-2.16317 -1.61352,-2.64347 0.44139,-1.11282 0.92572,-0.93784 2.9465,1.06438 1.57714,1.56267 1.74426,1.9294 1.20459,2.64346 -0.57356,0.7589 -0.78835,0.6688 -2.53757,-1.06437 z m -73.28683,-22.73999 c -2.74917,-2.76155 -4.99849,-5.2831 -4.99849,-5.60348 0,-0.32036 2.55434,1.88184 5.67631,4.89383 3.12196,3.01196 5.67629,5.53351 5.67629,5.60348 0,0.0699 -0.30502,0.12718 -0.6778,0.12718 -0.3728,0 -2.92713,-2.25946 -5.67631,-5.02102 z m 1.43556,-1.88673 c -3.91981,-3.79924 -6.96224,-7.06707 -6.76094,-7.26184 0.2013,-0.19475 3.74357,2.91372 7.8717,6.90773 4.12813,3.99402 7.17054,7.26185 6.76094,7.26185 -0.40962,0 -3.95188,-3.10848 -7.8717,-6.90774 z m 7.13972,4.0424 c -3.81518,-3.73014 -2.55702,-3.7382 1.4065,-0.009 1.73061,1.62828 2.71086,2.86021 2.27998,2.86536 -0.41572,0.005 -2.07462,-1.28039 -3.68648,-2.85633 z m 3.20836,0.23879 c -3.52048,-3.44895 -2.08772,-3.46633 1.77105,-0.0216 2.28521,2.04004 2.70031,2.60968 1.91402,2.62655 -0.58225,0.0132 -2.13036,-1.0819 -3.68507,-2.60503 z m 2.97841,0.0212 c -2.14719,-2.10724 -2.49509,-2.64771 -1.70436,-2.64771 1.27622,0 4.79566,3.46756 4.57236,4.505 -0.12644,0.58747 -0.86286,0.11066 -2.868,-1.85729 z m 9.95772,0.5577 c -1.289,-1.27071 -2.07712,-2.48763 -2.07712,-3.20717 0,-1.05378 0.24758,-0.92293 2.71474,1.43443 1.49313,1.42665 2.71476,2.86988 2.71476,3.20716 0,1.15762 -1.27761,0.61095 -3.35238,-1.43442 z m 12.73061,-3.4442 -3.56472,-5.4919 h -2.75635 c -2.31234,0 -2.99923,-0.21153 -4.26412,-1.31326 l -1.5078,-1.31327 1.35737,1.45878 c 1.15765,1.24414 1.35739,1.8742 1.35739,4.28169 v 2.8229 l -2.71476,-2.59393 -2.71474,-2.59393 v -3.00098 -3.00103 h 8.80812 c 7.90634,0 8.89179,-0.0894 9.62506,-0.87332 1.07166,-1.14572 1.03677,-2.60656 -0.0858,-3.58943 -0.7968,-0.6977 -2.60337,-0.79035 -15.40919,-0.79035 h -14.50663 l -2.73006,-2.50715 -2.73004,-2.50718 2.44916,2.50718 c 2.28163,2.33561 2.36604,2.50647 1.23377,2.49732 -1.41277,-0.0118 -6.36877,-3.98363 -5.74028,-4.60083 0.22607,-0.222 9.01672,-0.40367 19.53478,-0.40367 h 19.12371 l 1.81356,1.33797 c 2.34301,1.72855 3.40721,3.77177 3.40721,6.54168 0,3.67812 -2.41658,6.8687 -5.68076,7.50032 -1.7095,0.33077 -1.6849,0.40118 2.00429,5.7426 1.59085,2.30332 3.05633,4.45648 3.25665,4.7848 0.27591,0.45226 -0.40721,0.59695 -2.81851,0.59695 h -3.18268 z m 13.82057,5.02932 c 0,-0.25442 0.33316,-0.33886 0.74037,-0.18768 0.40723,0.15121 0.74041,0.35935 0.74041,0.46256 0,0.10312 -0.33318,0.18769 -0.74041,0.18769 -0.40721,0 -0.74037,-0.20815 -0.74037,-0.46257 z m 1.28072,-0.9229 c -0.75454,-0.76197 -1.29586,-1.74016 -1.20292,-2.17374 0.12818,-0.59718 0.70246,-0.2613 2.36953,1.38545 1.81957,1.79744 2.02782,2.17376 1.20292,2.17376 -0.54869,0 -1.61496,-0.62344 -2.36953,-1.38547 z m 1.80422,-1.42399 c -2.1016,-1.90023 -3.08494,-3.14929 -3.08494,-3.91857 0,-0.96487 0.57476,-0.57641 3.94871,2.66881 2.17181,2.0889 3.94874,3.8568 3.94874,3.92863 0,0.0719 -0.3887,0.12599 -0.86378,0.12057 -0.47509,-0.005 -2.25201,-1.26528 -3.94873,-2.79942 z m 1.47104,-1.6169 c -3.26332,-3.17046 -4.55598,-4.75865 -4.55598,-5.59747 0,-1.05199 0.31521,-0.86887 3.09821,1.7998 2.41914,2.31972 3.4236,2.97093 4.58259,2.97093 1.14519,0 2.09697,0.60017 4.16538,2.62656 2.4404,2.39078 2.57318,2.62654 1.47944,2.62654 -0.77413,0 -2.17193,-0.89193 -3.92919,-2.50715 -2.52213,-2.31834 -2.57905,-2.34618 -0.7559,-0.36976 1.08443,1.17555 2.1938,2.30051 2.46529,2.49985 0.27144,0.19933 -0.0662,0.36573 -0.75015,0.36973 -0.91712,0.005 -2.44014,-1.15504 -5.79969,-4.41903 z m 7.78381,1.79982 c -2.43065,-2.38125 -2.56954,-2.62656 -1.48744,-2.62656 0.65863,0 1.97807,0.69567 2.94366,1.55204 l 1.75005,1.55206 -1.44868,-1.55206 -1.4487,-1.55204 h 5.02825 5.02828 v 2.62656 2.62654 h -2.12245 c -1.16734,0 -2.42156,-0.26864 -2.78718,-0.59693 -0.53177,-0.47756 -0.59503,-0.47756 -0.31639,0 0.24312,0.4166 -0.0757,0.59693 -1.05501,0.59693 -1.04702,0 -2.08414,-0.66696 -4.08439,-2.62654 z m 8.39105,1.96868 c 0,-0.0993 -0.38871,-0.47525 -0.86379,-0.83571 -0.78285,-0.59403 -0.80033,-0.57714 -0.18637,0.18029 0.64482,0.79548 1.05016,1.04845 1.05016,0.65542 z m 5.10624,-0.0789 c -0.49379,-1.245 0.29229,-1.41552 1.43385,-0.31104 l 1.08314,1.04796 h -1.11236 c -0.61179,0 -1.24388,-0.33158 -1.40463,-0.73692 z m 2.30479,-0.92736 c -0.91699,-0.91536 -1.50821,-1.81815 -1.31387,-2.0062 0.19435,-0.18805 1.2865,0.56088 2.42695,1.66429 1.29751,1.25535 1.78924,2.00619 1.31388,2.00619 -0.41782,0 -1.50997,-0.74893 -2.42696,-1.66428 z m 23.47088,0.11198 -0.92079,-1.55205 1.55475,1.40263 c 1.74639,1.57552 1.81457,1.70149 0.92076,1.70149 -0.34866,0 -1.04827,-0.69844 -1.55472,-1.55207 z m 0.64262,-0.71632 c -1.23715,-1.24762 -2.97184,-3.55779 -3.85486,-5.13372 l -1.60548,-2.86533 5.23078,5.0058 c 2.87692,2.75319 5.23079,5.06337 5.23079,5.13371 0,0.0702 -0.61917,0.12785 -1.37593,0.12785 -0.99669,0 -1.9959,-0.6252 -3.6253,-2.26838 z m -0.2382,-3.58168 c -3.28073,-3.21751 -6.58047,-6.92454 -7.33278,-8.23781 -1.36356,-2.38042 -1.3528,-2.37377 3.49752,2.14899 l 4.86531,4.53678 -5.42259,-5.49188 c -2.98241,-3.02054 -6.53315,-6.45163 -7.89052,-7.62463 l -2.46797,-2.13273 2.07963,2.13293 c 1.55201,1.59179 1.96247,2.31463 1.61779,2.84906 -0.38026,0.58966 -0.82248,0.36832 -2.50367,-1.25321 l -2.04184,-1.96933 1.65803,-2.93716 1.65803,-2.93715 2.1907,0.13093 2.19073,0.13091 4.37126,7.87965 c 8.91823,16.07609 10.27126,18.62466 9.88778,18.62466 -0.21583,0 -3.07666,-2.63252 -6.35741,-5.85004 z m 10.57552,5.48223 c 0.46922,-0.15139 0.48849,-0.3655 0.0762,-0.84622 -0.30365,-0.35398 -0.4795,-1.09839 -0.39081,-1.65423 0.14598,-0.9148 0.34638,-0.8267 2.11282,0.9292 l 1.95153,1.93985 -2.18896,-0.083 c -1.20394,-0.0456 -1.90626,-0.17415 -1.56071,-0.2856 z m 2.17431,-2.15435 c -1.68633,-1.65206 -2.57448,-2.92372 -2.57448,-3.6861 0,-1.0478 0.29546,-0.88105 2.96155,1.67152 2.59442,2.48394 3.75935,4.53677 2.57448,4.53677 -0.2129,0 -1.54557,-1.13498 -2.96155,-2.52219 z m 17.16917,1.49305 c 0,-1.0169 0.0145,-1.01839 1.11058,-0.12454 0.61082,0.49757 1.20312,0.96067 1.31623,1.02912 0.11322,0.0685 -0.38663,0.12454 -1.11057,0.12454 -1.01874,0 -1.31624,-0.23262 -1.31624,-1.02913 z m 1.78102,-0.82814 c -1.03097,-1.02148 -1.79792,-2.21298 -1.70434,-2.64771 0.1263,-0.5875 0.86285,-0.11066 2.868,1.85727 2.14718,2.10724 2.49507,2.64772 1.70436,2.64772 -0.54645,0 -1.83707,-0.83579 -2.86802,-1.85728 z m 8.58438,1.08247 c 0,-0.63458 0.13408,-0.66721 0.74042,-0.18031 0.40719,0.32699 0.74038,0.67564 0.74038,0.77481 0,0.0993 -0.33319,0.18031 -0.74038,0.18031 -0.40722,0 -0.74042,-0.34869 -0.74042,-0.77481 z m 1.53137,-0.84615 c -0.89309,-0.89152 -1.5475,-1.97628 -1.45421,-2.41055 0.12716,-0.59205 0.78251,-0.18647 2.61903,1.62096 1.98329,1.9518 2.26005,2.41055 1.45424,2.41055 -0.54735,0 -1.72594,-0.72945 -2.61906,-1.62096 z m 1.01234,-1.88187 c -1.54619,-1.51749 -2.56817,-2.91934 -2.46797,-3.38524 0.12803,-0.59552 0.83361,-0.14497 2.8101,1.79488 1.54619,1.5175 2.56818,2.91937 2.46795,3.38522 -0.12803,0.59555 -0.83362,0.14498 -2.81008,-1.79486 z m -146.18763,0.93034 c -0.94531,-0.62691 -2.13775,-1.86261 -2.64987,-2.74594 -0.82121,-1.41652 -0.60278,-1.29802 1.85097,1.0042 1.53016,1.43561 2.7821,2.67129 2.7821,2.74594 0,0.26613 -0.28648,0.12097 -1.9832,-1.0042 z m 81.20464,-0.77033 c -1.05063,-1.04098 -1.7992,-2.00014 -1.66345,-2.13146 0.1358,-0.13128 1.10641,0.61295 2.15703,1.65392 1.05062,1.04096 1.79915,2.00012 1.66343,2.13144 -0.1358,0.13141 -1.10642,-0.61292 -2.15701,-1.6539 z m 54.66523,-0.58907 c -1.70959,-1.67906 -2.59135,-2.94443 -2.59135,-3.71875 0,-1.06818 0.24801,-0.93371 2.75879,1.49547 1.98744,1.92288 2.71197,2.9626 2.59134,3.71876 -0.15031,0.94226 -0.43244,0.78931 -2.75878,-1.49548 z m -110.56447,-0.47748 c -1.94902,-1.91433 -2.59135,-2.89534 -2.59135,-3.95768 v -1.41247 l 2.75502,2.66555 c 2.20679,2.13508 2.72248,2.92266 2.59137,3.95769 -0.16212,1.28031 -0.18739,1.26884 -2.75504,-1.25309 z m 91.02381,-0.76529 c -2.06893,-2.02329 -2.85419,-3.13919 -2.78352,-3.95559 0.0543,-0.62545 0.074,-3.66228 0.0437,-6.74847 l -0.0547,-5.61127 h -5.42953 -5.4295 v -2.62655 -2.62654 h 13.82057 13.82056 v 2.62654 2.62655 h -5.41929 -5.41929 l -0.13377,9.56684 -0.13378,9.56686 z m -100.32419,0.82797 c -0.93128,-0.99562 -0.92893,-1.00243 0.28865,-0.83572 0.6855,0.0939 1.30027,0.53711 1.39222,1.0038 0.22252,1.1296 -0.5382,1.05353 -1.68087,-0.16812 z m 66.21082,-0.88255 c -1.02516,-1.01577 -1.78076,-2.08819 -1.67914,-2.38318 0.1017,-0.29499 1.1472,0.41243 2.3235,1.57204 1.1763,1.15962 1.93191,2.23203 1.67916,2.38317 -0.25277,0.15122 -1.29833,-0.55627 -2.32352,-1.57203 z m 64.01945,-1.13075 c -1.57848,-1.61806 -2.59137,-3.08551 -2.59137,-3.75424 0,-0.95808 0.35136,-0.75799 2.75879,1.57126 2.02621,1.96037 2.71434,2.95726 2.59136,3.75422 -0.15151,0.98189 -0.41395,0.83242 -2.75878,-1.57124 z m -10.36542,-0.43726 c -1.70959,-1.67907 -2.59135,-2.94447 -2.59135,-3.71876 0,-1.06817 0.24801,-0.93372 2.75879,1.49544 1.98744,1.92291 2.71197,2.96263 2.59134,3.7188 -0.15031,0.94225 -0.43244,0.78931 -2.75878,-1.49548 z m -52.59143,-0.2675 c -1.7157,-1.69997 -2.32705,-2.96389 -1.4336,-2.96389 0.21638,0 1.26064,0.85929 2.32063,1.90953 1.28478,1.27299 1.76264,2.06867 1.43358,2.38706 -0.32904,0.31836 -1.10257,-0.12586 -2.32061,-1.3327 z m -29.34472,-2.12029 c -1.70962,-1.67906 -2.59137,-2.94445 -2.59137,-3.71875 0,-1.06816 0.24802,-0.9337 2.75879,1.49546 1.98744,1.92289 2.71197,2.96264 2.59132,3.71877 -0.15031,0.94226 -0.43242,0.78931 -2.75874,-1.49548 z m 92.30157,-0.35648 c -1.54782,-1.67265 -2.59137,-3.24593 -2.59137,-3.9069 0,-0.9709 0.33786,-0.77974 2.75505,1.55892 2.16554,2.09516 2.72004,2.93116 2.59136,3.90692 -0.15639,1.18564 -0.28006,1.11562 -2.75504,-1.55894 z m -62.02561,0.5111 c -2.56994,-2.54635 -1.86338,-3.65577 0.75366,-1.18336 1.77507,1.67701 2.46132,3.05048 1.52417,3.05048 -0.21639,0 -1.24141,-0.84021 -2.27783,-1.86712 z m 51.66019,-0.63203 c -1.94901,-1.91432 -2.59135,-2.89533 -2.59135,-3.95767 v -1.41247 l 2.75505,2.66553 c 2.20679,2.1351 2.72246,2.92268 2.59135,3.95767 -0.16212,1.28034 -0.18741,1.26888 -2.75505,-1.25306 z m -50.36048,-1.3856 c -1.4783,-1.33416 -1.984,-2.10291 -1.70299,-2.58876 0.31414,-0.54308 0.84089,-0.25621 2.45938,1.33935 2.78095,2.74153 2.1153,3.84107 -0.75639,1.24941 z m -31.57567,-1.00405 c -4.25724,-4.17836 -4.3883,-4.11603 8.76124,-4.16679 l 11.3526,-0.0438 v 2.63948 2.63947 h -7.75326 -7.75325 l -1.99454,-1.79082 -1.99451,-1.79084 1.70035,1.79084 c 0.93517,0.98495 1.45093,1.79082 1.14608,1.79082 -0.3048,0 -0.626,0.33187 -0.71378,0.73751 -0.11177,0.51542 -0.93991,-0.0284 -2.75093,-1.80583 z m 92.29732,-0.48638 c -1.4229,-1.39399 -2.58712,-2.7964 -2.58712,-3.11646 0,-0.75554 1.09944,-0.74707 1.94809,0.0153 0.53176,0.47756 0.59503,0.47756 0.31639,0 -0.27388,-0.46933 1.87384,-0.59695 10.04619,-0.59695 h 10.39455 v 2.62656 2.62654 h -6.07118 c -4.17335,0 -6.27896,-0.18658 -6.73589,-0.59693 -0.53179,-0.47756 -0.59504,-0.47756 -0.31638,0 0.25607,0.43884 -0.23676,0.59693 -1.8608,0.59693 -1.21505,0 -2.28514,0.22048 -2.37797,0.48993 -0.0931,0.26944 -1.33299,-0.65065 -2.75588,-2.04464 z m 2.34881,-0.5358 c 0,-0.0992 -0.3887,-0.47523 -0.86377,-0.83572 -0.78288,-0.59401 -0.80034,-0.57713 -0.18637,0.1803 0.64483,0.79548 1.05014,1.04846 1.05014,0.65542 z m -150.68424,-0.19174 c -1.55249,-1.51788 -2.8227,-3.06857 -2.8227,-3.44595 0,-0.87975 5.27001,4.13137 5.59005,5.31545 0.13235,0.48967 0.19894,0.8903 0.148,0.8903 -0.0509,0 -1.36286,-1.24191 -2.91535,-2.7598 z m 137.97426,0.26051 c -1.70959,-1.67906 -2.59135,-2.94444 -2.59135,-3.71876 0,-1.06816 0.24801,-0.9337 2.75879,1.49549 1.98744,1.92287 2.71197,2.96259 2.59134,3.71875 -0.15031,0.94227 -0.43244,0.78932 -2.75878,-1.49548 z m -49.36687,-0.0135 c -1.29206,-1.27374 -1.91361,-2.24407 -1.67588,-2.61626 0.26614,-0.41662 0.98539,0.006 2.43171,1.43306 1.29207,1.27377 1.91364,2.24409 1.67589,2.61629 -0.26614,0.4166 -0.98538,-0.006 -2.43172,-1.43309 z m 0.95031,-1.94657 c -1.61088,-1.58804 -1.92911,-2.15569 -1.46191,-2.60771 0.4672,-0.452 1.00508,-0.19244 2.47093,1.19242 1.03057,0.97363 1.87373,2.03628 1.87373,2.36144 0,1.29163 -0.91863,0.99012 -2.88275,-0.94615 z m 48.39969,-0.92843 -2.57448,-2.52218 v -4.16359 -4.16357 h 2.71474 2.71476 v 6.68576 c 0,3.67717 -0.0632,6.68577 -0.14025,6.68577 -0.0772,0 -1.2988,-1.13498 -2.71477,-2.52219 z M 128.7716,52.034249 c -1.72494,-1.52086 -2.29759,-2.31297 -1.93419,-2.67546 0.36541,-0.36452 1.13898,0.099 2.64812,1.58673 2.94545,2.90368 2.35897,3.79811 -0.71393,1.08873 z m 90.88943,-0.27842 c -1.22371,-1.21249 -1.80399,-2.16319 -1.6135,-2.64348 0.44137,-1.11283 0.9257,-0.93787 2.9465,1.06435 1.57713,1.56269 1.74424,1.92941 1.20458,2.64348 -0.57356,0.75889 -0.78835,0.66881 -2.53758,-1.06435 z m -90.13471,-1.72522 c -1.44847,-1.42791 -2.00816,-2.30107 -1.6791,-2.61943 0.67833,-0.65629 4.74903,3.35667 4.22968,4.16971 -0.26536,0.41539 -1.02501,-0.0464 -2.55058,-1.55028 z m 1.28069,-2.10273 c -2.71881,-2.69383 -1.79692,-3.60051 0.97994,-0.96378 1.90269,1.80669 2.36173,2.83089 1.26875,2.83089 -0.20035,0 -1.21227,-0.8402 -2.24869,-1.86711 z m 1.4927,-1.42085 c -2.55545,-2.53198 -1.40877,-3.21559 1.2231,-0.72916 1.06139,1.00277 1.92981,1.99446 1.92981,2.20382 0,0.90673 -1.41958,0.24277 -3.15291,-1.47466 z m 2.01911,-0.91077 c -2.02057,-2.00202 -2.13765,-2.26978 -1.15238,-2.63559 0.38555,-0.1431 1.70146,0.75716 3.06639,2.09791 2.25128,2.21139 2.31864,2.34864 1.15238,2.34864 -0.7834,0 -1.91042,-0.66561 -3.06639,-1.81096 z m 48.025,-1.29314 v -2.62655 h 11.35261 11.3526 v 2.62655 2.62655 h -11.3526 -11.35261 z m 92.30157,0 v -2.62655 h 11.35264 11.35258 v 2.62655 2.62654 h -11.35258 -11.35264 z"
       id="path1" /></g><script
     id="mesh_polyfill"
     type="text/javascript">
!function(){const t=&quot;http://www.w3.org/2000/svg&quot;,e=&quot;http://www.w3.org/1999/xlink&quot;,s=&quot;http://www.w3.org/1999/xhtml&quot;,r=2;if(document.createElementNS(t,&quot;meshgradient&quot;).x)return;const n=(t,e,s,r)=&gt;{let n=new x(.5*(e.x+s.x),.5*(e.y+s.y)),o=new x(.5*(t.x+e.x),.5*(t.y+e.y)),i=new x(.5*(s.x+r.x),.5*(s.y+r.y)),a=new x(.5*(n.x+o.x),.5*(n.y+o.y)),h=new x(.5*(n.x+i.x),.5*(n.y+i.y)),l=new x(.5*(a.x+h.x),.5*(a.y+h.y));return[[t,o,a,l],[l,h,i,r]]},o=t=&gt;{let e=t[0].distSquared(t[1]),s=t[2].distSquared(t[3]),r=.25*t[0].distSquared(t[2]),n=.25*t[1].distSquared(t[3]),o=e&gt;s?e:s,i=r&gt;n?r:n;return 18*(o&gt;i?o:i)},i=(t,e)=&gt;Math.sqrt(t.distSquared(e)),a=(t,e)=&gt;t.scale(2/3).add(e.scale(1/3)),h=t=&gt;{let e,s,r,n,o,i,a,h=new g;return t.match(/(\w+\(\s*[^)]+\))+/g).forEach(t=&gt;{let l=t.match(/[\w.-]+/g),d=l.shift();switch(d){case&quot;translate&quot;:2===l.length?e=new g(1,0,0,1,l[0],l[1]):(console.error(&quot;mesh.js: translate does not have 2 arguments!&quot;),e=new g(1,0,0,1,0,0)),h=h.append(e);break;case&quot;scale&quot;:1===l.length?s=new g(l[0],0,0,l[0],0,0):2===l.length?s=new g(l[0],0,0,l[1],0,0):(console.error(&quot;mesh.js: scale does not have 1 or 2 arguments!&quot;),s=new g(1,0,0,1,0,0)),h=h.append(s);break;case&quot;rotate&quot;:if(3===l.length&amp;&amp;(e=new g(1,0,0,1,l[1],l[2]),h=h.append(e)),l[0]){r=l[0]*Math.PI/180;let t=Math.cos(r),e=Math.sin(r);Math.abs(t)&lt;1e-16&amp;&amp;(t=0),Math.abs(e)&lt;1e-16&amp;&amp;(e=0),a=new g(t,e,-e,t,0,0),h=h.append(a)}else console.error(&quot;math.js: No argument to rotate transform!&quot;);3===l.length&amp;&amp;(e=new g(1,0,0,1,-l[1],-l[2]),h=h.append(e));break;case&quot;skewX&quot;:l[0]?(r=l[0]*Math.PI/180,n=Math.tan(r),o=new g(1,0,n,1,0,0),h=h.append(o)):console.error(&quot;math.js: No argument to skewX transform!&quot;);break;case&quot;skewY&quot;:l[0]?(r=l[0]*Math.PI/180,n=Math.tan(r),i=new g(1,n,0,1,0,0),h=h.append(i)):console.error(&quot;math.js: No argument to skewY transform!&quot;);break;case&quot;matrix&quot;:6===l.length?h=h.append(new g(...l)):console.error(&quot;math.js: Incorrect number of arguments for matrix!&quot;);break;default:console.error(&quot;mesh.js: Unhandled transform type: &quot;+d)}}),h},l=t=&gt;{let e=[],s=t.split(/[ ,]+/);for(let t=0,r=s.length-1;t&lt;r;t+=2)e.push(new x(parseFloat(s[t]),parseFloat(s[t+1])));return e},d=(t,e)=&gt;{for(let s in e)t.setAttribute(s,e[s])},c=(t,e,s,r,n)=&gt;{let o,i,a=[0,0,0,0];for(let h=0;h&lt;3;++h)e[h]&lt;t[h]&amp;&amp;e[h]&lt;s[h]||t[h]&lt;e[h]&amp;&amp;s[h]&lt;e[h]?a[h]=0:(a[h]=.5*((e[h]-t[h])/r+(s[h]-e[h])/n),o=Math.abs(3*(e[h]-t[h])/r),i=Math.abs(3*(s[h]-e[h])/n),a[h]&gt;o?a[h]=o:a[h]&gt;i&amp;&amp;(a[h]=i));return a},u=[[1,0,0,0,0,0,0,0,0,0,0,0,0,0,0,0],[0,0,0,0,1,0,0,0,0,0,0,0,0,0,0,0],[-3,3,0,0,-2,-1,0,0,0,0,0,0,0,0,0,0],[2,-2,0,0,1,1,0,0,0,0,0,0,0,0,0,0],[0,0,0,0,0,0,0,0,1,0,0,0,0,0,0,0],[0,0,0,0,0,0,0,0,0,0,0,0,1,0,0,0],[0,0,0,0,0,0,0,0,-3,3,0,0,-2,-1,0,0],[0,0,0,0,0,0,0,0,2,-2,0,0,1,1,0,0],[-3,0,3,0,0,0,0,0,-2,0,-1,0,0,0,0,0],[0,0,0,0,-3,0,3,0,0,0,0,0,-2,0,-1,0],[9,-9,-9,9,6,3,-6,-3,6,-6,3,-3,4,2,2,1],[-6,6,6,-6,-3,-3,3,3,-4,4,-2,2,-2,-2,-1,-1],[2,0,-2,0,0,0,0,0,1,0,1,0,0,0,0,0],[0,0,0,0,2,0,-2,0,0,0,0,0,1,0,1,0],[-6,6,6,-6,-4,-2,4,2,-3,3,-3,3,-2,-1,-2,-1],[4,-4,-4,4,2,2,-2,-2,2,-2,2,-2,1,1,1,1]],f=t=&gt;{let e=[];for(let s=0;s&lt;16;++s){e[s]=0;for(let r=0;r&lt;16;++r)e[s]+=u[s][r]*t[r]}return e},p=(t,e,s)=&gt;{const r=e*e,n=s*s,o=e*e*e,i=s*s*s;return t[0]+t[1]*e+t[2]*r+t[3]*o+t[4]*s+t[5]*s*e+t[6]*s*r+t[7]*s*o+t[8]*n+t[9]*n*e+t[10]*n*r+t[11]*n*o+t[12]*i+t[13]*i*e+t[14]*i*r+t[15]*i*o},y=t=&gt;{let e=[],s=[],r=[];for(let s=0;s&lt;4;++s)e[s]=[],e[s][0]=n(t[0][s],t[1][s],t[2][s],t[3][s]),e[s][1]=[],e[s][1].push(...n(...e[s][0][0])),e[s][1].push(...n(...e[s][0][1])),e[s][2]=[],e[s][2].push(...n(...e[s][1][0])),e[s][2].push(...n(...e[s][1][1])),e[s][2].push(...n(...e[s][1][2])),e[s][2].push(...n(...e[s][1][3]));for(let t=0;t&lt;8;++t){s[t]=[];for(let r=0;r&lt;4;++r)s[t][r]=[],s[t][r][0]=n(e[0][2][t][r],e[1][2][t][r],e[2][2][t][r],e[3][2][t][r]),s[t][r][1]=[],s[t][r][1].push(...n(...s[t][r][0][0])),s[t][r][1].push(...n(...s[t][r][0][1])),s[t][r][2]=[],s[t][r][2].push(...n(...s[t][r][1][0])),s[t][r][2].push(...n(...s[t][r][1][1])),s[t][r][2].push(...n(...s[t][r][1][2])),s[t][r][2].push(...n(...s[t][r][1][3]))}for(let t=0;t&lt;8;++t){r[t]=[];for(let e=0;e&lt;8;++e)r[t][e]=[],r[t][e][0]=s[t][0][2][e],r[t][e][1]=s[t][1][2][e],r[t][e][2]=s[t][2][2][e],r[t][e][3]=s[t][3][2][e]}return r};class x{constructor(t,e){this.x=t||0,this.y=e||0}toString(){return`(x=${this.x}, y=${this.y})`}clone(){return new x(this.x,this.y)}add(t){return new x(this.x+t.x,this.y+t.y)}scale(t){return void 0===t.x?new x(this.x*t,this.y*t):new x(this.x*t.x,this.y*t.y)}distSquared(t){let e=this.x-t.x,s=this.y-t.y;return e*e+s*s}transform(t){let e=this.x*t.a+this.y*t.c+t.e,s=this.x*t.b+this.y*t.d+t.f;return new x(e,s)}}class g{constructor(t,e,s,r,n,o){void 0===t?(this.a=1,this.b=0,this.c=0,this.d=1,this.e=0,this.f=0):(this.a=t,this.b=e,this.c=s,this.d=r,this.e=n,this.f=o)}toString(){return`affine: ${this.a} ${this.c} ${this.e} \n       ${this.b} ${this.d} ${this.f}`}append(t){t instanceof g||console.error(&quot;mesh.js: argument to Affine.append is not affine!&quot;);let e=this.a*t.a+this.c*t.b,s=this.b*t.a+this.d*t.b,r=this.a*t.c+this.c*t.d,n=this.b*t.c+this.d*t.d,o=this.a*t.e+this.c*t.f+this.e,i=this.b*t.e+this.d*t.f+this.f;return new g(e,s,r,n,o,i)}}class w{constructor(t,e){this.nodes=t,this.colors=e}paintCurve(t,e){if(o(this.nodes)&gt;r){const s=n(...this.nodes);let r=[[],[]],o=[[],[]];for(let t=0;t&lt;4;++t)r[0][t]=this.colors[0][t],r[1][t]=(this.colors[0][t]+this.colors[1][t])/2,o[0][t]=r[1][t],o[1][t]=this.colors[1][t];let i=new w(s[0],r),a=new w(s[1],o);i.paintCurve(t,e),a.paintCurve(t,e)}else{let s=Math.round(this.nodes[0].x);if(s&gt;=0&amp;&amp;s&lt;e){let r=4*(~~this.nodes[0].y*e+s);t[r]=Math.round(this.colors[0][0]),t[r+1]=Math.round(this.colors[0][1]),t[r+2]=Math.round(this.colors[0][2]),t[r+3]=Math.round(this.colors[0][3])}}}}class m{constructor(t,e){this.nodes=t,this.colors=e}split(){let t=[[],[],[],[]],e=[[],[],[],[]],s=[[[],[]],[[],[]]],r=[[[],[]],[[],[]]];for(let s=0;s&lt;4;++s){const r=n(this.nodes[0][s],this.nodes[1][s],this.nodes[2][s],this.nodes[3][s]);t[0][s]=r[0][0],t[1][s]=r[0][1],t[2][s]=r[0][2],t[3][s]=r[0][3],e[0][s]=r[1][0],e[1][s]=r[1][1],e[2][s]=r[1][2],e[3][s]=r[1][3]}for(let t=0;t&lt;4;++t)s[0][0][t]=this.colors[0][0][t],s[0][1][t]=this.colors[0][1][t],s[1][0][t]=(this.colors[0][0][t]+this.colors[1][0][t])/2,s[1][1][t]=(this.colors[0][1][t]+this.colors[1][1][t])/2,r[0][0][t]=s[1][0][t],r[0][1][t]=s[1][1][t],r[1][0][t]=this.colors[1][0][t],r[1][1][t]=this.colors[1][1][t];return[new m(t,s),new m(e,r)]}paint(t,e){let s,n=!1;for(let t=0;t&lt;4;++t)if((s=o([this.nodes[0][t],this.nodes[1][t],this.nodes[2][t],this.nodes[3][t]]))&gt;r){n=!0;break}if(n){let s=this.split();s[0].paint(t,e),s[1].paint(t,e)}else{new w([...this.nodes[0]],[...this.colors[0]]).paintCurve(t,e)}}}class b{constructor(t){this.readMesh(t),this.type=t.getAttribute(&quot;type&quot;)||&quot;bilinear&quot;}readMesh(t){let e=[[]],s=[[]],r=Number(t.getAttribute(&quot;x&quot;)),n=Number(t.getAttribute(&quot;y&quot;));e[0][0]=new x(r,n);let o=t.children;for(let t=0,r=o.length;t&lt;r;++t){e[3*t+1]=[],e[3*t+2]=[],e[3*t+3]=[],s[t+1]=[];let r=o[t].children;for(let n=0,o=r.length;n&lt;o;++n){let o=r[n].children;for(let r=0,i=o.length;r&lt;i;++r){let i=r;0!==t&amp;&amp;++i;let h,d=o[r].getAttribute(&quot;path&quot;),c=&quot;l&quot;;null!=d&amp;&amp;(c=(h=d.match(/\s*([lLcC])\s*(.*)/))[1]);let u=l(h[2]);switch(c){case&quot;l&quot;:0===i?(e[3*t][3*n+3]=u[0].add(e[3*t][3*n]),e[3*t][3*n+1]=a(e[3*t][3*n],e[3*t][3*n+3]),e[3*t][3*n+2]=a(e[3*t][3*n+3],e[3*t][3*n])):1===i?(e[3*t+3][3*n+3]=u[0].add(e[3*t][3*n+3]),e[3*t+1][3*n+3]=a(e[3*t][3*n+3],e[3*t+3][3*n+3]),e[3*t+2][3*n+3]=a(e[3*t+3][3*n+3],e[3*t][3*n+3])):2===i?(0===n&amp;&amp;(e[3*t+3][3*n+0]=u[0].add(e[3*t+3][3*n+3])),e[3*t+3][3*n+1]=a(e[3*t+3][3*n],e[3*t+3][3*n+3]),e[3*t+3][3*n+2]=a(e[3*t+3][3*n+3],e[3*t+3][3*n])):(e[3*t+1][3*n]=a(e[3*t][3*n],e[3*t+3][3*n]),e[3*t+2][3*n]=a(e[3*t+3][3*n],e[3*t][3*n]));break;case&quot;L&quot;:0===i?(e[3*t][3*n+3]=u[0],e[3*t][3*n+1]=a(e[3*t][3*n],e[3*t][3*n+3]),e[3*t][3*n+2]=a(e[3*t][3*n+3],e[3*t][3*n])):1===i?(e[3*t+3][3*n+3]=u[0],e[3*t+1][3*n+3]=a(e[3*t][3*n+3],e[3*t+3][3*n+3]),e[3*t+2][3*n+3]=a(e[3*t+3][3*n+3],e[3*t][3*n+3])):2===i?(0===n&amp;&amp;(e[3*t+3][3*n+0]=u[0]),e[3*t+3][3*n+1]=a(e[3*t+3][3*n],e[3*t+3][3*n+3]),e[3*t+3][3*n+2]=a(e[3*t+3][3*n+3],e[3*t+3][3*n])):(e[3*t+1][3*n]=a(e[3*t][3*n],e[3*t+3][3*n]),e[3*t+2][3*n]=a(e[3*t+3][3*n],e[3*t][3*n]));break;case&quot;c&quot;:0===i?(e[3*t][3*n+1]=u[0].add(e[3*t][3*n]),e[3*t][3*n+2]=u[1].add(e[3*t][3*n]),e[3*t][3*n+3]=u[2].add(e[3*t][3*n])):1===i?(e[3*t+1][3*n+3]=u[0].add(e[3*t][3*n+3]),e[3*t+2][3*n+3]=u[1].add(e[3*t][3*n+3]),e[3*t+3][3*n+3]=u[2].add(e[3*t][3*n+3])):2===i?(e[3*t+3][3*n+2]=u[0].add(e[3*t+3][3*n+3]),e[3*t+3][3*n+1]=u[1].add(e[3*t+3][3*n+3]),0===n&amp;&amp;(e[3*t+3][3*n+0]=u[2].add(e[3*t+3][3*n+3]))):(e[3*t+2][3*n]=u[0].add(e[3*t+3][3*n]),e[3*t+1][3*n]=u[1].add(e[3*t+3][3*n]));break;case&quot;C&quot;:0===i?(e[3*t][3*n+1]=u[0],e[3*t][3*n+2]=u[1],e[3*t][3*n+3]=u[2]):1===i?(e[3*t+1][3*n+3]=u[0],e[3*t+2][3*n+3]=u[1],e[3*t+3][3*n+3]=u[2]):2===i?(e[3*t+3][3*n+2]=u[0],e[3*t+3][3*n+1]=u[1],0===n&amp;&amp;(e[3*t+3][3*n+0]=u[2])):(e[3*t+2][3*n]=u[0],e[3*t+1][3*n]=u[1]);break;default:console.error(&quot;mesh.js: &quot;+c+&quot; invalid path type.&quot;)}if(0===t&amp;&amp;0===n||r&gt;0){let e=window.getComputedStyle(o[r]).stopColor.match(/^rgb\s*\(\s*(\d+)\s*,\s*(\d+)\s*,\s*(\d+)\s*\)$/i),a=window.getComputedStyle(o[r]).stopOpacity,h=255;a&amp;&amp;(h=Math.floor(255*a)),e&amp;&amp;(0===i?(s[t][n]=[],s[t][n][0]=Math.floor(e[1]),s[t][n][1]=Math.floor(e[2]),s[t][n][2]=Math.floor(e[3]),s[t][n][3]=h):1===i?(s[t][n+1]=[],s[t][n+1][0]=Math.floor(e[1]),s[t][n+1][1]=Math.floor(e[2]),s[t][n+1][2]=Math.floor(e[3]),s[t][n+1][3]=h):2===i?(s[t+1][n+1]=[],s[t+1][n+1][0]=Math.floor(e[1]),s[t+1][n+1][1]=Math.floor(e[2]),s[t+1][n+1][2]=Math.floor(e[3]),s[t+1][n+1][3]=h):3===i&amp;&amp;(s[t+1][n]=[],s[t+1][n][0]=Math.floor(e[1]),s[t+1][n][1]=Math.floor(e[2]),s[t+1][n][2]=Math.floor(e[3]),s[t+1][n][3]=h))}}e[3*t+1][3*n+1]=new x,e[3*t+1][3*n+2]=new x,e[3*t+2][3*n+1]=new x,e[3*t+2][3*n+2]=new x,e[3*t+1][3*n+1].x=(-4*e[3*t][3*n].x+6*(e[3*t][3*n+1].x+e[3*t+1][3*n].x)+-2*(e[3*t][3*n+3].x+e[3*t+3][3*n].x)+3*(e[3*t+3][3*n+1].x+e[3*t+1][3*n+3].x)+-1*e[3*t+3][3*n+3].x)/9,e[3*t+1][3*n+2].x=(-4*e[3*t][3*n+3].x+6*(e[3*t][3*n+2].x+e[3*t+1][3*n+3].x)+-2*(e[3*t][3*n].x+e[3*t+3][3*n+3].x)+3*(e[3*t+3][3*n+2].x+e[3*t+1][3*n].x)+-1*e[3*t+3][3*n].x)/9,e[3*t+2][3*n+1].x=(-4*e[3*t+3][3*n].x+6*(e[3*t+3][3*n+1].x+e[3*t+2][3*n].x)+-2*(e[3*t+3][3*n+3].x+e[3*t][3*n].x)+3*(e[3*t][3*n+1].x+e[3*t+2][3*n+3].x)+-1*e[3*t][3*n+3].x)/9,e[3*t+2][3*n+2].x=(-4*e[3*t+3][3*n+3].x+6*(e[3*t+3][3*n+2].x+e[3*t+2][3*n+3].x)+-2*(e[3*t+3][3*n].x+e[3*t][3*n+3].x)+3*(e[3*t][3*n+2].x+e[3*t+2][3*n].x)+-1*e[3*t][3*n].x)/9,e[3*t+1][3*n+1].y=(-4*e[3*t][3*n].y+6*(e[3*t][3*n+1].y+e[3*t+1][3*n].y)+-2*(e[3*t][3*n+3].y+e[3*t+3][3*n].y)+3*(e[3*t+3][3*n+1].y+e[3*t+1][3*n+3].y)+-1*e[3*t+3][3*n+3].y)/9,e[3*t+1][3*n+2].y=(-4*e[3*t][3*n+3].y+6*(e[3*t][3*n+2].y+e[3*t+1][3*n+3].y)+-2*(e[3*t][3*n].y+e[3*t+3][3*n+3].y)+3*(e[3*t+3][3*n+2].y+e[3*t+1][3*n].y)+-1*e[3*t+3][3*n].y)/9,e[3*t+2][3*n+1].y=(-4*e[3*t+3][3*n].y+6*(e[3*t+3][3*n+1].y+e[3*t+2][3*n].y)+-2*(e[3*t+3][3*n+3].y+e[3*t][3*n].y)+3*(e[3*t][3*n+1].y+e[3*t+2][3*n+3].y)+-1*e[3*t][3*n+3].y)/9,e[3*t+2][3*n+2].y=(-4*e[3*t+3][3*n+3].y+6*(e[3*t+3][3*n+2].y+e[3*t+2][3*n+3].y)+-2*(e[3*t+3][3*n].y+e[3*t][3*n+3].y)+3*(e[3*t][3*n+2].y+e[3*t+2][3*n].y)+-1*e[3*t][3*n].y)/9}}this.nodes=e,this.colors=s}paintMesh(t,e){let s=(this.nodes.length-1)/3,r=(this.nodes[0].length-1)/3;if(&quot;bilinear&quot;===this.type||s&lt;2||r&lt;2){let n;for(let o=0;o&lt;s;++o)for(let s=0;s&lt;r;++s){let r=[];for(let t=3*o,e=3*o+4;t&lt;e;++t)r.push(this.nodes[t].slice(3*s,3*s+4));let i=[];i.push(this.colors[o].slice(s,s+2)),i.push(this.colors[o+1].slice(s,s+2)),(n=new m(r,i)).paint(t,e)}}else{let n,o,a,h,l,d,u;const x=s,g=r;s++,r++;let w=new Array(s);for(let t=0;t&lt;s;++t){w[t]=new Array(r);for(let e=0;e&lt;r;++e)w[t][e]=[],w[t][e][0]=this.nodes[3*t][3*e],w[t][e][1]=this.colors[t][e]}for(let t=0;t&lt;s;++t)for(let e=0;e&lt;r;++e)0!==t&amp;&amp;t!==x&amp;&amp;(n=i(w[t-1][e][0],w[t][e][0]),o=i(w[t+1][e][0],w[t][e][0]),w[t][e][2]=c(w[t-1][e][1],w[t][e][1],w[t+1][e][1],n,o)),0!==e&amp;&amp;e!==g&amp;&amp;(n=i(w[t][e-1][0],w[t][e][0]),o=i(w[t][e+1][0],w[t][e][0]),w[t][e][3]=c(w[t][e-1][1],w[t][e][1],w[t][e+1][1],n,o));for(let t=0;t&lt;r;++t){w[0][t][2]=[],w[x][t][2]=[];for(let e=0;e&lt;4;++e)n=i(w[1][t][0],w[0][t][0]),o=i(w[x][t][0],w[x-1][t][0]),w[0][t][2][e]=n&gt;0?2*(w[1][t][1][e]-w[0][t][1][e])/n-w[1][t][2][e]:0,w[x][t][2][e]=o&gt;0?2*(w[x][t][1][e]-w[x-1][t][1][e])/o-w[x-1][t][2][e]:0}for(let t=0;t&lt;s;++t){w[t][0][3]=[],w[t][g][3]=[];for(let e=0;e&lt;4;++e)n=i(w[t][1][0],w[t][0][0]),o=i(w[t][g][0],w[t][g-1][0]),w[t][0][3][e]=n&gt;0?2*(w[t][1][1][e]-w[t][0][1][e])/n-w[t][1][3][e]:0,w[t][g][3][e]=o&gt;0?2*(w[t][g][1][e]-w[t][g-1][1][e])/o-w[t][g-1][3][e]:0}for(let s=0;s&lt;x;++s)for(let r=0;r&lt;g;++r){let n=i(w[s][r][0],w[s+1][r][0]),o=i(w[s][r+1][0],w[s+1][r+1][0]),c=i(w[s][r][0],w[s][r+1][0]),x=i(w[s+1][r][0],w[s+1][r+1][0]),g=[[],[],[],[]];for(let t=0;t&lt;4;++t){(d=[])[0]=w[s][r][1][t],d[1]=w[s+1][r][1][t],d[2]=w[s][r+1][1][t],d[3]=w[s+1][r+1][1][t],d[4]=w[s][r][2][t]*n,d[5]=w[s+1][r][2][t]*n,d[6]=w[s][r+1][2][t]*o,d[7]=w[s+1][r+1][2][t]*o,d[8]=w[s][r][3][t]*c,d[9]=w[s+1][r][3][t]*x,d[10]=w[s][r+1][3][t]*c,d[11]=w[s+1][r+1][3][t]*x,d[12]=0,d[13]=0,d[14]=0,d[15]=0,u=f(d);for(let e=0;e&lt;9;++e){g[t][e]=[];for(let s=0;s&lt;9;++s)g[t][e][s]=p(u,e/8,s/8),g[t][e][s]&gt;255?g[t][e][s]=255:g[t][e][s]&lt;0&amp;&amp;(g[t][e][s]=0)}}h=[];for(let t=3*s,e=3*s+4;t&lt;e;++t)h.push(this.nodes[t].slice(3*r,3*r+4));l=y(h);for(let s=0;s&lt;8;++s)for(let r=0;r&lt;8;++r)(a=new m(l[s][r],[[[g[0][s][r],g[1][s][r],g[2][s][r],g[3][s][r]],[g[0][s][r+1],g[1][s][r+1],g[2][s][r+1],g[3][s][r+1]]],[[g[0][s+1][r],g[1][s+1][r],g[2][s+1][r],g[3][s+1][r]],[g[0][s+1][r+1],g[1][s+1][r+1],g[2][s+1][r+1],g[3][s+1][r+1]]]])).paint(t,e)}}}transform(t){if(t instanceof x)for(let e=0,s=this.nodes.length;e&lt;s;++e)for(let s=0,r=this.nodes[0].length;s&lt;r;++s)this.nodes[e][s]=this.nodes[e][s].add(t);else if(t instanceof g)for(let e=0,s=this.nodes.length;e&lt;s;++e)for(let s=0,r=this.nodes[0].length;s&lt;r;++s)this.nodes[e][s]=this.nodes[e][s].transform(t)}scale(t){for(let e=0,s=this.nodes.length;e&lt;s;++e)for(let s=0,r=this.nodes[0].length;s&lt;r;++s)this.nodes[e][s]=this.nodes[e][s].scale(t)}}document.querySelectorAll(&quot;rect,circle,ellipse,path,text&quot;).forEach((r,n)=&gt;{let o=r.getAttribute(&quot;id&quot;);o||(o=&quot;patchjs_shape&quot;+n,r.setAttribute(&quot;id&quot;,o));const i=r.style.fill.match(/^url\(\s*&quot;?\s*#([^\s&quot;]+)&quot;?\s*\)/),a=r.style.stroke.match(/^url\(\s*&quot;?\s*#([^\s&quot;]+)&quot;?\s*\)/);if(i&amp;&amp;i[1]){const a=document.getElementById(i[1]);if(a&amp;&amp;&quot;meshgradient&quot;===a.nodeName){const i=r.getBBox();let l=document.createElementNS(s,&quot;canvas&quot;);d(l,{width:i.width,height:i.height});const c=l.getContext(&quot;2d&quot;);let u=c.createImageData(i.width,i.height);const f=new b(a);&quot;objectBoundingBox&quot;===a.getAttribute(&quot;gradientUnits&quot;)&amp;&amp;f.scale(new x(i.width,i.height));const p=a.getAttribute(&quot;gradientTransform&quot;);null!=p&amp;&amp;f.transform(h(p)),&quot;userSpaceOnUse&quot;===a.getAttribute(&quot;gradientUnits&quot;)&amp;&amp;f.transform(new x(-i.x,-i.y)),f.paintMesh(u.data,l.width),c.putImageData(u,0,0);const y=document.createElementNS(t,&quot;image&quot;);d(y,{width:i.width,height:i.height,x:i.x,y:i.y});let g=l.toDataURL();y.setAttributeNS(e,&quot;xlink:href&quot;,g),r.parentNode.insertBefore(y,r),r.style.fill=&quot;none&quot;;const w=document.createElementNS(t,&quot;use&quot;);w.setAttributeNS(e,&quot;xlink:href&quot;,&quot;#&quot;+o);const m=&quot;patchjs_clip&quot;+n,M=document.createElementNS(t,&quot;clipPath&quot;);M.setAttribute(&quot;id&quot;,m),M.appendChild(w),r.parentElement.insertBefore(M,r),y.setAttribute(&quot;clip-path&quot;,&quot;url(#&quot;+m+&quot;)&quot;),u=null,l=null,g=null}}if(a&amp;&amp;a[1]){const o=document.getElementById(a[1]);if(o&amp;&amp;&quot;meshgradient&quot;===o.nodeName){const i=parseFloat(r.style.strokeWidth.slice(0,-2))*(parseFloat(r.style.strokeMiterlimit)||parseFloat(r.getAttribute(&quot;stroke-miterlimit&quot;))||1),a=r.getBBox(),l=Math.trunc(a.width+i),c=Math.trunc(a.height+i),u=Math.trunc(a.x-i/2),f=Math.trunc(a.y-i/2);let p=document.createElementNS(s,&quot;canvas&quot;);d(p,{width:l,height:c});const y=p.getContext(&quot;2d&quot;);let g=y.createImageData(l,c);const w=new b(o);&quot;objectBoundingBox&quot;===o.getAttribute(&quot;gradientUnits&quot;)&amp;&amp;w.scale(new x(l,c));const m=o.getAttribute(&quot;gradientTransform&quot;);null!=m&amp;&amp;w.transform(h(m)),&quot;userSpaceOnUse&quot;===o.getAttribute(&quot;gradientUnits&quot;)&amp;&amp;w.transform(new x(-u,-f)),w.paintMesh(g.data,p.width),y.putImageData(g,0,0);const M=document.createElementNS(t,&quot;image&quot;);d(M,{width:l,height:c,x:0,y:0});let S=p.toDataURL();M.setAttributeNS(e,&quot;xlink:href&quot;,S);const k=&quot;pattern_clip&quot;+n,A=document.createElementNS(t,&quot;pattern&quot;);d(A,{id:k,patternUnits:&quot;userSpaceOnUse&quot;,width:l,height:c,x:u,y:f}),A.appendChild(M),o.parentNode.appendChild(A),r.style.stroke=&quot;url(#&quot;+k+&quot;)&quot;,g=null,p=null,S=null}}})}();
</script></svg>
