<?xml version="1.0" encoding="UTF-8" standalone="no"?>
<!-- Created with Inkscape (http://www.inkscape.org/) -->

<svg
   width="297mm"
   height="210mm"
   viewBox="0 0 297 210"
   version="1.1"
   id="svg1"
   xml:space="preserve"
   xmlns="http://www.w3.org/2000/svg"
   xmlns:svg="http://www.w3.org/2000/svg"><defs
     id="defs1" /><g
     id="layer1"><path
       style="fill:#000000;stroke-width:5.14116"
       d="m 55.132982,208.84502 c 0.747055,-1.58631 7.150642,-10.00371 7.48302,-9.8363 0.419745,0.21161 7.284825,9.82567 7.284825,10.20209 0,0.12992 -3.386607,0.23668 -7.525794,0.23668 -6.563455,0 -7.489456,-0.0771 -7.242051,-0.60237 z m 24.411897,0.35177 c 0,-0.13785 2.193381,-3.32047 4.874224,-7.07273 l 4.874223,-6.82231 h 7.66305 c 4.214704,0 7.663114,0.0658 7.663114,0.14666 0,0.12382 -6.265824,9.05198 -8.996558,12.81886 l -0.855495,1.18009 h -7.611279 c -4.186229,0 -7.611279,-0.11278 -7.611279,-0.2506 z m 122.987081,-0.0464 c 0.057,-0.66815 7.04955,-10.11392 7.45249,-10.06719 0.42887,0.0497 7.41389,9.4869 7.45153,10.06719 0.0107,0.16197 -3.34423,0.29469 -7.455,0.29469 -4.11082,0 -7.46286,-0.13275 -7.44902,-0.29469 z m 24.69992,-0.1963 c 0.12982,-0.27011 2.30625,-3.4087 4.8368,-6.97454 l 4.6009,-6.48334 7.79632,-0.1081 c 4.37686,-0.0608 7.72406,0.0464 7.63157,0.23902 -0.0906,0.19119 -2.32889,3.37815 -4.97385,7.08261 l -4.80906,6.73543 h -7.6593 c -5.93173,0 -7.60603,-0.11094 -7.42338,-0.49114 z M 2.1502939,204.79937 0.93012909,203.29699 1.0582732,192.33628 l 0.1281441,-10.9607 7.8974126,11.18605 c 4.3435331,6.15236 8.3213721,11.76075 8.8395321,12.4631 l 0.942175,1.27704 H 11.117743 3.3700033 Z m 24.6747361,0.0279 c -0.624889,-0.8104 -2.91509,-3.99889 -5.089391,-7.08545 l -3.953179,-5.61202 3.692161,-5.29178 c 2.030722,-2.91049 3.857041,-5.29184 4.058484,-5.29184 0.201614,0 2.323005,2.78492 4.714585,6.18865 5.658354,8.05316 11.069532,15.68244 12.26236,17.28893 l 0.948213,1.27703 H 35.709727 27.96119 Z m 80.10197,0.1963 c 0.51656,-0.70234 2.29282,-3.18128 3.9468,-5.5087 l 3.00724,-4.23172 10.12337,0.10584 10.12331,0.10584 2.63238,3.73281 c 1.44775,2.05309 3.17172,4.48432 3.83101,5.4028 l 1.19869,1.66999 h -17.90117 -17.90118 z m 43.62557,0.78585 c -0.26199,-0.2701 -2.58534,-3.46536 -5.16269,-7.10054 l -4.68605,-6.60938 3.70816,-5.27675 c 2.03954,-2.90218 3.87771,-5.27676 4.08491,-5.27676 0.2073,0 1.46221,1.54719 2.789,3.43818 2.65846,3.78901 14.49788,20.50601 14.87537,21.0037 0.42032,0.55397 -15.06987,0.37684 -15.6087,-0.17821 z m 24.10617,-0.58939 c -0.50062,-0.59432 -2.80745,-3.77627 -5.12624,-7.07107 l -4.2159,-5.99048 3.71266,-5.32111 c 2.04193,-2.92661 3.89393,-5.27017 4.1156,-5.20798 0.22155,0.0622 3.78847,4.8872 7.92623,10.72221 4.13777,5.83499 8.05875,11.36054 8.71332,12.27903 l 1.19017,1.66998 h -7.70277 -7.70273 z m 80.11968,-0.5894 c 0.65929,-0.91849 2.38326,-3.34972 3.83106,-5.40279 l 2.63232,-3.73283 10.12338,-0.10584 10.1233,-0.10584 3.00725,4.23172 c 1.65398,2.32741 3.43007,4.80635 3.94679,5.50871 l 0.93958,1.27702 H 271.48091 253.57972 Z M 41.133833,190.38421 32.378307,178.00961 h 7.821951 7.821948 l 1.69282,2.45582 c 0.931014,1.35069 3.160559,4.51676 4.954413,7.03566 l 3.261652,4.57983 -3.779754,5.33856 c -2.078905,2.93621 -3.888252,5.33875 -4.020895,5.33895 -0.132702,1.8e-4 -4.181047,-5.56825 -8.996609,-12.37422 z m 28.550799,5.6002 c -2.638355,-3.72695 -6.57758,-9.29594 -8.753761,-12.37555 l -3.956651,-5.59925 h 7.674783 7.674782 l 1.609441,2.06288 c 0.885166,1.13461 3.175424,4.30545 5.089506,7.04637 l 3.480067,4.9835 -3.769446,5.32358 c -2.073153,2.92798 -3.877884,5.32613 -4.01053,5.32919 -0.132702,0.003 -2.399778,-3.04374 -5.038191,-6.77072 z m 124.074668,1.57347 c -2.02337,-2.86348 -5.96522,-8.43327 -8.75964,-12.37729 l -5.0808,-7.17098 h 7.81405 7.81404 l 4.96032,7.02915 4.96028,7.02911 -3.76806,5.34818 c -2.07242,2.9415 -3.87908,5.34813 -4.01469,5.34813 -0.13562,0 -1.90213,-2.34282 -3.9255,-5.2063 z m 19.97256,-6.52381 c -4.56725,-6.44742 -8.44206,-12.01548 -8.61068,-12.37349 -0.27737,-0.58916 0.42144,-0.65097 7.35994,-0.65097 h 7.66651 l 4.95516,7.07116 4.95522,7.07115 -3.76062,5.30613 c -2.06831,2.91838 -3.87323,5.30446 -4.01092,5.30236 -0.13777,-9.9e-4 -3.98731,-5.27892 -8.55461,-11.72634 z m 78.32111,6.40296 -3.76017,-5.33894 3.76017,-5.32488 3.76022,-5.32483 0.13439,5.35336 c 0.0736,2.94434 0.0736,7.74307 0,10.66378 l -0.13439,5.31046 z M 89.398747,188.71431 c -0.527956,-0.29701 -7.442868,-10.00862 -7.442868,-10.45335 0,-0.13643 7.811698,-0.24783 17.359325,-0.24783 9.547636,0 17.359326,0.11137 17.359326,0.24783 0,0.44459 -6.91485,10.15657 -7.44287,10.45335 -0.28248,0.15872 -4.74482,0.28868 -9.916456,0.28868 -5.171631,0 -9.634027,-0.12993 -9.916457,-0.28868 z m 29.204623,0.0761 c 0,-0.1234 1.15034,-1.84764 2.55629,-3.83106 1.40594,-1.98343 5.34363,-7.54338 8.75034,-12.35543 l 6.19406,-8.74913 1.05403,1.28349 c 1.73758,2.11589 6.51989,9.16105 6.51989,9.60496 0,0.56261 -9.19589,13.60971 -9.84727,13.97124 -0.60678,0.33692 -15.22734,0.4098 -15.22734,0.0761 z m 118.35843,-0.0761 c -0.27735,-0.15872 -2.15691,-2.63148 -4.17625,-5.49496 l -3.67149,-5.20636 h 17.74759 17.74757 l -3.64398,5.20636 c -2.00418,2.86348 -3.87994,5.3362 -4.16834,5.49496 -0.28819,0.15872 -4.75571,0.28868 -9.92735,0.28868 -5.17163,0 -9.6301,-0.12993 -9.90775,-0.28868 z m 29.19711,0.004 c 6.9e-4,-0.16197 0.77895,-1.34563 1.72944,-2.63014 0.95049,-1.2845 4.77883,-6.67747 8.50745,-11.98433 3.72866,-5.30691 6.93177,-9.79003 7.1181,-9.9625 0.34344,-0.31835 7.71836,9.82699 7.71836,10.61806 0,0.51005 -8.48425,12.56915 -9.54444,13.56596 -0.63718,0.59915 -1.6837,0.68765 -8.13074,0.68765 -4.06965,0 -7.39885,-0.13276 -7.39817,-0.2947 z M 9.4431487,180.37545 c -2.0214964,-2.83963 -3.6754167,-5.3822 -3.6754167,-5.65006 0,-0.26778 2.1380222,-3.48388 4.751148,-7.14662 l 4.751091,-6.65961 7.839149,-0.1081 7.83915,-0.10811 -1.188043,1.67988 c -12.596847,17.81218 -15.981973,22.55873 -16.28223,22.83048 -0.197629,0.17868 -2.013409,-1.99809 -4.0348483,-4.83776 z m 147.5569213,0.003 c -2.02294,-2.80427 -3.6723,-5.32395 -3.66523,-5.59926 0.006,-0.27521 2.1317,-3.50652 4.72148,-7.1804 l 4.70865,-6.67984 7.81581,-0.1081 c 7.39149,-0.10215 8.43049,0.0279 7.36906,0.91347 -0.24547,0.20513 -3.25436,4.35168 -6.68586,9.21418 -8.64764,12.25407 -10.28927,14.53842 -10.44794,14.53842 -0.0757,0 -1.79306,-2.29437 -3.81597,-5.09863 z M 32.783928,171.2332 c 0.0056,-0.2701 1.595315,-2.70138 3.529445,-5.40275 l 3.516573,-4.91166 h 10.309949 10.309949 l 3.49482,4.91166 c 1.922168,2.70137 3.50615,5.13265 3.519991,5.40275 0.02278,0.38427 -3.75481,0.4912 -17.334213,0.4912 -13.572798,0 -17.356538,-0.10726 -17.346514,-0.4912 z m 44.492393,0.1782 c -0.319509,-0.16566 -2.766501,-3.36115 -5.437834,-7.10155 l -4.857023,-6.80073 1.369097,-2.02802 c 3.543911,-5.24946 6.152936,-8.8846 6.372262,-8.87841 0.330899,0.01 17.079917,23.79333 17.274128,24.53018 0.133268,0.50595 -0.877249,0.59056 -6.991915,0.5854 -3.931362,-0.003 -7.409266,-0.14154 -7.728715,-0.30677 z m 24.374479,-0.1782 c -0.40778,-0.2701 -1.794657,-1.99409 -3.081225,-3.83107 -1.286572,-1.83691 -3.38672,-4.8147 -4.666971,-6.61723 l -2.327676,-3.27735 1.368585,-2.02719 c 3.54357,-5.24896 6.152367,-8.88376 6.371691,-8.87757 0.362223,0.01 17.359326,24.18048 17.359326,24.68527 0,0.64885 -14.0381,0.59761 -15.02373,-0.0548 z m 78.68747,0 c 0.006,-0.2701 1.59527,-2.70138 3.5294,-5.40275 l 3.51662,-4.91166 h 10.30051 10.30048 l 3.51658,4.91166 c 1.93413,2.70137 3.52238,5.13265 3.52944,5.40275 0.0107,0.38427 -3.77371,0.4912 -17.3465,0.4912 -13.57286,0 -17.35654,-0.10726 -17.34653,-0.4912 z m 43.69273,-0.39308 c -0.77354,-1.00651 -5.61161,-7.8544 -7.42602,-10.5109 -0.66424,-0.9725 -1.40852,-1.97573 -1.65398,-2.2294 -0.50688,-0.52401 0.0512,-1.48723 4.33032,-7.49914 2.09138,-2.937 2.99898,-3.89682 3.34384,-3.53637 0.49378,0.51607 6.35535,8.69655 13.08306,18.25888 2.16057,3.07089 3.92828,5.76735 3.92828,5.9922 0,0.26546 -2.61586,0.40887 -7.46309,0.40887 -7.21663,0 -7.48547,-0.0279 -8.14241,-0.8841 z m 25.17586,0.39308 c -0.40722,-0.2701 -2.83957,-3.47125 -5.40543,-7.11366 l -4.66514,-6.62247 1.36505,-2.02196 c 3.5008,-5.18536 6.14849,-8.87967 6.36821,-8.88538 0.13271,-0.003 0.7969,0.83216 1.47618,1.85688 0.67927,1.0247 4.53085,6.49053 8.55909,12.1463 4.02824,5.65579 7.32407,10.47409 7.32407,10.70735 0,0.63757 -14.05463,0.57488 -15.02203,-0.0669 z M 0.95171434,157.34971 l 0.005693,-10.96929 3.86518436,5.54407 3.8652414,5.54413 -3.6943248,5.26147 c -2.0318616,2.8938 -3.7739454,5.33515 -3.8712214,5.42517 -0.09739,0.09 -0.17427682,-4.77247 -0.1708597,-10.80555 z M 123.11486,167.17445 c -0.48468,-0.60288 -4.50773,-6.23542 -8.93989,-12.51679 l -8.05847,-11.4207 6.84617,-0.11278 c 3.76541,-0.0623 7.31193,-0.0186 7.88107,0.0957 0.72939,0.14666 2.31116,2.03588 5.35861,6.39967 2.37808,3.40526 4.56981,6.57653 4.87052,7.04721 0.4767,0.74659 0.0603,1.54158 -3.26495,6.22991 l -3.81172,5.37411 z m 22.77079,-2.43558 c -1.30526,-1.8849 -5.15688,-7.3369 -8.5591,-12.1155 -3.40221,-4.7786 -6.18585,-8.88961 -6.18585,-9.13562 0,-0.51221 13.8251,-0.64239 14.79598,-0.13928 0.53422,0.2766 7.33387,9.53254 9.34885,12.72563 l 0.91007,1.44216 -3.72725,5.33165 c -2.04997,2.93241 -3.83573,5.3286 -3.96833,5.32489 -0.13269,-0.004 -1.30906,-1.54896 -2.61437,-3.4339 z m 118.1021,-6.831 c -3.97819,-5.64658 -7.96114,-11.30617 -8.85104,-12.57685 l -1.61799,-2.31037 7.87026,0.1081 7.87018,0.10811 4.96267,7.04541 4.96272,7.04534 -3.01748,4.45114 c -1.65956,2.44816 -3.45141,4.88863 -3.98182,5.42335 l -0.96445,0.97213 z m 28.86808,5.95507 c -3.38154,-4.71427 -9.5977,-13.48252 -12.31585,-17.37225 -1.01478,-1.45213 -1.84498,-2.82245 -1.84498,-3.04522 0,-0.25989 2.56004,-0.40514 7.14083,-0.40514 10.67646,0 10.2771,-0.55483 10.10556,14.04007 l -0.12813,10.90524 z M 45.543319,154.04292 c -0.512579,-0.1485 -0.138389,-0.95992 1.541097,-3.33992 11.016509,-15.61231 15.296825,-21.40982 15.608644,-21.14106 0.747681,0.64439 7.207483,10.04291 7.200136,10.47567 -0.0041,0.24689 -2.127488,3.45515 -4.718515,7.12903 l -4.710883,6.67978 -7.121766,0.19632 c -3.916899,0.10811 -7.426353,0.10811 -7.798713,0 z m -33.536538,-4.78303 c -1.916531,-2.63915 -3.5871951,-5.11809 -3.7125491,-5.50872 -0.2169915,-0.67539 0.6271688,-0.71028 17.1876141,-0.71028 13.61779,0 17.412752,0.10724 17.402727,0.49113 -0.0056,0.27011 -1.595088,2.70143 -3.528988,5.4028 l -3.516233,4.9116 -10.174002,0.10584 -10.173944,0.10584 z m 150.306159,3.89894 c -2.38098,-3.11669 -6.57987,-9.28314 -6.57987,-9.66323 0,-0.336 4.54864,-0.45481 17.41554,-0.45481 16.56046,0 17.40439,0.0371 17.18763,0.71029 -0.12523,0.39076 -1.79345,2.86609 -3.70696,5.50099 l -3.47899,4.79076 h -10.081 c -9.93269,0 -10.09086,-0.0142 -10.75635,-0.88408 z m 30.2144,0.59929 c 0.12017,-0.16754 1.51576,-2.16119 3.10104,-4.43034 8.13486,-11.64388 13.91344,-19.63028 14.27612,-19.73066 0.44481,-0.12341 7.55062,9.71122 7.55062,10.45038 0,0.25154 -2.1219,3.45956 -4.71538,7.12837 l -4.71533,6.67055 -7.85788,0.10811 c -4.32184,0.0594 -7.75948,-0.0277 -7.63919,-0.1963 z M 83.217505,145.66327 c -2.01996,-2.91603 -3.672626,-5.48198 -3.672626,-5.70205 0,-0.53936 9.219182,-13.54321 9.860532,-13.90855 0.58058,-0.33042 15.214079,-0.41257 15.214079,-0.0854 0,0.11831 -2.53317,3.78739 -5.6292,8.15326 -3.096089,4.3659 -6.927102,9.79455 -8.513477,12.06371 -1.586316,2.26918 -3.042266,4.27316 -3.235453,4.45333 -0.19307,0.18006 -2.003898,-2.0583 -4.023855,-4.97436 z m 147.558215,0.004 c -2.02211,-2.87742 -3.67654,-5.42294 -3.67654,-5.6567 0,-0.56364 9.19417,-13.58745 9.85392,-13.95839 0.56269,-0.31606 15.22068,-0.42001 15.22068,-0.10768 0,0.10625 -2.78142,4.12868 -6.1809,8.93917 -3.39954,4.81048 -7.33233,10.38193 -8.73963,12.38095 -1.40727,1.99903 -2.61319,3.63456 -2.67982,3.63456 -0.0667,0 -1.77559,-2.35424 -3.79771,-5.23168 z M 2.4168348,135.70783 c -0.5552935,-0.57537 -1.1203259,-1.41528 -1.255362,-1.86642 -0.1349787,-0.4511 -0.1845283,-5.54648 -0.1099199,-11.32302 l 0.1355491,-10.50273 4.6526758,6.57347 c 2.5589634,3.6154 6.5031422,9.18151 8.7648662,12.36916 l 4.112134,5.7957 H 11.071896 3.4270133 Z m 25.1592942,0.55502 c -0.484672,-0.48466 -8.10028,-11.03723 -9.229547,-12.78867 -0.522261,-0.80988 -0.19535,-1.44466 3.184253,-6.18317 2.071385,-2.90431 3.874638,-5.28083 4.007226,-5.28109 0.244328,-5.7e-4 1.185023,1.29767 11.835381,16.33406 l 5.956848,8.41001 h -7.631556 c -5.521895,0 -7.767274,-0.13545 -8.122605,-0.49114 z m 82.217671,-4.71517 c 2.01585,-2.86347 3.90049,-5.33619 4.18805,-5.49501 0.28761,-0.15872 4.7541,-0.28866 9.92579,-0.28866 5.17164,0 9.6301,0.12992 9.9077,0.28866 0.27736,0.15872 2.15693,2.63154 4.17626,5.49501 l 3.67148,5.20631 h -17.76722 -17.76735 z m 40.7488,4.71517 c -0.47499,-0.47978 -8.07311,-11.00641 -9.22505,-12.781 -0.51998,-0.80079 -0.18681,-1.45117 3.17098,-6.18865 2.06347,-2.91156 3.87835,-5.29379 4.03303,-5.29379 0.15491,0 1.04167,1.10514 1.97114,2.45583 0.92948,1.35068 3.82389,5.46175 6.43201,9.13562 2.60818,3.67388 5.77596,8.13857 7.03964,9.92146 l 2.29755,3.24167 h -7.6164 c -5.51216,0 -7.75081,-0.13545 -8.1029,-0.49114 z m 24.09478,-0.5894 c -0.51259,-0.59432 -2.82396,-3.77807 -5.13667,-7.075 l -4.20491,-5.99448 3.77771,-5.29675 c 2.07776,-2.91323 3.88626,-5.29847 4.0189,-5.30057 0.13272,-9.9e-4 2.33662,2.95718 4.89781,6.57611 2.56119,3.61888 6.50901,9.18788 8.77295,12.37553 l 4.11618,5.7957 h -7.65515 -7.65512 z m 82.74055,-4.12577 c 2.01933,-2.86347 3.89867,-5.33619 4.17626,-5.49501 0.27736,-0.15872 4.73611,-0.28866 9.90775,-0.28866 5.17163,0 9.63818,0.12992 9.92574,0.28866 0.28762,0.15872 2.17214,2.63154 4.18806,5.49501 l 3.66527,5.20631 H 271.47373 253.70645 Z M 41.694252,121.72443 c -4.478456,-6.32124 -8.455269,-11.89551 -8.837424,-12.38726 l -0.694885,-0.89408 7.898209,0.10811 7.898152,0.1081 4.998895,6.98837 4.998895,6.9884 -2.319476,3.2278 c -1.275694,1.77528 -2.944308,4.15606 -3.707936,5.29062 -0.763629,1.13462 -1.546735,2.06289 -1.740147,2.06289 -0.193642,0 -4.015883,-5.17191 -8.494283,-11.49319 z m 24.58327,0 c -4.462452,-6.32124 -8.430721,-11.89551 -8.818345,-12.38726 l -0.704853,-0.89408 7.878618,0.10811 7.878618,0.1081 4.95185,6.87624 c 2.777664,3.85715 4.838174,7.13507 4.692944,7.46567 -0.471574,1.07327 -7.146827,10.21617 -7.458989,10.21617 -0.168581,0 -3.95739,-5.17191 -8.419843,-11.49319 z m 122.944538,0 c -4.45168,-6.32124 -8.41164,-11.89551 -8.79989,-12.38726 l -0.70588,-0.89408 7.87992,0.10811 7.87988,0.1081 5.01046,6.99088 5.01045,6.99091 -3.71619,5.28817 c -2.04394,2.90845 -3.88466,5.28812 -4.0905,5.28812 -0.2056,0 -4.0165,-5.17191 -8.46825,-11.49319 z m 26.55772,2.75052 c -3.41166,-4.80849 -7.34257,-10.33404 -8.73531,-12.27904 l -2.53224,-3.53637 7.29507,-0.10909 c 4.01224,-0.06 7.54004,-0.0324 7.83949,0.0612 0.29958,0.0938 2.76816,3.28265 5.48595,7.0867 l 4.94149,6.91648 -3.74485,5.30126 c -2.05969,2.91568 -3.88026,5.3012 -4.04571,5.3012 -0.16574,0 -3.09221,-3.93418 -6.50389,-8.74267 z m 76.25456,3.51521 -3.77891,-5.41803 3.77891,-5.26839 3.77885,-5.26836 0.13439,5.28659 c 0.0736,2.90762 0.0736,7.71648 0,10.68638 l -0.13439,5.39978 z m -206.600275,-13.92787 -3.854761,-5.40275 8.86795,-0.10668 c 4.877357,-0.059 12.858546,-0.059 17.735906,0 l 8.868,0.10668 -3.85476,5.40275 -3.85476,5.4028 H 99.315204 89.288828 Z m 33.169305,5.275 c 0,-0.11688 17.33261,-24.717593 17.54755,-24.905493 0.20219,-0.176819 7.52706,10.435383 7.52706,10.905283 0,0.40932 -3.98918,6.23839 -8.79472,12.85098 l -0.92799,1.27703 h -7.67598 c -4.22171,0 -7.67592,-0.0575 -7.67592,-0.12766 z m 114.3732,-5.26724 -3.85209,-5.41051 8.87252,-0.10668 c 4.87991,-0.059 12.85992,-0.059 17.73333,0 l 8.86071,0.10668 -3.75439,5.30455 -3.75447,5.30456 -10.12679,0.10584 -10.12679,0.10583 z m 33.1811,5.17312 c 0,-0.12212 1.49462,-2.28806 3.32134,-4.81336 1.82677,-2.52534 5.75147,-8.03944 8.72157,-12.2536 2.97012,-4.21418 5.44724,-7.701115 5.50476,-7.748734 0.19022,-0.157792 7.52692,10.474054 7.52692,10.907704 0,0.2339 -2.18979,3.5088 -4.86618,7.27758 l -4.86625,6.85233 h -7.67109 c -4.21908,0 -7.67107,-0.0997 -7.67107,-0.22183 z M 9.4969695,111.01383 c -2.0510551,-2.89032 -3.7292375,-5.46661 -3.7292375,-5.72515 0,-0.2585 2.1872298,-3.54008 4.860555,-7.292306 l 4.860556,-6.822213 h 7.676718 c 4.222225,0 7.676775,0.07566 7.676775,0.168461 0,0.09237 -0.741302,1.197727 -1.647313,2.455826 -0.906011,1.258155 -4.834072,6.796372 -8.729044,12.307212 -3.89497,5.51084 -7.117324,10.05205 -7.160779,10.09159 -0.04556,0.0418 -1.757119,-2.29293 -3.8082305,-5.18324 z m 147.5362905,0 c -2.0412,-2.90651 -3.71123,-5.48945 -3.71123,-5.73988 0,-0.2506 2.18728,-3.52535 4.86055,-7.277576 l 4.86056,-6.822213 h 7.67672 c 4.22222,0 7.67677,0.07792 7.67677,0.173561 0,0.148045 -17.27726,24.619998 -17.55399,24.863908 -0.0512,0.0477 -1.76824,-2.29144 -3.80938,-5.19794 z M 33.277712,100.70272 c 0.596243,-0.810435 2.323689,-3.241665 3.838758,-5.402806 l 2.754711,-3.92931 h 10.245592 10.24565 l 2.636019,3.732868 c 1.449858,2.053036 3.171154,4.484266 3.825146,5.402748 l 1.18907,1.66999 H 50.103161 32.193665 Z m 42.732083,0 c -0.624889,-0.810435 -2.915091,-3.998873 -5.089394,-7.085498 l -3.953177,-5.612017 3.692161,-5.291787 c 2.030723,-2.910486 3.845308,-5.291786 4.032399,-5.291786 0.186806,0 4.001019,5.171922 8.47526,11.493203 4.474298,6.321223 8.44405,11.891005 8.821649,12.377275 l 0.686571,0.8841 h -7.764656 -7.764654 z m 24.592375,0 c -0.624888,-0.810435 -2.917078,-4.001707 -5.093771,-7.09176 l -3.95762,-5.618238 3.687776,-5.285566 c 2.028274,-2.907057 3.856755,-5.285524 4.063377,-5.285524 0.206747,0 1.522018,1.635554 2.923178,3.634568 3.58549,5.115434 12.94387,18.31356 14.07,19.84297 l 0.9403,1.27704 h -7.74854 -7.74853 z m 79.82046,0.58939 c 0.37988,-0.48627 2.16216,-2.961734 3.96115,-5.501039 l 3.27081,-4.61691 h 10.03021 10.03012 l 3.27089,4.61691 c 1.79898,2.539305 3.58151,5.014769 3.96116,5.501039 l 0.69027,0.8841 H 197.6848 179.7323 Z m 43.11622,-0.58939 c -0.63964,-0.810435 -2.93024,-3.998873 -5.09018,-7.085498 l -3.92715,-5.612017 3.69215,-5.291787 c 2.03073,-2.910486 3.86832,-5.291786 4.08356,-5.291786 0.21528,0 1.09406,1.016685 1.95297,2.259326 2.14327,3.10078 13.84111,19.643506 15.00404,21.218212 l 0.94309,1.27704 h -7.74775 -7.74774 z m 25.38319,0.98228 c -0.26198,-0.27008 -2.57793,-3.455048 -5.14634,-7.077644 l -4.66978,-6.58651 3.07285,-4.415493 c 3.9406,-5.662542 4.369,-6.206419 4.79416,-6.086541 0.19364,0.05483 3.73755,4.873369 7.87532,10.708381 4.13775,5.834997 8.05875,11.360545 8.71332,12.279027 l 1.19015,1.66999 h -7.67656 c -5.56556,0 -7.80759,-0.13502 -8.15312,-0.49121 z M 0.94567717,88.096221 c 0,-5.871026 0.083721,-10.674589 0.18566743,-10.674589 0.1019462,0 1.8461373,2.379855 3.8756068,5.28864 L 8.6969479,87.998899 5.0005158,93.22112 C 2.9674581,96.093379 1.2234379,98.517043 1.124852,98.607069 1.0263235,98.697035 0.94544937,93.967234 0.94544937,88.096221 Z M 122.76186,97.36029 c -12.05636,-16.985186 -16.2136,-22.943774 -16.2136,-23.238841 0,-0.129923 3.4267,-0.236227 7.61492,-0.236227 h 7.61493 l 4.94229,7.05273 4.94228,7.052787 -3.73927,5.324501 c -2.05663,2.928507 -3.85572,5.323438 -3.99811,5.322049 -0.14238,-0.0014 -0.6659,-0.576039 -1.16344,-1.277041 z m 16.92421,-10.837708 c -4.69995,-6.664521 -8.54537,-12.234302 -8.54537,-12.377289 0,-0.142943 3.41759,-0.258953 7.5947,-0.257564 l 7.59471,0.0029 0.90602,1.274533 c 0.49834,0.701003 2.73483,3.875471 4.97012,7.054445 l 4.06418,5.779911 -3.76466,5.317275 c -2.07059,2.924512 -3.87937,5.318664 -4.01952,5.320378 -0.14011,0.0014 -4.10023,-5.44972 -8.80018,-12.114198 z m 127.83768,6.910906 c -2.01393,-2.863476 -5.95236,-8.433257 -8.75201,-12.377288 l -5.09035,-7.170937 7.80531,0.0028 7.80532,0.0028 0.7569,1.078035 c 0.41634,0.592969 2.65432,3.755835 4.97333,7.028645 l 4.21636,5.950567 -2.85602,4.069137 c -4.387,6.25041 -4.66122,6.618062 -4.93836,6.620712 -0.14235,0.0014 -1.90657,-2.340355 -3.92048,-5.203844 z m 27.51458,4.149244 c -0.42601,-0.607208 -4.15587,-5.878112 -8.28827,-11.713123 -4.13236,-5.835011 -7.6585,-10.918552 -7.83584,-11.296746 -0.29845,-0.637004 0.2409,-0.6876 7.33395,-0.6876 h 7.65635 l 1.09879,1.669943 c 1.07825,1.6386 1.09612,1.871215 0.95437,12.400764 -0.13563,10.084127 -0.19138,10.664289 -0.91935,9.626762 z M 15.602293,84.586589 C 15.069781,84.297925 9.0086527,75.872871 8.3983993,74.572863 c -0.3035605,-0.64712 0.7141361,-0.6876 17.2853457,-0.6876 h 17.608158 l -3.871108,5.50101 -3.87105,5.500995 -9.707328,-0.0043 c -5.339018,-0.0028 -9.9471,-0.13599 -10.240124,-0.294661 z m 29.223928,0.09237 c 0,-0.23576 1.00437,-1.681403 10.364739,-14.919243 3.6675,-5.186672 6.826009,-9.578689 7.018966,-9.76 0.350832,-0.329511 7.690901,9.807095 7.690901,10.621019 0,0.55779 -9.201868,13.586294 -9.864007,13.96606 -0.568962,0.326252 -15.210599,0.414889 -15.210599,0.09237 z M 159.20968,79.38648 155.33856,73.885471 h 17.60817 c 16.57121,0 17.58919,0.0418 17.28534,0.6876 -0.61031,1.300008 -6.67144,9.725245 -7.2039,10.013726 -0.29331,0.158712 -4.90109,0.291441 -10.24012,0.294699 l -9.70732,0.0043 z m 33.17084,5.268437 c 0,-0.12808 2.78057,-4.150491 6.17902,-8.939162 3.39845,-4.788615 7.3313,-10.34216 8.73964,-12.341173 1.40829,-1.999027 2.62502,-3.634582 2.70385,-3.634582 0.28077,0 7.45209,10.483063 7.45209,10.893404 0,0.549119 -9.21115,13.578954 -9.864,13.953393 -0.59578,0.341568 -15.2106,0.406997 -15.2106,0.06815 z M 84.800747,78.503591 c -1.110816,-1.566811 -2.747878,-3.874918 -3.637772,-5.129121 -0.889949,-1.254245 -1.61633,-2.491984 -1.614224,-2.750526 0.0021,-0.258499 2.129423,-3.476025 4.727229,-7.149911 l 4.723242,-6.679793 7.810955,-0.196301 c 4.296043,-0.108104 7.810553,-0.125247 7.810103,-0.03712 -0.002,0.336 -17.390197,24.793185 -17.627178,24.793185 -0.09512,0 -1.081484,-1.281902 -2.192355,-2.848727 z m 147.582033,0.03712 c -1.12607,-1.588077 -2.77557,-3.913584 -3.6655,-5.167786 -0.88996,-1.254245 -1.61452,-2.491984 -1.61019,-2.750526 0.005,-0.2585 2.14035,-3.476039 4.74664,-7.149911 l 4.73868,-6.679793 7.8436,-0.108104 7.84359,-0.108103 -1.44758,2.072815 c -0.79621,1.140034 -3.02052,4.283035 -4.94291,6.984468 -1.9224,2.701376 -5.11319,7.210238 -7.09073,10.019704 -1.97753,2.80941 -3.76933,5.258095 -3.98183,5.44146 -0.21244,0.183309 -1.30769,-0.966005 -2.43377,-2.554083 z M 3.4643746,67.3345 C 3.1260727,67.223577 2.4205368,66.448871 1.897194,65.613001 1.0170966,64.207227 0.94613287,63.273793 0.95148654,53.17371 l 0.005693,-10.919439 1.11007426,1.571735 c 0.6104813,0.864414 3.6826496,5.196463 6.8269207,9.626762 8.6008975,12.118508 9.4107145,13.300919 9.4107145,13.740504 0,0.413968 -13.6126061,0.543536 -14.8406307,0.141115 z M 27.288801,66.714144 C 24.806268,63.49846 18.242985,53.977468 18.162167,53.474533 c -0.09512,-0.591251 6.888943,-11.00664 7.375894,-10.999865 0.197057,0.0027 7.389104,10.061057 16.318337,22.821219 l 1.611149,2.302355 h -7.748083 c -7.511383,0 -7.768982,-0.02791 -8.430663,-0.884098 z m 79.259459,0.420003 c 0,-0.379156 3.55086,-5.575761 6.60184,-9.661616 0.66271,-0.887527 0.71568,-0.891382 10.82173,-0.785885 l 10.15572,0.106263 3.54989,4.911594 c 1.95242,2.701377 3.55878,5.132663 3.56965,5.402809 0.0171,0.384258 -3.76288,0.491143 -17.33945,0.491143 -13.02632,0 -17.35938,-0.116038 -17.35938,-0.464095 z m 44.52177,0.159648 c -0.31038,-0.161036 -2.77304,-3.363119 -5.47256,-7.116076 l -4.90828,-6.82357 1.13274,-1.628957 c 0.62301,-0.895926 2.3262,-3.345348 3.78487,-5.443082 1.45863,-2.09778 2.76059,-3.812965 2.89322,-3.811572 0.32293,0.0034 17.07519,23.811304 17.27414,24.549356 0.1321,0.489188 -0.94674,0.577513 -6.99198,0.572398 -3.93131,-0.0028 -7.40181,-0.137857 -7.71215,-0.298412 z m 24.58983,-0.0013 c -0.54675,-0.283096 -7.39998,-9.596782 -9.32881,-12.677598 l -0.94263,-1.505647 3.69852,-5.230945 c 4.14398,-5.860996 4.07056,-5.771983 4.31513,-5.230993 0.16344,0.361991 3.19814,4.651669 13.2325,18.705992 2.09941,2.940564 3.81716,5.548614 3.81716,5.795738 0,0.512776 -13.82065,0.646851 -14.79187,0.14341 z m 78.46257,-0.185166 c 0.0107,-0.270103 1.61724,-2.701432 3.56965,-5.402808 l 3.5499,-4.911595 10.15573,-0.106262 c 10.10606,-0.105412 10.15901,-0.101587 10.82171,0.785884 3.05099,4.085856 6.60185,9.282403 6.60185,9.661617 0,0.348071 -4.33305,0.464095 -17.35933,0.464095 -13.5766,0 -17.35506,-0.107254 -17.33951,-0.491156 z M 48.897519,62.586662 c -0.7204,-1.067819 -14.501988,-20.646441 -16.454684,-23.376079 -0.116188,-0.16197 3.165344,-0.294699 7.291772,-0.294699 6.530993,0 7.602167,0.0891 8.271425,0.687644 1.123742,1.005078 9.899771,13.512496 9.736885,13.876808 -0.341718,0.764402 -7.397363,10.558289 -7.612475,10.566917 -0.132702,0.0043 -0.687425,-0.651952 -1.232923,-1.460591 z M 65.698764,51.573619 56.91573,39.112381 l 6.854201,-0.11278 c 3.769787,-0.06218 7.31575,-0.01856 7.87987,0.09376 1.368585,0.275205 10.884721,13.721383 10.396689,14.690218 -0.594306,1.179762 -7.075749,10.253099 -7.323667,10.252305 -0.132702,-4.11e-4 -4.193404,-5.608333 -9.024059,-12.462071 z m 129.784956,9.632559 c -1.07794,-1.56212 -4.92953,-7.034303 -8.55908,-12.160318 -3.62959,-5.126062 -6.59918,-9.486282 -6.59918,-9.689414 0,-0.602205 14.08703,-0.567397 14.99185,0.03712 0.41574,0.277527 2.86354,3.476687 5.44011,7.109074 l 4.68467,6.604421 -1.37706,2.040049 c -3.52352,5.219769 -6.16039,8.897309 -6.38023,8.898287 -0.13272,5.95e-4 -1.12307,-1.277041 -2.20108,-2.839162 z m 17.78437,-9.626155 -8.76794,-12.467642 7.22099,-0.108599 c 3.97151,-0.05987 7.54241,0.03712 7.93527,0.217192 0.39298,0.17914 2.88156,3.403127 5.53045,7.164392 l 4.81612,6.838649 -2.73972,3.946208 c -1.50686,2.170407 -3.19092,4.607814 -3.7424,5.416439 -0.5513,0.808639 -1.11109,1.4682 -1.24368,1.465649 -0.13271,-0.0028 -4.18669,-5.615035 -9.00909,-12.472291 z m 78.7589,7.066093 -3.78619,-5.388267 0.84661,-1.178788 c 0.4653,-0.648334 2.22248,-3.123791 3.90414,-5.501048 l 3.05759,-4.322211 0.003,10.903799 c 10e-4,5.997068 -0.0512,10.897301 -0.11789,10.889324 -0.0661,-0.0099 -1.8243,-2.439221 -3.90674,-5.402809 z M 266.1642,49.917931 c 0.0172,-0.4562 17.22169,-24.444558 17.56865,-24.498671 0.44252,-0.06915 7.50135,9.806458 7.49549,10.486536 -0.002,0.250608 -2.12937,3.461973 -4.72718,7.135851 l -4.72323,6.679834 -7.81096,0.196312 c -4.29603,0.108132 -7.80726,0.108132 -7.80277,0 z M 85.899373,45.301023 C 84.069808,42.761708 82.317986,40.28625 82.006338,39.799976 l -0.566684,-0.884092 h 17.87544 17.875486 l -0.56668,0.884092 c -0.31153,0.486274 -2.06347,2.961732 -3.89303,5.501047 l -3.32641,4.616908 H 99.315034 89.225553 Z m 33.237707,3.742655 c 1.34432,-2.069842 16.47529,-23.318769 16.81673,-23.61625 0.38216,-0.332752 7.72417,9.620126 7.72417,10.470803 0,0.258498 -2.13894,3.474457 -4.75315,7.146618 l -4.75314,6.676632 -7.80759,0.108133 -7.80754,0.108132 z m 115.05527,-2.760361 c -1.43391,-1.999023 -3.2031,-4.474479 -3.93159,-5.501001 l -1.3244,-1.866432 h 17.93319 17.93314 l -1.31824,1.866432 c -0.72501,1.026522 -2.48868,3.501978 -3.91923,5.501001 l -2.60095,3.634614 H 246.88192 236.7995 Z M 9.4575577,41.561663 C 7.4281449,38.673862 5.767732,36.052449 5.767732,35.736263 c 0,-0.316046 0.2990041,-0.923587 0.6645866,-1.349852 0.3656394,-0.426499 2.4633955,-3.338943 4.6619594,-6.472527 2.198564,-3.13363 4.232134,-5.827395 4.519064,-5.986161 0.590035,-0.326255 15.228994,-0.414896 15.228994,-0.0919 0,0.114635 -2.026222,3.076454 -4.502718,6.581541 -2.476495,3.505088 -6.303577,8.936754 -8.504589,12.070384 -2.201013,3.13363 -4.156159,5.838579 -4.344789,6.011034 -0.188513,0.172642 -2.003327,-2.049189 -4.0326823,-4.93699 z M 156.95923,41.486942 c -2.04371,-2.908223 -3.64392,-5.524996 -3.55599,-5.815006 0.0877,-0.290056 2.30433,-3.56876 4.92532,-7.286076 l 4.76538,-6.758731 h 7.65138 c 4.20821,0 7.65131,0.08725 7.65131,0.193989 0,0.106744 -2.84635,4.217838 -6.32522,9.135616 -3.47886,4.917777 -7.40915,10.488531 -8.734,12.379512 -1.32479,1.890984 -2.46579,3.438167 -2.53549,3.438167 -0.0694,0 -1.79894,-2.379483 -3.84269,-5.287704 z M 36.028323,27.42283 c 2.031064,-2.863484 3.91929,-5.336203 4.196025,-5.494967 0.276792,-0.158719 4.73446,-0.288665 9.906094,-0.288665 5.171634,0 9.629415,0.129951 9.90615,0.288665 0.276794,0.158719 2.164906,2.631483 4.196027,5.494967 l 3.692901,5.206349 H 50.130442 32.335422 Z m 35.87828,-1.869588 -4.986194,-7.066004 3.780666,-5.300838 c 2.079362,-2.915462 3.897078,-5.3032987 4.039405,-5.3063152 0.142381,-0.00297 2.341686,2.9562082 4.88755,6.5760642 2.545808,3.619857 6.490726,9.189637 8.766461,12.377286 l 4.137593,5.795744 -7.819673,-0.0047 -7.819671,-0.0047 z m 24.592268,0.03713 -4.957717,-7.039275 3.748772,-5.338058 c 2.06182,-2.935927 3.873215,-5.3380116 4.025228,-5.3380116 0.152051,0 2.357576,2.9616856 4.901216,6.5815426 2.54364,3.619857 6.48486,9.189634 8.75831,12.377285 l 4.13356,5.795744 h -7.82582 -7.82583 z m 87.083749,1.832878 c 2.03112,-2.863484 3.91935,-5.336202 4.19602,-5.494968 0.2768,-0.158718 4.73452,-0.288664 9.90616,-0.288664 5.17163,0 9.62936,0.129952 9.90609,0.288664 0.27679,0.158719 2.16496,2.631484 4.19602,5.494968 l 3.69289,5.206349 h -17.795 -17.79509 z m 37.8939,0.981458 c -1.63382,-2.322726 -3.87714,-5.492508 -4.98516,-7.044007 l -2.01461,-2.82088 3.01659,-4.251856 c 1.65916,-2.338503 3.36,-4.7369677 3.77964,-5.3299361 0.41974,-0.5929216 0.87348,-1.0791958 1.00847,-1.0805419 0.13501,-0.00134 4.18064,5.56732 8.99041,12.374827 l 8.74502,12.377285 -7.78492,-8.81e-4 -7.78487,-8.81e-4 z m 26.80598,3.141844 c -0.41632,-0.592968 -2.65771,-3.760663 -4.98089,-7.039367 l -4.22393,-5.961285 3.77537,-5.33235 c 2.07646,-2.932818 3.88386,-5.3321638 4.0165,-5.3318394 0.24092,5.568e-4 0.68174,0.6066592 7.71647,10.6024184 2.05329,2.917504 5.16407,7.293734 6.91286,9.725011 l 3.17966,4.420459 -7.81956,-0.0026 -7.8195,-0.0026 z M 0.94567717,18.484127 c 0,-9.0422868 0.10251503,-10.6588054 0.63411673,-10.00894 0.3485535,0.4264984 2.1021989,2.853458 3.8966226,5.39375 l 3.2625629,4.618672 -3.2418319,4.615192 C 3.7141144,25.64114 1.9606399,28.066709 1.600468,28.493022 1.0417572,29.154443 0.94567717,27.686897 0.94567717,18.484127 Z M 114.86753,16.814146 106.14047,4.5351073 113.43663,4.4260401 c 4.01287,-0.059861 7.54117,-0.032488 7.84063,0.061264 0.29958,0.093752 2.76816,3.2826485 5.48596,7.0867039 l 4.94154,6.916474 -3.74489,5.301257 c -2.05972,2.915693 -3.88449,5.301256 -4.05513,5.301256 -0.17029,0 -4.23737,-5.525598 -9.03721,-12.279085 z m 29.60351,7.072734 c -2.01175,-2.863482 -5.91094,-8.389033 -8.66485,-12.279039 l -5.00716,-7.0727337 7.49454,-0.1085997 c 5.59479,-0.081213 7.64289,0.01856 8.07999,0.3930841 0.3218,0.2756703 2.68672,3.4773812 5.25491,7.1145493 l 4.66942,6.613007 -3.25231,4.58549 c -4.14688,5.846608 -4.23504,5.960728 -4.6061,5.960728 -0.17085,0 -1.95673,-2.342866 -3.96844,-5.20635 z m 121.89137,-1.547045 c -2.63208,-3.714391 -6.54951,-9.239943 -8.7053,-12.279084 l -3.91962,-5.5256437 7.27479,-0.1090672 c 4.00114,-0.059861 7.52453,-0.032488 7.82976,0.064509 0.30527,0.095607 2.76587,3.2868252 5.46813,7.0919949 l 4.91318,6.918471 -3.69506,5.295966 c -2.03233,2.912769 -3.84925,5.295964 -4.03764,5.295964 -0.18852,0 -2.49616,-3.039049 -5.12824,-6.753393 z m 28.88205,6.023706 c -0.31269,-0.4084 -3.98218,-5.583284 -8.15418,-11.499692 -4.17192,-5.916361 -7.90105,-11.1548721 -8.2869,-11.6410982 l -0.70156,-0.8841387 h 7.76392 7.76386 l 1.22012,1.5023988 1.22015,1.5023989 -0.12813,10.8813842 c -0.10077,8.548542 -0.25003,10.722154 -0.69705,10.138747 z M 11.656918,9.9379061 7.8021565,4.5351073 16.670108,4.4283665 c 4.877413,-0.05894 12.870679,-0.05894 17.762842,0 L 43.32784,4.5351102 39.436686,9.937909 35.54553,15.340663 H 25.528605 15.51168 Z m 33.249665,5.0699079 c 0.08829,-0.182851 2.303926,-3.365768 4.923374,-7.0727351 l 4.762652,-6.7398896 h 7.654109 c 4.209752,0 7.654109,0.099319 7.654109,0.2204438 0,0.1211245 -2.189794,3.3039505 -4.866252,7.0727345 l -4.866192,6.8523374 h -7.71129 c -4.241189,0 -7.638903,-0.149901 -7.55051,-0.332753 z M 159.19379,9.9379061 155.30263,4.5351073 164.19752,4.4283636 c 4.89217,-0.05894 12.88543,-0.05894 17.76284,0 l 8.86795,0.1067437 -3.85476,5.4027988 -3.85475,5.4027539 h -10.01694 -10.01692 z m 33.18673,5.1895489 c 0,-0.117412 2.22419,-3.299866 4.94262,-7.0724546 l 4.94256,-6.8593464 7.59472,-2.324e-4 c 4.17705,-1.388e-4 7.5947,0.1174124 7.5947,0.2612825 0,0.1438687 -1.59173,2.4867808 -3.53719,5.2063036 -1.94547,2.7195681 -4.1245,5.7845123 -4.84239,6.8110803 l -1.30514,1.866386 h -7.69495 c -4.23218,0 -7.69493,-0.09607 -7.69493,-0.213019 z M 83.259991,6.8697594 C 81.216683,3.9696141 79.544879,1.5064092 79.544879,1.3960016 c 0,-0.1104557 3.363371,-0.2009512 7.474137,-0.2009512 4.110823,0 7.474192,0.1188008 7.474192,0.264068 0,0.24968 -5.820842,8.6115176 -6.977219,10.0232336 -0.456195,0.557142 -1.121465,-0.163823 -4.255998,-4.6125926 z M 233.10983,10.133381 c -0.75594,-1.1340508 -2.41714,-3.4764529 -3.69158,-5.2053752 -1.2745,-1.7288742 -2.31765,-3.2760122 -2.31817,-3.4381182 -4.6e-4,-0.1619687 3.36246,-0.2946983 7.47329,-0.2946983 4.11076,0 7.47413,0.1011755 7.47413,0.2246207 0,0.2329728 -5.99643,8.881433 -6.99527,10.088995 -0.50175,0.606799 -0.72786,0.44692 -1.9424,-1.375238 z"
       id="path1" /></g></svg>
