<?xml version="1.0" encoding="UTF-8" standalone="no"?>
<!-- Created with Inkscape (http://www.inkscape.org/) -->

<svg
   width="210mm"
   height="297mm"
   viewBox="0 0 210 297"
   version="1.1"
   id="svg1"
   xml:space="preserve"
   xmlns="http://www.w3.org/2000/svg"
   xmlns:svg="http://www.w3.org/2000/svg"><defs
     id="defs1" /><g
     id="layer1"><path
       style="fill:#cccccc;stroke:none;stroke-width:1.02057"
       d="M 104.72428,0.12930276 C 99.879416,0.83030466 94.956303,3.0027752 90.328144,4.5252792 83.420425,6.7977035 76.388809,8.7640997 69.443604,10.929152 c -4.588029,1.430233 -9.209009,2.768244 -13.787848,4.232198 -2.163812,0.691826 -4.529598,1.066857 -6.488395,2.258093 -5.021414,3.053751 -9.149977,8.223203 -13.382319,12.203373 -4.432609,4.168488 -9.024651,8.197847 -13.382329,12.438275 -2.130779,2.073452 -4.488283,4.039897 -6.148925,6.511128 -3.100083,4.613278 -4.482329,10.543169 -6.7165607,15.587234 -1.8460823,4.167773 -3.3899256,8.470421 -5.2517236,12.627638 -1.3191905,2.945632 -3.32258089,6.414584 -3.52558511,9.668032 -0.1107435,1.77499 0.58322871,3.616382 0.97960781,5.327287 0.8115063,3.502786 1.7279968,6.976539 2.6332752,10.45725 2.0282452,7.79845 3.8250372,15.65633 5.7624414,23.47951 1.187911,4.79676 2.901102,9.6925 3.482237,14.60071 0.354399,2.99323 -0.02491,6.08491 -0.128134,9.07611 -0.226848,6.57557 -0.483043,13.15653 -0.620234,19.73068 -0.06137,2.94239 -1.370688,6.82721 -0.416537,9.66789 0.590172,1.75707 2.752463,2.82525 4.27279,3.72351 2.834216,1.67455 5.673253,3.33527 8.516027,4.99758 1.588498,0.92886 3.328361,1.90532 3.968682,3.70938 1.210561,3.41065 0.789246,8.03901 1.124243,11.6411 0.850147,9.14139 1.87591,18.27177 2.584944,27.42564 0.234599,3.02871 0.576448,6.04731 0.811047,9.07613 0.123355,1.59249 0.01399,3.40604 0.514893,4.93266 0.938702,2.86066 3.720615,5.10023 5.709392,7.30036 4.431313,4.90216 8.870337,9.80649 13.389611,14.62757 6.257667,6.67559 12.438982,13.41932 18.691236,20.09843 1.936424,2.0686 3.908598,4.11691 5.920454,6.1165 0.769965,0.76526 1.507899,1.89389 2.52725,2.35933 1.188462,0.54264 3.083631,0.20566 4.370411,0.20566 h 10.138121 25.142554 c 3.88089,0 8.31543,0.5867 12.13813,-0.048 2.40966,-0.40004 4.11618,-3.80011 5.52242,-5.47664 4.38129,-5.22338 9.12434,-10.10231 13.65746,-15.19263 5.79169,-6.50358 11.90876,-12.71386 17.79081,-19.13875 2.48817,-2.71782 6.13297,-5.50287 7.66731,-8.87881 0.64222,-1.41306 0.512,-3.03537 0.64971,-4.53805 0.31327,-3.41833 0.49829,-6.84413 0.81106,-10.25996 0.91538,-9.9972 1.44837,-19.99603 2.52689,-29.99062 0.27561,-2.55418 0.17547,-5.15672 0.62617,-7.69497 0.35694,-2.01011 1.94779,-3.07308 3.49402,-4.28451 3.30241,-2.58735 7.05486,-4.59517 10.54366,-6.92379 1.68321,-1.12346 3.95918,-2.24841 4.37456,-4.37895 0.56484,-2.89713 -0.37608,-6.19094 -0.67939,-9.07611 -0.55228,-5.25317 -1.02397,-10.52563 -1.50885,-15.78454 -0.28048,-3.04197 -1.02713,-6.42934 -0.70199,-9.47073 0.5693,-5.32546 2.25808,-10.40736 3.55671,-15.58724 2.05802,-8.20896 3.9529,-16.45681 6.03526,-24.66334 0.81697,-3.2196 1.59164,-6.449671 2.40806,-9.668038 0.51502,-2.030245 1.33053,-4.207033 1.31197,-6.313819 -0.025,-2.830821 -1.71731,-5.547739 -2.83338,-8.089575 -1.91827,-4.368855 -3.52746,-8.860866 -5.44733,-13.219562 -2.67292,-6.068285 -4.68398,-13.069288 -8.13213,-18.744139 -3.36022,-5.530155 -9.69301,-10.170095 -14.40158,-14.608658 -4.953,-4.668982 -9.60812,-10.676989 -15.61286,-14.099486 -2.7196,-1.550083 -5.9468,-2.202528 -8.92155,-3.129043 -4.83061,-1.504512 -9.6258,-3.133232 -14.39613,-4.804175 -8.0604,-2.8233992 -16.18931,-5.5550572 -24.3315,-8.1462744 -3.56198,-1.1335995 -7.7205,-3.22391429 -11.55746,-2.66874766 m 1.25336,6.38720456 c 1.10701,-0.4251536 1.7383,0.6892973 2.27424,1.4111827 1.37453,1.8514604 2.51087,3.8538168 3.86081,5.7212218 5.85595,8.100683 11.77573,16.429982 17.10962,24.860658 3.3416,5.281693 6.98399,10.512173 10.65183,15.587234 1.35846,1.879643 4.27833,4.756976 4.50603,7.103052 0.12712,1.309831 -1.03761,2.414072 -1.80441,3.354214 -2.03844,2.499301 -4.22633,4.900877 -6.38739,7.30035 -6.88583,7.645468 -13.57295,15.503279 -20.2957,23.282203 -1.86496,2.157966 -3.66078,4.375228 -5.55357,6.511127 -0.7911,0.89269 -1.6101,2.21186 -2.78006,2.66542 -1.04049,0.4034 -1.83747,-0.42498 -2.4926,-1.10304 -1.52018,-1.57337 -2.8966,-3.291772 -4.36151,-4.916606 C 94.42403,91.32696 88.070539,84.291666 82.209568,76.992355 79.044325,73.050338 75.368621,69.338289 72.00645,65.540611 c -1.191159,-1.345448 -3.562632,-3.005913 -3.678717,-4.93267 -0.09333,-1.549142 1.395431,-2.982607 2.25493,-4.143446 1.993986,-2.693121 3.842632,-5.520179 5.729958,-8.286883 6.984632,-10.238996 14.486548,-20.139623 21.456027,-30.385246 1.84,-2.704925 3.724432,-5.38191 5.570882,-8.089579 0.62609,-0.9181323 1.54131,-2.7650409 2.63811,-3.1862695 m 8.27647,2.1997351 c 1.84591,-0.056936 3.362,1.4538134 4.86631,2.3286154 3.34844,1.947249 6.92466,3.657112 10.34088,5.511175 13.24953,7.190811 26.59064,14.269964 39.74143,21.636042 4.09554,2.294006 8.27027,4.466286 12.36852,6.758223 0.84003,0.46978 3.71314,1.363227 3.42553,2.615203 -0.29654,1.290798 -4.11262,1.886629 -5.25039,2.133499 -5.09132,1.104719 -10.25578,2.952977 -15.20718,4.572815 -3.75753,1.229261 -7.53745,2.517468 -11.35471,3.554653 -1.31799,0.358122 -2.86326,1.307923 -4.25644,0.771955 -1.59532,-0.613743 -2.48319,-2.579483 -3.3294,-3.909693 -1.69188,-2.659503 -3.48662,-5.335907 -5.34367,-7.892277 -5.99828,-8.257089 -11.48866,-16.880038 -17.30972,-25.255267 -1.91624,-2.757046 -3.80473,-5.540969 -5.72277,-8.286887 -1.02115,-1.461905 -2.38881,-2.838742 -2.96839,-4.5380564 M 97.830356,8.913559 c -0.24769,1.728218 -1.419018,2.745459 -2.356617,4.143443 -1.828446,2.726288 -3.710678,5.433019 -5.645192,8.089579 -6.027009,8.276577 -11.888481,16.748226 -17.581157,25.255275 -1.83679,2.744856 -3.811843,5.380939 -5.684956,8.089718 -0.789092,1.141144 -1.57846,2.857555 -2.999469,3.357875 -1.378131,0.485222 -4.105444,-0.64416 -5.474058,-1.060809 -4.055632,-1.234687 -8.255757,-2.19829 -12.368513,-3.268757 -5.106292,-1.329078 -10.342995,-2.34057 -15.409941,-3.816395 -1.048076,-0.305254 -4.334099,-0.660418 -4.739577,-1.74642 -0.388547,-1.040704 2.789981,-2.209979 3.523001,-2.588837 4.248701,-2.195933 8.688081,-4.260807 12.774032,-6.737812 6.707462,-4.066232 13.941734,-7.491231 20.88454,-11.161735 6.645325,-3.513227 13.117535,-7.354567 19.870714,-10.680748 3.499178,-1.723472 6.891064,-3.745795 10.340891,-5.573218 1.559629,-0.826175 3.053151,-2.1421229 4.866302,-2.301159 m -16.626527,2.762296 0.202758,0.197307 c -1.629629,2.631367 -6.4896,3.775467 -9.124304,5.302837 -8.927408,5.175353 -18.264673,10.349599 -27.575695,14.82889 -2.104269,1.012307 -4.349386,2.071453 -6.285636,3.364137 -1.284002,0.857217 -2.814365,2.192078 -4.460773,1.956714 1.663502,-2.886942 5.057899,-5.228123 7.503733,-7.513026 3.156267,-2.948596 6.341421,-6.835914 10.136599,-9.016623 2.618255,-1.50444 6.071594,-1.845005 8.921546,-2.833298 6.648103,-2.305397 13.750698,-4.961476 20.681772,-6.286938 M 177.31323,37.32573 c -3.1912,-0.737929 -6.06193,-3.137903 -8.92154,-4.630568 -7.76306,-4.052185 -15.25349,-8.658861 -23.11493,-12.550972 -2.6113,-1.292828 -5.10166,-2.804807 -7.70497,-4.103053 -1.50919,-0.752617 -3.58317,-1.513183 -4.46076,-2.984145 3.98175,0.267636 8.19871,2.362599 11.96298,3.592878 3.32762,1.08757 6.60282,2.298363 9.93536,3.378637 2.10951,0.683806 4.33208,1.111103 6.28563,2.174566 3.89174,2.118568 7.69973,6.06374 10.49889,9.396958 1.69766,2.021545 4.39808,3.241779 5.51934,5.725699 m 10.93552,14.557617 c 1.18418,-0.01897 1.19306,1.395357 1.11198,2.213456 -0.26782,2.702374 -0.71286,5.381389 -0.92266,8.089585 -0.87532,11.300029 -2.0824,22.700905 -3.51022,33.936764 -0.37957,2.986942 -0.77076,6.079558 -0.91664,9.076118 -0.0383,0.78606 -0.002,2.72114 -1.22492,2.72114 -0.97826,0 -1.58133,-1.66571 -2.01855,-2.32653 -1.63375,-2.46924 -3.48057,-4.81566 -5.1009,-7.300356 -5.62201,-8.620991 -11.70859,-16.996725 -17.57833,-25.452572 -1.54213,-2.221555 -3.03524,-4.47825 -4.57008,-6.708425 -0.48789,-0.708909 -1.58768,-1.599388 -1.41884,-2.544304 0.16195,-0.906452 1.35165,-1.152751 2.09873,-1.403864 2.01382,-0.676861 4.05184,-1.274855 6.08287,-1.900613 6.00049,-1.848768 12.08957,-3.41472 18.04586,-5.399901 2.87348,-0.957708 6.89031,-2.951875 9.9217,-3.000498 M 21.618022,52.273526 c 0.838884,-0.19025 1.990575,0.268331 2.812323,0.448728 2.387792,0.524197 4.772326,1.202058 7.096683,1.933111 6.530946,2.054144 13.576961,3.559569 20.276243,5.025592 2.254501,0.493363 4.463672,1.08334 6.691155,1.682752 0.697352,0.187649 2.111692,0.294626 2.115379,1.244969 0.003,0.776963 -0.779289,1.526621 -1.186779,2.1427 -1.148689,1.736689 -2.353205,3.443228 -3.577949,5.129978 -4.443699,6.119928 -8.849657,12.296701 -13.095886,18.54683 -3.557885,5.236947 -7.488611,10.255763 -10.897744,15.587244 -0.843959,1.31985 -2.696208,5.16392 -4.366205,5.48771 -1.247189,0.24183 -1.132085,-2.02118 -1.185083,-2.72542 -0.234496,-3.116 -0.28732,-6.3876 -0.750257,-9.470728 C 23.84244,85.935576 23.712111,74.324244 21.844073,62.975612 21.401192,60.28502 21.11869,57.594285 20.821077,54.886038 c -0.09517,-0.86604 -0.394071,-2.342416 0.796945,-2.612512 M 188.46517,107.56695 c -0.7711,-3.49921 0.57518,-8.088739 0.97353,-11.641104 0.95866,-8.549104 2.05227,-17.082204 2.83488,-25.649883 0.26971,-2.952588 0.75642,-5.909135 0.8833,-8.878808 0.022,-0.516099 -0.17131,-2.711277 0.91095,-2.390366 1.06527,0.315883 1.29261,2.144241 1.64362,2.982291 1.14946,2.744203 2.17129,5.605277 3.45994,8.286883 1.73992,3.620647 3.10247,7.384746 4.74502,11.049181 0.79857,1.781621 1.9572,3.919159 1.47574,5.919202 -0.3657,1.519134 -1.66895,2.757116 -2.62534,3.946138 -2.26309,2.813553 -4.69052,5.497104 -6.98573,8.28688 -1.47262,1.789956 -3.03297,3.515276 -4.47622,5.327296 -0.80746,1.01378 -1.57061,2.29352 -2.83969,2.76229 m -166.670745,0.39461 c -1.712097,-0.68012 -2.107496,-2.40045 -3.287872,-3.6355 -3.719102,-3.89142 -6.701202,-8.848442 -9.9576431,-13.135576 -1.1693063,-1.539411 -3.3612321,-3.676022 -3.3029042,-5.721893 0.041255,-1.446715 0.9841826,-2.827568 1.5088893,-4.143447 1.2967868,-3.252142 2.7805558,-6.430966 4.121712,-9.668032 1.171726,-2.828149 2.517282,-5.6151 3.569902,-8.484191 0.268389,-0.731543 0.659672,-2.680239 1.542884,-2.938748 0.89187,-0.261038 0.871387,1.87846 0.914887,2.346823 0.268633,2.892388 0.692073,5.795935 1.049485,8.681499 1.090647,8.805155 2.102442,17.61342 3.049087,26.439114 0.238571,2.224228 0.357759,4.497661 0.641219,6.708421 0.167264,1.30453 0.707186,2.26358 0.150354,3.55153 M 65.188357,64.974452 c 1.109896,-0.05681 1.993179,1.351833 2.662807,2.033764 2.246444,2.287672 4.244728,4.79806 6.336846,7.213886 4.018902,4.640756 8.124642,9.290642 12.287791,13.811478 1.950842,2.118444 5.11922,4.736228 6.060688,7.497659 0.495175,1.452373 -0.776961,2.734378 -1.404569,3.946125 -1.959992,3.784246 -3.882232,7.258306 -8.508757,7.664426 -4.123999,0.36202 -8.429792,0.0305 -12.571272,0.0305 -1.786243,0 -4.209397,0.40702 -5.871376,-0.32443 -1.870448,-0.82318 -2.951914,-3.73886 -3.906525,-5.39746 -2.22546,-3.866703 -4.744774,-7.576443 -6.964556,-11.443796 -0.755793,-1.316768 -1.971613,-2.648518 -2.324348,-4.143438 -0.425124,-1.801632 1.256063,-3.361475 2.162505,-4.735371 2.650748,-4.017743 5.584445,-7.867511 8.31429,-11.838405 0.750463,-1.091643 2.21099,-4.237418 3.726476,-4.314979 m 82.112273,1.178924 c 1.17084,-0.224329 2.10794,1.586628 2.6352,2.346832 1.83402,2.644273 5.24319,5.930595 5.98177,9.076107 0.50554,2.153012 -1.47399,4.835128 -2.3837,6.708435 -2.40861,4.959905 -4.99127,9.842737 -7.3981,14.798008 -1.1911,2.452303 -1.72823,4.851473 -4.71152,5.430583 -3.8641,0.75011 -7.85214,0.88818 -11.76023,1.32389 -1.86298,0.20772 -4.04438,0.95494 -5.87023,0.21694 -1.29468,-0.5233 -2.16947,-2.13805 -2.92059,-3.22406 -0.76884,-1.11163 -2.45108,-2.68894 -2.19076,-4.14197 0.32607,-1.819941 2.73764,-3.499467 3.8484,-4.932667 3.73861,-4.823898 8.04221,-9.300587 12.1618,-13.811479 2.99747,-3.28217 5.99693,-6.661199 8.8454,-10.062639 0.91529,-1.092968 2.22841,-3.434038 3.76256,-3.72798 m 12.18544,17.208592 c 0.77292,-0.08476 1.35403,0.803626 1.74683,1.318072 1.12195,1.469318 2.1045,3.035708 3.1788,4.53738 1.2478,1.744208 4.03469,4.564931 4.31171,6.708426 0.13923,1.077421 -1.20736,2.012759 -1.82091,2.762295 -1.56643,1.9136 -3.27326,3.7058 -4.96332,5.51663 -0.82173,0.88045 -1.78683,2.0062 -3.07732,2.1477 -2.39186,0.2623 -5.34345,-0.74145 -7.70497,-1.13882 -0.83648,-0.14076 -2.02188,-0.30535 -2.30177,-1.23521 -0.3515,-1.16769 0.73927,-2.51627 1.221,-3.51453 1.44125,-2.986589 3.01003,-5.983443 4.64053,-8.878809 1.11802,-1.985356 2.08377,-4.055248 3.04371,-6.116511 0.32371,-0.695108 0.80078,-2.005245 1.72571,-2.106623 M 47.539436,89.830194 c 1.277875,-0.257396 2.499404,2.681994 3.030645,3.530663 2.090219,3.339154 4.065037,6.743193 6.189444,10.062643 0.648664,1.01357 2.287943,2.65095 1.996273,3.93653 -0.376384,1.65896 -3.005637,1.66783 -4.316617,2.08766 -4.243637,1.35894 -8.779371,3.35153 -13.17956,4.11443 -2.487936,0.43136 -5.587947,-5.03936 -5.42681,-7.17901 0.116156,-1.54232 1.557047,-2.93313 2.423502,-4.14345 2.058195,-2.875026 4.037659,-5.803563 6.098152,-8.681494 0.742151,-1.036584 1.793197,-3.447645 3.184971,-3.727972 M 7.8038186,97.306992 c 3.9275704,4.593988 7.7238824,9.443348 11.1569004,14.403408 1.236692,1.78677 3.289466,3.47287 3.537206,5.72189 0.204689,1.85811 -1.330658,4.21765 -2.017523,5.9192 -0.900193,2.23001 -1.824107,4.45803 -2.668995,6.70843 -0.226746,0.60398 -0.576061,2.02196 -1.485628,1.90932 -0.826885,-0.10241 -1.032482,-1.28757 -1.196571,-1.90932 -0.517752,-1.96172 -0.94445,-3.94033 -1.381797,-5.9192 -1.418395,-6.41783 -3.118995,-12.7758 -4.6701899,-19.13876 C 8.5569154,102.86771 7.0700928,99.448152 7.8038186,97.306992 M 203.06407,97.898918 c 0.59611,2.305812 -0.6889,5.561372 -1.13977,7.892262 -1.29172,6.67805 -3.04896,13.3434 -4.77546,19.92799 -0.55973,2.1347 -1.15655,4.33652 -1.52701,6.51109 -0.0933,0.54798 -0.18887,1.96863 -1.09603,1.75494 -0.99072,-0.23339 -1.21202,-1.56444 -1.47609,-2.34682 -0.80145,-2.37452 -1.77343,-4.69265 -2.45707,-7.10305 -0.7335,-2.58616 -2.80189,-5.74977 -2.48898,-8.48419 0.1938,-1.69344 1.87297,-3.25534 2.90308,-4.53805 2.65793,-3.30976 5.48688,-6.54524 8.33103,-9.69492 1.17828,-1.30486 2.01515,-3.237843 3.7263,-3.919252 M 96.216962,100.21768 c 1.328024,-0.233982 2.475821,1.59279 3.207179,2.41609 1.834129,2.06475 4.499299,6.33409 7.124999,7.34375 1.368,0.52605 2.45846,-0.98111 3.25181,-1.81916 1.32537,-1.40005 2.4926,-2.93028 3.81051,-4.3301 0.46673,-0.49574 1.07385,-1.18446 1.85255,-0.99119 1.02573,0.25462 1.74441,1.60568 2.34535,2.3622 0.6134,0.7722 1.28054,1.52183 1.78784,2.36768 1.35483,2.25895 -0.54737,5.54188 -1.4906,7.69497 -1.49527,3.41328 -2.98968,6.93997 -4.21549,10.45725 -0.44345,1.27244 -1.27436,2.56341 -1.22925,3.94614 0.0349,1.07139 0.66034,2.21835 1.15613,3.15691 2.184,4.13433 5.08533,7.9804 7.43331,12.03572 1.85592,3.20543 3.70461,7.24636 6.45062,9.81926 1.11401,1.0438 2.69035,1.56878 3.98977,2.3587 3.2442,1.97215 6.63952,3.8987 10.13812,5.41585 4.75216,2.06073 10.19957,3.01782 15.20718,4.3508 2.13831,0.56919 5.3338,0.949 7.04831,2.37712 1.40541,1.17064 2.065,2.98052 3.00269,4.48506 2.15889,3.46398 4.15693,7.02621 6.36826,10.45726 0.68642,1.06505 3.11546,3.98023 2.37509,5.25688 -0.4801,0.82785 -2.11565,1.20048 -2.97888,1.49039 -2.49365,0.83745 -4.96987,1.77416 -7.50221,2.49001 -3.22042,0.91034 -7.37944,1.97216 -10.74641,1.5636 -2.30875,-0.28016 -4.37203,-1.62771 -6.48839,-2.48497 -4.15395,-1.6826 -8.33848,-3.3147 -12.36851,-5.25381 -1.93853,-0.93273 -4.07317,-1.60754 -6.08289,-2.38542 -0.83269,-0.32232 -2.10612,-0.78383 -2.4236,-1.69379 -0.40516,-1.16131 1.72496,-2.96289 2.14297,-4.11287 0.78352,-2.15554 0.40939,-5.42504 0.26328,-7.69497 -0.16883,-2.62303 -2.12927,-4.76902 -3.50322,-6.90573 -3.11379,-4.84242 -6.34709,-9.6154 -9.54203,-14.40341 -1.07568,-1.61202 -2.83967,-5.80795 -4.98324,-6.15539 -3.25138,-0.52698 -3.82043,5.78759 -6.49432,6.14611 -2.64955,0.35525 -3.33996,-5.98338 -6.278054,-5.41045 -2.062943,0.40225 -3.484392,4.44269 -4.456678,6.01166 -2.777043,4.4813 -5.587569,8.94547 -8.386005,13.41686 -1.281674,2.04789 -3.205384,4.15661 -3.837331,6.51113 -0.673366,2.50882 1.076892,6.08419 1.781607,8.48419 0.342186,1.16534 1.19944,2.54116 0.29699,3.66495 -0.72718,0.90556 -2.205495,1.24251 -3.24335,1.70164 -2.852454,1.2619 -5.77695,2.53582 -8.718786,3.58264 -3.760623,1.33817 -7.240379,3.84192 -11.151938,4.70482 -5.370789,1.18484 -11.260107,-0.33391 -16.423757,-1.55248 -2.426105,-0.57253 -7.225654,-1.40536 -9.020924,-3.157 -1.332057,-1.29969 1.391988,-3.58799 2.123232,-4.60383 1.991933,-2.7671 4.050752,-5.44746 6.218241,-8.08957 1.181744,-1.4405 2.222324,-2.94041 3.923648,-3.85255 6.53878,-3.50565 14.130015,-5.91671 21.0873,-8.54362 2.595809,-0.9801 5.763707,-1.7535 8.110489,-3.19635 3.458067,-2.12607 5.54945,-6.12684 7.888246,-9.26813 2.665758,-3.58043 5.444169,-7.09193 8.138172,-10.65457 1.176873,-1.55635 2.683016,-3.02657 3.623799,-4.73536 1.349234,-2.4507 -0.848175,-6.69673 -1.734828,-9.07611 -1.161199,-3.11613 -1.925426,-6.35502 -3.077985,-9.47073 -0.769834,-2.08111 -2.087849,-4.8594 -1.822199,-7.10305 0.172861,-1.45992 1.252919,-2.93715 2.05117,-4.14344 0.844899,-1.27678 2.330311,-4.68703 4.002013,-4.98159 m 75.209348,0.47721 c 1.78718,0.0155 3.37193,3.44293 4.19121,4.70169 1.2214,1.87658 2.56157,3.70006 3.86269,5.52458 0.44664,0.62629 1.34224,1.47954 1.07537,2.32751 -0.3958,1.25755 -3.74953,1.40691 -4.86444,1.40522 -3.09559,-0.005 -6.17912,-2.66412 -8.71878,-4.1712 -0.82901,-0.49193 -2.32786,-1.19472 -2.65028,-2.15709 -0.28033,-0.83671 0.50886,-1.59055 1.03707,-2.13978 1.3329,-1.38598 2.68033,-2.75962 4.02025,-4.13926 0.54536,-0.56151 1.16767,-1.35933 2.04691,-1.35167 M 32.540835,111.15961 c 0.988021,0 1.528719,1.25207 1.970519,1.93195 1.602233,2.46573 1.907872,3.63753 0.146862,6.11594 -0.503457,0.70855 -0.896956,1.67731 -1.922925,1.69863 -1.550898,0.0322 -4.375701,-3.16985 -4.162515,-4.65768 0.15505,-1.08217 1.207701,-2.08587 1.820574,-2.95961 0.492204,-0.70171 1.108221,-2.12923 2.147485,-2.12923 m 149.435945,6.75265 c 2.57767,-0.074 3.01508,3.43793 3.67731,5.24192 1.75415,4.77845 3.67057,9.52982 5.13293,14.40341 0.48711,1.62337 1.57351,3.2209 1.63761,4.93265 0.0844,2.25148 -1.79754,4.40456 -2.79748,6.31382 -2.39702,4.57678 -4.99866,9.05529 -7.43392,13.61417 -0.827,1.54816 -2.79021,3.73165 -2.76051,5.5246 0.0234,1.41418 1.17532,2.19717 2.22751,2.95368 2.60902,1.87582 5.67973,3.33992 8.42705,5.04417 0.87753,0.54437 3.44564,1.45602 3.42552,2.66468 -0.0187,1.12312 -1.79925,1.90083 -2.61447,2.43172 -2.28603,1.48867 -4.60199,2.92844 -6.89393,4.40077 -0.86398,0.55502 -1.93086,1.71159 -3.03973,1.69844 -1.54599,-0.0183 -2.77888,-3.08256 -3.45519,-4.19814 -2.11812,-3.49387 -4.22642,-6.98664 -6.38928,-10.45727 -0.79622,-1.27763 -2.358,-3.19421 -2.35554,-4.73536 0.003,-1.82316 2.18127,-3.58988 3.34915,-4.82032 3.04504,-3.20819 7.16618,-6.52376 9.57971,-10.17866 1.41676,-2.14545 0.89155,-4.49036 0.89155,-6.90207 0,-5.4474 0.81811,-12.35352 -0.94979,-17.56031 -0.74433,-2.19215 -2.02715,-4.20953 -2.99138,-6.31382 -0.34143,-0.74509 -1.02979,-1.70157 -0.92033,-2.55267 0.18322,-1.42448 3.13176,-1.47326 4.25321,-1.50541 m -155.709103,3.83939 c 0.940722,-0.30661 1.661979,0.56171 2.233843,1.14419 1.517498,1.54571 2.606357,2.78208 2.619459,4.9937 0.03359,5.66367 -0.202238,11.31488 -0.202238,16.9684 0,1.95565 0.535449,5.73382 -0.48329,7.44515 -0.725525,1.21875 -3.075677,1.81273 -4.383012,2.19128 -3.18835,0.9232 -4.886551,-5.38176 -5.749206,-7.66337 -0.67986,-1.79812 -2.004085,-3.78052 -2.082765,-5.72189 -0.06872,-1.69459 0.787581,-3.21691 1.42102,-4.73537 1.151793,-2.761 2.353521,-5.50798 3.468053,-8.28688 0.594829,-1.48312 1.481931,-5.78887 3.158136,-6.33521 m 166.656583,30.4275 c 1.35668,-0.30627 1.17087,3.69941 1.27995,4.51719 0.56855,4.26245 0.70466,8.57128 1.24526,12.82495 0.11865,0.93362 0.9693,3.87678 -0.36718,4.29979 -1.4457,0.45758 -4.5738,-2.18066 -5.69213,-2.97705 -1.33585,-0.95129 -3.93528,-1.58697 -4.45051,-3.30001 -0.3908,-1.29937 0.58584,-2.65548 1.18345,-3.74463 1.5309,-2.79006 2.9101,-5.7909 4.59138,-8.4842 0.52828,-0.84628 1.09999,-2.88552 2.20978,-3.13604 m -175.137371,0.4375 c 0.713262,-0.0953 1.113133,0.81234 1.321477,1.31808 0.686968,1.66754 1.518315,3.2732 2.218741,4.93198 1.07196,2.53868 2.051681,5.12371 3.039468,7.69497 0.334324,0.87025 1.086154,2.15401 0.675592,3.09497 -0.551789,1.26464 -2.925079,2.15635 -4.058789,2.86782 -0.917174,0.57557 -2.31581,1.68615 -3.440962,1.71054 -1.802663,0.0391 -1.026223,-2.86959 -1.019321,-3.92449 0.02798,-4.2734 0.603816,-8.55469 0.607767,-12.82495 7.66e-4,-0.8326 -0.504232,-4.71379 0.656027,-4.86892 m 13.33461,4.21445 c 2.56196,-0.53946 5.316342,4.70914 6.624004,6.37637 1.263436,1.61084 4.643099,4.62357 4.675031,6.70842 0.02093,1.36432 -1.51951,2.72282 -2.304098,3.74884 -2.212165,2.89291 -4.487732,5.7424 -6.635145,8.68149 -0.695422,0.95181 -1.91358,3.24407 -3.186789,3.47165 -1.33268,0.2382 -3.558333,-1.6998 -4.647592,-2.34041 -1.024537,-0.60255 -2.025793,-1.23534 -3.041428,-1.85101 -0.974145,-0.59051 -2.865188,-1.32226 -3.266182,-2.4543 -0.462622,-1.30604 1.62969,-1.85648 2.455125,-2.37988 1.872408,-1.18727 3.730632,-2.36461 5.677349,-3.43586 0.987154,-0.54322 2.185471,-1.1333 2.57945,-2.25722 0.331342,-0.94526 -0.305783,-2.10065 -0.666779,-2.95905 -1.296542,-3.08304 -5.568872,-8.82579 -0.696096,-10.44618 0.796465,-0.26486 1.614792,-0.69055 2.43315,-0.86286 m 56.165206,29.35088 c 2.37565,-0.35586 7.150365,3.45453 7.014502,5.83228 -0.112276,1.96482 -1.585211,4.13638 -2.369431,5.9192 -1.721565,3.91374 -3.27954,7.90723 -4.961902,11.83841 -0.783293,1.83032 -1.737412,6.63064 -4.152651,6.96947 -1.833769,0.25729 -3.259077,-1.79857 -5.060351,-1.97545 -3.075453,-0.302 -6.900255,1.54259 -9.935332,0.57966 -1.339388,-0.42496 -2.170787,-1.7813 -2.978791,-2.81137 -1.934984,-2.46678 -3.769303,-5.00374 -5.666299,-7.49767 -1.334764,-1.75478 -2.557404,-3.63069 -3.963505,-5.32728 -0.443464,-0.53509 -1.496175,-1.46176 -1.186992,-2.25198 0.278089,-0.71076 1.437664,-0.58941 2.035342,-0.51821 2.108834,0.25123 4.440738,0.2321 6.488384,-0.4141 5.970235,-1.88416 11.70103,-4.86075 17.437574,-7.32313 2.295388,-0.98527 4.793678,-2.64449 7.299452,-3.01983 m 35.889105,0.61779 c 2.03574,-0.50194 5.014,1.58463 6.89377,2.2921 6.53026,2.45769 12.85076,5.55283 19.26244,8.29288 1.65185,0.70594 3.26067,1.46303 5.06906,1.66792 0.75773,0.0859 2.08034,-0.10562 2.57283,0.61775 0.7543,1.10793 -1.8604,3.5667 -2.50493,4.37955 -2.43906,3.07597 -4.79208,6.21897 -7.25465,9.27342 -1.06057,1.31549 -1.98063,2.9727 -3.76242,3.44225 -3.33816,0.87969 -6.92759,0.7012 -10.34088,0.7012 -1.17793,0 -3.00062,0.32789 -4.01775,-0.35942 -1.25345,-0.84704 -1.93995,-3.04097 -2.46029,-4.37595 -1.2648,-3.24489 -2.86978,-6.38523 -4.01324,-9.66803 -0.81333,-2.33508 -1.97581,-4.66656 -3.03991,-6.90573 -0.53619,-1.12832 -1.40531,-2.66679 -1.15878,-3.94615 0.23818,-1.23617 1.29219,-2.22627 2.08238,-3.15676 0.75357,-0.88736 1.45131,-1.95397 2.67237,-2.25503 m -0.60844,27.90477 c -1.17593,-0.0669 -2.2599,-0.72278 -3.44695,-0.55753 -1.1611,0.16164 -2.24296,1.39132 -3.44644,0.98152 -1.6669,-0.56758 -2.46324,-3.56626 -4.4613,-3.39012 -2.05125,0.18083 -2.72748,3.11254 -4.4771,3.78902 -1.62013,0.62645 -3.58077,-1.20979 -5.25549,-1.37025 -2.831436,-0.27128 -5.59156,1.77293 -8.516036,1.96194 -0.900071,0.0583 -2.403486,0.21229 -3.13808,-0.4161 -1.143931,-0.97851 1.102942,-4.43203 1.515833,-5.53654 1.468778,-3.92912 3.221793,-7.76555 4.815724,-11.64109 0.765115,-1.86033 1.332302,-4.54305 2.799308,-6.01058 1.337111,-1.33761 4.596011,-3.19717 6.578491,-2.98722 1.5006,0.15893 3.11356,1.13676 4.46077,1.75918 1.41403,0.6533 2.9282,1.29215 3.92852,2.51175 2.79509,3.40778 3.94888,8.83822 5.73369,12.81644 1.09845,2.44839 2.89674,5.41286 2.90906,8.08958 M 34.034253,192.37738 c 1.036445,-0.4702 2.832501,0.30072 3.778411,0.72234 2.539228,1.13181 8.172738,1.4911 9.140766,4.43966 0.838833,2.55507 1.0753,5.44777 1.591439,8.08904 1.066355,5.45702 2.031677,10.93804 3.19362,16.37647 0.423051,1.98008 0.49832,4.20929 1.185287,6.11649 1.183562,3.28584 6.196551,2.67137 7.67837,5.54051 0.937537,1.81531 0.07894,5.00298 0.536532,7.08715 1.227941,5.59275 3.317332,10.99949 4.638749,16.57377 1.372882,5.7914 3.549878,11.38623 4.97147,17.16569 0.3308,1.34488 0.97061,2.59891 1.273616,3.94593 0.08455,0.3759 0.299707,1.24286 -0.247466,1.40818 -1.035525,0.31285 -2.657802,-2.34152 -3.219413,-2.97106 -3.048261,-3.41696 -6.278223,-6.78531 -9.468218,-10.07802 -4.962841,-5.12265 -9.684067,-10.49037 -14.46929,-15.78454 -1.865586,-2.06401 -5.064629,-4.57717 -6.16416,-7.11099 -1.132382,-2.60955 -0.866271,-6.46466 -1.074299,-9.26547 -0.474599,-6.38952 -0.556556,-13.242 -1.736177,-19.53338 -1.057571,-5.64052 -1.266846,-11.64168 -1.710412,-17.36299 -0.08873,-1.14401 -1.254216,-4.74387 0.101197,-5.35878 m 142.056545,1.90124 c 2.10847,0.0148 1.10349,3.79178 0.95627,5.03599 -0.65968,5.57502 -1.17706,11.35888 -1.35818,16.96838 -0.22138,6.8567 -1.08614,13.91939 -1.9567,20.71723 -0.31751,2.47933 0.17428,5.80236 -0.87762,8.08957 -1.39697,3.03751 -5.08554,5.93616 -7.44302,8.32979 -3.36187,3.41341 -6.30087,7.26611 -9.52246,10.80748 -2.96478,3.25907 -6.14355,6.42025 -9.30352,9.49972 -0.67034,0.65326 -2.21757,3.16431 -3.25824,3.02211 -1.33714,-0.18274 0.37227,-4.45541 0.53007,-5.21998 1.13459,-5.49746 2.28629,-11.30455 4.29615,-16.57378 1.73834,-4.5574 3.05489,-9.79942 3.8869,-14.6007 0.30217,-1.74375 -0.51942,-3.90748 0.16396,-5.52444 0.6881,-1.62813 2.70394,-2.74211 4.01334,-3.86781 1.90209,-1.63524 3.13407,-3.39866 3.72339,-5.80038 1.5249,-6.21454 2.18818,-12.6587 3.44418,-18.94145 0.4602,-2.30195 0.48832,-5.18349 1.58785,-7.29075 0.57336,-1.09886 1.69686,-1.48041 2.81022,-1.89522 2.43714,-0.90801 5.66623,-2.77424 8.30741,-2.75576 M 53.222605,204.83921 c 1.846461,0.75196 2.691624,2.89698 3.890105,4.34073 3.732919,4.49698 7.379827,8.1906 7.463223,14.2061 0.01716,1.23854 1.033565,5.74564 -0.461742,6.33685 -1.507551,0.59601 -6.036292,-2.22821 -6.864903,-3.38721 -1.099735,-1.53829 -1.151763,-4.10168 -1.451164,-5.90924 -0.588252,-3.55153 -1.757804,-7.08965 -2.16998,-10.65457 -0.194661,-1.68353 -1.047769,-3.27172 -0.405539,-4.93266 m 105.436495,1.57845 c 0.29287,1.59528 -0.40147,3.14968 -0.56423,4.73536 -0.38188,3.7206 -1.17757,7.62028 -2.12589,11.24649 -0.39201,1.49895 -0.40002,2.80026 -1.3743,4.12807 -1.02703,1.39972 -2.58862,2.53917 -3.90825,3.66813 -0.45239,0.38704 -1.18331,0.99647 -1.84033,0.70953 -1.24289,-0.54285 -0.78536,-4.80132 -0.88935,-5.94075 -0.54087,-5.92625 2.70105,-9.59496 6.3028,-14.00878 1.2893,-1.58 2.34435,-3.85512 4.39955,-4.53805 m -47.04585,11.25707 c 1.74425,0.1596 2.01612,3.64894 2.03104,4.92208 0.0284,2.42298 -0.14448,4.88279 0.0292,7.30035 0.0678,0.9437 0.4786,2.25829 -0.35292,3.00272 -0.90285,0.80835 -3.02199,0.47044 -4.1334,0.31085 -1.94393,-0.2791 -1.65068,-2.46793 -1.61752,-3.90548 0.0696,-3.01471 -0.64966,-7.12176 1.31121,-9.66754 0.5898,-0.76574 1.60854,-2.06579 2.73243,-1.96298 m -11.14528,0.69368 c 1.57415,-0.3234 2.94199,0.82471 3.26866,2.25548 0.60338,2.6427 -0.0262,6.14575 -0.0262,8.87867 0,1.34954 0.31701,3.27141 -1.42381,3.68324 -0.93079,0.2202 -2.573143,0.30538 -3.161963,-0.59826 -0.526195,-0.80753 -0.280533,-2.17268 -0.280533,-3.08498 v -7.30036 c 0,-1.44478 -0.276113,-3.44343 1.623806,-3.83379 m 19.26036,0.23891 c 1.45699,0 2.00238,1.42687 2.16152,2.60834 0.40255,2.98859 -0.0459,6.26585 -0.13695,9.27343 -0.0393,1.29889 -0.50232,2.37404 -2.02419,2.34374 -1.73615,-0.0345 -1.74865,-1.43443 -1.88975,-2.73836 -0.31237,-2.88636 -0.54238,-6.39162 -0.20616,-9.27342 0.12807,-1.09778 0.8414,-2.21373 2.09553,-2.21373 m -49.272063,0.79299 c 2.355012,0.0875 2.995956,7.45607 0.607246,7.42326 -3.044379,-0.0419 -3.603039,-7.53457 -0.607246,-7.42326 m 6.720584,0.0451 c 1.006658,-0.27714 1.477285,0.81983 1.587824,1.5735 0.277987,1.89527 0.387076,4.01922 0.08577,5.91876 -0.0917,0.5782 -0.204985,1.57702 -0.919012,1.75482 -0.902972,0.22486 -1.154582,-1.18042 -1.259761,-1.75496 -0.347088,-1.89583 -0.188289,-3.99377 -0.284134,-5.91896 -0.03013,-0.60476 0.08302,-1.37874 0.789245,-1.57316 m 14.38575,0.15827 c 1.49058,-0.58172 2.7972,0.75478 3.237326,2.00676 0.882088,2.5092 0.626852,6.23935 0.595687,8.87867 -0.01194,1.01416 -0.135006,2.12759 -1.227635,2.57691 -1.879903,0.77303 -3.184307,-0.24288 -3.52243,-1.985 -0.510124,-2.62826 -0.562193,-5.39153 -0.503681,-8.0627 0.02696,-1.23006 0.003,-2.86144 1.420733,-3.41464 m -6.506827,0.80139 c 1.130891,-0.0401 1.389528,1.13934 1.415424,1.99448 0.06678,2.20696 0.17865,4.53886 -0.26122,6.7084 -0.17188,0.84779 -0.259392,1.97495 -1.366674,2.09312 -1.064996,0.11369 -1.841865,-0.76991 -2.056214,-1.69902 -0.434591,-1.88377 -0.250253,-5.46788 0.39255,-7.2993 0.275853,-0.78592 0.91938,-1.76377 1.876134,-1.79768 m 56.576734,0.91515 c 2.90456,-0.70077 2.28602,3.70839 0.19369,4.05305 -2.19868,0.36216 -2.0905,-3.59541 -0.19369,-4.05305 m -14.7653,0.40945 c 3.57399,-1.20231 3.05019,5.50866 2.53117,7.37823 -0.2183,0.78635 -0.51039,1.64024 -1.3689,1.95101 -2.95001,1.06782 -2.01912,-5.62344 -2.01498,-7.08093 0.002,-0.80688 -0.11194,-1.92379 0.85271,-2.24831 m 7.33113,0.25385 c 0.84843,-0.33164 1.54894,0.53009 1.79501,1.20739 0.49934,1.37444 0.93461,4.41357 -0.86078,5.05783 -2.18225,0.78306 -2.27215,-5.74221 -0.93423,-6.26522 m 8.03752,7.84938 c 2.64898,-0.58629 2.51208,5.60669 -5.2e-4,5.93872 -2.39196,0.3161 -2.23936,-5.44297 5.2e-4,-5.93872 m -71.970767,1.2341 c 2.69243,-0.3291 2.241093,3.84055 2.218311,5.34126 -0.01134,0.74853 -0.05198,1.88012 -1.02946,2.03076 -2.241226,0.34537 -3.589253,-7.07866 -1.188851,-7.37202 m 64.706657,2.13543 c 1.91627,-0.37886 2.14172,5.71395 0.55292,6.15994 -1.90701,0.53533 -2.39121,-5.79649 -0.55292,-6.15994 m -58.025867,5.96812 c -0.259597,-0.68907 -0.292743,-1.24289 -0.242942,-1.97311 0.03145,-0.46068 0.03359,-0.91958 0.04177,-1.38096 0.01021,-0.57614 0.477561,-2.60573 1.314035,-1.29909 0.750513,1.17236 0.150179,4.0689 -1.112828,4.65316 m 6.323511,-3.80569 c 2.909383,-0.67248 2.218148,6.51821 0.359464,6.83449 -2.050985,0.34902 -2.103953,-6.43127 -0.359464,-6.83449 m 44.772081,-0.0111 c 2.68216,-0.5393 2.33175,5.58992 -0.003,6.03252 -2.61158,0.495 -2.73246,-5.48249 0.003,-6.03252 m -37.490244,1.59884 c 3.134966,-0.69096 3.971112,1.58785 3.817951,3.99368 -0.09089,1.42692 -0.304895,3.0144 -2.013909,3.3555 -3.450122,0.6886 -4.671916,-6.71706 -1.804042,-7.34918 m 28.773564,-0.0379 c 3.51848,-0.89588 3.98626,6.94299 1.01169,7.83523 -4.6994,1.40967 -4.28507,-7.00178 -1.01169,-7.83523 m -19.0569,0.56464 c 3.26401,-0.62823 2.53587,2.44361 2.29235,4.45353 -0.13352,1.10205 -0.0904,2.50304 -1.49009,2.82285 -3.333217,0.7615 -3.644004,-6.72942 -0.80226,-7.27638 m 8.71653,0.20662 c 3.29494,-0.71048 3.85063,1.74329 3.85041,4.24691 -1.2e-4,1.36087 0.1064,3.11066 -1.62605,3.47946 -3.22524,0.68655 -3.75113,-1.47855 -3.84036,-4.07139 -0.0482,-1.40081 -0.15724,-3.27263 1.616,-3.65498 m 37.68553,1.45232 c 0.89121,-0.0463 1.03265,0.95259 0.94889,1.61094 -0.2225,1.74883 -0.98035,3.61237 -1.43274,5.32709 -1.98264,7.51488 -4.00184,15.04701 -6.2111,22.49298 -0.6025,2.03065 -1.17155,4.07089 -1.71802,6.1165 -0.14007,0.52437 -0.31931,1.84615 -1.09169,1.84615 -1.13241,0 -1.61447,-3.21788 -1.8537,-4.01652 -1.30445,-4.35459 -2.79614,-8.64784 -4.03437,-13.02225 -0.78247,-2.76427 -1.61429,-5.56949 -2.54526,-8.28688 -0.43253,-1.26252 -1.37092,-2.96827 -0.98999,-4.33275 0.45615,-1.63403 2.7218,-2.09167 4.15253,-2.49885 1.96063,-0.55801 4.19572,-0.013 6.08284,-0.8968 1.34818,-0.63134 1.92318,-1.92978 3.06104,-2.77578 1.27551,-0.94831 4.06009,-1.48211 5.63157,-1.56383 m -70.1296,39.09904 c -1.587262,-4.95527 -2.850708,-10.00465 -4.274965,-14.99532 -0.980179,-3.43461 -2.146116,-6.82185 -3.13517,-10.25994 -0.833542,-2.89754 -1.728384,-5.77901 -2.540902,-8.68151 -0.232546,-0.83068 -1.112459,-2.24965 -0.393908,-3.04416 0.945972,-1.04601 3.000389,2.17294 4.059452,2.41486 0.982773,0.22444 1.866291,-0.36559 2.838526,-0.29749 1.223254,0.0857 1.906269,1.23994 3.041438,1.54214 0.879096,0.23402 1.752699,-0.18663 2.63591,-0.11324 1.412401,0.11737 3.970316,1.95514 4.469116,3.24726 0.482503,1.24992 -0.471934,3.04775 -0.616998,4.34021 -0.541024,4.8205 -2.101451,9.62733 -2.989002,14.40339 -0.499689,2.68896 -1.136375,5.38943 -1.507287,8.08959 -0.173952,1.26631 -0.217402,2.82226 -1.58621,3.35421 M 95.599926,247.7666 c 2.093343,-0.38052 3.272155,2.11498 5.271824,1.96338 1.48259,-0.11238 2.44964,-1.36052 4.05525,-1.25144 1.92896,0.13105 3.51583,1.69004 5.47459,1.50326 1.64708,-0.15706 2.57865,-1.70153 4.07104,-2.01539 1.35141,-0.28421 2.56507,0.94981 3.83669,1.18298 1.35109,0.24774 3.94354,-1.0309 4.90413,0.006 1.78927,1.93201 2.04847,6.50602 2.89634,8.95635 1.95783,5.65819 3.6063,11.41939 5.26853,17.1657 0.83725,2.89439 2.00789,5.72694 2.62622,8.6815 0.57416,2.74349 -1.13822,6.39928 -4.13779,7.14881 -3.5295,0.88196 -8.11985,0.15154 -11.76019,0.15154 H 93.369552 c -2.425237,0 -4.877157,-0.10179 -7.299443,0.0154 -1.669372,0.0808 -3.489007,0.22872 -4.761092,-1.08577 -1.981507,-2.04751 -0.221803,-7.5491 0.414393,-9.97876 1.927079,-7.35959 2.988644,-15.02475 4.383624,-22.49297 0.417282,-2.23401 0.758162,-4.48468 1.224551,-6.70843 0.168173,-0.80182 0.09272,-1.80423 0.613526,-2.49128 1.007322,-1.32884 3.083183,0.57168 4.410634,0.4561 1.204803,-0.10489 2.088115,-0.99706 3.244198,-1.20723 z"
       id="path3" /></g></svg>
