<?xml version="1.0" encoding="UTF-8" standalone="no"?>
<!-- Created with Inkscape (http://www.inkscape.org/) -->

<svg
   width="210mm"
   height="35mm"
   viewBox="0 0 210 35"
   version="1.1"
   id="svg1"
   xml:space="preserve"
   inkscape:version="1.3.2 (091e20e, 2023-11-25, custom)"
   sodipodi:docname="panasonic-logob1.svg"
   xmlns:inkscape="http://www.inkscape.org/namespaces/inkscape"
   xmlns:sodipodi="http://sodipodi.sourceforge.net/DTD/sodipodi-0.dtd"
   xmlns="http://www.w3.org/2000/svg"
   xmlns:svg="http://www.w3.org/2000/svg"><sodipodi:namedview
     id="namedview1"
     pagecolor="#ffffff"
     bordercolor="#000000"
     borderopacity="0.25"
     inkscape:showpageshadow="2"
     inkscape:pageopacity="0.0"
     inkscape:pagecheckerboard="0"
     inkscape:deskcolor="#d1d1d1"
     inkscape:document-units="mm"
     inkscape:zoom="0.75187991"
     inkscape:cx="347.1299"
     inkscape:cy="192.18495"
     inkscape:window-width="1920"
     inkscape:window-height="1017"
     inkscape:window-x="-8"
     inkscape:window-y="-8"
     inkscape:window-maximized="1"
     inkscape:current-layer="layer1" /><defs
     id="defs1" /><g
     inkscape:label="Capa 1"
     inkscape:groupmode="layer"
     id="layer1"><path
       style="fill:#000000"
       id="path250011"
       d="" /><path
       style="fill:#ffffff;stroke-width:1.10238"
       d="m 36.7932,28.593508 -1.515161,-0.0173 -0.695711,-0.15301 -0.695715,-0.15303 -0.718291,-0.34219 -0.718292,-0.34217 -0.553632,-0.62719 -0.553632,-0.62725 -0.227515,-0.75874 -0.227516,-0.75881 0.08742,-1.25009 0.08741,-1.25001 0.392352,-0.71468 0.392352,-0.71471 0.776935,-0.62099 0.776936,-0.62101 1.016377,-0.35507 1.016379,-0.35513 1.769653,-0.24912 1.769655,-0.24909 1.601522,-8.2e-4 1.601523,-7.6e-4 0.292249,-0.10484 0.292248,-0.1048 v -0.633421 -0.633256 l -0.288354,-0.384412 -0.288353,-0.384425 -0.533883,-0.257803 -0.533884,-0.25781 h -0.858855 -0.858854 l -0.582196,0.259447 -0.582196,0.259451 -0.314735,0.516929 -0.314732,0.516954 h -2.953822 -2.95382 l -0.138405,-0.209119 -0.138407,-0.209119 0.04236,-0.587371 0.04236,-0.58737 0.348896,-0.638613 0.348897,-0.638638 0.775988,-0.654626 0.775985,-0.654651 0.779389,-0.32193 0.779387,-0.321941 1.275568,-0.288535 1.275567,-0.288532 2.586616,0.0047 2.586613,0.0047 1.465104,0.367316 1.465105,0.367322 0.936751,0.491212 0.936753,0.491211 0.58345,0.708179 0.583452,0.708174 0.201771,0.878534 0.201771,0.878535 v 3.587818 3.58782 l 0.337875,0.28552 0.337875,0.28557 h 0.674775 0.674775 l 0.104495,0.3887 0.104494,0.38877 -0.05478,1.37789 -0.05478,1.37787 -0.554274,0.26058 -0.554275,0.26053 -2.217097,-0.009 -2.217098,-0.009 -0.685966,-0.29267 -0.685965,-0.29257 -0.661609,-0.54249 -0.661607,-0.54244 -1.516179,0.70019 -1.516179,0.70029 -0.979074,0.18692 -0.979073,0.18684 z m 2.826656,-3.78457 0.831413,-7.8e-4 0.753553,-0.3196 0.753556,-0.31964 0.40935,-0.48594 0.409351,-0.48588 -0.05436,-0.95913 -0.05437,-0.95905 -1.200927,0.0542 -1.200928,0.0542 -0.664939,0.16118 -0.664937,0.16114 -0.62593,0.39393 -0.625931,0.39378 -0.181097,0.48092 -0.181097,0.48085 0.276622,0.46009 0.276622,0.46033 0.45631,0.21559 0.456311,0.21557 z m 43.048653,3.78393 -1.570444,-0.0129 -0.913025,-0.23394 -0.913028,-0.23382 -0.749797,-0.49155 -0.749797,-0.49158 -0.461895,-0.76876 -0.461895,-0.76869 v -1.55744 -1.55731 l 0.472637,-0.8579 0.472639,-0.85802 0.899408,-0.63518 0.899406,-0.63512 1.214569,-0.35268 1.21457,-0.35273 1.445244,-0.17674 1.445246,-0.17669 h 1.71921 1.71921 l 0.218381,-0.24565 0.218381,-0.24574 -0.120942,-0.602042 -0.120941,-0.601982 -0.369696,-0.370552 -0.369695,-0.370559 -0.456181,-0.161956 -0.456182,-0.161952 h -0.732939 -0.732938 l -0.613255,0.239269 -0.613253,0.239264 -0.412769,0.541311 -0.412766,0.541302 -2.986535,-0.04738 -2.986534,-0.04736 -0.06009,-0.588115 -0.06009,-0.588112 0.292564,-0.715343 0.292565,-0.715358 0.69131,-0.625822 0.691311,-0.625814 0.943851,-0.439784 0.943853,-0.439772 1.273246,-0.288041 1.273246,-0.288022 2.586614,-0.0023 2.586615,-0.0022 1.293305,0.309723 1.293313,0.309729 0.923793,0.427507 0.923776,0.427515 0.525011,0.455901 0.525002,0.45591 0.398794,0.690103 0.398784,0.690106 0.0924,4.157866 0.0924,4.15785 0.245338,0.27546 0.245327,0.27541 0.770833,0.0525 0.770834,0.0525 v 1.72289 1.72294 l -0.554274,0.25997 -0.554264,0.26004 -2.124726,8.2e-4 -2.124717,9.1e-4 -1.051227,-0.46016 -1.051228,-0.46017 -0.240333,-0.35937 -0.240334,-0.35937 h -0.226334 -0.226334 l -1.161098,0.59586 -1.1611,0.59586 -1.200927,0.26421 -1.200928,0.26425 z m 2.771374,-3.79136 0.831411,-0.013 0.560869,-0.20253 0.56087,-0.20258 0.402855,-0.27088 0.402857,-0.27093 0.282254,-0.50541 0.282254,-0.5055 0.0011,-0.62588 0.0011,-0.62585 -0.263939,-0.2045 -0.263937,-0.2046 -1.421262,0.18461 -1.421263,0.18465 -0.814626,0.3365 -0.814624,0.33649 -0.242944,0.53947 -0.242943,0.53965 0.08874,0.43339 0.08874,0.43346 0.575503,0.32764 0.575506,0.32771 z m 23.833787,3.72652 -2.49423,0.0679 -0.81873,-0.16139 -0.81871,-0.16137 -1.12123,-0.34937 -1.12124,-0.34963 -0.91668,-0.64839 -0.91666,-0.64841 -0.53555,-0.71153 -0.535559,-0.71145 -0.0982,-0.81374 -0.0982,-0.81373 0.257129,-0.15206 0.25712,-0.15205 h 2.49425 2.49423 l 0.20243,0.12676 0.20242,0.12675 0.25947,0.50206 0.25948,0.50205 0.48587,0.33564 0.48588,0.33565 1.17694,0.0831 1.17695,0.0831 0.73477,-0.23081 0.73478,-0.2309 0.1799,-0.47811 0.17988,-0.47817 -0.37735,-0.35246 -0.37737,-0.35239 -3.21629,-0.59813 -3.2163,-0.59809 -1.13487,-0.51392 -1.13485,-0.51395 -0.65659,-0.67862 -0.6566,-0.67864 -0.21528,-0.74304 -0.21526,-0.743 0.0852,-1.121407 0.0853,-1.12142 0.38384,-0.701882 0.38382,-0.701873 0.72824,-0.614358 0.72823,-0.61437 1.05241,-0.367682 1.05241,-0.36769 0.77316,-0.153954 0.77316,-0.15395 1.3862,-0.113742 1.38622,-0.113744 1.47753,0.176243 1.47755,0.17626 0.92378,0.260357 0.92379,0.260356 1.00899,0.566135 1.00897,0.566143 0.50969,0.690103 0.50968,0.690105 0.1719,0.738141 0.17188,0.738154 -0.27186,0.253875 -0.27189,0.253877 h -2.56613 -2.56613 l -0.18746,-0.215658 -0.18745,-0.215662 -0.44654,-0.51328 -0.44652,-0.513287 -1.40714,-0.06632 -1.40713,-0.06637 -0.46039,0.2817 -0.46041,0.281689 v 0.422904 0.422911 l 0.54617,0.263734 0.54617,0.263733 2.68084,0.430889 2.68084,0.43086 0.88386,0.27624 0.88386,0.27624 0.5826,0.33125 0.58261,0.33133 0.6396,0.66109 0.63959,0.66102 0.23359,0.90932 0.23361,0.90936 -0.11355,1.01436 -0.11354,1.0144 -0.45557,0.83954 -0.45557,0.8394 -0.60954,0.4812 -0.60956,0.48108 -0.83045,0.34453 -0.83047,0.34442 -0.92475,0.24298 -0.92472,0.24301 z m 21.35621,0.0701 -1.86421,-0.0124 -1.29331,-0.30159 -1.29331,-0.30154 -0.83141,-0.39671 -0.83141,-0.39657 -0.76507,-0.5792 -0.76506,-0.57917 -0.58237,-0.82107 -0.58238,-0.82099 -0.39698,-1.20998 -0.39697,-1.21004 0.0106,-1.7252 0.0105,-1.7253 0.21616,-0.84228 0.21615,-0.842287 0.48704,-0.928816 0.48704,-0.928808 0.95386,-0.842405 0.95387,-0.842391 0.95754,-0.453088 0.95753,-0.453113 1.15191,-0.282838 1.1519,-0.282856 h 2.12472 2.12472 l 1.15191,0.282856 1.1519,0.282838 0.95116,0.450087 0.95115,0.450075 0.89319,0.780164 0.8932,0.780163 0.45005,0.717113 0.45005,0.717106 0.3308,1.032972 0.33078,1.032938 0.007,1.72535 0.007,1.72525 -0.25309,0.94885 -0.25307,0.94893 -0.45194,0.84205 -0.45196,0.84194 -0.88429,0.82573 -0.8843,0.8258 -0.96565,0.45702 -0.96565,0.45682 -1.39753,0.33378 -1.39752,0.3338 z m 0.0787,-4.13557 1.01905,0.008 0.64378,-0.31469 0.64376,-0.31471 0.42455,-0.76359 0.42454,-0.76363 -0.055,-2.36024 -0.055,-2.360294 -0.38882,-0.486395 -0.38883,-0.48641 -0.62584,-0.342178 -0.62586,-0.342176 h -1.01915 -1.01916 l -0.64516,0.346126 -0.64516,0.346119 -0.4157,0.765855 -0.41571,0.765833 v 2.06554 2.06557 l 0.3886,0.74958 0.3886,0.74959 0.67376,0.33243 0.67376,0.3324 z m 57.76398,4.13456 -1.69276,-0.0137 -1.20093,-0.24284 -1.20093,-0.24294 -1.16021,-0.53302 -1.16021,-0.53319 -0.89462,-0.83537 -0.89463,-0.83546 -0.41023,-0.79124 -0.41021,-0.79132 -0.25793,-0.90475 -0.25793,-0.90474 -0.002,-1.73218 -0.002,-1.7321 0.28323,-1.015354 0.2832,-1.01537 0.48761,-0.836557 0.4876,-0.836576 0.86747,-0.757691 0.86746,-0.757703 0.91535,-0.433123 0.91531,-0.433119 1.18774,-0.298277 1.18774,-0.298266 2.2171,-0.0023 2.21709,-0.0022 1.20093,0.290934 1.20093,0.290934 1.13474,0.516303 1.13472,0.51629 0.74749,0.697996 0.74748,0.698013 0.38105,0.734991 0.38103,0.735001 0.19451,0.982544 0.19451,0.98253 -0.113,0.17072 -0.11301,0.17076 h -3.03494 -3.03494 l -0.20487,-0.75969 -0.20485,-0.759687 -0.49936,-0.446739 -0.49935,-0.44675 -1.01456,-0.190255 -1.01452,-0.190261 -0.80734,0.203001 -0.80734,0.202993 -0.50766,0.474063 -0.50766,0.474041 -0.20115,0.676534 -0.20114,0.67645 -9.9e-4,1.81813 -9.8e-4,1.81815 0.41572,0.7597 0.41571,0.75964 0.5056,0.34402 0.50559,0.34399 1.1174,0.0753 1.11741,0.0755 0.80242,-0.28623 0.8024,-0.2861 0.30355,-0.31324 0.30353,-0.31316 0.23531,-0.75892 0.23528,-0.75888 h 2.94802 2.948 l -0.0579,0.84259 -0.058,0.8426 -0.38413,0.95878 -0.38414,0.9587 -0.89903,0.83939 -0.89902,0.83961 -1.16846,0.51053 -1.16844,0.51061 -1.4327,0.25595 -1.43273,0.25604 z m -177.260633,-0.37064 -3.5580266,0.0469 0.04762,-10.48471 0.04762,-10.4847075 6.6375556,-0.04526 6.637557,-0.04528 1.116141,0.267009 1.11614,0.267005 0.878642,0.526498 0.878643,0.526491 0.559723,0.595285 0.559723,0.595288 0.438572,0.8131215 0.438572,0.813131 0.207738,0.914253 0.207738,0.914258 v 0.990415 0.990417 l -0.28496,1.028272 -0.284961,1.028266 -0.592641,0.925598 -0.592642,0.92567 -0.739031,0.56321 -0.739032,0.56317 -0.744896,0.35012 -0.744893,0.35016 -1.090431,0.18825 -1.090431,0.18824 h -2.82583 -2.825829 l -0.05017,3.32107 -0.05018,3.32114 z m 5.791279,-11.719874 1.95482,-0.05872 0.538769,-0.563433 0.538768,-0.563438 v -0.943525 -0.943449 l -0.538695,-0.563425 -0.538696,-0.563431 h -2.00173 -2.001728 l -0.0528,1.8867 -0.0528,1.886687 0.09962,0.242447 0.09962,0.242421 z m 41.123313,11.759194 h -3.110096 l -0.123173,-0.1147 -0.123171,-0.1149 v -7.78662 -7.786664 l 0.22171,-0.206986 0.221709,-0.207033 h 2.259329 2.259328 l 0.290334,0.271122 0.290335,0.271106 v 0.407761 0.407758 l 0.185805,0.456349 0.185804,0.456354 0.853648,-0.701663 0.853647,-0.701667 0.95669,-0.422623 0.95669,-0.422621 1.230495,-0.200093 1.230495,-0.200095 1.286521,0.202632 1.286518,0.202638 0.837234,0.495798 0.837234,0.49581 0.541094,0.697503 0.541094,0.697502 0.306428,1.079187 0.306429,1.079187 -0.0547,5.779648 -0.0547,5.7796 h -3.140954 -3.140888 l -0.09238,-5.26201 -0.09238,-5.262105 L 65.90027,17.27664 65.667895,16.897305 65.258697,16.62967 64.849501,16.362025 H 63.87173 62.893957 l -0.653706,0.560718 -0.653707,0.560702 -0.170584,0.690063 -0.170585,0.69017 -0.0043,4.70134 -0.0043,4.70127 z m 89.935341,-0.0394 -3.0596,0.0471 -0.12747,-0.11887 -0.12749,-0.11888 v -7.88901 -7.888993 l 0.29225,-0.104767 0.29225,-0.104765 h 2.0945 2.09449 l 0.28338,0.101509 0.2834,0.101541 0.12422,0.804209 0.12423,0.804217 0.13193,0.230694 0.13194,0.230682 0.90744,-0.733994 0.90743,-0.734004 0.95691,-0.409503 0.9569,-0.409514 1.07543,-0.167988 1.07545,-0.167993 1.01616,0.112938 1.01617,0.112937 0.72635,0.238049 0.72635,0.238039 0.61603,0.438769 0.61606,0.438768 0.54081,0.884239 0.54081,0.884232 0.2072,1.132097 0.20719,1.132115 -0.0581,5.434586 -0.058,5.43457 h -3.14089 -3.14089 l -0.0924,-5.17582 -0.0924,-5.17575 -0.32524,-0.555602 -0.32524,-0.555603 -0.35546,-0.177637 -0.35545,-0.177633 h -0.86125 -0.86124 l -0.51155,0.282165 -0.51155,0.282172 -0.34836,0.537333 -0.34836,0.537315 -0.0924,5.08951 -0.0924,5.08956 z m 23.09477,0 -3.0596,0.0471 -0.12747,-0.11887 -0.12749,-0.11888 v -7.78677 -7.786617 l 0.22171,-0.207024 0.22172,-0.207043 2.78059,0.0022 2.78062,0.0022 0.23284,0.138024 0.23283,0.138018 -0.0481,7.924942 -0.0481,7.92494 z m -0.16616,-17.903595 h -2.73363 l -0.21407,-0.240846 -0.21405,-0.2408485 0.0529,-1.786335 0.0529,-1.786329 3.18707,-0.04725 3.18709,-0.04725 v 1.969665 1.9696635 l -0.29225,0.104765 -0.29225,0.104767 z"
       id="path250013" /></g></svg>
