<?xml version="1.0" encoding="UTF-8" standalone="no"?>
<!-- Created with Inkscape (http://www.inkscape.org/) -->

<svg
   width="210mm"
   height="297mm"
   viewBox="0 0 210 297"
   version="1.1"
   id="svg1"
   xml:space="preserve"
   xmlns="http://www.w3.org/2000/svg"
   xmlns:svg="http://www.w3.org/2000/svg"><defs
     id="defs1" /><g
     id="layer1"><path
       style="fill:#000000"
       id="path250011" /><path
       style="fill:#ffffff;stroke-width:1.10728"
       d="m 39.960262,111.13699 -1.515161,-0.0174 -0.695711,-0.15441 -0.695715,-0.15442 -0.718291,-0.34525 -0.718292,-0.34522 -0.553632,-0.63278 -0.553632,-0.63279 -0.227515,-0.76557 -0.227516,-0.76558 0.08742,-1.26119 0.08741,-1.26118 0.392352,-0.72107 0.392352,-0.72107 0.776935,-0.62656 0.776936,-0.62653 1.016377,-0.35826 1.016379,-0.35826 1.769653,-0.25134 1.769655,-0.25132 1.601522,-8.2e-4 1.601523,-8.2e-4 0.292249,-0.10569 0.292248,-0.10568 v -0.63891 -0.638909 L 45.639454,99.00809 45.351101,98.620238 44.817218,98.360135 44.283334,98.100024 h -0.858855 -0.858854 l -0.582196,0.261762 -0.582196,0.261762 -0.314735,0.521537 -0.314732,0.521529 h -2.953822 -2.95382 l -0.138405,-0.210983 -0.138407,-0.210984 0.04236,-0.592609 0.04236,-0.592609 0.348896,-0.644315 0.348897,-0.644324 0.775988,-0.660474 0.775985,-0.660486 0.779389,-0.324801 0.779387,-0.324813 1.275568,-0.291108 1.275567,-0.291106 2.586616,0.0047 2.586613,0.0047 1.465104,0.370587 1.465105,0.370599 0.936751,0.495597 0.936753,0.495596 0.58345,0.714491 0.583452,0.714492 0.201771,0.886375 0.201771,0.886368 v 3.619823 3.61983 l 0.337875,0.28807 0.337875,0.28807 h 0.674775 0.674775 l 0.104495,0.39224 0.104494,0.39222 -0.05478,1.39019 -0.05478,1.39017 -0.554274,0.26285 -0.554275,0.26286 -2.217097,-0.009 -2.217098,-0.009 -0.685966,-0.29522 -0.685965,-0.29522 -0.661609,-0.54727 -0.661607,-0.54729 -1.516179,0.70649 -1.516179,0.70649 -0.979074,0.18855 -0.979073,0.18855 z m 2.826656,-3.81834 0.831413,-8.2e-4 0.753553,-0.32244 0.753556,-0.32243 0.40935,-0.4903 0.409351,-0.49028 -0.05436,-0.96762 -0.05437,-0.96762 -1.200927,0.0546 -1.200928,0.0546 -0.664939,0.16261 -0.664937,0.16258 -0.62593,0.3974 -0.625931,0.3974 -0.181097,0.48514 -0.181097,0.48514 0.276622,0.46432 0.276622,0.46432 0.45631,0.21753 0.456311,0.21752 z m 43.048653,3.81769 -1.570444,-0.0131 -0.913025,-0.23603 -0.913028,-0.236 -0.749797,-0.49592 -0.749797,-0.49594 -0.461895,-0.77557 -0.461895,-0.77557 v -1.57128 -1.57128 l 0.472637,-0.86563 0.472639,-0.86561 0.899408,-0.64079 0.899406,-0.64077 1.214569,-0.35591 1.21457,-0.35588 1.445244,-0.17828 1.445246,-0.17825 h 1.71921 1.71921 l 0.218381,-0.24791 0.218381,-0.2479 -0.120942,-0.607366 -0.120941,-0.607351 -0.369696,-0.373857 -0.369695,-0.373865 -0.456181,-0.163399 -0.456182,-0.163399 h -0.732939 -0.732938 l -0.613255,0.241403 -0.613253,0.241403 -0.412769,0.546134 -0.412766,0.546134 -2.986535,-0.0478 -2.986534,-0.0478 -0.06009,-0.593357 -0.06009,-0.593364 0.292564,-0.721723 0.292565,-0.721734 0.69131,-0.631408 0.691311,-0.631396 0.943851,-0.443706 0.943853,-0.443696 1.273246,-0.290607 1.273246,-0.290596 2.586614,-0.0023 2.586615,-0.0023 1.293305,0.312489 1.293313,0.312489 0.923793,0.431324 0.923776,0.431325 0.525011,0.459973 0.525002,0.459973 0.398794,0.69626 0.398784,0.696257 0.0924,4.19497 0.0924,4.19495 0.245338,0.27787 0.245327,0.27787 0.770833,0.0529 0.770834,0.0529 v 1.73831 1.73829 l -0.554274,0.26234 -0.554264,0.26235 -2.124726,8.2e-4 -2.124717,8.2e-4 -1.051227,-0.46425 -1.051228,-0.46424 -0.240333,-0.36257 -0.240334,-0.36255 h -0.226334 -0.226334 l -1.161098,0.60117 -1.1611,0.60119 -1.200927,0.26657 -1.200928,0.26657 z m 2.771374,-3.82519 0.831411,-0.0126 0.560869,-0.20434 0.56087,-0.20433 0.402855,-0.27337 0.402857,-0.27335 0.282254,-0.50993 0.282254,-0.50994 0.0011,-0.63143 0.0011,-0.63143 -0.263939,-0.20637 -0.263937,-0.20637 -1.421262,0.18624 -1.421263,0.18623 -0.814626,0.3395 -0.814624,0.33948 -0.242944,0.54436 -0.242943,0.54435 0.08874,0.43733 0.08874,0.43732 0.575503,0.33061 0.575506,0.33062 z m 23.833785,3.75976 -2.49423,0.0685 -0.81873,-0.16284 -0.81871,-0.16284 -1.12123,-0.35258 -1.12124,-0.35259 -0.91668,-0.65421 -0.91666,-0.65421 -0.53555,-0.71789 -0.53556,-0.7179 -0.0982,-0.82094 -0.0982,-0.82093 0.25713,-0.15341 0.25712,-0.1534 h 2.49425 2.49423 l 0.20243,0.12789 0.20242,0.12788 0.25947,0.50653 0.25948,0.50655 0.48587,0.33863 0.48588,0.33863 1.17694,0.0839 1.17695,0.084 0.73477,-0.23289 0.73478,-0.23289 0.1799,-0.48243 0.17988,-0.48243 -0.37735,-0.35554 -0.37737,-0.35551 -3.21629,-0.60347 -3.2163,-0.60347 -1.13487,-0.51849 -1.13485,-0.51849 -0.65659,-0.6847 -0.6566,-0.68472 -0.21528,-0.74963 -0.21526,-0.74965 0.0852,-1.131415 0.0853,-1.131425 0.38384,-0.708142 0.38382,-0.708131 0.72824,-0.619839 0.72823,-0.61985 1.05241,-0.37096 1.05241,-0.37097 0.77316,-0.155333 0.77316,-0.155319 1.3862,-0.114755 1.38622,-0.114754 1.47753,0.177817 1.47755,0.177829 0.92378,0.262681 0.92379,0.26268 1.00899,0.571181 1.00897,0.571193 0.50969,0.696261 0.50968,0.696261 0.1719,0.744729 0.17188,0.744733 -0.27186,0.256144 -0.27189,0.256137 h -2.56613 -2.56613 l -0.18746,-0.217578 -0.18745,-0.217586 -0.44654,-0.517858 -0.44652,-0.517866 -1.40714,-0.06693 -1.40713,-0.06697 -0.46039,0.284211 -0.46041,0.2842 v 0.42668 0.426681 l 0.54617,0.26609 0.54617,0.266082 2.68084,0.434711 2.68084,0.43471 0.88386,0.2787 0.88386,0.27871 0.5826,0.33424 0.58261,0.33428 0.6396,0.66698 0.63959,0.66697 0.23359,0.9174 0.23361,0.91739 -0.11355,1.02345 -0.11354,1.02346 -0.45557,0.847 -0.45557,0.847 -0.60954,0.48536 -0.60956,0.48537 -0.83045,0.3476 -0.83047,0.3476 -0.92475,0.2451 -0.92472,0.2451 z m 21.35621,0.0708 -1.86421,-0.0128 -1.29331,-0.30428 -1.29331,-0.30428 -0.83141,-0.40015 -0.83141,-0.40016 -0.76507,-0.58433 -0.76506,-0.58433 -0.58237,-0.82835 -0.58238,-0.82835 -0.39698,-1.22082 -0.39697,-1.22083 0.0106,-1.74065 0.0105,-1.74064 0.21616,-0.84979 0.21615,-0.849795 0.48704,-0.937106 0.48704,-0.937091 0.95386,-0.849919 0.95387,-0.849905 0.95754,-0.457136 0.95753,-0.457148 1.15191,-0.285364 1.1519,-0.285376 h 2.12472 2.12472 l 1.15191,0.285376 1.1519,0.285364 0.95116,0.454101 0.95115,0.45409 0.89319,0.787123 0.8932,0.787122 0.45005,0.723511 0.45005,0.723503 0.3308,1.042187 0.33078,1.042183 0.007,1.74065 0.007,1.74064 -0.25309,0.95737 -0.25307,0.95736 -0.45194,0.84956 -0.45196,0.84956 -0.88429,0.83311 -0.8843,0.83312 -0.96565,0.461 -0.96565,0.46101 -1.39753,0.33675 -1.39752,0.33674 z m 0.0787,-4.17244 1.01905,0.008 0.64378,-0.31749 0.64376,-0.31748 0.42455,-0.77042 0.42454,-0.77042 -0.055,-2.38133 -0.055,-2.38133 -0.38882,-0.490732 -0.38883,-0.490748 -0.62584,-0.345236 -0.62586,-0.345227 h -1.01915 -1.01916 l -0.64516,0.349219 -0.64516,0.349202 -0.4157,0.772688 -0.41571,0.772664 v 2.08398 2.08397 l 0.3886,0.75628 0.3886,0.75629 0.67376,0.33537 0.67376,0.33536 z m 57.76398,4.17142 -1.69276,-0.0139 -1.20093,-0.24502 -1.20093,-0.245 -1.16021,-0.5379 -1.16021,-0.53789 -0.89462,-0.84284 -0.89463,-0.84286 -0.41023,-0.79835 -0.41021,-0.79835 -0.25793,-0.91281 -0.25793,-0.91282 -0.002,-1.74758 -0.002,-1.7476 0.28323,-1.024411 0.2832,-1.024423 0.48761,-0.844023 0.4876,-0.844034 0.86747,-0.764451 0.86746,-0.764462 0.91535,-0.436986 0.91531,-0.436988 1.18774,-0.300931 1.18774,-0.300932 2.2171,-0.0023 2.21709,-0.0023 1.20093,0.293538 1.20093,0.293525 1.13474,0.520908 1.13472,0.520896 0.74749,0.704225 0.74748,0.704237 0.38105,0.741549 0.38103,0.741554 0.19451,0.991309 0.19451,0.99131 -0.113,0.17225 -0.11301,0.17226 h -3.03494 -3.03494 l -0.20487,-0.76646 -0.20485,-0.766464 -0.49936,-0.450727 -0.49935,-0.450736 -1.01456,-0.191954 -1.01452,-0.191955 -0.80734,0.204808 -0.80734,0.204807 -0.50766,0.478289 -0.50766,0.478273 -0.20115,0.682559 -0.20114,0.68253 -9.9e-4,1.83431 -9.8e-4,1.83432 0.41572,0.76647 0.41571,0.76647 0.5056,0.34705 0.50559,0.34704 1.1174,0.0761 1.11741,0.0761 0.80242,-0.28871 0.8024,-0.2887 0.30355,-0.316 0.30353,-0.316 0.23531,-0.76565 0.23528,-0.76566 h 2.94802 2.948 l -0.0579,0.85014 -0.058,0.85012 -0.38413,0.96727 -0.38414,0.96726 -0.89903,0.84699 -0.89902,0.84701 -1.16846,0.51512 -1.16844,0.51515 -1.4327,0.25825 -1.43273,0.25826 z m -177.260631,-0.37405 -3.558027,0.0473 0.04762,-10.5782 0.04762,-10.578224 6.637556,-0.04569 6.637557,-0.04569 1.116141,0.26939 1.11614,0.269388 0.878642,0.531199 0.878643,0.531185 0.559723,0.600597 0.559723,0.600597 0.438572,0.820374 0.438572,0.820387 0.207738,0.92241 0.207738,0.92241 v 0.99925 0.999251 l -0.28496,1.037447 -0.284961,1.03744 -0.592641,0.933849 -0.592642,0.93386 -0.739031,0.56823 -0.739032,0.56822 -0.744896,0.35327 -0.744893,0.35328 -1.090431,0.18991 -1.090431,0.18991 h -2.82583 -2.825829 l -0.05017,3.35076 -0.05018,3.35074 z m 5.791279,-11.824348 1.95482,-0.0593 0.538769,-0.568464 0.538768,-0.56846 v -0.951845 -0.951861 l -0.538695,-0.56846 -0.538696,-0.568461 h -2.00173 -2.001728 l -0.0528,1.903535 -0.0528,1.903518 0.09962,0.244606 0.09962,0.24459 z m 41.123313,11.864098 h -3.110096 l -0.123173,-0.11602 -0.123171,-0.11604 v -7.85614 -7.85613 l 0.22171,-0.208873 0.221709,-0.208884 h 2.259329 2.259328 l 0.290334,0.273541 0.290335,0.273528 v 0.411396 0.411396 l 0.185805,0.460415 0.185804,0.460426 0.853648,-0.707922 0.853647,-0.707922 0.95669,-0.426395 0.95669,-0.426394 1.230495,-0.201874 1.230495,-0.201885 1.286521,0.204443 1.286518,0.204443 0.837234,0.500223 0.837234,0.500236 0.541094,0.703725 0.541094,0.703725 0.306428,1.088813 0.306429,1.08881 -0.0547,5.831179 -0.0547,5.83117 H 72.625358 69.48447 l -0.09238,-5.30898 -0.09238,-5.30899 -0.232378,-0.38271 -0.232375,-0.382718 -0.409198,-0.270024 -0.409196,-0.270032 h -0.977771 -0.977773 l -0.653706,0.565721 -0.653707,0.565704 -0.170584,0.696259 -0.170585,0.69626 -0.0043,4.74327 -0.0043,4.74328 z m 89.935339,-0.0394 -3.0596,0.0476 -0.12747,-0.12011 -0.12749,-0.1201 v -7.95936 -7.959352 l 0.29225,-0.105687 0.29225,-0.105685 h 2.0945 2.09449 l 0.28338,0.10243 0.2834,0.102431 0.12422,0.811388 0.12423,0.811387 0.13193,0.232753 0.13194,0.232742 0.90744,-0.740546 0.90743,-0.740547 0.95691,-0.413163 0.9569,-0.413164 1.07543,-0.169482 1.07545,-0.169493 1.01616,0.113941 1.01617,0.113941 0.72635,0.240171 0.72635,0.24016 0.61603,0.442684 0.61606,0.442684 0.54081,0.892123 0.54081,0.892123 0.2072,1.142202 0.20719,1.142209 -0.0581,5.48304 -0.058,5.48306 h -3.14089 -3.14089 l -0.0924,-5.22195 -0.0924,-5.22196 -0.32524,-0.560543 -0.32524,-0.560555 -0.35546,-0.179225 -0.35545,-0.179225 h -0.86125 -0.86124 l -0.51155,0.284683 -0.51155,0.284692 -0.34836,0.542126 -0.34836,0.542117 -0.0924,5.13491 -0.0924,5.13493 z m 23.09477,0 -3.0596,0.0476 -0.12747,-0.12011 -0.12749,-0.1201 v -7.85613 -7.85614 l 0.22171,-0.208872 0.22172,-0.208885 2.78059,0.0023 2.78062,0.0023 0.23284,0.139254 0.23283,0.139251 -0.0481,7.995622 -0.0481,7.99561 z m -0.16616,-18.063296 h -2.73363 l -0.21407,-0.242997 -0.21405,-0.242996 0.0529,-1.802267 0.0529,-1.802266 3.18707,-0.04767 3.18709,-0.04767 v 1.987234 1.987236 l -0.29225,0.105685 -0.29225,0.105686 z"
       id="path250013" /></g></svg>
