<?xml version="1.0" encoding="UTF-8" standalone="no"?>
<!-- Created with Inkscape (http://www.inkscape.org/) -->

<svg
   width="297mm"
   height="210mm"
   viewBox="0 0 297 210"
   version="1.1"
   id="svg1"
   xml:space="preserve"
   xmlns="http://www.w3.org/2000/svg"
   xmlns:svg="http://www.w3.org/2000/svg"><defs
     id="defs1" /><g
     id="layer1"><path
       style="fill:#ffffff;stroke-width:1.71343"
       d="M 39.660008,159.59245 C 34.633836,154.48296 24.728191,143.84068 21.466462,140.04597 l -2.703313,-3.14508 -0.575831,-6.50113 c -0.316706,-3.57562 -0.843409,-9.6172 -1.17045,-13.4257 -0.327044,-3.80849 -0.781908,-7.39051 -1.01081,-7.96 -0.228901,-0.56949 -1.819533,-1.79473 -3.534736,-2.72277 -4.7388188,-2.56401 -5.4285409,-3.33313 -5.1237887,-5.71371 0.1400662,-1.094149 0.3932542,-5.453328 0.5626283,-9.687041 L 8.2181174,83.192898 4.6631273,68.973752 1.1081373,54.754592 2.3308877,51.838514 c 0.6725105,-1.603833 2.5031888,-5.966171 4.0681701,-9.694096 l 2.8454181,-6.778064 7.7094481,-7.398847 c 4.240203,-4.069362 8.264736,-7.806421 8.943432,-8.304551 0.678682,-0.49814 4.898893,-2.029894 9.378235,-3.403894 4.479343,-1.373988 10.885116,-3.343987 14.235067,-4.37776 3.349952,-1.033783 6.498025,-1.879579 6.995715,-1.879579 0.49769,0 5.419831,1.514525 10.938082,3.36563 5.518266,1.851092 12.104053,4.015212 14.635098,4.809179 4.411906,1.383958 4.788892,1.616155 9.131433,5.624305 10.348254,9.551391 10.776754,10.091672 14.053044,17.719509 6.40137,14.903616 6.0681,13.499082 4.53263,19.102215 -0.53982,1.969916 -1.41616,5.408328 -1.94745,7.640898 -0.53126,2.232544 -1.63599,6.745464 -2.45494,10.028639 l -1.489,5.969438 0.79968,9.182359 c 0.61997,7.118675 0.66772,9.336175 0.2125,9.866845 -0.32295,0.37648 -2.43592,1.88699 -4.6955,3.3567 -4.793557,3.11788 -4.255747,1.46503 -5.45138,16.7536 -1.201877,15.36858 -0.916422,14.14888 -4.126639,17.63128 -1.540468,1.67108 -6.780257,7.35972 -11.643964,12.64143 l -8.843102,9.60315 H 56.730448 43.30403 Z m 30.667708,0.59302 1.166403,-1.20126 -0.923528,-3.4549 c -0.507947,-1.90023 -1.862692,-6.35609 -3.010553,-9.90196 -2.011274,-6.213 -2.133331,-6.44201 -3.363272,-6.30981 -0.701942,0.0755 -1.719087,-0.0921 -2.260306,-0.37235 -0.749671,-0.38818 -1.271284,-0.32746 -2.189964,0.25495 -0.90067,0.57095 -1.447241,0.63949 -2.15931,0.27078 -0.524374,-0.27151 -1.927496,-0.48873 -3.118051,-0.48273 -1.190556,0.007 -2.664408,-0.003 -3.275222,-0.0177 -0.610827,-0.0154 -1.499285,0.004 -1.974362,0.044 -0.475092,0.04 -1.185622,-0.0136 -1.578978,-0.11939 -0.775262,-0.20825 -1.220678,1.51 -3.702685,14.28379 -1.041585,5.36058 -1.201042,6.9831 -0.739213,7.5215 0.484082,0.56433 2.845946,0.68645 13.275735,0.68645 H 69.161313 Z M 35.781309,144.79156 c -1.635525,-5.54274 -2.97367,-10.91331 -2.97367,-11.93461 0,-1.65378 -0.189953,-1.94452 -1.73645,-2.65805 -0.955046,-0.44062 -1.944701,-1.2863 -2.199257,-1.87928 -0.254541,-0.59295 -1.150954,-4.51015 -1.992012,-8.70486 -0.84106,-4.19471 -1.572807,-7.6679 -1.626089,-7.71819 -0.312398,-0.29482 -5.641493,-2.08539 -6.207139,-2.08558 -0.541006,-1.9e-4 -0.619232,0.66152 -0.381034,3.22326 0.164856,1.77291 0.645848,7.19913 1.068879,12.05825 0.423034,4.85912 0.874216,9.49198 1.002631,10.29525 0.156831,0.98101 1.79483,3.17572 4.989913,6.68573 8.386509,9.21326 12.72649,13.67066 12.879129,13.22761 0.08185,-0.23749 -1.189376,-4.96678 -2.824901,-10.50953 z m 7.08923,3.10419 c 0.726556,-3.74284 1.435561,-7.36475 1.57554,-8.04868 0.191651,-0.93635 -0.0256,-1.41947 -0.879452,-1.95585 -1.222561,-0.76799 -3.503266,-1.39108 -5.068621,-1.38474 -0.53522,0.003 -1.369518,-0.34315 -1.854003,-0.76735 -0.484485,-0.42423 -0.99905,-0.65696 -1.143459,-0.51724 -0.35528,0.34371 5.232883,19.47901 5.68854,19.47901 0.198238,0 0.954887,-3.0623 1.681455,-6.80515 z m 32.815295,-3.53237 c 1.392707,-5.02903 2.53221,-9.40761 2.53221,-9.73018 0,-0.83654 -2.901141,-0.20265 -4.171806,0.91149 -0.555993,0.48756 -1.985454,1.00499 -3.176584,1.14991 -3.704799,0.4508 -3.719702,0.58495 -1.019245,9.17155 1.321674,4.20249 2.412369,7.84505 2.423777,8.09457 0.07178,1.56838 1.192842,-1.58543 3.411648,-9.59734 z m 12.520584,-3.47203 c 1.828685,-1.99165 3.340773,-3.83611 3.360178,-4.09875 0.01942,-0.26265 0.538745,-6.06495 1.154076,-12.894 0.61533,-6.82901 0.948327,-12.60837 0.740004,-12.84295 -0.215558,-0.24274 -1.654082,0.0348 -3.337954,0.64417 -3.377571,1.22208 -3.093569,0.58457 -4.794502,10.76224 -0.84618,5.06321 -0.952715,5.32727 -3.00654,7.45164 -1.752445,1.81262 -2.130122,2.5317 -2.134063,4.06309 -0.0028,1.02338 -1.085978,5.88062 -2.407421,10.79386 -1.321445,4.9132 -2.303332,9.02919 -2.18198,9.1466 0.208351,0.20157 5.162684,-4.9169 12.608202,-13.0259 z m -28.498056,-5.53142 c 0,-1.71919 -0.123424,-1.91019 -1.233984,-1.91019 -0.988332,0 -1.265861,0.26943 -1.394175,1.35361 -0.233985,1.97691 0.239251,2.79501 1.515368,2.61969 0.942861,-0.12956 1.112791,-0.4446 1.112791,-2.06311 z m -9.54139,-0.0197 c 0.423263,-1.53125 0.161457,-1.9701 -1.317618,-2.20881 -0.802435,-0.12942 -1.01713,0.14412 -1.147199,1.46208 -0.262295,2.65777 1.766658,3.27244 2.464817,0.74673 z m 4.358681,0.25844 c 0,-0.78797 0.05553,-1.59382 0.123423,-1.79081 0.0679,-0.19699 -0.376367,-0.42684 -0.987182,-0.51078 -0.995625,-0.13683 -1.110575,0.0485 -1.110575,1.79083 0,1.62507 0.161716,1.94346 0.987181,1.94346 0.767812,0 0.987182,-0.31839 0.987182,-1.4327 z m 10.247215,-0.23877 c 0.159933,-1.78179 -0.453096,-2.75098 -1.495272,-2.36405 -0.872748,0.32403 -1.61481,2.75404 -1.09127,3.57361 0.181466,0.28408 0.808751,0.45049 1.393944,0.36981 0.783031,-0.10789 1.09796,-0.52503 1.192598,-1.57937 z m -19.440575,-1.28397 c 0.182444,-0.75001 0.08343,-1.42091 -0.238258,-1.61325 -0.717204,-0.42885 -1.292257,0.50053 -1.137992,1.83925 0.06703,0.58192 0.140396,1.26215 0.163053,1.51169 0.07149,0.78804 0.880804,-0.37121 1.213197,-1.73769 z m 23.207906,0.7674 c 0.164795,-0.41545 0.299609,-1.18337 0.299609,-1.70645 0,-1.20688 -1.640933,-1.0096 -1.887045,0.22684 -0.363248,1.82491 0.960943,3.05917 1.587436,1.47961 z m 3.66993,-2.30538 c -0.08904,-0.6968 -0.384092,-1.31397 -0.655565,-1.37146 -0.593005,-0.1256 -0.940142,1.80712 -0.516448,2.87536 0.462088,1.16507 1.365117,0.007 1.172013,-1.5039 z m -30.671203,-0.64029 c -0.124143,-0.45963 -0.225728,-0.0835 -0.225728,0.83572 0,0.91931 0.101558,1.29537 0.225728,0.83573 0.124142,-0.45965 0.124142,-1.21179 0,-1.67145 z m -2.901803,0 c -0.103284,-1.20759 -0.39432,-1.79082 -0.893579,-1.79082 -0.532041,0 -0.691699,0.40313 -0.567342,1.43268 0.203302,1.68313 0.446063,2.14897 1.119869,2.14897 0.271831,0 0.425304,-0.80587 0.341052,-1.79083 z m 37.514424,-0.99185 c 0.111914,-1.09681 -0.05035,-1.51528 -0.587856,-1.51528 -1.045742,0 -1.439386,0.80865 -1.075849,2.21006 0.420442,1.62073 1.472183,1.18151 1.663705,-0.69478 z m -25.668351,-0.44077 c 0.239035,-0.45966 0.302386,-2.01768 0.140829,-3.46228 -0.25247,-2.25687 -0.450148,-2.64804 -1.404416,-2.77915 -1.045614,-0.1436 -1.110576,0.0154 -1.110576,2.70689 0,1.57271 0.134787,3.19939 0.29961,3.61487 0.398491,1.00474 1.533204,0.96078 2.074625,-0.0804 z m 4.536047,-2.71657 c 0.180503,-2.41684 0.06574,-3.47961 -0.427491,-3.95661 -1.241565,-1.20087 -1.790566,-0.36299 -1.94132,2.96278 -0.172461,3.80491 0.07293,4.67529 1.25674,4.45748 0.69534,-0.12785 0.913747,-0.80814 1.112071,-3.46365 z m 5.327379,0.41399 c 0.07955,-1.59474 -0.104003,-3.52883 -0.408087,-4.29798 l -0.552741,-1.39851 -1.196095,1.33993 c -0.967905,1.08428 -1.196093,1.86627 -1.196093,4.09901 0,3.13962 0.210897,3.49526 1.955892,3.29838 1.168618,-0.13194 1.262135,-0.33542 1.397124,-3.04083 z m 4.235962,1.16839 c 0.714372,-3.45585 0.235842,-5.67099 -1.225093,-5.67099 -0.825609,0 -0.934374,0.37985 -0.934374,3.26331 0,1.7948 0.148078,3.40655 0.329055,3.58166 0.753642,0.72915 1.541447,0.22386 1.830412,-1.17398 z m -18.512659,-1.83222 c 0.134211,-2.8457 -0.21005,-3.65395 -1.213241,-2.84841 -0.887163,0.71234 -0.951551,5.0497 -0.07941,5.35233 1.009565,0.35042 1.173007,0.0339 1.292689,-2.50392 z m 37.163085,-5.32159 c 0.496367,-2.68955 0.808736,-4.98077 0.694174,-5.09162 -0.24791,-0.23986 -4.821431,5.36609 -5.304261,6.50167 -0.449126,1.05631 -0.494914,6.03467 -0.05941,6.45605 0.190039,0.18387 1.115351,-0.41052 2.056256,-1.32086 1.537693,-1.48774 1.802031,-2.14981 2.613212,-6.54524 z m -14.608501,6.54567 c 0.459887,-1.77278 0.05726,-3.36533 -0.89529,-3.54097 -0.730769,-0.13483 -0.863772,0.21378 -0.863772,2.2635 0,1.82137 0.181451,2.42281 0.73097,2.42281 0.402046,0 0.864679,-0.51542 1.028092,-1.14534 z m -33.842508,-1.68894 c 0,-1.29614 -0.214983,-2.90372 -0.477739,-3.57236 -0.513657,-1.30715 -5.452425,-7.59484 -5.743937,-7.31278 -0.09667,0.0935 0.323432,2.73479 0.933512,5.86952 1.099499,5.64945 1.124341,5.70667 2.828511,6.51297 0.945595,0.44743 1.885852,0.82381 2.089456,0.83641 0.203605,0.0132 0.370197,-1.03755 0.370197,-2.33376 z m 7.403874,-0.48045 c 0,-2.27651 -0.585915,-3.43049 -1.229899,-2.42234 -0.428743,0.67116 0.252398,4.78194 0.792351,4.78194 0.240646,0 0.437548,-1.06181 0.437548,-2.3596 z m 30.016947,0.36677 c -0.22347,-2.18925 -1.388651,-2.35368 -1.388651,-0.19596 0,1.23354 0.2154,1.71125 0.771667,1.71125 0.570175,0 0.731272,-0.39565 0.616984,-1.51529 z m -33.567109,-0.9919 c -0.106161,-1.4205 -0.373994,-2.02963 -0.892169,-2.02963 -0.973818,0 -1.318207,3.0846 -0.406806,3.64366 1.202898,0.73787 1.451729,0.42869 1.298975,-1.61403 z m 37.324543,0.27829 c 0.371793,-0.93741 -0.383546,-1.83944 -1.154349,-1.37851 -0.777895,0.46512 -0.659219,2.1747 0.15097,2.1747 0.37818,0 0.82968,-0.3583 1.003364,-0.79619 z m 0.440149,-3.79382 c 0.976868,-0.39719 6.81471,-8.29943 6.497781,-8.79559 -0.162838,-0.25491 -0.7269,-0.4635 -1.253461,-0.4635 -0.852408,0 -2.852117,-0.79475 -12.741162,-5.06379 -1.458058,-0.62942 -2.941218,-1.14441 -3.295922,-1.14441 -0.76371,0 -2.690933,2.2474 -2.690933,3.13798 0,0.34179 1.139158,3.2311 2.531448,6.4207 1.751006,4.01136 2.854275,5.93324 3.578542,6.23373 0.991123,0.41121 6.118636,0.18513 7.373707,-0.32512 z m -28.719324,-6.43205 2.780452,-6.40871 -1.052892,-1.11835 c -2.058327,-2.1863 -2.304152,-2.16334 -9.402949,0.87925 -4.958749,2.12531 -7.262282,2.86567 -8.916435,2.86567 -1.226691,0 -2.230358,0.11568 -2.230358,0.25721 0,0.1414 1.572649,2.29047 3.494779,4.77554 l 3.494794,4.51835 3.292095,0.007 c 1.810647,0.004 3.625265,0.21544 4.032488,0.46979 0.407209,0.25437 0.962497,0.39501 1.233969,0.31257 0.271473,-0.0825 1.744808,-3.03382 3.274057,-6.55863 z m 4.4442,5.69295 c 1.475665,-0.42777 2.213224,-0.41978 3.2452,0.0352 1.212263,0.53441 1.420916,0.47531 2.260882,-0.6403 1.092953,-1.45164 1.470774,-1.50827 2.624475,-0.39334 0.93226,0.90094 4.633592,1.18435 4.634628,0.35489 9.49e-4,-0.74826 -3.372018,-8.87728 -4.176036,-10.06451 -0.395054,-0.58335 -1.708903,-1.42664 -2.919683,-1.87401 -2.088953,-0.77187 -2.277726,-0.76979 -3.695694,0.0406 -0.96277,0.55023 -1.940313,1.81561 -2.748215,3.55736 -1.261444,2.71953 -3.735467,8.8855 -3.735467,9.30984 0,0.41989 2.580687,0.23355 4.50991,-0.32568 z m 37.412477,-11.91909 c 1.918405,-0.59778 3.488033,-1.31868 3.488033,-1.60196 0,-0.28329 -1.394419,-2.76607 -3.098718,-5.51727 L 86.828354,97.633002 80.672231,95.898093 C 73.000093,93.735992 68.362185,91.370289 66.457993,88.647749 63.961558,85.07848 59.955164,78.04084 59.955164,77.224901 c 0,-0.437431 0.916651,-3.041092 2.036994,-5.785936 l 2.036995,-4.990621 -1.390938,-1.764374 -1.390952,-1.764375 -2.114026,2.313732 -2.114026,2.313732 -2.888396,-3.042295 -2.888396,-3.042335 -1.566736,2.288467 c -0.861687,1.258658 -1.566722,2.65694 -1.566722,3.107262 0,0.450374 0.777406,3.139401 1.727575,5.975652 0.950168,2.836264 1.727573,5.667055 1.727573,6.29066 0,0.623605 -0.634592,1.927107 -1.410213,2.896643 -0.775608,0.969562 -2.881923,3.712384 -4.680689,6.09514 -1.798765,2.382797 -3.774033,4.573959 -4.389492,4.869295 -0.61546,0.295323 -3.784406,1.538831 -7.042107,2.7633 -9.074756,3.410989 -9.062256,3.402345 -13.207422,9.131342 l -1.854814,2.56353 1.361227,0.51575 c 3.741607,1.41754 5.113485,1.75917 8.31248,2.06998 3.434018,0.33368 3.543027,0.30828 9.764443,-2.27562 3.460399,-1.43716 6.421209,-2.73841 6.579587,-2.89163 0.158364,-0.15324 -0.09336,-1.59354 -0.559487,-3.20068 l -0.847432,-2.92211 4.25708,-6.880776 c 2.341395,-3.784449 4.537989,-6.880817 4.881315,-6.880817 0.343326,0 1.11689,0.644705 1.719015,1.432682 0.60214,0.78795 1.254727,1.429997 1.450205,1.426758 0.195476,-0.004 0.857227,-0.755427 1.470543,-1.671445 0.613303,-0.916059 1.417866,-1.665524 1.787905,-1.665524 0.370039,0 1.423045,1.199311 2.340028,2.665123 0.916968,1.465852 1.896195,2.916408 2.176039,3.22351 0.279859,0.307089 1.486425,2.062646 2.681268,3.901241 2.562447,3.943019 3.209984,7.456138 1.767017,9.586818 -0.462246,0.68257 -0.764201,1.31481 -0.670986,1.40498 0.09322,0.0903 2.831878,1.26348 6.085925,2.60733 3.254061,1.34382 6.249654,2.64976 6.656863,2.90204 1.091285,0.67616 5.372259,0.2012 9.345351,-1.03685 z m 12.727282,-7.02062 c 0.0592,-0.1789 -1.54458,-1.29232 -3.564173,-2.47426 -3.603155,-2.108747 -4.457966,-3.298907 -3.275582,-4.560672 1.092394,-1.165704 5.988355,-10.854558 5.963455,-11.801329 -0.0154,-0.587829 -0.96426,-3.647576 -2.108433,-6.79943 -1.924792,-5.302271 -2.181189,-5.741977 -3.429832,-5.88201 -1.882399,-0.211173 -2.128799,0.843662 -0.777534,3.328548 0.963403,1.771646 1.156492,2.965166 1.317417,8.143177 l 0.188557,6.067297 -2.426783,2.528713 c -4.122754,4.295903 -5.075081,5.371614 -5.075081,5.73267 0,0.470228 4.890048,8.531946 5.777124,9.524166 0.645912,0.72246 0.984707,0.60853 4.004322,-1.34618 1.814313,-1.17448 3.347253,-2.28178 3.406543,-2.46069 z m -82.079524,-0.36927 3.19892,-4.103213 -2.760754,-3.548801 c -2.291776,-2.945983 -2.937782,-3.497668 -3.802854,-3.247652 -2.270006,0.656074 -2.515009,1.367412 -1.363211,3.957825 0.583823,1.313048 1.061499,2.695452 1.061499,3.072013 0,0.37655 -1.337572,1.49601 -2.972384,2.487748 -1.634811,0.9917 -2.879447,1.89298 -2.765857,2.00291 0.485896,0.47011 5.523407,3.45904 5.848582,3.47017 0.196429,0.007 1.796654,-1.83424 3.556059,-4.091 z m -6.292574,-4.307853 c 0.302363,-0.758457 -2.957299,-8.43259 -3.680956,-8.666 -0.4530728,-0.146141 -0.603151,1.248941 -0.603151,5.606505 v 5.801008 l 2.036127,-1.105063 c 1.119872,-0.60776 2.131462,-1.344182 2.24798,-1.63645 z M 103.20816,97.39429 c -0.1708,-1.575944 -0.45029,-4.154723 -0.62109,-5.730664 -0.1708,-1.575953 -0.44846,-2.86281 -0.617,-2.859678 -0.47484,0.0093 -4.703051,8.077391 -4.391013,8.379321 0.79064,0.764935 4.670363,3.007101 5.258923,3.039201 0.53955,0.0295 0.61632,-0.55715 0.37018,-2.82818 z m -87.461565,-7.629068 1.266113,-0.465737 -0.01648,-7.055753 c -0.01475,-6.349254 -0.115598,-7.170996 -1.006887,-8.206714 -0.595048,-0.691466 -1.169785,-0.977429 -1.439636,-0.716334 -0.703147,0.680348 -3.953744,8.735448 -3.953744,9.797488 0,1.435551 2.63035,7.10143 3.299609,7.107472 0.321671,0.004 1.154608,-0.204272 1.850968,-0.460422 z M 104.58646,73.577006 c 1.95144,-8.031304 2.87045,-12.522925 2.61314,-12.771884 -0.12559,-0.121365 -0.97836,0.674848 -1.89499,1.769716 -0.91663,1.094854 -2.6106,3.078481 -3.76437,4.408028 -1.15377,1.329546 -2.097771,2.795187 -2.097771,3.256971 0,0.814775 2.326111,8.363961 2.825011,9.168358 0.50066,0.807187 1.02843,-0.519902 2.31898,-5.831189 z m -93.300288,1.334745 c 0.706314,-1.727858 1.284211,-3.510319 1.284211,-3.960997 0,-0.655996 -2.260831,-3.937955 -5.3053934,-7.701647 C 7.0525212,62.986452 6.3823827,62.151609 5.7757998,61.39388 5.1692155,60.636152 4.6729206,60.194014 4.6729206,60.411375 c 0,0.395694 3.7731953,15.906537 4.2742675,17.570646 0.3660119,1.215546 0.8429505,0.589482 2.3389839,-3.07027 z M 19.1805,71.535133 c 0.651078,-0.899348 0.654973,-1.190995 0.0315,-2.357506 -1.06312,-1.989045 -1.509825,-2.030598 -2.600628,-0.241884 -0.930016,1.525053 -0.940676,1.687668 -0.171713,2.619511 1.048597,1.270742 1.810381,1.26515 2.740847,-0.02023 z m 75.696244,-2.310057 c 0.339356,-0.004 0.616999,-0.211121 0.616999,-0.461189 0,-0.849624 -4.548044,-6.754136 -5.07226,-6.585097 -0.286764,0.09254 -1.271514,1.047181 -2.188324,2.121517 l -1.666927,1.953363 2.859582,1.739123 c 1.796824,1.092792 3.226471,1.646156 3.846765,1.488962 0.542945,-0.137508 1.264825,-0.253083 1.604165,-0.256679 z M 28.463587,67.096764 c 1.547158,-0.415842 2.929494,-0.938402 3.071833,-1.161249 0.269085,-0.421236 -5.165346,-9.598492 -5.688584,-9.60641 -0.163528,-0.0026 -1.678306,1.956324 -3.366178,4.35291 -2.91144,4.133923 -3.037809,4.429959 -2.46354,5.771339 1.064575,2.486593 1.710043,2.837746 3.804792,2.069825 1.005753,-0.368684 3.094505,-1.01056 4.641677,-1.426415 z M 22.553864,57.002405 c 3.730735,-5.231938 7.595149,-10.646542 8.58761,-12.032464 0.992445,-1.385912 1.693913,-2.626815 1.55881,-2.757527 -0.531625,-0.51434 -20.700748,-5.552052 -21.014204,-5.248775 -0.108376,0.104866 0.147985,3.160848 0.569718,6.791073 0.421727,3.63022 1.152371,10.311455 1.623655,14.847167 0.540622,5.203024 1.047764,8.185152 1.374067,8.079915 0.284452,-0.09175 3.569606,-4.447451 7.300344,-9.679389 z M 12.336317,64.084836 C 12.188886,62.837217 11.619813,57.733362 11.071721,52.742899 9.9248853,42.300774 9.6640603,40.795127 9.0987837,41.35377 8.8731862,41.576723 7.9189451,43.585783 6.978246,45.818349 c -0.9406963,2.232562 -2.0663412,4.858198 -2.5014324,5.834706 -1.3593701,3.050981 -1.564498,2.628714 6.1550404,12.670573 0.858129,1.116272 1.653,2.029606 1.766383,2.029606 0.113368,0 0.08551,-1.020779 -0.06191,-2.268398 z m 86.083612,-9.670491 c 1.458201,-13.421376 1.742261,-17.669551 1.181421,-17.669551 -0.688837,0 -18.910188,5.566502 -19.228053,5.874033 -0.274191,0.265282 0.969057,2.119636 10.622016,15.843217 6.689416,9.510296 5.905091,9.937918 7.424616,-4.047699 z m 6.848461,5.082783 c 2.81424,-3.319823 3.51551,-4.449699 3.2604,-5.253104 -0.17878,-0.562962 -1.38446,-3.494909 -2.67931,-6.515449 -1.29485,-3.020541 -2.50369,-5.975411 -2.68633,-6.566396 -0.393,-1.271698 -1.24904,-1.43375 -1.26128,-0.238763 -0.004,0.459634 -0.21963,2.769811 -0.47765,5.133715 -2.457706,22.518084 -2.363355,20.452596 -0.86149,18.858544 0.61614,-0.653946 2.7337,-3.092295 4.70566,-5.418547 z m -58.315907,4.587708 c 0.551951,-0.722296 1.357435,-1.975441 1.789991,-2.784743 0.994748,-1.861149 0.990245,-1.86817 -6.603365,-10.311883 -7.244804,-8.055834 -7.053125,-7.901683 -8.0911,-6.507704 -3.886855,5.21982 -6.669881,9.205646 -6.669881,9.552463 0,0.229497 1.499285,2.87992 3.33174,5.88981 l 3.33174,5.472527 5.953669,0.0011 c 5.923289,0.0011 5.958791,-0.0053 6.957206,-1.311885 z M 86.881392,62.81662 c 1.266939,-1.419844 2.27354,-2.762957 2.236872,-2.98472 -0.109325,-0.660939 -3.553944,-5.824394 -4.268185,-6.397905 -0.526762,-0.422968 -1.214306,0.53853 -3.399378,4.753892 -1.506492,2.906254 -2.739066,5.472342 -2.739066,5.702461 0,0.349593 1.041959,0.62215 5.524452,1.445043 0.187967,0.03451 1.37835,-1.098953 2.645305,-2.518771 z m -11.847455,1.349814 c 0.706128,-0.183066 2.009793,-2.200351 4.318921,-6.683101 1.819135,-3.531486 3.307501,-6.698218 3.307501,-7.037164 0,-0.556228 -4.224785,-6.538049 -4.617638,-6.538049 -0.0902,0 -1.691598,1.751385 -3.558648,3.891957 -1.867051,2.140557 -3.629192,4.128377 -3.91587,4.417394 -1.49005,1.502036 -7.651495,8.803389 -7.651495,9.067048 0,0.168656 0.499762,1.074482 1.110575,2.013055 l 1.110589,1.706508 4.442316,-0.287722 c 2.443283,-0.158145 4.897469,-0.405702 5.453749,-0.549926 z M 62.176314,58.787377 c 2.443283,-2.797594 6.73473,-7.715639 9.536542,-10.928966 3.216445,-3.688884 4.962676,-6.065801 4.737394,-6.448412 -1.370224,-2.327016 -19.675266,-28.54295 -19.929866,-28.54295 -0.176042,0 -2.374349,2.954878 -4.885126,6.566395 -2.510778,3.611494 -6.785392,9.682414 -9.499141,13.490925 -2.713749,3.808503 -5.146055,7.287643 -5.405143,7.731456 -0.372023,0.637254 0.176489,1.540956 2.608667,4.298004 1.693855,1.920102 3.199412,3.598528 3.345693,3.729851 0.146266,0.131426 2.810689,3.139948 5.920901,6.685777 7.892198,8.9976 7.92898,9.035214 8.561285,8.755266 0.311563,-0.138036 2.565526,-2.539765 5.008794,-5.337346 z M 88.796502,37.774899 c 4.868009,-1.509424 8.913371,-2.949665 8.989712,-3.200526 0.07639,-0.250872 -2.573869,-1.910459 -5.889339,-3.687985 -13.57326,-7.277027 -20.942379,-11.244695 -22.810278,-12.28151 -5.229833,-2.902933 -8.210652,-4.4001 -8.398535,-4.218319 -0.431332,0.417301 17.801224,26.16405 18.517164,26.148657 0.407209,-0.0083 4.723296,-1.250902 9.591276,-2.760317 z M 37.378656,36.147865 c 1.509657,-2.166899 5.528868,-7.915484 8.931583,-12.774592 3.402701,-4.859129 6.003139,-8.897927 5.778749,-8.975125 -0.224406,-0.07712 -1.591896,0.535046 -3.038877,1.360497 -1.446996,0.825449 -3.972101,2.212636 -5.611352,3.082644 -1.63925,0.870009 -6.090082,3.239451 -9.890742,5.265417 -3.800645,2.025988 -9.74226,5.177369 -13.203567,7.003112 -3.461311,1.825733 -6.293293,3.494273 -6.293293,3.707873 0,0.213621 1.388225,0.743788 3.084947,1.178164 9.781734,2.504232 16.013767,4.015266 16.708013,4.051087 0.462864,0.02382 1.925713,-1.589836 3.534539,-3.899077 z M 24.561685,26.563592 c 3.042157,-1.659836 8.703035,-4.697777 12.57972,-6.750998 3.8767,-2.053198 6.95315,-3.825387 6.836574,-3.938191 -0.116661,-0.112811 -3.870628,0.914347 -8.342318,2.282525 l -8.13037,2.487585 -4.257196,4.110316 c -2.341452,2.260673 -4.406129,4.271488 -4.588168,4.468472 -0.781276,0.845472 0.705617,0.175375 5.901758,-2.659709 z m 65.492838,-1.043898 -4.198203,-4.06181 -7.86678,-2.60787 c -4.326718,-1.434344 -7.952602,-2.524849 -8.057482,-2.423363 -0.265115,0.256495 0.802277,0.867187 11.74112,6.717558 5.293774,2.83124 10.063161,5.437879 10.598655,5.792492 2.499153,1.655071 1.611977,0.287853 -2.21731,-3.417007 z M 134.48748,127.66058 c 0,-0.63457 0.13406,-0.66721 0.74037,-0.1803 0.40721,0.32697 0.74039,0.67563 0.74039,0.77478 0,0.0993 -0.33318,0.18034 -0.74039,0.18034 -0.40721,0 -0.74037,-0.34867 -0.74037,-0.77482 z m 1.52221,-0.85527 c -2.52185,-2.51736 -1.57622,-2.95174 1.1956,-0.54923 1.98434,1.71998 2.26726,2.14067 1.45114,2.15791 -0.55758,0.0132 -1.74861,-0.71214 -2.64674,-1.60868 z m 1.89809,-1.03057 c -2.10306,-2.06035 -2.44324,-2.59245 -1.65732,-2.59245 0.54389,0 2.08276,1.07448 3.41972,2.38777 1.33697,1.31328 2.65296,2.38777 2.92445,2.38777 0.27146,0 -0.6003,-1.07449 -1.93727,-2.38777 -2.27678,-2.23644 -2.35274,-2.38777 -1.19855,-2.38777 0.83766,0 2.07966,0.83015 3.87849,2.59245 l 2.64622,2.59244 h -2.71476 c -2.63225,0 -2.79518,-0.0788 -5.36098,-2.59244 z m 6.16123,0.0557 c -2.62554,-2.34388 -2.79435,-2.60498 -1.68406,-2.60464 0.80287,2.8e-4 2.26862,0.91006 4.19553,2.60418 2.70918,2.38188 2.85269,2.60382 1.68406,2.60462 -0.86222,5.7e-4 -2.22599,-0.84589 -4.19553,-2.60416 z m 3.10544,-0.0389 c -2.77529,-2.53083 -2.81924,-2.60915 -1.46391,-2.60915 1.03959,0 2.08348,0.67231 4.07827,2.62654 2.44734,2.39761 2.57495,2.62502 1.46391,2.60914 -0.78071,-0.0132 -2.243,-0.95294 -4.07827,-2.62653 z m 3.10796,0.0174 -2.68105,-2.62655 3.43827,-0.007 c 1.89108,-0.004 3.6827,-0.16525 3.9814,-0.35817 0.97694,-0.63112 1.73944,-2.51552 1.41639,-3.50034 -0.4846,-1.47721 -2.25236,-1.86484 -8.50472,-1.86484 -5.56828,0 -5.78573,-0.0393 -7.24654,-1.31325 l -1.50598,-1.31329 1.19482,1.31329 1.19483,1.31325 h -1.21021 c -0.66558,0 -1.67465,-0.31476 -2.24233,-0.69946 -0.56771,-0.38471 -1.14237,-0.59283 -1.27708,-0.46256 -0.28666,0.27737 -2.59598,-1.94914 -2.60709,-2.5136 -0.004,-0.21096 -0.2054,-0.68594 -0.4472,-1.05548 -0.48945,-0.74803 -0.54431,-4.72889 -0.0715,-5.18635 0.16621,-0.16087 1.46318,0.76906 2.88217,2.06638 l 2.57999,2.35875 -2.59137,-2.64134 c -1.42525,-1.45275 -2.59134,-2.86106 -2.59134,-3.12958 0,-0.77027 3.06607,-3.43048 4.59784,-3.98922 0.81017,-0.29552 5.49222,-0.50683 11.22921,-0.50683 h 9.83972 v 2.62654 2.62656 h -9.59705 c -9.3578,0 -9.61622,0.0263 -10.36543,1.06136 -1.00194,1.38399 -0.97213,2.43419 0.0954,3.36089 0.69042,0.59931 2.44888,0.78189 8.76126,0.90971 8.85585,0.17934 10.28783,0.61074 12.50517,3.76738 2.48431,3.53675 0.22973,10.27962 -3.92304,11.7329 -3.1168,1.09073 -3.98658,0.8409 -6.85458,-1.96883 z m -6.41671,-9.45742 c 0,-0.0797 -0.83293,-0.88568 -1.85095,-1.79084 l -1.85098,-1.64571 1.70101,1.79081 c 1.58325,1.66686 2.00092,2.0104 2.00092,1.64574 z m -6.91027,-0.48801 c 0,-0.0857 -0.61084,-0.67651 -1.35739,-1.31326 l -1.35737,-1.15775 1.19663,1.31328 c 1.11841,1.22746 1.51813,1.53227 1.51813,1.15773 z m 1.48077,-1.41446 c 0,-0.0755 -1.16612,-1.20375 -2.59135,-2.50716 l -2.59136,-2.36983 2.44941,2.50719 c 2.27601,2.32969 2.7333,2.72616 2.7333,2.3698 z m 25.17317,13.52388 c 0,-0.25443 0.33317,-0.33886 0.74039,-0.18768 0.4072,0.1512 0.74039,0.35932 0.74039,0.46256 0,0.10312 -0.33319,0.18768 -0.74039,0.18768 -0.40722,0 -0.74039,-0.20813 -0.74039,-0.46256 z m 1.97619,-0.72944 c -1.73761,-1.78952 -0.70795,-2.09937 1.11507,-0.33555 1.08172,1.04654 1.33696,1.52755 0.81062,1.52755 -0.42253,0 -1.2891,-0.5364 -1.92569,-1.192 z m 13.01629,0.49144 c -0.56556,-1.42595 0.11767,-1.70693 1.26846,-0.52172 l 1.18684,1.22228 h -1.08873 c -0.59878,0 -1.21374,-0.31525 -1.36657,-0.70056 z m 1.84529,-1.39356 c -1.16833,-1.1518 -2.04751,-2.38745 -1.95374,-2.74596 0.10429,-0.39879 1.20681,0.4141 2.8402,2.09414 3.10141,3.18995 2.29192,3.78513 -0.88646,0.65182 z m 8.33539,1.065 c 0,-0.99888 0.029,-1.0037 0.98718,-0.16476 0.54296,0.4754 0.98721,0.93852 0.98721,1.02913 0,0.0907 -0.44425,0.16475 -0.98721,0.16475 -0.68177,0 -0.98718,-0.31836 -0.98718,-1.02912 z m 1.30136,-0.33552 c -0.71575,-0.7228 -1.30136,-1.83157 -1.30136,-2.46397 0,-1.06135 0.1817,-0.97666 2.36151,1.1006 1.29885,1.23776 2.56905,2.25047 2.82272,2.25047 0.25364,0 -0.82836,-1.26082 -2.40448,-2.80179 -2.05002,-2.00435 -2.81827,-3.09655 -2.69928,-3.83757 0.14269,-0.88861 0.75519,-0.46218 4.31091,3.0016 l 4.14458,4.0374 -2.96663,0.0136 c -2.60214,0.0132 -3.1265,-0.14766 -4.26797,-1.30044 z m 3.25463,-3.06172 -4.55599,-4.42634 v -8.94518 -8.94522 h 2.71476 2.71476 v 10.12234 10.12235 l -1.83442,-1.64572 -1.83439,-1.64574 1.95781,2.22339 1.95777,2.22342 6.7869,0.045 6.78688,0.045 v 2.62653 2.62657 h -5.06906 -5.06906 z m 26.93074,0.72533 c -3.52496,-3.31245 -5.72782,-6.09841 -5.21462,-6.59495 0.1014,-0.0981 2.61289,2.17824 5.58086,5.05875 3.63529,3.5281 5.09872,5.23723 4.48429,5.23723 -0.50162,0 -2.68436,-1.66547 -4.85053,-3.70103 z m 0.66407,-2.68068 c -4.19276,-4.06489 -6.51975,-6.66954 -6.40983,-7.17461 0.12055,-0.55382 2.40323,1.37049 7.57028,6.3817 5.26944,5.11052 7.11349,7.17462 6.40985,7.17462 -0.61043,0 -3.50284,-2.43826 -7.5703,-6.38171 z m 6.08929,3.02504 c -3.30091,-3.21922 -3.36103,-3.3179 -1.46752,-2.40925 1.0859,0.52108 3.19598,2.02227 4.68912,3.33599 2.49268,2.1932 2.61272,2.39025 1.46755,2.40925 -0.9041,0.0154 -2.1942,-0.90281 -4.68915,-3.33599 z m 3.71517,0.73012 c -2.47867,-2.42831 -2.58786,-2.62655 -1.44702,-2.62655 0.84168,0 2.08625,0.83498 3.91501,2.62655 2.47867,2.4283 2.58787,2.62655 1.44702,2.62655 -0.84168,0 -2.08625,-0.83496 -3.91501,-2.62655 z m 2.96155,0 -2.68099,-2.62655 h 2.92384 c 2.69494,0 3.0801,0.14023 4.91905,1.79082 l 1.99519,1.79083 -1.90395,-1.98287 -1.90398,-1.98285 1.77277,-0.81394 c 5.0564,-2.32144 5.42921,-10.34308 0.64112,-13.79506 -1.25303,-0.90338 -2.09122,-1.00945 -8.28686,-1.04874 l -6.89285,-0.0438 -1.83175,-1.62711 -1.83174,-1.62707 1.9423,2.0202 c 1.06825,1.11113 1.84565,2.07789 1.72755,2.14838 -0.11796,0.0705 -0.82886,0.65216 -1.57946,1.29258 l -1.36477,1.16448 -2.09039,-1.88037 -2.09036,-1.88037 2.01509,2.14859 c 1.20032,1.27984 1.9341,2.48648 1.81479,2.98429 -0.28891,1.20514 -0.69077,1.05769 -2.79221,-1.02447 -2.24859,-2.22794 -2.14385,-2.95016 0.83529,-5.75898 2.81726,-2.65622 5.50357,-3.36461 12.75904,-3.36461 6.94245,0 10.08486,0.90422 12.85146,3.698 2.51971,2.54447 3.48064,4.66585 3.74738,8.27287 0.43463,5.87724 -2.25676,11.09804 -6.90355,13.39162 l -1.97376,0.97423 -1.30142,-1.11009 c -1.04701,-0.89308 -1.13304,-0.9158 -0.44008,-0.1162 0.47374,0.54661 0.71278,1.13757 0.53119,1.31325 -0.81254,0.78616 -2.11735,0.13279 -4.60794,-2.30714 z m 23.19881,2.12082 c 0,-0.27817 0.22214,-0.37294 0.4936,-0.21061 0.27148,0.16241 0.49358,0.38992 0.49358,0.50575 0,0.11594 -0.2221,0.21059 -0.49358,0.21059 -0.27146,0 -0.4936,-0.22756 -0.4936,-0.50573 z m 1.28074,-0.8797 c -0.75455,-0.76204 -1.29587,-1.74021 -1.20296,-2.17377 0.12817,-0.59718 0.70249,-0.26134 2.36957,1.38544 1.81955,1.79743 2.02781,2.17376 1.20291,2.17376 -0.54867,0 -1.61497,-0.62345 -2.36952,-1.38543 z m 19.05248,-1.48595 c -1.44032,-1.54565 -2.58667,-2.94739 -2.54742,-3.11495 0.0393,-0.16763 -1.56361,-1.95152 -3.56196,-3.96434 -1.99839,-2.01279 -4.66196,-4.78787 -5.91909,-6.16682 -1.25712,-1.37892 -2.48145,-2.50717 -2.72072,-2.50717 -0.23927,0 -1.59357,-1.13498 -3.00954,-2.52218 -2.03035,-1.98908 -2.57449,-2.84703 -2.57449,-4.05921 v -1.53705 l 3.08494,0.004 3.08496,0.004 8.88463,9.66711 8.88466,9.66711 0.13378,-9.67048 0.13364,-9.67051 h 2.95133 2.95132 v 12.99544 12.99542 l -2.59135,-2.3696 -2.59134,-2.36961 2.69786,2.74572 2.6979,2.74573 h -2.9323 -2.93229 l -3.46743,-3.22351 -3.46742,-3.22348 3.19399,3.22348 c 1.75668,1.77294 2.97826,3.20976 2.71462,3.19297 -0.2636,-0.0169 -1.65776,-1.29519 -3.0981,-2.84083 z m -109.82995,0.57292 c -1.01075,-1.00151 -1.68066,-1.97293 -1.48862,-2.15871 0.36306,-0.35125 4.11327,2.93006 4.11327,3.59898 0,0.78716 -0.84397,0.32404 -2.62465,-1.44027 z m 92.0262,-1.22295 c -1.45461,-1.42505 -2.56137,-2.83301 -2.45944,-3.12881 0.1017,-0.29579 1.37539,0.62816 2.83002,2.0532 1.45461,1.42502 2.56135,2.83303 2.45944,3.12879 -0.102,0.29583 -1.37542,-0.6281 -2.83002,-2.05318 z m -78.46683,-0.93651 c -1.54616,-1.5175 -2.56816,-2.91934 -2.46795,-3.38522 0.12803,-0.59556 0.83364,-0.14497 2.8101,1.79487 1.54617,1.51747 2.56818,2.91934 2.46794,3.38522 -0.12803,0.59554 -0.83361,0.14498 -2.81009,-1.79487 z m 38.38852,1.47082 c -0.69847,-0.58964 -1.5764,-1.50192 -1.95101,-2.02723 -0.37458,-0.52531 0.25239,-0.1055 1.3933,0.93264 1.89275,1.72246 2.30051,2.17581 1.95098,2.1691 -0.0679,-9.6e-4 -0.69486,-0.48483 -1.39327,-1.07451 z m -50.56834,-1.3219 c -1.04453,-1.03493 -1.73932,-2.03625 -1.54405,-2.22519 0.19529,-0.18896 1.26009,0.5321 2.36625,1.60233 1.10617,1.07021 1.80099,2.07155 1.54406,2.22521 -0.25694,0.15357 -1.32176,-0.56743 -2.36626,-1.60235 z m 90.66087,-2.05914 c -1.54617,-1.5175 -2.5682,-2.91935 -2.46795,-3.38524 0.12803,-0.59553 0.83362,-0.14496 2.81009,1.7949 1.54619,1.51747 2.56818,2.91933 2.46795,3.38522 -0.12817,0.59553 -0.83362,0.14495 -2.81009,-1.79488 z m -89.56241,0.25919 c -2.62583,-2.60176 -2.26228,-3.57608 0.39344,-1.05438 1.22162,1.15999 2.22116,2.27923 2.22116,2.48721 0,0.78363 -0.84488,0.32065 -2.6146,-1.43283 z m 11.12904,-1.16589 c -1.70959,-1.67908 -2.59137,-2.94444 -2.59137,-3.71875 0,-1.06816 0.24803,-0.9337 2.75879,1.49547 1.98744,1.92288 2.71196,2.96261 2.59135,3.71876 -0.15031,0.94227 -0.43244,0.78931 -2.75877,-1.49548 z m -10.1985,-0.80049 c -2.56996,-2.54635 -1.86337,-3.65578 0.75363,-1.18335 1.77511,1.67701 2.46135,3.05047 1.52418,3.05047 -0.21638,0 -1.24139,-0.84022 -2.27781,-1.86712 z m 88.63187,-1.15814 c -1.54617,-1.51749 -2.5682,-2.91935 -2.46795,-3.38523 0.12803,-0.59556 0.83362,-0.14497 2.81009,1.7949 1.54619,1.51746 2.56818,2.91931 2.46795,3.38522 -0.12817,0.59553 -0.83362,0.14495 -2.81009,-1.79489 z m -78.43337,-0.90668 c -1.70959,-1.67908 -2.59137,-2.94446 -2.59137,-3.71875 0,-1.06819 0.24803,-0.93372 2.75879,1.49544 1.98744,1.9229 2.71196,2.96262 2.59135,3.71876 -0.15031,0.94228 -0.43244,0.78933 -2.75877,-1.49545 z m -8.93404,0.0154 c -1.22874,-1.10893 -1.9479,-2.10233 -1.6974,-2.34471 0.25052,-0.24235 1.33345,0.46545 2.55599,1.67067 2.70293,2.66459 1.97781,3.23385 -0.85859,0.67404 z m 45.93914,-1.94635 c -2.70106,-2.63675 -3.86003,-4.64331 -2.68195,-4.64331 0.81626,0 4.93678,4.60818 5.44444,6.08883 0.29268,0.85362 0.48177,1.55203 0.42017,1.55203 -0.0617,0 -1.49379,-1.3489 -3.18266,-2.99755 z m 41.47595,0.0206 c -1.70962,-1.67908 -2.59137,-2.94444 -2.59137,-3.71877 0,-1.06816 0.24803,-0.93371 2.75879,1.49547 1.98745,1.9229 2.71196,2.96261 2.59133,3.71876 -0.15029,0.94229 -0.43243,0.78933 -2.75875,-1.49546 z m -86.38622,-0.0136 c -1.29209,-1.27377 -1.91366,-2.2441 -1.67587,-2.61629 0.26609,-0.41659 0.98535,0.007 2.43168,1.43307 1.29207,1.27377 1.91363,2.24409 1.67588,2.61626 -0.26613,0.41663 -0.98538,-0.007 -2.43169,-1.43304 z m 5.87794,-3.27077 c -3.07665,-2.82789 -4.52371,-4.48432 -4.3344,-4.96157 0.1562,-0.39408 0.46262,-0.71649 0.68074,-0.71649 0.21811,0 2.24368,1.79642 4.50124,3.99207 2.92261,2.84241 4.05661,4.27122 3.93783,4.96154 -0.13867,0.80639 -0.94402,0.25519 -4.78541,-3.27555 z m -4.92766,1.32416 c -1.61087,-1.58802 -1.92909,-2.15566 -1.4619,-2.60768 0.46717,-0.45201 1.00504,-0.19245 2.4709,1.1924 1.03058,0.97362 1.87375,2.03628 1.87375,2.36145 0,1.29165 -0.9186,0.9901 -2.88275,-0.94617 z m 85.39313,-0.9473 c -1.78335,-1.75152 -2.58046,-2.89975 -2.46793,-3.55504 0.14681,-0.85538 0.47229,-0.70591 2.79875,1.28549 2.15451,1.8442 2.6027,2.48978 2.46797,3.55505 -0.16333,1.29181 -0.18458,1.28206 -2.79879,-1.2855 z m -41.73308,-0.26292 c -1.75247,-1.726 -2.32026,-2.60678 -2.07653,-3.22123 0.28663,-0.72264 0.66185,-0.52986 2.57924,1.32523 1.57193,1.52087 2.19375,2.48548 2.07655,3.22125 -0.15136,0.94985 -0.39801,0.82309 -2.57926,-1.32525 z m -42.41695,-0.45188 c -0.9985,-0.98935 -1.81548,-2.04571 -1.81548,-2.34745 0,-1.25158 0.94256,-0.92393 2.90371,1.00945 1.69872,1.67463 1.95609,2.15019 1.4037,2.59372 -0.53139,0.42667 -1.06564,0.15748 -2.49193,-1.25572 z m 4.21575,-2.13095 -4.06561,-3.95406 1.36175,-2.48892 1.36177,-2.48892 2.83813,-0.004 2.83816,-0.004 v 6.447 c 0,3.54583 -0.0605,6.44701 -0.13436,6.44701 -0.074,0 -1.96381,-1.77933 -4.19988,-3.95404 z m 79.97709,-0.45544 c -1.70962,-1.67907 -2.59137,-2.94445 -2.59137,-3.71875 0,-1.06817 0.24803,-0.93372 2.75879,1.49545 1.98745,1.92289 2.71196,2.96263 2.59133,3.71875 -0.15029,0.94227 -0.43243,0.78931 -2.75875,-1.49545 z M 157.23413,92.420815 c -0.89815,-0.896531 -1.55018,-1.870416 -1.44899,-2.164166 0.1011,-0.293776 1.1719,0.439758 2.37933,1.630039 1.33216,1.313299 1.90186,2.164206 1.44897,2.164206 -0.41048,0 -1.48117,-0.733547 -2.37931,-1.630079 z m 20.68939,-3.861803 V 83.06713 h -5.77268 c -5.60335,0 -5.8169,-0.03873 -7.27869,-1.313299 l -1.50599,-1.313246 1.19484,1.313246 1.19481,1.313299 h -1.4318 c -1.92361,0 -8.6121,-6.284234 -8.6121,-8.091563 0,-1.092475 0.25492,-0.955351 3.08495,1.659376 l 3.08494,2.850239 -3.08494,-3.11682 -3.08495,-3.11682 v -2.971869 -2.971868 h 2.71476 2.71475 l 0.042,2.745941 c 0.023,1.510273 0.007,3.874151 -0.0359,5.253104 l -0.0778,2.507163 h 8.42689 8.42683 v -5.253104 -5.253104 h 2.96155 2.96155 v 13.371519 13.37157 h -2.96155 -2.96155 z m -9.37824,-6.118884 c 0,-0.08237 -0.72187,-0.780613 -1.60415,-1.552037 l -1.60418,-1.402632 1.4497,1.552038 c 1.35136,1.446735 1.75863,1.771579 1.75863,1.402631 z m 22.87553,10.873834 c -0.49378,-1.245001 0.29227,-1.415534 1.43386,-0.311041 l 1.08316,1.047973 h -1.11236 c -0.6118,0 -1.24389,-0.331626 -1.40466,-0.736932 z m 2.30481,-0.927362 c -0.91699,-0.915344 -1.50825,-1.818156 -1.31388,-2.006193 0.19437,-0.188063 1.2865,0.560873 2.42697,1.664281 1.2975,1.255353 1.78923,2.006206 1.31387,2.006206 -0.41785,0 -1.50997,-0.748936 -2.42696,-1.664294 z m 23.47087,0.112112 -0.92076,-1.552065 1.55474,1.402632 c 1.74638,1.575517 1.81455,1.701484 0.92078,1.701484 -0.34871,0 -1.04833,-0.698421 -1.55476,-1.552051 z m 0.64264,-0.716348 c -1.23716,-1.247592 -2.97184,-3.557768 -3.85486,-5.133708 l -1.60552,-2.865324 5.2308,5.005785 c 2.87694,2.753213 5.23078,5.063362 5.23078,5.133722 0,0.07021 -0.61916,0.127843 -1.37592,0.127843 -0.99668,0 -1.99588,-0.62519 -3.62528,-2.268384 z m -0.23818,-3.581657 c -3.28076,-3.217522 -6.58049,-6.924538 -7.3328,-8.237811 -1.36358,-2.380416 -1.35279,-2.373793 3.49751,2.149004 l 4.86529,4.536756 -5.42256,-5.491869 c -2.98242,-3.020547 -6.53317,-6.451622 -7.89055,-7.624637 l -2.46794,-2.132727 2.0796,2.132953 c 1.55204,1.591765 1.96247,2.314604 1.61779,2.849048 -0.38028,0.589654 -0.82247,0.368314 -2.50365,-1.253211 l -2.04185,-1.969347 1.65803,-2.937151 1.65802,-2.937151 2.19073,0.130884 2.19069,0.130884 4.37126,7.879649 c 8.91827,16.076079 10.27128,18.624662 9.88781,18.624662 -0.21584,0 -3.07665,-2.632521 -6.35738,-5.850043 z m 14.12404,4.820934 c 0,-1.016892 0.0145,-1.0184 1.11059,-0.124539 0.61082,0.497546 1.20312,0.960665 1.31624,1.029122 0.11321,0.06862 -0.38666,0.124539 -1.11058,0.124539 -1.01874,0 -1.31625,-0.232618 -1.31625,-1.029122 z m 1.781,-0.828142 c -1.03096,-1.021519 -1.7979,-2.212977 -1.70434,-2.647737 0.1263,-0.587473 0.86286,-0.110657 2.86804,1.857276 2.14714,2.107238 2.49508,2.647725 1.70433,2.647725 -0.54645,0 -1.83704,-0.83577 -2.86803,-1.857264 z m 8.58442,1.351521 c 0,-0.278136 0.22212,-0.372928 0.49358,-0.210592 0.27149,0.162376 0.49361,0.389903 0.49361,0.505729 0,0.115946 -0.22212,0.210606 -0.49361,0.210606 -0.27146,0 -0.49358,-0.227595 -0.49358,-0.505743 z m 1.28073,-0.879702 c -0.75455,-0.761998 -1.29585,-1.740181 -1.20294,-2.173778 0.12803,-0.597176 0.70247,-0.261306 2.36954,1.385471 1.81957,1.797426 2.02782,2.173752 1.20293,2.173752 -0.54868,0 -1.61496,-0.623473 -2.36953,-1.385445 z m 16.18655,0.549728 c -0.29671,-0.459643 -1.37688,-2.125126 -2.40037,-3.70104 l -1.8609,-2.86535 3.86844,3.581657 c 3.11214,2.881453 2.85862,2.554691 -1.2969,-1.671432 -4.48123,-4.557395 -5.39955,-5.27205 -6.93382,-5.396047 -1.38966,-0.112242 -2.33758,-0.700522 -4.42546,-2.74594 l -2.65696,-2.603 h 7.9926 7.99264 l 0.84578,-1.248914 c 0.75818,-1.119538 0.77036,-1.379271 0.11753,-2.507177 -0.68305,-1.180074 -0.98199,-1.266895 -4.81145,-1.397395 -3.93346,-0.134124 -4.06401,-0.104576 -3.56128,0.804331 0.79737,1.441499 0.72823,1.483832 -2.42461,1.483832 h -2.94651 l -2.483,-3.560109 c -1.36565,-1.958043 -2.483,-3.677243 -2.483,-3.820449 0,-0.143272 4.16468,-0.256798 9.25486,-0.252487 8.67799,0.0066 9.37698,0.07483 11.2146,1.081793 2.91606,1.597939 4.2105,3.744945 4.20827,6.980037 -10e-4,1.826498 -0.31306,3.169134 -0.98269,4.231743 -1.12611,1.786995 -3.68597,3.45351 -5.30875,3.456127 -0.61082,9.67e-4 -1.11059,0.09321 -1.11059,0.205476 0,0.111847 1.0675,1.777541 2.37221,3.701079 1.30469,1.923538 2.87761,4.303201 3.49537,5.288165 l 1.12321,1.790817 h -3.12986 c -2.44627,0 -3.2477,-0.182552 -3.66935,-0.835717 z m -14.91872,-2.184778 c -1.81112,-1.777516 -2.58221,-2.89474 -2.46795,-3.575762 0.14054,-0.838096 0.5705,-0.553534 2.79346,1.849159 3.52074,3.805431 3.25094,5.236697 -0.32551,1.726603 z M 158.2556,90.547952 c -1.54619,-1.517491 -2.56819,-2.919355 -2.46797,-3.385251 0.12817,-0.595524 0.83364,-0.144965 2.8101,1.794874 1.54616,1.517506 2.56819,2.91937 2.46796,3.385252 -0.12803,0.595537 -0.83363,0.144964 -2.81009,-1.794875 z m 37.19042,0.159996 c -1.05063,-1.040966 -1.79917,-2.000137 -1.66342,-2.131458 0.13579,-0.131281 1.1064,0.612922 2.15701,1.65389 1.05061,1.040979 1.79918,2.000151 1.66343,2.131471 -0.13579,0.131282 -1.10639,-0.612922 -2.15702,-1.653903 z m 38.87033,-0.589058 c -1.70962,-1.679075 -2.59136,-2.944449 -2.59136,-3.718756 0,-1.068175 0.24804,-0.933708 2.75878,1.495467 1.98746,1.922876 2.71197,2.962614 2.59136,3.718768 -0.15031,0.942263 -0.43246,0.7893 -2.75878,-1.495479 z m -37.85909,-1.297461 c -1.02517,-1.015768 -1.78078,-2.088188 -1.67917,-2.383167 0.10141,-0.294992 1.14722,0.412405 2.32351,1.572028 1.17626,1.159609 1.93189,2.232041 1.67915,2.383166 -0.25276,0.151046 -1.29833,-0.556272 -2.32349,-1.572027 z m 48.18813,-1.049931 c -1.76141,-1.852807 -2.57506,-3.091291 -2.46797,-3.756527 0.13435,-0.834077 0.57865,-0.530862 2.78479,1.900097 1.55043,1.708425 2.56071,3.246237 2.46796,3.756528 -0.12169,0.669017 -0.75007,0.240205 -2.78478,-1.900098 z m -86.34213,-0.08104 c -1.57846,-1.618048 -2.59135,-3.08546 -2.59135,-3.75424 0,-0.95806 0.35133,-0.757952 2.75878,1.571287 2.02621,1.960371 2.71433,2.957261 2.59135,3.754214 -0.15153,0.981884 -0.41393,0.832411 -2.75878,-1.571261 z m 76.01309,-0.437246 c -1.70962,-1.679062 -2.59136,-2.944449 -2.59136,-3.718742 0,-1.068175 0.24804,-0.933735 2.75878,1.495453 1.98746,1.92289 2.71197,2.962614 2.59136,3.718756 -0.15031,0.942275 -0.43246,0.789312 -2.75878,-1.495467 z m -36.79651,-0.267493 c -1.71571,-1.699977 -2.32704,-2.96387 -1.43361,-2.96387 0.21638,0 1.26067,0.859262 2.32063,1.909497 1.28479,1.273003 1.76266,2.068687 1.4336,2.387054 -0.32907,0.318393 -1.10262,-0.125729 -2.32062,-1.332681 z m -39.2096,-2.271505 c -1.42141,-1.562733 -2.58751,-3.26883 -2.59137,-3.791284 -0.006,-0.740197 0.60216,-0.360594 2.75182,1.719212 2.06438,1.99731 2.71665,2.951615 2.59135,3.791298 -0.1517,1.016905 -0.40978,0.855693 -2.7518,-1.719226 z m 86.37151,0.151191 c -1.70957,-1.679035 -2.59134,-2.944422 -2.59134,-3.718729 0,-1.068162 0.24802,-0.933734 2.75878,1.49544 1.98744,1.92289 2.71197,2.962627 2.59134,3.718756 -0.15031,0.942275 -0.43243,0.789325 -2.75878,-1.495467 z m -46.23066,0.154615 c -2.56997,-2.546335 -1.86337,-3.655785 0.75364,-1.183379 1.77509,1.677052 2.46135,3.050491 1.52418,3.050491 -0.21639,0 -1.24141,-0.840198 -2.27782,-1.867112 z m 35.86526,-0.632039 c -1.94901,-1.914296 -2.59136,-2.895321 -2.59136,-3.957666 v -1.412467 l 2.75504,2.665547 c 2.20679,2.135081 2.72248,2.922648 2.59136,3.957665 -0.16215,1.280328 -0.1874,1.268852 -2.75504,-1.253079 z M 199.7508,83.002388 c -1.47833,-1.334135 -1.98405,-2.102889 -1.70299,-2.588774 0.31412,-0.543065 0.84089,-0.256177 2.45938,1.339384 2.78096,2.741512 2.11529,3.841059 -0.75639,1.24939 z m -41.53413,-1.188259 c -1.69332,-1.473004 -2.50476,-2.551266 -2.50476,-3.328468 0,-0.632304 0.17357,-1.149641 0.38565,-1.149641 0.21209,0 1.63979,1.235668 3.17264,2.745954 2.28926,2.255547 2.66771,2.849974 2.1191,3.328455 -0.53865,0.469783 -1.15258,0.160856 -3.17263,-1.5963 z m 86.40711,-0.354802 c -1.39337,-1.365044 -2.53337,-2.743746 -2.53337,-3.063805 0,-1.18884 1.33902,-0.511493 3.8059,1.925217 2.02606,2.001262 2.40933,2.619472 1.89952,3.063831 -0.50116,0.436784 -1.18417,0.02235 -3.17205,-1.925243 z m -10.30743,-0.414361 c -1.70962,-1.679075 -2.59136,-2.944436 -2.59136,-3.718769 0,-1.068162 0.24804,-0.933696 2.75878,1.495492 1.98746,1.922878 2.71197,2.962575 2.59136,3.718743 -0.15031,0.942262 -0.43246,0.789325 -2.75878,-1.495466 z m -33.57194,-0.01349 c -1.29206,-1.27373 -1.91362,-2.244086 -1.67587,-2.61626 0.26612,-0.416609 0.98539,0.0066 2.43168,1.433051 1.29207,1.27377 1.91361,2.2441 1.67589,2.616286 -0.26615,0.41661 -0.98537,-0.0066 -2.4317,-1.433077 z m 0.9503,-1.946582 c -1.61087,-1.58805 -1.9291,-2.155679 -1.4619,-2.607692 0.46718,-0.452014 1.00505,-0.192453 2.47092,1.192409 1.03054,0.973622 1.87374,2.036284 1.87374,2.361459 0,1.291603 -0.91863,0.990107 -2.88276,-0.946176 z m 32.60479,-0.928419 -2.57451,-2.522181 v -4.163591 -4.163578 h 2.71476 2.71473 v 6.685746 c 0,3.67719 -0.063,6.685785 -0.14025,6.685785 -0.0772,0 -1.29878,-1.134978 -2.71475,-2.522181 z m -31.39854,-0.770033 c -1.22372,-1.212466 -1.804,-2.163175 -1.61352,-2.643467 0.44139,-1.112822 0.92572,-0.937846 2.9465,1.06438 1.57714,1.562667 1.74426,1.929394 1.20459,2.643454 -0.57356,0.758905 -0.78835,0.668807 -2.53757,-1.064367 z M 129.61413,54.646486 c -2.74917,-2.761554 -4.99849,-5.283104 -4.99849,-5.603487 0,-0.320361 2.55434,1.881845 5.67631,4.893829 3.12196,3.011968 5.67629,5.533514 5.67629,5.603479 0,0.06993 -0.30502,0.127182 -0.6778,0.127182 -0.3728,0 -2.92713,-2.259461 -5.67631,-5.021016 z m 1.43556,-1.886731 c -3.91981,-3.799246 -6.96224,-7.067072 -6.76094,-7.26184 0.2013,-0.194758 3.74357,2.913716 7.8717,6.907725 4.12813,3.994022 7.17054,7.261849 6.76094,7.261849 -0.40962,0 -3.95188,-3.108477 -7.8717,-6.907734 z m 7.13972,4.042397 c -3.81518,-3.730138 -2.55702,-3.738203 1.4065,-0.0093 1.73061,1.628282 2.71086,2.860207 2.27998,2.865364 -0.41572,0.0053 -2.07462,-1.280394 -3.68648,-2.856334 z m 3.20836,0.238791 c -3.52048,-3.448949 -2.08772,-3.466334 1.77105,-0.02155 2.28521,2.040038 2.70031,2.609676 1.91402,2.626545 -0.58225,0.01322 -2.13036,-1.081898 -3.68507,-2.605022 z m 2.97841,0.02116 c -2.14719,-2.107239 -2.49509,-2.647711 -1.70436,-2.647711 1.27622,0 4.79566,3.467563 4.57236,4.505001 -0.12644,0.587472 -0.86286,0.110656 -2.868,-1.85729 z m 9.95772,0.5577 c -1.289,-1.270716 -2.07712,-2.487636 -2.07712,-3.207169 0,-1.053779 0.24758,-0.922934 2.71474,1.434426 1.49313,1.426653 2.71476,2.869885 2.71476,3.207157 0,1.157626 -1.27761,0.610952 -3.35238,-1.434414 z m 12.73061,-3.444202 -3.56472,-5.491897 h -2.75635 c -2.31234,0 -2.99923,-0.211533 -4.26412,-1.313265 l -1.5078,-1.313265 1.35737,1.458782 c 1.15765,1.24414 1.35739,1.874191 1.35739,4.281687 v 2.822898 l -2.71476,-2.59393 -2.71474,-2.593933 v -3.000976 -3.001033 h 8.80812 c 7.90634,0 8.89179,-0.08944 9.62506,-0.873321 1.07166,-1.14572 1.03677,-2.606557 -0.0858,-3.589429 -0.7968,-0.697693 -2.60337,-0.79035 -15.40919,-0.79035 h -14.50663 l -2.73006,-2.507157 -2.73004,-2.507178 2.44916,2.507178 c 2.28163,2.335617 2.36604,2.506478 1.23377,2.497325 -1.41277,-0.01177 -6.36877,-3.983637 -5.74028,-4.600838 0.22607,-0.222001 9.01672,-0.403665 19.53478,-0.403665 h 19.12371 l 1.81356,1.337968 c 2.34301,1.728553 3.40721,3.771781 3.40721,6.541693 0,3.678113 -2.41658,6.868692 -5.68076,7.500315 -1.7095,0.330773 -1.6849,0.401179 2.00429,5.742598 1.59085,2.303327 3.05633,4.456481 3.25665,4.784802 0.27591,0.452265 -0.40721,0.596952 -2.81851,0.596952 h -3.18268 z m 13.82057,5.029317 c 0,-0.254417 0.33316,-0.338857 0.74037,-0.187679 0.40723,0.151217 0.74041,0.359349 0.74041,0.462563 0,0.103121 -0.33318,0.187694 -0.74041,0.187694 -0.40721,0 -0.74037,-0.208159 -0.74037,-0.462578 z m 1.28072,-0.922893 c -0.75454,-0.761972 -1.29586,-1.740168 -1.20292,-2.173739 0.12818,-0.597189 0.70246,-0.261305 2.36953,1.385445 1.81957,1.797439 2.02782,2.173765 1.20292,2.173765 -0.54869,0 -1.61496,-0.623446 -2.36953,-1.385471 z m 1.80422,-1.423996 c -2.1016,-1.900229 -3.08494,-3.149289 -3.08494,-3.918572 0,-0.964869 0.57476,-0.576407 3.94871,2.668812 2.17181,2.088902 3.94874,3.856805 3.94874,3.928633 0,0.07192 -0.3887,0.125993 -0.86378,0.120573 -0.47509,-0.0053 -2.25201,-1.265282 -3.94873,-2.799419 z m 1.47104,-1.616897 c -3.26332,-3.170456 -4.55598,-4.758653 -4.55598,-5.597469 0,-1.051996 0.31521,-0.868874 3.09821,1.799799 2.41914,2.31972 3.4236,2.97093 4.58259,2.97093 1.14519,0 2.09697,0.600165 4.16538,2.626558 2.4404,2.390782 2.57318,2.626546 1.47944,2.626546 -0.77413,0 -2.17193,-0.891931 -3.92919,-2.50715 -2.52213,-2.318346 -2.57905,-2.346188 -0.7559,-0.369768 1.08443,1.175553 2.1938,2.300511 2.46529,2.499852 0.27144,0.199327 -0.0662,0.365736 -0.75015,0.369728 -0.91712,0.0053 -2.44014,-1.155035 -5.79969,-4.419026 z m 7.78381,1.799818 c -2.43065,-2.381249 -2.56954,-2.626558 -1.48744,-2.626558 0.65863,0 1.97807,0.69567 2.94366,1.552037 l 1.75005,1.552065 -1.44868,-1.552065 -1.4487,-1.552037 h 5.02825 5.02828 v 2.626558 2.626546 h -2.12245 c -1.16734,0 -2.42156,-0.268643 -2.78718,-0.596939 -0.53177,-0.477556 -0.59503,-0.477556 -0.31639,0 0.24312,0.416609 -0.0757,0.596939 -1.05501,0.596939 -1.04702,0 -2.08414,-0.666969 -4.08439,-2.626546 z m 8.39105,1.968686 c 0,-0.09929 -0.38871,-0.475255 -0.86379,-0.835717 -0.78285,-0.594029 -0.80033,-0.577134 -0.18637,0.180291 0.64482,0.795486 1.05016,1.04845 1.05016,0.655426 z m 5.10624,-0.07893 c -0.49379,-1.245001 0.29229,-1.415521 1.43385,-0.311042 l 1.08314,1.047961 h -1.11236 c -0.61179,0 -1.24388,-0.331587 -1.40463,-0.736919 z m 2.30479,-0.927362 c -0.91699,-0.915358 -1.50821,-1.818156 -1.31387,-2.006206 0.19435,-0.188051 1.2865,0.560885 2.42695,1.664294 1.29751,1.255353 1.78924,2.006193 1.31388,2.006193 -0.41782,0 -1.50997,-0.748936 -2.42696,-1.664281 z m 23.47088,0.111979 -0.92079,-1.55205 1.55475,1.40263 c 1.74639,1.575517 1.81457,1.701484 0.92076,1.701484 -0.34866,0 -1.04827,-0.698433 -1.55472,-1.552064 z m 0.64262,-0.716321 c -1.23715,-1.247619 -2.97184,-3.557795 -3.85486,-5.133722 l -1.60548,-2.865331 5.23078,5.005806 c 2.87692,2.753187 5.23079,5.063362 5.23079,5.133709 0,0.07021 -0.61917,0.127844 -1.37593,0.127844 -0.99669,0 -1.9959,-0.625192 -3.6253,-2.268372 z m -0.2382,-3.581684 c -3.28073,-3.217511 -6.58047,-6.924535 -7.33278,-8.23781 -1.36356,-2.380414 -1.3528,-2.373771 3.49752,2.148991 l 4.86531,4.536781 -5.42259,-5.49188 c -2.98241,-3.020534 -6.53315,-6.451631 -7.89052,-7.624625 l -2.46797,-2.132741 2.07963,2.132941 c 1.55201,1.591788 1.96247,2.314624 1.61779,2.849055 -0.38026,0.589661 -0.82248,0.368318 -2.50367,-1.253204 l -2.04184,-1.969337 1.65803,-2.937167 1.65803,-2.937147 2.1907,0.130925 2.19073,0.130911 4.37126,7.879661 c 8.91823,16.076092 10.27126,18.624662 9.88778,18.624662 -0.21583,0 -3.07666,-2.632521 -6.35741,-5.850043 z m 10.57552,5.482231 c 0.46922,-0.151389 0.48849,-0.365498 0.0762,-0.846214 -0.30365,-0.353982 -0.4795,-1.098398 -0.39081,-1.654233 0.14598,-0.914803 0.34638,-0.8267 2.11282,0.9292 l 1.95153,1.939852 -2.18896,-0.08303 c -1.20394,-0.04561 -1.90626,-0.174156 -1.56071,-0.285606 z m 2.17431,-2.154344 c -1.68633,-1.652065 -2.57448,-2.923719 -2.57448,-3.6861 0,-1.047802 0.29546,-0.881051 2.96155,1.671513 2.59442,2.483946 3.75935,4.536769 2.57448,4.536769 -0.2129,0 -1.54557,-1.13498 -2.96155,-2.522182 z m 17.16917,1.493048 c 0,-1.016906 0.0145,-1.018387 1.11058,-0.124539 0.61082,0.497572 1.20312,0.960665 1.31623,1.029121 0.11322,0.06848 -0.38663,0.124539 -1.11057,0.124539 -1.01874,0 -1.31624,-0.232618 -1.31624,-1.029135 z m 1.78102,-0.828142 c -1.03097,-1.02148 -1.79792,-2.212977 -1.70434,-2.647711 0.1263,-0.587499 0.86285,-0.110657 2.868,1.857276 2.14718,2.107237 2.49507,2.647711 1.70436,2.647711 -0.54645,0 -1.83707,-0.835783 -2.86802,-1.857276 z m 8.58438,1.082467 c 0,-0.634578 0.13408,-0.667206 0.74042,-0.180303 0.40719,0.326986 0.74038,0.675641 0.74038,0.774809 0,0.09929 -0.33319,0.180303 -0.74038,0.180303 -0.40722,0 -0.74042,-0.348681 -0.74042,-0.774809 z m 1.53137,-0.846148 c -0.89309,-0.891521 -1.5475,-1.976274 -1.45421,-2.410547 0.12716,-0.592047 0.78251,-0.186476 2.61903,1.620958 1.98329,1.951802 2.26005,2.410546 1.45424,2.410546 -0.54735,0 -1.72594,-0.729449 -2.61906,-1.620957 z m 1.01234,-1.881866 c -1.54619,-1.517492 -2.56817,-2.919343 -2.46797,-3.385239 0.12803,-0.595524 0.83361,-0.144977 2.8101,1.794875 1.54619,1.517505 2.56818,2.919369 2.46795,3.385225 -0.12803,0.59555 -0.83362,0.144978 -2.81008,-1.794861 z m -146.18763,0.930334 c -0.94531,-0.62691 -2.13775,-1.862604 -2.64987,-2.745941 -0.82121,-1.416513 -0.60278,-1.298016 1.85097,1.0042 1.53016,1.435617 2.7821,2.671298 2.7821,2.745941 0,0.266132 -0.28648,0.120969 -1.9832,-1.0042 z m 81.20464,-0.770327 c -1.05063,-1.040981 -1.7992,-2.000139 -1.66345,-2.131459 0.1358,-0.131281 1.10641,0.612949 2.15703,1.653915 1.05062,1.040968 1.79915,2.000125 1.66343,2.131446 -0.1358,0.131413 -1.10642,-0.612922 -2.15701,-1.653902 z m 54.66523,-0.589073 c -1.70959,-1.679061 -2.59135,-2.944422 -2.59135,-3.718742 0,-1.06818 0.24801,-0.933714 2.75879,1.495466 1.98744,1.922877 2.71197,2.962602 2.59134,3.718756 -0.15031,0.942262 -0.43244,0.789312 -2.75878,-1.49548 z m -110.56447,-0.47741 c -1.94902,-1.914323 -2.59135,-2.895335 -2.59135,-3.95768 v -1.412471 l 2.75502,2.665551 c 2.20679,2.135081 2.72248,2.922661 2.59137,3.957692 -0.16212,1.280313 -0.18739,1.268838 -2.75504,-1.253092 z m 91.02381,-0.765291 c -2.06893,-2.023287 -2.85419,-3.139188 -2.78352,-3.955581 0.0543,-0.62545 0.074,-3.662282 0.0437,-6.748479 l -0.0547,-5.611268 h -5.42953 -5.4295 v -2.626552 -2.626544 h 13.82057 13.82056 v 2.626544 2.626552 h -5.41929 -5.41929 l -0.13377,9.566842 -0.13378,9.566864 z m -100.32419,0.82797 c -0.93128,-0.99562 -0.92893,-1.002429 0.28865,-0.835717 0.6855,0.09386 1.30027,0.537115 1.39222,1.003804 0.22252,1.129598 -0.5382,1.053526 -1.68087,-0.168127 z m 66.21082,-0.882544 c -1.02516,-1.015768 -1.78076,-2.088188 -1.67914,-2.38318 0.1017,-0.294992 1.1472,0.412432 2.3235,1.57204 1.1763,1.159623 1.93191,2.232028 1.67916,2.383167 -0.25277,0.151217 -1.29833,-0.556272 -2.32352,-1.572027 z m 64.01945,-1.130749 c -1.57848,-1.618061 -2.59137,-3.085509 -2.59137,-3.754245 0,-0.95808 0.35136,-0.757983 2.75879,1.571265 2.02621,1.960371 2.71434,2.957261 2.59136,3.754214 -0.15151,0.981897 -0.41395,0.832425 -2.75878,-1.571234 z m -10.36542,-0.43726 c -1.70959,-1.679075 -2.59135,-2.944471 -2.59135,-3.718762 0,-1.068175 0.24801,-0.933717 2.75879,1.495441 1.98744,1.922908 2.71197,2.962632 2.59134,3.7188 -0.15031,0.942249 -0.43244,0.789312 -2.75878,-1.495479 z m -52.59143,-0.267507 c -1.7157,-1.699969 -2.32705,-2.963886 -1.4336,-2.963886 0.21638,0 1.26064,0.859289 2.32063,1.909526 1.28478,1.27299 1.76264,2.068674 1.43358,2.387067 -0.32904,0.318353 -1.10257,-0.12586 -2.32061,-1.332707 z m -29.34472,-2.120286 c -1.70962,-1.679056 -2.59137,-2.94445 -2.59137,-3.718745 0,-1.06816 0.24802,-0.933707 2.75879,1.495456 1.98744,1.92289 2.71197,2.962639 2.59132,3.718767 -0.15031,0.942262 -0.43242,0.789312 -2.75874,-1.495478 z m 92.30157,-0.35648 c -1.54782,-1.672652 -2.59137,-3.245927 -2.59137,-3.906904 0,-0.970899 0.33786,-0.779734 2.75505,1.558926 2.16554,2.09516 2.72004,2.931159 2.59136,3.906914 -0.15639,1.18564 -0.28006,1.115624 -2.75504,-1.558936 z m -62.02561,0.511102 c -2.56994,-2.546353 -1.86338,-3.655774 0.75366,-1.183362 1.77507,1.677013 2.46132,3.05048 1.52417,3.05048 -0.21639,0 -1.24141,-0.840212 -2.27783,-1.867118 z m 51.66019,-0.632032 c -1.94901,-1.914321 -2.59135,-2.895328 -2.59135,-3.957672 v -1.412463 l 2.75505,2.66553 c 2.20679,2.135094 2.72246,2.922676 2.59135,3.957669 -0.16212,1.28034 -0.18741,1.268878 -2.75505,-1.253064 z m -50.36048,-1.385598 c -1.4783,-1.334159 -1.984,-2.102911 -1.70299,-2.588763 0.31414,-0.543082 0.84089,-0.256211 2.45938,1.33935 2.78095,2.741527 2.1153,3.841075 -0.75639,1.249413 z m -31.57567,-1.004049 c -4.25724,-4.178362 -4.3883,-4.11603 8.76124,-4.166793 l 11.3526,-0.04379 v 2.63948 2.639469 h -7.75326 -7.75325 l -1.99454,-1.790822 -1.99451,-1.790841 1.70035,1.790841 c 0.93517,0.984954 1.45093,1.790822 1.14608,1.790822 -0.3048,0 -0.626,0.33187 -0.71378,0.737511 -0.11177,0.515416 -0.93991,-0.02841 -2.75093,-1.805833 z m 92.29732,-0.486383 c -1.4229,-1.393989 -2.58712,-2.796402 -2.58712,-3.116459 0,-0.755544 1.09944,-0.747069 1.94809,0.01526 0.53176,0.477556 0.59503,0.477556 0.31639,0 -0.27388,-0.46933 1.87384,-0.59695 10.04619,-0.59695 h 10.39455 v 2.626564 2.62654 h -6.07118 c -4.17335,0 -6.27896,-0.186586 -6.73589,-0.596933 -0.53179,-0.477559 -0.59504,-0.477559 -0.31638,0 0.25607,0.438843 -0.23676,0.596933 -1.8608,0.596933 -1.21505,0 -2.28514,0.220471 -2.37797,0.489923 -0.0931,0.26944 -1.33299,-0.650646 -2.75588,-2.044633 z m 2.34881,-0.5358 c 0,-0.09917 -0.3887,-0.475234 -0.86377,-0.835723 -0.78288,-0.594004 -0.80034,-0.577128 -0.18637,0.180306 0.64483,0.795481 1.05014,1.048455 1.05014,0.655417 z M 127.43834,46.401443 c -1.55249,-1.517878 -2.8227,-3.068568 -2.8227,-3.445953 0,-0.879749 5.27001,4.13137 5.59005,5.315452 0.13235,0.489668 0.19894,0.890296 0.148,0.890296 -0.0509,0 -1.36286,-1.241909 -2.91535,-2.759795 z m 137.97426,0.26051 c -1.70959,-1.679065 -2.59135,-2.944441 -2.59135,-3.718763 0,-1.068154 0.24801,-0.933701 2.75879,1.495487 1.98744,1.922871 2.71197,2.962599 2.59134,3.718755 -0.15031,0.942265 -0.43244,0.789323 -2.75878,-1.495479 z m -49.36687,-0.01349 c -1.29206,-1.273737 -1.91361,-2.24407 -1.67588,-2.61626 0.26614,-0.416624 0.98539,0.0064 2.43171,1.433059 1.29207,1.273767 1.91364,2.244093 1.67589,2.616286 -0.26614,0.416605 -0.98538,-0.0061 -2.43172,-1.433085 z m 0.95031,-1.946571 c -1.61088,-1.588038 -1.92911,-2.155687 -1.46191,-2.607708 0.4672,-0.452005 1.00508,-0.192447 2.47093,1.192422 1.03057,0.973626 1.87373,2.036271 1.87373,2.361439 0,1.291626 -0.91863,0.990115 -2.88275,-0.946153 z m 48.39969,-0.928432 -2.57448,-2.522175 v -4.163594 -4.163576 h 2.71474 2.71476 v 6.685769 c 0,3.677165 -0.0632,6.685764 -0.14025,6.685764 -0.0772,0 -1.2988,-1.134977 -2.71477,-2.522184 z M 127.31286,43.281804 c -1.72494,-1.52086 -2.29759,-2.312974 -1.93419,-2.67546 0.36541,-0.364522 1.13898,0.09897 2.64812,1.586724 2.94545,2.903684 2.35897,3.798114 -0.71393,1.088736 z m 90.88943,-0.278427 c -1.22371,-1.212484 -1.80399,-2.163182 -1.6135,-2.643475 0.44137,-1.112835 0.9257,-0.937867 2.9465,1.064348 1.57713,1.562691 1.74424,1.929416 1.20458,2.643486 -0.57356,0.758886 -0.78835,0.668801 -2.53758,-1.064359 z m -90.13471,-1.725211 c -1.44847,-1.427918 -2.00816,-2.301072 -1.6791,-2.619437 0.67833,-0.656294 4.74903,3.356673 4.22968,4.169712 -0.26536,0.41539 -1.02501,-0.04639 -2.55058,-1.550275 z m 1.28069,-2.102731 c -2.71881,-2.693846 -1.79692,-3.600522 0.97994,-0.963779 1.90269,1.806683 2.36173,2.830884 1.26875,2.830884 -0.20035,0 -1.21227,-0.840196 -2.24869,-1.867105 z m 1.4927,-1.420854 c -2.55545,-2.531984 -1.40877,-3.215603 1.2231,-0.729167 1.06139,1.002768 1.92981,1.994471 1.92981,2.203827 0,0.906729 -1.41958,0.242774 -3.15291,-1.47466 z m 2.01911,-0.91078 c -2.02057,-2.002018 -2.13765,-2.269775 -1.15238,-2.635593 0.38555,-0.143096 1.70146,0.757164 3.06639,2.097911 2.25128,2.211405 2.31864,2.348649 1.15238,2.348649 -0.7834,0 -1.91042,-0.665616 -3.06639,-1.810967 z m 48.025,-1.293141 v -2.626543 h 11.35261 11.3526 v 2.626546 2.626554 h -11.3526 -11.35261 z m 92.30157,0 v -2.626543 h 11.35264 11.35258 v 2.626543 2.626554 h -11.35258 -11.35264 z"
       id="path1" /></g></svg>
