<?xml version="1.0" encoding="UTF-8" standalone="no"?>
<!-- Created with Inkscape (http://www.inkscape.org/) -->

<svg
   width="210mm"
   height="297mm"
   viewBox="0 0 210 297"
   version="1.1"
   id="svg1"
   xml:space="preserve"
   inkscape:version="1.3.2 (091e20e, 2023-11-25, custom)"
   sodipodi:docname="Logo-c1-gris-aicon.svg"
   xmlns:inkscape="http://www.inkscape.org/namespaces/inkscape"
   xmlns:sodipodi="http://sodipodi.sourceforge.net/DTD/sodipodi-0.dtd"
   xmlns:xlink="http://www.w3.org/1999/xlink"
   xmlns="http://www.w3.org/2000/svg"
   xmlns:svg="http://www.w3.org/2000/svg"><sodipodi:namedview
     id="namedview1"
     pagecolor="#ffffff"
     bordercolor="#000000"
     borderopacity="0.25"
     inkscape:showpageshadow="2"
     inkscape:pageopacity="0.0"
     inkscape:pagecheckerboard="0"
     inkscape:deskcolor="#d1d1d1"
     inkscape:document-units="mm"
     inkscape:zoom="0.75187991"
     inkscape:cx="396.33989"
     inkscape:cy="561.92484"
     inkscape:window-width="1366"
     inkscape:window-height="705"
     inkscape:window-x="1912"
     inkscape:window-y="305"
     inkscape:window-maximized="1"
     inkscape:current-layer="layer1" /><defs
     id="defs1"><color-profile
       name="Agfa-:-Swop-Standard"
       xlink:href="../../../../../../WINDOWS/system32/spool/drivers/color/RSWOP.icm"
       id="color-profile1" /></defs><g
     inkscape:label="Capa 1"
     inkscape:groupmode="layer"
     id="layer1"><path
       style="fill:#ffcb2f;stroke:none;stroke-width:1.02057"
       d="m 104.0359,1.1589029 c -4.844861,0.7010019 -9.767974,2.8734725 -14.396133,4.3959765 -6.907719,2.2724243 -13.939335,4.2388205 -20.88454,6.4038726 -4.588029,1.430233 -9.209009,2.768244 -13.787848,4.232198 -2.163812,0.691826 -4.529598,1.066857 -6.488395,2.258093 -5.021414,3.053751 -9.149977,8.223203 -13.382319,12.203373 -4.432609,4.168488 -9.024651,8.197847 -13.382329,12.438275 -2.130779,2.073452 -4.488283,4.039897 -6.148925,6.511128 -3.100083,4.613278 -4.482329,10.543169 -6.716561,15.587234 -1.8460823,4.167773 -3.3899256,8.470421 -5.2517236,12.627638 -1.3191905,2.945632 -3.32258092,6.414584 -3.52558514,9.668032 -0.1107435,1.77499 0.58322871,3.616382 0.97960784,5.327287 0.8115063,3.502786 1.7279968,6.976539 2.6332752,10.45725 2.0282452,7.79845 3.8250372,15.65633 5.7624414,23.47951 1.1879113,4.79676 2.9011023,9.6925 3.4822373,14.60071 0.354399,2.99323 -0.02491,6.08491 -0.128134,9.07611 -0.226848,6.57557 -0.483043,13.15653 -0.620234,19.73068 -0.06137,2.94239 -1.370688,6.82721 -0.416537,9.66789 0.590172,1.75707 2.752463,2.82525 4.27279,3.72351 2.834216,1.67455 5.673253,3.33527 8.516027,4.99758 1.588498,0.92886 3.328361,1.90532 3.968682,3.70938 1.210561,3.41065 0.789246,8.03901 1.124243,11.6411 0.850147,9.14139 1.87591,18.27177 2.584944,27.42564 0.234599,3.02871 0.576448,6.04731 0.811047,9.07613 0.123355,1.59249 0.01399,3.40604 0.514893,4.93266 0.938702,2.86066 3.720615,5.10023 5.709392,7.30036 4.431313,4.90216 8.870337,9.80649 13.389611,14.62757 6.257667,6.67559 12.438982,13.41932 18.691236,20.09843 1.936424,2.0686 3.908598,4.11691 5.920454,6.1165 0.769965,0.76526 1.507899,1.89389 2.52725,2.35933 1.188462,0.54264 3.083631,0.20566 4.370411,0.20566 h 10.138121 25.142551 c 3.88089,0 8.31543,0.5867 12.13813,-0.048 2.40966,-0.40004 4.11618,-3.80011 5.52242,-5.47664 4.38129,-5.22338 9.12434,-10.10231 13.65746,-15.19263 5.79169,-6.50358 11.90876,-12.71386 17.79081,-19.13875 2.48817,-2.71782 6.13297,-5.50287 7.66731,-8.87881 0.64222,-1.41306 0.512,-3.03537 0.64971,-4.53805 0.31327,-3.41833 0.49829,-6.84413 0.81106,-10.25996 0.91538,-9.9972 1.44837,-19.99603 2.52689,-29.99062 0.27561,-2.55418 0.17547,-5.15672 0.62617,-7.69497 0.35694,-2.01011 1.94779,-3.07308 3.49402,-4.28451 3.30241,-2.58735 7.05486,-4.59517 10.54366,-6.92379 1.68321,-1.12346 3.95918,-2.24841 4.37456,-4.37895 0.56484,-2.89713 -0.37608,-6.19094 -0.67939,-9.07611 -0.55228,-5.25317 -1.02397,-10.52563 -1.50885,-15.78454 -0.28048,-3.04197 -1.02713,-6.42934 -0.70199,-9.47073 0.5693,-5.32546 2.25808,-10.40736 3.55671,-15.58724 2.05802,-8.20896 3.9529,-16.45681 6.03526,-24.66334 0.81697,-3.2196 1.59164,-6.449671 2.40806,-9.668038 0.51502,-2.030245 1.33053,-4.207033 1.31197,-6.313819 -0.025,-2.830821 -1.71731,-5.547739 -2.83338,-8.089575 -1.91827,-4.368855 -3.52746,-8.860866 -5.44733,-13.219562 -2.67292,-6.068285 -4.68398,-13.069288 -8.13213,-18.744139 -3.36022,-5.530155 -9.69301,-10.170095 -14.40158,-14.608658 -4.953,-4.668982 -9.60812,-10.676989 -15.61286,-14.099486 -2.7196,-1.550083 -5.9468,-2.202528 -8.92155,-3.129043 -4.83061,-1.504512 -9.6258,-3.133232 -14.39613,-4.804175 -8.0604,-2.823399 -16.18931,-5.555057 -24.3315,-8.1462742 -3.56198,-1.1335995 -7.7205,-3.2239143 -11.55746,-2.6687477 m 1.25336,6.3872046 c 1.10701,-0.4251536 1.7383,0.6892973 2.27424,1.4111827 1.37453,1.8514606 2.51087,3.8538166 3.86081,5.7212216 5.85595,8.100683 11.77573,16.429982 17.10962,24.860658 3.3416,5.281693 6.98399,10.512173 10.65183,15.587234 1.35846,1.879643 4.27833,4.756976 4.50603,7.103052 0.12712,1.309831 -1.03761,2.414072 -1.80441,3.354214 -2.03844,2.499301 -4.22633,4.900877 -6.38739,7.30035 -6.88583,7.645468 -13.57295,15.503279 -20.2957,23.282203 -1.86496,2.157966 -3.66078,4.375227 -5.55357,6.511127 -0.7911,0.89269 -1.6101,2.21186 -2.78006,2.66542 -1.04049,0.4034 -1.83747,-0.42498 -2.4926,-1.10304 -1.52018,-1.57337 -2.8966,-3.29177 -4.36151,-4.916606 C 93.735653,92.35656 87.382162,85.321266 81.521191,78.021955 78.355948,74.079938 74.680244,70.367889 71.318073,66.570211 c -1.191159,-1.345448 -3.562632,-3.005913 -3.678717,-4.93267 -0.09333,-1.549142 1.395431,-2.982607 2.25493,-4.143446 1.993986,-2.693121 3.842632,-5.520179 5.729958,-8.286883 6.984632,-10.238996 14.486548,-20.139623 21.456027,-30.385246 1.84,-2.704925 3.724429,-5.38191 5.570879,-8.089579 0.62609,-0.9181321 1.54131,-2.7650407 2.63811,-3.1862693 m 8.27647,2.1997351 c 1.84591,-0.056936 3.362,1.4538132 4.86631,2.3286152 3.34844,1.947249 6.92466,3.657112 10.34088,5.511175 13.24953,7.190811 26.59064,14.269964 39.74143,21.636042 4.09554,2.294006 8.27027,4.466286 12.36852,6.758223 0.84003,0.46978 3.71314,1.363227 3.42553,2.615203 -0.29654,1.290798 -4.11262,1.886629 -5.25039,2.133499 -5.09132,1.104719 -10.25578,2.952977 -15.20718,4.572815 -3.75753,1.229261 -7.53745,2.517468 -11.35471,3.554653 -1.31799,0.358122 -2.86326,1.307923 -4.25644,0.771955 -1.59532,-0.613743 -2.48319,-2.579483 -3.3294,-3.909693 -1.69188,-2.659503 -3.48662,-5.335907 -5.34367,-7.892277 -5.99828,-8.257089 -11.48866,-16.880038 -17.30972,-25.255267 -1.91624,-2.757046 -3.80473,-5.540969 -5.72277,-8.286887 -1.02115,-1.461905 -2.38881,-2.838742 -2.96839,-4.5380562 M 97.141979,9.9431592 c -0.24769,1.7282178 -1.419018,2.7454588 -2.356617,4.1434428 -1.828446,2.726288 -3.710678,5.433019 -5.645192,8.089579 -6.027009,8.276577 -11.888481,16.748226 -17.581157,25.255275 -1.83679,2.744856 -3.811843,5.380939 -5.684956,8.089718 -0.789092,1.141144 -1.57846,2.857555 -2.999469,3.357875 C 61.496457,59.364271 58.769144,58.234889 57.40053,57.81824 53.344898,56.583553 49.144773,55.61995 45.032017,54.549483 39.925725,53.220405 34.689022,52.208913 29.622076,50.733088 28.574,50.427834 25.287977,50.07267 24.882499,48.986668 24.493952,47.945964 27.67248,46.776689 28.4055,46.397831 c 4.248701,-2.195933 8.688081,-4.260807 12.774032,-6.737812 6.707462,-4.066232 13.941734,-7.491231 20.88454,-11.161735 6.645325,-3.513227 13.117535,-7.354567 19.870714,-10.680748 3.499178,-1.723472 6.891064,-3.745795 10.340891,-5.573218 1.559629,-0.826175 3.053151,-2.142123 4.866302,-2.3011588 m -16.626527,2.7622958 0.202758,0.197307 c -1.629629,2.631367 -6.4896,3.775467 -9.124304,5.302837 -8.927408,5.175353 -18.264673,10.349599 -27.575695,14.82889 -2.104269,1.012307 -4.349386,2.071453 -6.285636,3.364137 -1.284002,0.857217 -2.814365,2.192078 -4.460773,1.956714 1.663502,-2.886942 5.057899,-5.228123 7.503733,-7.513026 3.156267,-2.948596 6.341421,-6.835914 10.136599,-9.016623 2.618255,-1.50444 6.071594,-1.845005 8.921546,-2.833298 6.648103,-2.305397 13.750698,-4.961476 20.681772,-6.286938 M 176.62485,38.35533 c -3.1912,-0.737929 -6.06193,-3.137903 -8.92154,-4.630568 -7.76306,-4.052185 -15.25349,-8.658861 -23.11493,-12.550972 -2.6113,-1.292828 -5.10166,-2.804807 -7.70497,-4.103053 -1.50919,-0.752617 -3.58317,-1.513183 -4.46076,-2.984145 3.98175,0.267636 8.19871,2.362599 11.96298,3.592878 3.32762,1.08757 6.60282,2.298363 9.93536,3.378637 2.10951,0.683806 4.33208,1.111103 6.28563,2.174566 3.89174,2.118568 7.69973,6.06374 10.49889,9.396958 1.69766,2.021545 4.39808,3.241779 5.51934,5.725699 m 10.93552,14.557617 c 1.18418,-0.01897 1.19306,1.395357 1.11198,2.213456 -0.26782,2.702374 -0.71286,5.381389 -0.92266,8.089585 -0.87532,11.300029 -2.0824,22.700905 -3.51022,33.936764 -0.37957,2.986938 -0.77076,6.079558 -0.91664,9.076118 -0.0383,0.78606 -0.002,2.72114 -1.22492,2.72114 -0.97826,0 -1.58133,-1.66571 -2.01855,-2.32653 -1.63375,-2.46924 -3.48057,-4.81566 -5.1009,-7.300356 -5.62201,-8.620991 -11.70859,-16.996725 -17.57833,-25.452572 -1.54213,-2.221555 -3.03524,-4.47825 -4.57008,-6.708425 -0.48789,-0.708909 -1.58768,-1.599388 -1.41884,-2.544304 0.16195,-0.906452 1.35165,-1.152751 2.09873,-1.403864 2.01382,-0.676861 4.05184,-1.274855 6.08287,-1.900613 6.00049,-1.848768 12.08957,-3.41472 18.04586,-5.399901 2.87348,-0.957708 6.89031,-2.951875 9.9217,-3.000498 M 20.929645,53.303126 c 0.838884,-0.19025 1.990575,0.268331 2.812323,0.448728 2.387792,0.524197 4.772326,1.202058 7.096683,1.933111 6.530946,2.054144 13.576961,3.559569 20.276243,5.025592 2.254501,0.493363 4.463672,1.08334 6.691155,1.682752 0.697352,0.187649 2.111692,0.294626 2.115379,1.244969 0.003,0.776963 -0.779289,1.526621 -1.186779,2.1427 -1.148689,1.736689 -2.353205,3.443228 -3.577949,5.129978 -4.443699,6.119928 -8.849657,12.296701 -13.095886,18.54683 -3.557885,5.236947 -7.488611,10.255763 -10.897744,15.587244 -0.843959,1.31985 -2.696208,5.16392 -4.366205,5.48771 -1.247189,0.24183 -1.132085,-2.02118 -1.185083,-2.72542 -0.234496,-3.116 -0.28732,-6.3876 -0.750257,-9.470728 C 23.154063,86.965176 23.023734,75.353844 21.155696,64.005212 20.712815,61.31462 20.430313,58.623885 20.1327,55.915638 20.03753,55.049598 19.738629,53.573222 20.929645,53.303126 M 187.77679,108.59655 c -0.7711,-3.49921 0.57518,-8.08874 0.97353,-11.641104 0.95866,-8.549104 2.05227,-17.082204 2.83488,-25.649883 0.26971,-2.952588 0.75642,-5.909135 0.8833,-8.878808 0.022,-0.516099 -0.17131,-2.711277 0.91095,-2.390366 1.06527,0.315883 1.29261,2.144241 1.64362,2.982291 1.14946,2.744203 2.17129,5.605277 3.45994,8.286883 1.73992,3.620647 3.10247,7.384746 4.74502,11.049181 0.79857,1.781621 1.9572,3.919159 1.47574,5.919202 -0.3657,1.519134 -1.66895,2.757116 -2.62534,3.946138 -2.26309,2.813553 -4.69052,5.497104 -6.98573,8.286876 -1.47262,1.78996 -3.03297,3.51528 -4.47622,5.3273 -0.80746,1.01378 -1.57061,2.29352 -2.83969,2.76229 m -166.670742,0.39461 c -1.712097,-0.68012 -2.107496,-2.40045 -3.287872,-3.6355 C 14.099074,101.46424 11.116974,96.507218 7.8605326,92.220084 6.6912263,90.680673 4.4993005,88.544062 4.5576284,86.498191 4.5988834,85.051476 5.541811,83.670623 6.0665177,82.354744 7.3633045,79.102602 8.8470735,75.923778 10.18823,72.686712 c 1.171726,-2.828149 2.517282,-5.6151 3.569902,-8.484191 0.268389,-0.731543 0.659672,-2.680239 1.542884,-2.938748 0.89187,-0.261038 0.871387,1.87846 0.914887,2.346823 0.268633,2.892388 0.692073,5.795935 1.049485,8.681499 1.090647,8.805155 2.102442,17.61342 3.049087,26.439114 0.238571,2.224231 0.357759,4.497661 0.641219,6.708421 0.167264,1.30453 0.707186,2.26358 0.150354,3.55153 M 64.49998,66.004052 c 1.109896,-0.05681 1.993179,1.351833 2.662807,2.033764 2.246444,2.287672 4.244728,4.79806 6.336846,7.213886 4.018902,4.640756 8.124642,9.290642 12.287791,13.811478 1.950842,2.118444 5.11922,4.736228 6.060688,7.497659 0.495175,1.452373 -0.776961,2.734378 -1.404569,3.946121 -1.959992,3.78425 -3.882232,7.25831 -8.508757,7.66443 -4.123999,0.36202 -8.429792,0.0305 -12.571272,0.0305 -1.786243,0 -4.209397,0.40702 -5.871376,-0.32443 -1.870448,-0.82318 -2.951914,-3.73886 -3.906525,-5.39746 -2.22546,-3.866703 -4.744774,-7.576443 -6.964556,-11.443796 -0.755793,-1.316768 -1.971613,-2.648518 -2.324348,-4.143438 -0.425124,-1.801632 1.256063,-3.361475 2.162505,-4.735371 2.650748,-4.017743 5.584445,-7.867511 8.31429,-11.838405 0.750463,-1.091643 2.21099,-4.237418 3.726476,-4.314979 m 82.11227,1.178924 c 1.17084,-0.224329 2.10794,1.586628 2.6352,2.346832 1.83402,2.644273 5.24319,5.930595 5.98177,9.076107 0.50554,2.153012 -1.47399,4.835128 -2.3837,6.708435 -2.40861,4.959905 -4.99127,9.842737 -7.3981,14.798011 -1.1911,2.4523 -1.72823,4.85147 -4.71152,5.43058 -3.8641,0.75011 -7.85214,0.88818 -11.76023,1.32389 -1.86298,0.20772 -4.04438,0.95494 -5.87023,0.21694 -1.29468,-0.5233 -2.16947,-2.13805 -2.92059,-3.22406 -0.76884,-1.11163 -2.45108,-2.68894 -2.19076,-4.14197 0.32607,-1.819941 2.73764,-3.499467 3.8484,-4.932667 3.73861,-4.823898 8.04221,-9.300587 12.1618,-13.811479 2.99747,-3.28217 5.99693,-6.661199 8.8454,-10.062639 0.91529,-1.092968 2.22841,-3.434038 3.76256,-3.72798 m 12.18544,17.208592 c 0.77292,-0.08476 1.35403,0.803626 1.74683,1.318072 1.12195,1.469318 2.1045,3.035708 3.1788,4.53738 1.2478,1.744208 4.03469,4.564931 4.31171,6.708426 0.13923,1.077421 -1.20736,2.012759 -1.82091,2.762295 -1.56643,1.9136 -3.27326,3.7058 -4.96332,5.51663 -0.82173,0.88045 -1.78683,2.0062 -3.07732,2.1477 -2.39186,0.2623 -5.34345,-0.74145 -7.70497,-1.13882 -0.83648,-0.14076 -2.02188,-0.30535 -2.30177,-1.23521 -0.3515,-1.16769 0.73927,-2.51627 1.221,-3.51453 1.44125,-2.986589 3.01003,-5.983443 4.64053,-8.878809 1.11802,-1.985356 2.08377,-4.055248 3.04371,-6.116511 0.32371,-0.695108 0.80078,-2.005245 1.72571,-2.106623 M 46.851059,90.859794 c 1.277875,-0.257396 2.499404,2.681994 3.030645,3.530663 2.090219,3.339154 4.065037,6.743193 6.189444,10.062643 0.648664,1.01357 2.287943,2.65095 1.996273,3.93653 -0.376384,1.65896 -3.005637,1.66783 -4.316617,2.08766 -4.243637,1.35894 -8.779371,3.35153 -13.17956,4.11443 -2.487936,0.43136 -5.587947,-5.03936 -5.42681,-7.17901 0.116156,-1.54232 1.557047,-2.93313 2.423502,-4.14345 2.058195,-2.87503 4.037659,-5.803563 6.098152,-8.681494 0.742151,-1.036584 1.793197,-3.447645 3.184971,-3.727972 M 7.1154413,98.336592 c 3.9275707,4.593988 7.7238827,9.443348 11.1569007,14.403408 1.236692,1.78677 3.289466,3.47287 3.537206,5.72189 0.204689,1.85811 -1.330658,4.21765 -2.017523,5.9192 -0.900193,2.23001 -1.824107,4.45803 -2.668995,6.70843 -0.226746,0.60398 -0.576061,2.02196 -1.485628,1.90932 -0.826885,-0.10241 -1.032482,-1.28757 -1.196571,-1.90932 -0.517752,-1.96172 -0.94445,-3.94033 -1.381797,-5.9192 -1.418395,-6.41783 -3.1189953,-12.7758 -4.6701902,-19.13876 -0.5203057,-2.13425 -2.0071283,-5.55381 -1.2734025,-7.694968 M 202.37569,98.928518 c 0.59611,2.305812 -0.6889,5.561372 -1.13977,7.892262 -1.29172,6.67805 -3.04896,13.3434 -4.77546,19.92799 -0.55973,2.1347 -1.15655,4.33652 -1.52701,6.51109 -0.0933,0.54798 -0.18887,1.96863 -1.09603,1.75494 -0.99072,-0.23339 -1.21202,-1.56444 -1.47609,-2.34682 -0.80145,-2.37452 -1.77343,-4.69265 -2.45707,-7.10305 -0.7335,-2.58616 -2.80189,-5.74977 -2.48898,-8.48419 0.1938,-1.69344 1.87297,-3.25534 2.90308,-4.53805 2.65793,-3.30976 5.48688,-6.54524 8.33103,-9.69492 1.17828,-1.30486 2.01515,-3.237843 3.7263,-3.919252 M 95.528585,101.24728 c 1.328024,-0.23398 2.475821,1.59279 3.207179,2.41609 1.834126,2.06475 4.499296,6.33409 7.124996,7.34375 1.368,0.52605 2.45846,-0.98111 3.25181,-1.81916 1.32537,-1.40005 2.4926,-2.93028 3.81051,-4.3301 0.46673,-0.49574 1.07385,-1.18446 1.85255,-0.99119 1.02573,0.25462 1.74441,1.60568 2.34535,2.3622 0.6134,0.7722 1.28054,1.52183 1.78784,2.36768 1.35483,2.25895 -0.54737,5.54188 -1.4906,7.69497 -1.49527,3.41328 -2.98968,6.93997 -4.21549,10.45725 -0.44345,1.27244 -1.27436,2.56341 -1.22925,3.94614 0.0349,1.07139 0.66034,2.21835 1.15613,3.15691 2.184,4.13433 5.08533,7.9804 7.43331,12.03572 1.85592,3.20543 3.70461,7.24636 6.45062,9.81926 1.11401,1.0438 2.69035,1.56878 3.98977,2.3587 3.2442,1.97215 6.63952,3.8987 10.13812,5.41585 4.75216,2.06073 10.19957,3.01782 15.20718,4.3508 2.13831,0.56919 5.3338,0.949 7.04831,2.37712 1.40541,1.17064 2.065,2.98052 3.00269,4.48506 2.15889,3.46398 4.15693,7.02621 6.36826,10.45726 0.68642,1.06505 3.11546,3.98023 2.37509,5.25688 -0.4801,0.82785 -2.11565,1.20048 -2.97888,1.49039 -2.49365,0.83745 -4.96987,1.77416 -7.50221,2.49001 -3.22042,0.91034 -7.37944,1.97216 -10.74641,1.5636 -2.30875,-0.28016 -4.37203,-1.62771 -6.48839,-2.48497 -4.15395,-1.6826 -8.33848,-3.3147 -12.36851,-5.25381 -1.93853,-0.93273 -4.07317,-1.60754 -6.08289,-2.38542 -0.83269,-0.32232 -2.10612,-0.78383 -2.4236,-1.69379 -0.40516,-1.16131 1.72496,-2.96289 2.14297,-4.11287 0.78352,-2.15554 0.40939,-5.42504 0.26328,-7.69497 -0.16883,-2.62303 -2.12927,-4.76902 -3.50322,-6.90573 -3.11379,-4.84242 -6.34709,-9.6154 -9.54203,-14.40341 -1.07568,-1.61202 -2.83967,-5.80795 -4.98324,-6.15539 -3.25138,-0.52698 -3.82043,5.78759 -6.49432,6.14611 -2.64955,0.35525 -3.33996,-5.98338 -6.278051,-5.41045 -2.062943,0.40225 -3.484392,4.44269 -4.456678,6.01166 -2.777043,4.4813 -5.587569,8.94547 -8.386005,13.41686 -1.281674,2.04789 -3.205384,4.15661 -3.837331,6.51113 -0.673366,2.50882 1.076892,6.08419 1.781607,8.48419 0.342186,1.16534 1.19944,2.54116 0.29699,3.66495 -0.72718,0.90556 -2.205495,1.24251 -3.24335,1.70164 -2.852454,1.2619 -5.77695,2.53582 -8.718786,3.58264 -3.760623,1.33817 -7.240379,3.84192 -11.151938,4.70482 -5.370789,1.18484 -11.260107,-0.33391 -16.423757,-1.55248 -2.426105,-0.57253 -7.225654,-1.40536 -9.020924,-3.157 -1.332057,-1.29969 1.391988,-3.58799 2.123232,-4.60383 1.991933,-2.7671 4.050752,-5.44746 6.218241,-8.08957 1.181744,-1.4405 2.222324,-2.94041 3.923648,-3.85255 6.53878,-3.50565 14.130015,-5.91671 21.0873,-8.54362 2.595809,-0.9801 5.763707,-1.7535 8.110489,-3.19635 3.458067,-2.12607 5.54945,-6.12684 7.888246,-9.26813 2.665758,-3.58043 5.444169,-7.09193 8.138172,-10.65457 1.176873,-1.55635 2.683016,-3.02657 3.623799,-4.73536 1.349234,-2.4507 -0.848175,-6.69673 -1.734828,-9.07611 -1.161199,-3.11613 -1.925426,-6.35502 -3.077985,-9.47073 -0.769834,-2.08111 -2.087849,-4.8594 -1.822199,-7.10305 0.172861,-1.45992 1.252919,-2.93715 2.05117,-4.14344 0.844899,-1.27678 2.330311,-4.68703 4.002013,-4.98159 m 75.209345,0.47721 c 1.78718,0.0155 3.37193,3.44293 4.19121,4.70169 1.2214,1.87658 2.56157,3.70006 3.86269,5.52458 0.44664,0.62629 1.34224,1.47954 1.07537,2.32751 -0.3958,1.25755 -3.74953,1.40691 -4.86444,1.40522 -3.09559,-0.005 -6.17912,-2.66412 -8.71878,-4.1712 -0.82901,-0.49193 -2.32786,-1.19472 -2.65028,-2.15709 -0.28033,-0.83671 0.50886,-1.59055 1.03707,-2.13978 1.3329,-1.38598 2.68033,-2.75962 4.02025,-4.13926 0.54536,-0.56151 1.16767,-1.35933 2.04691,-1.35167 M 31.852458,112.18921 c 0.988021,0 1.528719,1.25207 1.970519,1.93195 1.602233,2.46573 1.907872,3.63753 0.146862,6.11594 -0.503457,0.70855 -0.896956,1.67731 -1.922925,1.69863 -1.550898,0.0322 -4.375701,-3.16985 -4.162515,-4.65768 0.15505,-1.08217 1.207701,-2.08587 1.820574,-2.95961 0.492204,-0.70171 1.108221,-2.12923 2.147485,-2.12923 m 149.435942,6.75265 c 2.57767,-0.074 3.01508,3.43793 3.67731,5.24192 1.75415,4.77845 3.67057,9.52982 5.13293,14.40341 0.48711,1.62337 1.57351,3.2209 1.63761,4.93265 0.0844,2.25148 -1.79754,4.40456 -2.79748,6.31382 -2.39702,4.57678 -4.99866,9.05529 -7.43392,13.61417 -0.827,1.54816 -2.79021,3.73165 -2.76051,5.5246 0.0234,1.41418 1.17532,2.19717 2.22751,2.95368 2.60902,1.87582 5.67973,3.33992 8.42705,5.04417 0.87753,0.54437 3.44564,1.45602 3.42552,2.66468 -0.0187,1.12312 -1.79925,1.90083 -2.61447,2.43172 -2.28603,1.48867 -4.60199,2.92844 -6.89393,4.40077 -0.86398,0.55502 -1.93086,1.71159 -3.03973,1.69844 -1.54599,-0.0183 -2.77888,-3.08256 -3.45519,-4.19814 -2.11812,-3.49387 -4.22642,-6.98664 -6.38928,-10.45727 -0.79622,-1.27763 -2.358,-3.19421 -2.35554,-4.73536 0.003,-1.82316 2.18127,-3.58988 3.34915,-4.82032 3.04504,-3.20819 7.16618,-6.52376 9.57971,-10.17866 1.41676,-2.14545 0.89155,-4.49036 0.89155,-6.90207 0,-5.4474 0.81811,-12.35352 -0.94979,-17.56031 -0.74433,-2.19215 -2.02715,-4.20953 -2.99138,-6.31382 -0.34143,-0.74509 -1.02979,-1.70157 -0.92033,-2.55267 0.18322,-1.42448 3.13176,-1.47326 4.25321,-1.50541 m -155.7091,3.83939 c 0.940722,-0.30661 1.661979,0.56171 2.233843,1.14419 1.517498,1.54571 2.606357,2.78208 2.619459,4.9937 0.03359,5.66367 -0.202238,11.31488 -0.202238,16.9684 0,1.95565 0.535449,5.73382 -0.48329,7.44515 -0.725525,1.21875 -3.075677,1.81273 -4.383012,2.19128 -3.18835,0.9232 -4.886551,-5.38176 -5.749206,-7.66337 -0.67986,-1.79812 -2.004085,-3.78052 -2.082765,-5.72189 -0.06872,-1.69459 0.787581,-3.21691 1.42102,-4.73537 1.151793,-2.761 2.353521,-5.50798 3.468053,-8.28688 0.594829,-1.48312 1.481931,-5.78887 3.158136,-6.33521 m 166.65658,30.4275 c 1.35668,-0.30627 1.17087,3.69941 1.27995,4.51719 0.56855,4.26245 0.70466,8.57128 1.24526,12.82495 0.11865,0.93362 0.9693,3.87678 -0.36718,4.29979 -1.4457,0.45758 -4.5738,-2.18066 -5.69213,-2.97705 -1.33585,-0.95129 -3.93528,-1.58697 -4.45051,-3.30001 -0.3908,-1.29937 0.58584,-2.65548 1.18345,-3.74463 1.5309,-2.79006 2.9101,-5.7909 4.59138,-8.4842 0.52828,-0.84628 1.09999,-2.88552 2.20978,-3.13604 m -175.137368,0.4375 c 0.713262,-0.0953 1.113133,0.81234 1.321477,1.31808 0.686968,1.66754 1.518315,3.2732 2.218741,4.93198 1.07196,2.53868 2.051681,5.12371 3.039468,7.69497 0.334324,0.87025 1.086154,2.15401 0.675592,3.09497 -0.551789,1.26464 -2.925079,2.15635 -4.058789,2.86782 -0.917174,0.57557 -2.31581,1.68615 -3.440962,1.71054 -1.802663,0.0391 -1.026223,-2.86959 -1.019321,-3.92449 0.02798,-4.2734 0.603816,-8.55469 0.607767,-12.82495 7.66e-4,-0.8326 -0.504232,-4.71379 0.656027,-4.86892 m 13.33461,4.21445 c 2.56196,-0.53946 5.316342,4.70914 6.624004,6.37637 1.263436,1.61084 4.643099,4.62357 4.675031,6.70842 0.02093,1.36432 -1.51951,2.72282 -2.304098,3.74884 -2.212165,2.89291 -4.487732,5.7424 -6.635145,8.68149 -0.695422,0.95181 -1.91358,3.24407 -3.186789,3.47165 -1.33268,0.2382 -3.558333,-1.6998 -4.647592,-2.34041 -1.024537,-0.60255 -2.025793,-1.23534 -3.041428,-1.85101 -0.974145,-0.59051 -2.865188,-1.32226 -3.266182,-2.4543 -0.462622,-1.30604 1.62969,-1.85648 2.455125,-2.37988 1.872408,-1.18727 3.730632,-2.36461 5.677349,-3.43586 0.987154,-0.54322 2.185471,-1.1333 2.57945,-2.25722 0.331342,-0.94526 -0.305783,-2.10065 -0.666779,-2.95905 -1.296542,-3.08304 -5.568872,-8.82579 -0.696096,-10.44618 0.796465,-0.26486 1.614792,-0.69055 2.43315,-0.86286 m 56.165206,29.35088 c 2.37565,-0.35586 7.150365,3.45453 7.014502,5.83228 -0.112276,1.96482 -1.585211,4.13638 -2.369431,5.9192 -1.721565,3.91374 -3.27954,7.90723 -4.961902,11.83841 -0.783293,1.83032 -1.737412,6.63064 -4.152651,6.96947 -1.833769,0.25729 -3.259077,-1.79857 -5.060351,-1.97545 -3.075453,-0.302 -6.900255,1.54259 -9.935332,0.57966 -1.339388,-0.42496 -2.170787,-1.7813 -2.978791,-2.81137 -1.934984,-2.46678 -3.769303,-5.00374 -5.666299,-7.49767 -1.334764,-1.75478 -2.557404,-3.63069 -3.963505,-5.32728 -0.443464,-0.53509 -1.496175,-1.46176 -1.186992,-2.25198 0.278089,-0.71076 1.437664,-0.58941 2.035342,-0.51821 2.108834,0.25123 4.440738,0.2321 6.488384,-0.4141 5.970235,-1.88416 11.70103,-4.86075 17.437574,-7.32313 2.295388,-0.98527 4.793678,-2.64449 7.299452,-3.01983 m 35.889102,0.61779 c 2.03574,-0.50194 5.014,1.58463 6.89377,2.2921 6.53026,2.45769 12.85076,5.55283 19.26244,8.29288 1.65185,0.70594 3.26067,1.46303 5.06906,1.66792 0.75773,0.0859 2.08034,-0.10562 2.57283,0.61775 0.7543,1.10793 -1.8604,3.5667 -2.50493,4.37955 -2.43906,3.07597 -4.79208,6.21897 -7.25465,9.27342 -1.06057,1.31549 -1.98063,2.9727 -3.76242,3.44225 -3.33816,0.87969 -6.92759,0.7012 -10.34088,0.7012 -1.17793,0 -3.00062,0.32789 -4.01775,-0.35942 -1.25345,-0.84704 -1.93995,-3.04097 -2.46029,-4.37595 -1.2648,-3.24489 -2.86978,-6.38523 -4.01324,-9.66803 -0.81333,-2.33508 -1.97581,-4.66656 -3.03991,-6.90573 -0.53619,-1.12832 -1.40531,-2.66679 -1.15878,-3.94615 0.23818,-1.23617 1.29219,-2.22627 2.08238,-3.15676 0.75357,-0.88736 1.45131,-1.95397 2.67237,-2.25503 m -0.60844,27.90477 c -1.17593,-0.0669 -2.2599,-0.72278 -3.44695,-0.55753 -1.1611,0.16164 -2.24296,1.39132 -3.44644,0.98152 -1.6669,-0.56758 -2.46324,-3.56626 -4.4613,-3.39012 -2.05125,0.18083 -2.72748,3.11254 -4.4771,3.78902 -1.62013,0.62645 -3.58077,-1.20979 -5.25549,-1.37025 -2.831433,-0.27128 -5.591557,1.77293 -8.516033,1.96194 -0.900071,0.0583 -2.403486,0.21229 -3.13808,-0.4161 -1.143931,-0.97851 1.102942,-4.43203 1.515833,-5.53654 1.468778,-3.92912 3.221793,-7.76555 4.815724,-11.64109 0.765115,-1.86033 1.332302,-4.54305 2.799308,-6.01058 1.337111,-1.33761 4.596008,-3.19717 6.578488,-2.98722 1.5006,0.15893 3.11356,1.13676 4.46077,1.75918 1.41403,0.6533 2.9282,1.29215 3.92852,2.51175 2.79509,3.40778 3.94888,8.83822 5.73369,12.81644 1.09845,2.44839 2.89674,5.41286 2.90906,8.08958 M 33.345876,193.40698 c 1.036445,-0.4702 2.832501,0.30072 3.778411,0.72234 2.539228,1.13181 8.172738,1.4911 9.140766,4.43966 0.838833,2.55507 1.0753,5.44777 1.591439,8.08904 1.066355,5.45702 2.031677,10.93804 3.19362,16.37647 0.423051,1.98008 0.49832,4.20929 1.185287,6.11649 1.183562,3.28584 6.196551,2.67137 7.67837,5.54051 0.937537,1.81531 0.07894,5.00298 0.536532,7.08715 1.227941,5.59275 3.317332,10.99949 4.638749,16.57377 1.372882,5.7914 3.549878,11.38623 4.97147,17.16569 0.3308,1.34488 0.97061,2.59891 1.273616,3.94593 0.08455,0.3759 0.299707,1.24286 -0.247466,1.40818 -1.035525,0.31285 -2.657802,-2.34152 -3.219413,-2.97106 -3.048261,-3.41696 -6.278223,-6.78531 -9.468218,-10.07802 -4.962841,-5.12265 -9.684067,-10.49037 -14.46929,-15.78454 -1.865586,-2.06401 -5.064629,-4.57717 -6.16416,-7.11099 -1.132382,-2.60955 -0.866271,-6.46466 -1.074299,-9.26547 -0.474599,-6.38952 -0.556556,-13.242 -1.736177,-19.53338 -1.057571,-5.64052 -1.266846,-11.64168 -1.710412,-17.36299 -0.08873,-1.14401 -1.254216,-4.74387 0.101197,-5.35878 m 142.056542,1.90124 c 2.10847,0.0148 1.10349,3.79178 0.95627,5.03599 -0.65968,5.57502 -1.17706,11.35888 -1.35818,16.96838 -0.22138,6.8567 -1.08614,13.91939 -1.9567,20.71723 -0.31751,2.47933 0.17428,5.80236 -0.87762,8.08957 -1.39697,3.03751 -5.08554,5.93616 -7.44302,8.32979 -3.36187,3.41341 -6.30087,7.26611 -9.52246,10.80748 -2.96478,3.25907 -6.14355,6.42025 -9.30352,9.49972 -0.67034,0.65326 -2.21757,3.16431 -3.25824,3.02211 -1.33714,-0.18274 0.37227,-4.45541 0.53007,-5.21998 1.13459,-5.49746 2.28629,-11.30455 4.29615,-16.57378 1.73834,-4.5574 3.05489,-9.79942 3.8869,-14.6007 0.30217,-1.74375 -0.51942,-3.90748 0.16396,-5.52444 0.6881,-1.62813 2.70394,-2.74211 4.01334,-3.86781 1.90209,-1.63524 3.13407,-3.39866 3.72339,-5.80038 1.5249,-6.21454 2.18818,-12.6587 3.44418,-18.94145 0.4602,-2.30195 0.48832,-5.18349 1.58785,-7.29075 0.57336,-1.09886 1.69686,-1.48041 2.81022,-1.89522 2.43714,-0.90801 5.66623,-2.77424 8.30741,-2.75576 M 52.534228,205.86881 c 1.846461,0.75196 2.691624,2.89698 3.890105,4.34073 3.732919,4.49698 7.379827,8.1906 7.463223,14.2061 0.01716,1.23854 1.033565,5.74564 -0.461742,6.33685 -1.507551,0.59601 -6.036292,-2.22821 -6.864903,-3.38721 -1.099735,-1.53829 -1.151763,-4.10168 -1.451164,-5.90924 -0.588252,-3.55153 -1.757804,-7.08965 -2.16998,-10.65457 -0.194661,-1.68353 -1.047769,-3.27172 -0.405539,-4.93266 m 105.436492,1.57845 c 0.29287,1.59528 -0.40147,3.14968 -0.56423,4.73536 -0.38188,3.7206 -1.17757,7.62028 -2.12589,11.24649 -0.39201,1.49895 -0.40002,2.80026 -1.3743,4.12807 -1.02703,1.39972 -2.58862,2.53917 -3.90825,3.66813 -0.45239,0.38704 -1.18331,0.99647 -1.84033,0.70953 -1.24289,-0.54285 -0.78536,-4.80132 -0.88935,-5.94075 -0.54087,-5.92625 2.70105,-9.59496 6.3028,-14.00878 1.2893,-1.58 2.34435,-3.85512 4.39955,-4.53805 m -47.04585,11.25707 c 1.74425,0.1596 2.01612,3.64894 2.03104,4.92208 0.0284,2.42298 -0.14448,4.88279 0.0292,7.30035 0.0678,0.9437 0.4786,2.25829 -0.35292,3.00272 -0.90285,0.80835 -3.02199,0.47044 -4.1334,0.31085 -1.94393,-0.2791 -1.65068,-2.46793 -1.61752,-3.90548 0.0696,-3.01471 -0.64966,-7.12176 1.31121,-9.66754 0.5898,-0.76574 1.60854,-2.06579 2.73243,-1.96298 m -11.145277,0.69368 c 1.574147,-0.3234 2.941987,0.82471 3.268657,2.25548 0.60338,2.6427 -0.0262,6.14575 -0.0262,8.87867 0,1.34954 0.31701,3.27141 -1.42381,3.68324 -0.93079,0.2202 -2.57314,0.30538 -3.16196,-0.59826 -0.526195,-0.80753 -0.280533,-2.17268 -0.280533,-3.08498 v -7.30036 c 0,-1.44478 -0.276113,-3.44343 1.623806,-3.83379 m 19.260357,0.23891 c 1.45699,0 2.00238,1.42687 2.16152,2.60834 0.40255,2.98859 -0.0459,6.26585 -0.13695,9.27343 -0.0393,1.29889 -0.50232,2.37404 -2.02419,2.34374 -1.73615,-0.0345 -1.74865,-1.43443 -1.88975,-2.73836 -0.31237,-2.88636 -0.54238,-6.39162 -0.20616,-9.27342 0.12807,-1.09778 0.8414,-2.21373 2.09553,-2.21373 m -49.27206,0.79299 c 2.355012,0.0875 2.995956,7.45607 0.607246,7.42326 -3.044379,-0.0419 -3.603039,-7.53457 -0.607246,-7.42326 m 6.720584,0.0451 c 1.006658,-0.27714 1.477285,0.81983 1.587824,1.5735 0.277987,1.89527 0.387076,4.01922 0.08577,5.91876 -0.0917,0.5782 -0.204985,1.57702 -0.919012,1.75482 -0.902972,0.22486 -1.154582,-1.18042 -1.259761,-1.75496 -0.347088,-1.89583 -0.188289,-3.99377 -0.284134,-5.91896 -0.03013,-0.60476 0.08302,-1.37874 0.789245,-1.57316 m 14.38575,0.15827 c 1.49058,-0.58172 2.7972,0.75478 3.237326,2.00676 0.882088,2.5092 0.626852,6.23935 0.595687,8.87867 -0.01194,1.01416 -0.135006,2.12759 -1.227635,2.57691 -1.879903,0.77303 -3.184307,-0.24288 -3.52243,-1.985 -0.510124,-2.62826 -0.562193,-5.39153 -0.503681,-8.0627 0.02696,-1.23006 0.003,-2.86144 1.420733,-3.41464 m -6.506827,0.80139 c 1.130891,-0.0401 1.389528,1.13934 1.415424,1.99448 0.06678,2.20696 0.17865,4.53886 -0.26122,6.7084 -0.17188,0.84779 -0.259392,1.97495 -1.366674,2.09312 -1.064996,0.11369 -1.841865,-0.76991 -2.056214,-1.69902 -0.434591,-1.88377 -0.250253,-5.46788 0.39255,-7.2993 0.275853,-0.78592 0.91938,-1.76377 1.876134,-1.79768 m 56.576731,0.91515 c 2.90456,-0.70077 2.28602,3.70839 0.19369,4.05305 -2.19868,0.36216 -2.0905,-3.59541 -0.19369,-4.05305 m -14.7653,0.40945 c 3.57399,-1.20231 3.05019,5.50866 2.53117,7.37823 -0.2183,0.78635 -0.51039,1.64024 -1.3689,1.95101 -2.95001,1.06782 -2.01912,-5.62344 -2.01498,-7.08093 0.002,-0.80688 -0.11194,-1.92379 0.85271,-2.24831 m 7.33113,0.25385 c 0.84843,-0.33164 1.54894,0.53009 1.79501,1.20739 0.49934,1.37444 0.93461,4.41357 -0.86078,5.05783 -2.18225,0.78306 -2.27215,-5.74221 -0.93423,-6.26522 m 8.03752,7.84938 c 2.64898,-0.58629 2.51208,5.60669 -5.2e-4,5.93872 -2.39196,0.3161 -2.23936,-5.44297 5.2e-4,-5.93872 m -71.970764,1.2341 c 2.69243,-0.3291 2.241093,3.84055 2.218311,5.34126 -0.01134,0.74853 -0.05198,1.88012 -1.02946,2.03076 -2.241226,0.34537 -3.589253,-7.07866 -1.188851,-7.37202 m 64.706654,2.13543 c 1.91627,-0.37886 2.14172,5.71395 0.55292,6.15994 -1.90701,0.53533 -2.39121,-5.79649 -0.55292,-6.15994 m -58.025864,5.96812 c -0.259597,-0.68907 -0.292743,-1.24289 -0.242942,-1.97311 0.03145,-0.46068 0.03359,-0.91958 0.04177,-1.38096 0.01021,-0.57614 0.477561,-2.60573 1.314035,-1.29909 0.750513,1.17236 0.150179,4.0689 -1.112828,4.65316 m 6.323511,-3.80569 c 2.909383,-0.67248 2.218148,6.51821 0.359464,6.83449 -2.050985,0.34902 -2.103953,-6.43127 -0.359464,-6.83449 m 44.772078,-0.0111 c 2.68216,-0.5393 2.33175,5.58992 -0.003,6.03252 -2.61158,0.495 -2.73246,-5.48249 0.003,-6.03252 m -37.490241,1.59884 c 3.134966,-0.69096 3.971112,1.58785 3.817951,3.99368 -0.09089,1.42692 -0.304895,3.0144 -2.013909,3.3555 -3.450122,0.6886 -4.671916,-6.71706 -1.804042,-7.34918 m 28.773561,-0.0379 c 3.51848,-0.89588 3.98626,6.94299 1.01169,7.83523 -4.6994,1.40967 -4.28507,-7.00178 -1.01169,-7.83523 m -19.056897,0.56464 c 3.264007,-0.62823 2.535867,2.44361 2.292347,4.45353 -0.13352,1.10205 -0.0904,2.50304 -1.49009,2.82285 -3.333214,0.7615 -3.644001,-6.72942 -0.802257,-7.27638 m 8.716527,0.20662 c 3.29494,-0.71048 3.85063,1.74329 3.85041,4.24691 -1.2e-4,1.36087 0.1064,3.11066 -1.62605,3.47946 -3.22524,0.68655 -3.75113,-1.47855 -3.84036,-4.07139 -0.0482,-1.40081 -0.15724,-3.27263 1.616,-3.65498 m 37.68553,1.45232 c 0.89121,-0.0463 1.03265,0.95259 0.94889,1.61094 -0.2225,1.74883 -0.98035,3.61237 -1.43274,5.32709 -1.98264,7.51488 -4.00184,15.04701 -6.2111,22.49298 -0.6025,2.03065 -1.17155,4.07089 -1.71802,6.1165 -0.14007,0.52437 -0.31931,1.84615 -1.09169,1.84615 -1.13241,0 -1.61447,-3.21788 -1.8537,-4.01652 -1.30445,-4.35459 -2.79614,-8.64784 -4.03437,-13.02225 -0.78247,-2.76427 -1.61429,-5.56949 -2.54526,-8.28688 -0.43253,-1.26252 -1.37092,-2.96827 -0.98999,-4.33275 0.45615,-1.63403 2.7218,-2.09167 4.15253,-2.49885 1.96063,-0.55801 4.19572,-0.013 6.08284,-0.8968 1.34818,-0.63134 1.92318,-1.92978 3.06104,-2.77578 1.27551,-0.94831 4.06009,-1.48211 5.63157,-1.56383 m -70.129597,39.09904 c -1.587262,-4.95527 -2.850708,-10.00465 -4.274965,-14.99532 -0.980179,-3.43461 -2.146116,-6.82185 -3.13517,-10.25994 -0.833542,-2.89754 -1.728384,-5.77901 -2.540902,-8.68151 -0.232546,-0.83068 -1.112459,-2.24965 -0.393908,-3.04416 0.945972,-1.04601 3.000389,2.17294 4.059452,2.41486 0.982773,0.22444 1.866291,-0.36559 2.838526,-0.29749 1.223254,0.0857 1.906269,1.23994 3.041438,1.54214 0.879096,0.23402 1.752699,-0.18663 2.63591,-0.11324 1.412401,0.11737 3.970316,1.95514 4.469116,3.24726 0.482503,1.24992 -0.471934,3.04775 -0.616998,4.34021 -0.541024,4.8205 -2.101451,9.62733 -2.989002,14.40339 -0.499689,2.68896 -1.136375,5.38943 -1.507287,8.08959 -0.173952,1.26631 -0.217402,2.82226 -1.58621,3.35421 M 94.911549,248.7962 c 2.093343,-0.38052 3.272155,2.11498 5.271821,1.96338 1.48259,-0.11238 2.44964,-1.36052 4.05525,-1.25144 1.92896,0.13105 3.51583,1.69004 5.47459,1.50326 1.64708,-0.15706 2.57865,-1.70153 4.07104,-2.01539 1.35141,-0.28421 2.56507,0.94981 3.83669,1.18298 1.35109,0.24774 3.94354,-1.0309 4.90413,0.006 1.78927,1.93201 2.04847,6.50602 2.89634,8.95635 1.95783,5.65819 3.6063,11.41939 5.26853,17.1657 0.83725,2.89439 2.00789,5.72694 2.62622,8.6815 0.57416,2.74349 -1.13822,6.39928 -4.13779,7.14881 -3.5295,0.88196 -8.11985,0.15154 -11.76019,0.15154 H 92.681175 c -2.425237,0 -4.877157,-0.10179 -7.299443,0.0154 -1.669372,0.0808 -3.489007,0.22872 -4.761092,-1.08577 -1.981507,-2.04751 -0.221803,-7.5491 0.414393,-9.97876 1.927079,-7.35959 2.988644,-15.02475 4.383624,-22.49297 0.417282,-2.23401 0.758162,-4.48468 1.224551,-6.70843 0.168173,-0.80182 0.09272,-1.80423 0.613526,-2.49128 1.007322,-1.32884 3.083183,0.57168 4.410634,0.4561 1.204803,-0.10489 2.088115,-0.99706 3.244198,-1.20723 z"
       id="path3" /><path
       style="fill:#000000;stroke-width:1.33"
       d="m 576.94241,738.92049 c -1.98132,-0.6469 -7.66707,-3.01583 -12.63499,-5.26427 -11.76994,-5.32698 -43.71208,-18.79265 -62.23256,-26.235 -25.34776,-10.18586 -25.92426,-10.76529 -19.5467,-19.64588 2.43975,-3.39729 4.834,-8.85794 5.55826,-12.67691 1.68481,-8.88398 -0.19456,-28.71136 -3.28754,-34.6835 -1.32022,-2.5492 -12.36659,-19.60644 -24.54748,-37.90499 -12.18088,-18.29856 -23.84158,-36.2626 -25.91265,-39.9201 -5.56185,-9.82222 -11.19287,-15.29499 -15.73721,-15.29499 -5.76462,0 -8.36838,1.96542 -12.76378,9.63465 -8.29038,14.46527 -12.64462,16.24467 -18.488,7.55523 -7.46154,-11.09571 -11.04183,-14.52988 -15.1481,-14.52988 -4.88268,0 -9.09217,4.07513 -13.79397,13.35368 -3.96856,7.83157 -34.39801,56.96955 -41.28001,66.65963 -11.59788,16.3302 -12.34551,22.8542 -5.16454,45.06715 2.60328,8.05274 4.37594,15.76701 3.93928,17.14286 -0.80848,2.54725 -11.25066,7.55049 -41.9225,20.0866 -8.41224,3.43823 -21.31586,9.02516 -28.67471,12.41541 -22.69326,10.45485 -36.4545,10.6115 -77.92457,0.88708 -23.42991,-5.49413 -35.73817,-10.45326 -35.67141,-14.37237 0.0379,-2.22586 17.04496,-25.09622 34.2185,-46.01559 7.32046,-8.91717 9.75998,-10.85992 20.25651,-16.1316 14.19599,-7.12964 29.35872,-13.23127 62.52569,-25.16094 45.38388,-16.3239 46.8374,-17.24527 62.85733,-39.84472 5.25247,-7.40972 17.34793,-23.56815 26.8788,-35.90763 9.53085,-12.3395 19.42359,-25.1822 21.98384,-28.53936 7.33125,-9.61316 6.82401,-13.13819 -7.97537,-55.42518 -15.97436,-45.64432 -16.03816,-46.46571 -4.96986,-63.97882 9.1232,-14.43542 11.74029,-17.07745 15.88414,-16.0355 1.7425,0.43814 8.32559,7.19344 15.38271,15.78513 13.12958,15.98459 16.40146,18.99182 22.26417,20.46326 3.3888,0.85054 4.80079,-0.24041 17.13119,-13.23609 7.3909,-7.78967 14.1304,-14.16076 14.97665,-14.158 3.47988,0.0114 17.74222,19.80909 17.72916,24.61003 -0.004,1.463 -2.74439,9.2435 -6.0898,17.29 -15.67346,37.6983 -21.82301,54.19728 -21.82301,58.55018 0,5.98047 5.14094,16.12788 19.7472,38.97788 6.39225,10.00004 15.03034,24.24338 19.19571,31.65184 11.26946,20.04364 16.1305,24.75971 38.8285,37.6706 28.615,16.27653 39.64821,20.59973 75.17855,29.45752 17.19024,4.28557 33.77852,8.98376 36.86281,10.44043 6.05609,2.86022 5.84394,2.57077 22.95713,31.32148 6.0957,10.241 14.31923,23.58289 18.2745,29.64865 10.52706,16.14422 10.27234,16.80273 -9.2188,23.83274 -30.17937,10.88497 -57.35479,15.87717 -67.82307,12.45929 z"
       id="path1"
       transform="scale(0.26458333)" /><path
       style="fill:#000000;stroke-width:1.33"
       d="m 397.44574,395.33578 c -4.89225,-4.11586 -57.76177,-63.90546 -77.3204,-87.44087 -18.42568,-22.17209 -31.40032,-36.85725 -47.57883,-53.8514 -18.84287,-19.79284 -19.20524,-21.09795 -9.45777,-34.06273 3.51935,-4.68096 11.72267,-16.29134 18.22961,-25.80083 6.50694,-9.5095 25.66793,-36.74124 42.57997,-60.51499 16.91204,-23.77374 38.94421,-55.194982 48.96037,-69.824978 10.01617,-14.629996 19.54659,-28.295398 21.1787,-30.367561 5.00401,-6.353146 7.36438,-5.370306 15.43639,6.427568 4.00389,5.851998 15.74797,22.609993 26.09796,37.239989 21.22122,29.996792 26.499,37.771962 55.52235,81.794982 11.33313,17.19024 26.45554,39.03116 33.60537,48.53537 15.05527,20.01286 18.5491,26.08573 17.42058,30.27992 -0.82937,3.08242 -9.01391,12.77062 -48.75637,57.71396 -12.83765,14.51763 -37.77578,43.22039 -55.41805,63.7839 -26.80185,31.23973 -34.23922,39.15364 -36.72701,39.08017 -0.12304,-0.004 -1.82084,-1.35026 -3.77287,-2.9925 z"
       id="path2"
       transform="scale(0.26458333)" /><path
       style="fill:#000000;stroke-width:1.33"
       d="m 557.98627,222.44244 c -1.88205,-1.64588 -11.04255,-14.21121 -20.35666,-27.92297 -17.73005,-26.10126 -54.41429,-79.833 -79.2304,-116.049492 -8.01977,-11.703997 -17.48343,-25.243447 -21.03036,-30.087669 -3.54693,-4.844222 -6.44897,-9.183346 -6.44897,-9.642498 0,-1.921508 3.77173,-0.559287 9.99275,3.609045 3.64773,2.444126 13.81424,8.226121 22.59224,12.848876 27.77681,14.628098 112.40538,60.442428 168.248,91.082338 29.6274,16.25607 55.13435,29.95841 56.68207,30.44964 1.54773,0.49124 3.93516,2.13196 5.30541,3.64606 2.44286,2.69933 2.4337,2.7996 -0.47104,5.1517 -1.62931,1.31934 -10.00311,4.03239 -18.60843,6.029 -8.60534,1.99661 -30.90781,8.59069 -49.56106,14.65352 -39.14215,12.7223 -60.19785,19.22495 -62.25073,19.22495 -0.79251,0 -2.98077,-1.34663 -4.86282,-2.9925 z"
       id="path4"
       transform="scale(0.26458333)" /><path
       style="fill:#000000;stroke-width:1.33"
       d="m 658.29853,140.58052 c -2.53204,-1.31694 -10.88796,-6.03109 -18.56871,-10.47589 C 617.53372,117.25988 560.1853,85.99014 533.08153,71.953685 519.41221,64.874639 506.84371,57.919918 505.15154,56.498751 l -3.07668,-2.58394 4.655,0.832625 c 2.56025,0.457943 19.61749,6.04659 37.90499,12.419214 18.28749,6.372626 39.23499,13.45013 46.54998,15.727787 19.42819,6.049321 28.96161,13.00893 53.86499,39.322653 4.75475,5.02402 10.61878,10.64571 13.03118,12.49266 4.4429,3.40149 7.92469,8.26521 5.91683,8.26521 -0.60257,0 -3.16726,-1.0775 -5.6993,-2.39444 z"
       id="path5"
       transform="scale(0.26458333)" /><path
       style="fill:#000000;stroke-width:1.33"
       d="m 128.84767,141.9482 c 0.76781,-1.43465 7.85155,-8.50855 15.74165,-15.71976 7.8901,-7.21121 20.33063,-18.85041 27.64563,-25.86488 16.00226,-15.344843 21.42874,-18.677648 37.90499,-23.28026 6.94925,-1.94126 22.80949,-6.991574 35.24499,-11.222917 31.97666,-10.880487 57.85498,-18.014612 57.85498,-15.949438 0,1.572864 -11.68633,8.552465 -21.27999,12.709369 -4.75475,2.060217 -19.41799,9.831313 -32.58499,17.269101 -32.25144,18.218228 -64.522,35.344055 -82.64927,43.861565 -8.22315,3.86384 -19.0897,9.70234 -24.14787,12.97446 -5.05817,3.27211 -10.5308,6.37273 -12.1614,6.89026 -2.62783,0.83404 -2.80609,0.64456 -1.56872,-1.6675 z"
       id="path6"
       transform="scale(0.26458333)" /><path
       style="fill:#000000;stroke-width:1.33"
       d="m 230.75494,221.81066 c -1.463,-0.34386 -9.2435,-2.58725 -17.29,-4.9853 -8.0465,-2.39806 -37.198,-9.88602 -64.78111,-16.63992 -27.58312,-6.7539 -51.06307,-12.96284 -52.177674,-13.79766 -1.114604,-0.83481 -1.588845,-2.15716 -1.053868,-2.93858 0.534977,-0.78141 12.044932,-7.12693 25.577682,-14.10118 13.53274,-6.97424 32.38549,-17.1559 41.89498,-22.6259 9.5095,-5.47 29.26,-16.12544 43.88999,-23.67876 14.63,-7.55331 38.86924,-20.42651 53.86499,-28.607112 14.99574,-8.180601 36.24249,-19.545162 47.21498,-25.25458 10.9725,-5.70942 27.84353,-14.783094 37.49118,-20.163721 17.51497,-9.768346 21.21861,-11.26892 20.00453,-8.105088 -0.75569,1.969322 -18.90496,28.029036 -42.36647,60.832111 -9.15574,12.80125 -25.22822,35.84349 -35.71661,51.20499 -27.87904,40.83221 -45.16592,65.44828 -46.97836,66.896 -2.28724,1.82697 -6.49049,2.6895 -9.57424,1.9647 z"
       id="path7"
       transform="scale(0.26458333)" /><path
       style="fill:#000000;stroke-width:1.33"
       d="m 98.579616,413.96238 c -0.607485,-1.64587 -1.484955,-9.87524 -1.949934,-18.28749 -0.464978,-8.41225 -1.728794,-21.9893 -2.808481,-30.17123 -1.079687,-8.18192 -3.508483,-32.12191 -5.397326,-53.19998 -1.888842,-21.07807 -4.348462,-45.2065 -5.465822,-53.61875 -7.463299,-56.18883 -7.38109,-54.97561 -3.817804,-56.34297 1.840315,-0.7062 18.338524,3.38879 46.544711,11.55278 8.778,2.5407 27.03225,7.13782 40.56499,10.21582 37.26105,8.47497 56.31421,13.34564 58.14307,14.86345 2.2863,1.89747 2.7943,1.0974 -30.70762,48.36353 -58.05112,81.90135 -72.42346,102.50233 -78.45228,112.45176 -6.03932,9.96676 -12.06467,17.16558 -14.36743,17.16558 -0.64986,0 -1.678588,-1.34662 -2.286074,-2.9925 z"
       id="path8"
       transform="scale(0.26458333)" /><path
       style="fill:#000000;stroke-width:1.33"
       d="m 241.39493,407.10955 c -4.95064,-2.18527 -7.0604,-4.65152 -12.62618,-14.75966 -2.41669,-4.389 -11.74075,-19.96351 -20.72014,-34.61002 -8.97939,-14.64652 -16.71005,-28.15957 -17.17925,-30.02901 -0.89939,-3.58347 2.32017,-8.74562 31.15935,-49.96006 6.56979,-9.38898 13.45953,-19.31525 15.31051,-22.05837 6.16228,-9.13237 6.43561,-8.92715 41.62763,31.25499 17.45789,19.93337 38.67949,43.61787 47.1591,52.63222 8.47961,9.01435 16.77864,18.95554 18.44228,22.09153 l 3.02481,5.70181 -4.38016,8.49846 c -10.92958,21.20573 -19.13157,29.38763 -31.842,31.76403 -10.95965,2.04906 -65.06362,1.64243 -69.97595,-0.52592 z"
       id="path9"
       transform="scale(0.26458333)" /><path
       style="fill:#000000;stroke-width:1.33"
       d="m 145.59582,428.71211 c -5.63706,-4.94941 -11.49364,-15.82486 -11.65875,-21.64989 -0.0904,-3.18795 2.88626,-8.3094 13.20166,-22.71416 7.32509,-10.22899 16.38354,-23.15957 20.1299,-28.73463 7.24141,-10.77613 9.50113,-12.568 12.67991,-10.05468 1.09293,0.86413 7.19264,10.2494 13.55491,20.85615 6.36226,10.60674 14.38572,23.47449 17.82989,28.59499 3.44418,5.1205 6.66582,10.37095 7.1592,11.66766 1.13584,2.98522 -2.96615,7.26671 -7.98627,8.33574 -2.03023,0.43234 -11.47183,3.40455 -20.98132,6.60492 -16.17827,5.44469 -35.94848,11.29667 -38.16448,11.29667 -0.53788,0 -3.13197,-1.89125 -5.76465,-4.20277 z"
       id="path10"
       transform="scale(0.26458333)" /><path
       style="fill:#000000;stroke-width:1.33"
       d="m 111.9503,453.6257 c -3.1918,-3.46269 -5.55033,-7.33385 -5.55033,-9.11 0,-4.37566 11.5185,-19.86281 14.36514,-19.3146 1.23415,0.23768 4.19263,3.41029 6.57438,7.05025 5.44351,8.31913 5.59678,13.99336 0.57477,21.27852 -5.2774,7.65563 -8.97512,7.67783 -15.96396,0.0958 z"
       id="path11"
       transform="scale(0.26458333)" /><path
       style="fill:#000000;stroke-width:1.33"
       d="m 73.592248,405.31739 c -2.025705,-2.74313 -6.468328,-8.27925 -9.872494,-12.3025 -3.404167,-4.02325 -12.45408,-16.0037 -20.110919,-26.62321 -7.656838,-10.61953 -16.409096,-22.58953 -19.44946,-26.6 -4.025023,-5.30932 -5.529491,-8.55194 -5.533658,-11.92684 -0.0037,-2.9841 6.424681,-19.80164 18.047537,-47.21499 9.929293,-23.41895 18.610086,-43.96029 19.290653,-45.64741 1.723747,-4.27317 3.597389,-2.55588 4.46891,4.09599 2.233677,17.04852 10.404792,87.05161 13.308581,114.01647 1.85118,17.19025 3.971663,36.38278 4.712181,42.65006 0.74052,6.26729 1.346399,12.10266 1.346399,12.96749 0,2.96099 -2.525027,1.57189 -6.20773,-3.41506 z"
       id="path12"
       transform="scale(0.26458333)" /><path
       style="fill:#000000;stroke-width:1.33"
       d="m 57.49921,500.41236 c -0.740561,-0.91438 -3.851635,-12.4355 -6.913497,-25.60249 -5.543767,-23.83999 -16.253166,-66.88143 -21.322296,-85.69503 -1.464883,-5.43678 -2.663424,-11.32102 -2.663424,-13.0761 0,-2.80231 0.744607,-2.3272 6.112273,3.90005 7.100267,8.23731 44.900122,58.19854 46.998435,62.11927 2.674477,4.99731 1.412956,11.81841 -4.981025,26.93264 -3.520166,8.32104 -8.076257,19.16904 -10.124646,24.10666 -3.822579,9.21429 -4.774172,10.19389 -7.10582,7.315 z"
       id="path13"
       transform="scale(0.26458333)" /><path
       style="fill:#000000;stroke-width:1.33"
       d="m 86.46249,583.21823 c -5.500606,-5.88842 -20.386086,-44.26712 -19.223089,-49.56221 0.486134,-2.21336 4.662763,-12.92811 9.281396,-23.81057 4.618634,-10.88246 9.641714,-23.51663 11.1624,-28.07593 3.617492,-10.84593 7.415143,-16.93465 10.562464,-16.93465 1.388633,0 4.655319,2.35825 7.259309,5.24055 9.31333,10.30874 9.03859,8.38154 8.5432,59.92742 l -0.44648,46.45828 -3.1041,3.30416 c -3.10761,3.3079 -12.963524,7.42956 -17.765932,7.42956 -1.404955,0 -4.226081,-1.78948 -6.269168,-3.97661 z"
       id="path14"
       transform="scale(0.26458333)" /><path
       style="fill:#000000;stroke-width:1.33"
       d="m 60.688795,659.65317 c -0.426677,-1.1119 -0.183829,-13.23153 0.539664,-26.93249 0.723492,-13.70097 1.457434,-30.54819 1.630982,-37.43826 0.209762,-8.32785 0.851313,-12.70492 1.913763,-13.05691 2.095791,-0.69433 7.311769,9.89224 18.3642,37.27277 7.478688,18.52719 8.778276,22.84385 7.633721,25.35587 -1.419107,3.1146 -23.658182,16.82066 -27.292737,16.82066 -1.107598,0 -2.362915,-0.90974 -2.789593,-2.02164 z"
       id="path15"
       transform="scale(0.26458333)" /><path
       style="fill:#000000;stroke-width:1.33"
       d="M 102.40997,701.52445 C 99.118222,699.30852 91.160962,694.43303 84.727171,690.69003 72.251445,683.432 69.279525,680.2951 72.414205,677.69355 c 1.02758,-0.85282 8.945127,-5.76347 17.594547,-10.91255 18.731178,-11.15086 21.711218,-13.69281 21.711218,-18.51948 0,-2.00179 -2.76438,-9.35755 -6.14307,-16.34612 -6.676024,-13.80888 -8.676289,-23.32822 -5.666188,-26.96561 2.593128,-3.13352 11.730688,-7.05118 16.526838,-7.08575 4.63625,-0.0334 9.95321,4.9249 19.22241,17.92579 3.12921,4.389 7.64277,10.07474 10.03013,12.63499 6.32464,6.78265 11.24987,14.58752 11.24987,17.82734 0,1.55439 -2.88426,6.40849 -6.40947,10.7869 -3.5252,4.37842 -12.27992,15.74125 -19.45494,25.25075 -20.11119,26.6546 -18.87523,25.82528 -28.66558,19.23464 z"
       id="path16"
       transform="scale(0.26458333)" /><path
       style="fill:#000000;stroke-width:1.33"
       d="m 257.96166,1051.0322 c -4.55101,-5.3034 -18.22612,-20.1162 -30.38913,-32.9175 -12.16301,-12.8012 -30.47691,-32.55173 -40.69755,-43.88997 -10.22065,-11.33825 -23.50326,-25.71265 -29.51693,-31.9431 -15.11668,-15.66162 -16.30127,-18.74288 -17.79904,-46.29742 -2.24864,-41.36852 -3.97403,-62.03362 -6.51534,-78.03444 -1.39415,-8.778 -3.18012,-23.44124 -3.96881,-32.58499 -0.78869,-9.14375 -2.04596,-22.90924 -2.79394,-30.58999 -0.74797,-7.68075 -1.43196,-14.86275 -1.51998,-15.96 -0.62082,-7.73994 2.43668,-9.0874 12.40492,-5.4669 3.92651,1.42611 12.24381,4.11626 18.4829,5.97809 14.53205,4.33657 17.81831,7.56649 20.49821,20.1468 1.74797,8.2055 8.66902,44.7015 17.34173,91.44613 1.775,9.56705 3.90252,17.00312 5.45762,19.07549 1.40174,1.868 7.63587,5.88462 13.85362,8.92585 7.40646,3.62265 11.87155,6.67613 12.94789,8.8545 0.90359,1.82875 1.66197,8.41225 1.68529,14.63 0.045,11.99123 1.09601,16.82159 10.99701,50.53998 3.32934,11.33825 8.78624,30.19099 12.12645,41.89499 3.34021,11.70398 8.7799,30.42058 12.08822,41.59248 8.48314,28.6467 8.1805,29.5902 -4.68314,14.6 z"
       id="path17"
       transform="scale(0.26458333)" /><path
       style="fill:#000000;stroke-width:1.33"
       d="m 299.6364,818.30925 -8.2585,-4.25465 -15.68149,2.22557 c -17.32724,2.45914 -21.415,2.1103 -26.09491,-2.2269 -4.15461,-3.85036 -47.44156,-61.60092 -47.44156,-63.29336 0,-0.71782 0.44888,-1.32726 0.9975,-1.35432 0.54863,-0.0271 7.28175,-0.2216 14.9625,-0.4323 16.625,-0.45607 24.02932,-2.98479 67.70483,-23.12255 33.62674,-15.5045 41.05268,-18.32402 45.39241,-17.23482 5.4335,1.36372 15.60497,8.77196 18.52021,13.48892 3.72003,6.01913 3.41046,10.584 -1.40382,20.69995 -5.29387,11.12369 -22.64641,52.6904 -26.5463,63.58969 -3.04109,8.49914 -8.8162,16.22724 -12.09847,16.18985 -0.98664,-0.0112 -5.51022,-1.93502 -10.0524,-4.27508 z"
       id="path18"
       transform="scale(0.26458333)" /><path
       style="fill:#000000;stroke-width:1.33"
       d="m 227.42118,867.90317 c -7.6952,-3.97555 -14.05686,-9.48654 -15.21481,-13.1803 -0.37812,-1.20621 -1.86942,-8.77661 -3.31399,-16.82311 -1.44457,-8.04649 -4.43004,-23.30824 -6.63437,-33.91499 -2.20434,-10.60674 -4.02592,-20.33236 -4.04797,-21.61249 -0.0551,-3.19905 2.14038,-2.91632 5.16394,0.665 13.82332,16.3733 27.70221,35.32067 31.57555,43.10672 4.1891,8.4208 4.90039,11.37967 6.13951,25.5393 1.90339,21.75036 0.42745,23.50188 -13.66786,16.21987 z"
       id="path19"
       transform="scale(0.26458333)" /><path
       style="fill:#000000;stroke-width:1.33"
       d="m 286.98051,1053.2287 c -0.38799,-0.6595 -3.48915,-11.0742 -6.89146,-23.144 -3.40231,-12.0697 -12.24753,-42.17024 -19.65605,-66.88999 -14.71004,-49.08252 -15.05942,-52.01526 -5.12768,-43.04253 4.87546,4.40469 6.10202,4.86339 13.02594,4.87132 5.39002,0.006 8.82006,0.78787 11.63366,2.65124 2.77271,1.83629 6.24321,2.64515 11.37548,2.65124 6.15314,0.007 8.31763,0.69426 12.97184,4.11701 3.07249,2.25954 5.94296,5.5291 6.37882,7.2657 0.89426,3.56302 -2.15742,22.34053 -7.01363,43.15603 -4.32821,18.55228 -10.57203,49.51568 -11.71289,58.08458 -0.91658,6.8845 -3.65655,12.5356 -4.98403,10.2794 z"
       id="path20"
       transform="scale(0.26458333)" /><path
       style="fill:#000000;stroke-width:1.33"
       d="m 309.06923,1102.4589 c -8.74716,-4.3152 -9.03638,-10.5265 -1.88017,-40.3778 2.90353,-12.1118 6.78724,-30.4004 8.63045,-40.6414 1.84322,-10.241 5.69649,-31.70169 8.56282,-47.69045 2.86634,-15.98875 5.83263,-29.69157 6.59177,-30.45071 0.95367,-0.95367 3.23662,-0.8605 7.38673,0.30145 6.37804,1.78575 10.75832,1.4332 17.72492,-1.42659 4.00338,-1.64338 4.90574,-1.45525 13.04625,2.72002 l 8.7454,4.48551 7.49941,-3.10833 7.4994,-3.10833 8.2986,2.89623 c 10.62034,3.70653 16.01919,3.65715 21.78883,-0.19929 6.99738,-4.67705 8.3813,-4.86497 14.7326,-2.00053 4.76631,2.14962 7.41983,2.4781 14.23195,1.76178 12.20263,-1.28313 12.63967,-0.74272 18.83022,23.28427 3.25197,12.62165 8.38014,29.66941 24.00482,79.79997 8.66972,27.8161 9.43966,31.5438 7.83312,37.9239 -1.92856,7.659 -8.1093,14.8572 -14.21264,16.5523 -3.14724,0.8741 -35.69656,1.3607 -90.04882,1.3461 -73.8754,-0.02 -85.66763,-0.2931 -89.26566,-2.0681 z"
       id="path21"
       transform="scale(0.26458333)" /><path
       style="fill:#000000;stroke-width:1.33"
       d="m 513.99596,1047.2956 c -0.56575,-0.9154 -2.65138,-7.1075 -4.63473,-13.7601 -8.08632,-27.1237 -22.93504,-75.2112 -25.9891,-84.16564 -2.63085,-7.71362 -2.97693,-10.1823 -1.79205,-12.78284 2.06505,-4.53228 9.07637,-7.46834 21.65332,-9.06755 16.26236,-2.06782 16.3027,-2.08308 24.05163,-9.10055 3.98526,-3.60908 9.48538,-7.16547 12.28326,-7.94241 7.47007,-2.07436 13.65318,-1.79143 14.59692,0.66792 1.20555,3.14161 -34.53754,132.78417 -37.50288,136.02537 -1.29589,1.4165 -1.85243,1.4428 -2.66637,0.1258 z"
       id="path22"
       transform="scale(0.26458333)" /><path
       style="fill:#000000;stroke-width:1.33"
       d="m 538.10959,1047.5765 c -0.38348,-0.6205 0.46251,-5.5581 1.87998,-10.9725 1.41748,-5.4143 4.7544,-19.4051 7.41537,-31.0905 2.66098,-11.68546 7.14448,-27.68455 9.96334,-35.55356 10.13549,-28.2938 15.91549,-54.19458 15.46613,-69.30535 l -0.26957,-9.06515 12.23411,-11.54985 c 6.72875,-6.35241 13.39571,-13.94383 14.81545,-16.86983 3.03584,-6.25671 6.14783,-21.36983 13.55625,-65.83498 6.15543,-36.94471 6.87643,-39.80484 10.97027,-43.51821 3.66946,-3.32842 27.92057,-13.27283 35.21099,-14.43861 8.0667,-1.28992 8.82628,1.03892 6.41813,19.6775 -1.06623,8.25238 -2.59078,24.87957 -3.38789,36.94932 -3.49952,52.9891 -4.36496,64.08502 -6.17227,79.13497 -1.05413,8.778 -2.44804,23.59357 -3.09759,32.92351 -1.54983,22.26114 -3.16634,25.5465 -21.42897,43.55147 -7.79066,7.68075 -22.53614,23.541 -32.76773,35.24499 -18.21737,20.83898 -57.48881,61.84498 -59.22892,61.84498 -0.48391,0 -1.1936,-0.5077 -1.57708,-1.1282 z"
       id="path23"
       transform="scale(0.26458333)" /><path
       style="fill:#000000;stroke-width:1.33"
       d="m 558.45381,872.14726 c -0.81057,-2.1023 -1.21345,-10.16108 -0.9475,-18.9525 0.41835,-13.829 0.85695,-16.1236 4.57598,-23.93999 5.72272,-12.02764 32.19335,-45.89751 34.25749,-43.83337 1.13314,1.13313 -4.72958,35.58432 -9.94898,58.46336 l -2.88242,12.635 -9.69727,9.6425 c -5.3335,5.30337 -10.65348,9.64249 -11.82219,9.64249 -1.1687,0 -2.7595,-1.64587 -3.53511,-3.65749 z"
       id="path24"
       transform="scale(0.26458333)" /><path
       style="fill:#000000;stroke-width:1.33"
       d="m 484.55305,822.41345 c -2.3929,-2.59304 -16.27102,-33.7226 -23.03927,-51.67867 -0.96505,-2.56025 -4.95172,-11.65289 -8.85927,-20.20586 -3.90755,-8.55298 -7.1024,-16.63273 -7.09966,-17.955 0.007,-3.28817 3.98235,-9.53619 10.28048,-16.1569 6.39348,-6.72094 10.82323,-7.14593 21.63454,-2.07565 4.02324,1.88683 13.00074,5.71234 19.94999,8.50114 6.94925,2.78881 26.40049,11.17723 43.22499,18.64094 21.3894,9.4888 33.38984,14.05517 39.89888,15.1822 6.5192,1.12879 9.42937,2.23738 9.71089,3.69924 0.22111,1.14809 -2.49265,5.59686 -6.03055,9.88616 -3.53791,4.2893 -13.74926,17.16255 -22.69189,28.60721 -20.34114,26.03234 -18.831,25.25707 -50.81232,26.08576 -23.10309,0.59865 -23.29636,0.57996 -26.16681,-2.53057 z"
       id="path25"
       transform="scale(0.26458333)" /><path
       style="fill:#000000;stroke-width:1.33"
       d="m 338.15241,819.06394 c -2.66219,-1.07422 -1.97024,-4.84652 2.9284,-15.96456 5.71665,-12.97463 20.7805,-49.51918 23.86251,-57.88988 3.64321,-9.89495 7.53059,-14.50098 16.27964,-19.28926 11.15379,-6.10436 15.07552,-5.97499 29.71095,0.98013 17.63476,8.38047 20.4742,12.15536 31.94025,42.46286 3.50264,9.25835 7.86484,19.78832 9.69375,23.39995 3.15594,6.23213 8.01753,20.56935 7.23888,21.34801 -0.20022,0.20022 -2.89925,-0.20558 -5.99783,-0.90179 -4.29935,-0.966 -6.77075,-0.79077 -10.43386,0.73977 -7.13306,2.98039 -8.68594,2.57156 -15.11522,-3.9794 -8.28296,-8.43972 -12.4928,-8.29908 -20.2087,0.67513 -3.14946,3.66307 -6.70471,6.97327 -7.90056,7.35599 -1.19585,0.38273 -5.25788,-0.51958 -9.02673,-2.00513 -9.09631,-3.58543 -17.51364,-3.40655 -29.36399,0.62401 -8.93515,3.03904 -19.43831,4.12647 -23.60749,2.44417 z"
       id="path26"
       transform="scale(0.26458333)" /><path
       style="fill:#000000;stroke-width:1.33"
       d="m 678.58899,708.80966 c -1.52208,-1.06612 -4.71648,-5.37447 -7.09866,-9.57411 -2.38218,-4.19966 -11.08909,-18.55503 -19.34868,-31.90082 -8.25958,-13.3458 -15.37981,-25.70893 -15.82272,-27.47361 -0.44291,-1.7647 -0.0674,-4.61091 0.83443,-6.32492 0.90184,-1.71401 11.30776,-12.99162 23.12425,-25.06137 11.81649,-12.06975 22.94988,-24.33899 24.74086,-27.26499 3.2472,-5.30508 3.25634,-5.42258 3.25634,-41.89499 0,-25.22827 -0.53298,-38.84433 -1.71801,-43.88999 -0.9449,-4.02325 -5.06335,-14.30949 -9.1521,-22.85831 -4.22393,-8.83147 -7.08625,-16.44975 -6.62857,-17.64245 1.0537,-2.74591 6.42005,-4.71923 12.83373,-4.71923 3.83341,0 5.77189,0.80729 7.63941,3.18145 1.37638,1.74979 7.20495,16.26341 12.95237,32.25249 5.74741,15.98907 12.44521,34.54036 14.884,41.22508 5.3761,14.7359 5.48418,19.12348 0.68346,27.74595 -2.03638,3.6575 -9.59388,17.423 -16.79445,30.59 -7.20056,13.16699 -16.35644,29.45284 -20.34639,36.19076 -8.8116,14.88037 -9.48412,20.24671 -3.23691,25.82859 3.46413,3.09521 17.29614,11.56008 41.88003,25.62963 9.78009,5.59722 8.78697,7.16705 -13.71158,21.67389 -26.47595,17.07143 -25.60712,16.64297 -28.97081,14.28695 z"
       id="path27"
       transform="scale(0.26458333)" /><path
       style="fill:#000000;stroke-width:1.33"
       d="m 721.29638,654.23476 c -4.99487,-3.36052 -11.30312,-7.25129 -14.01833,-8.64613 -6.18974,-3.17977 -10.35825,-7.58139 -10.35825,-10.9375 0,-3.0376 25.71419,-51.71544 28.57147,-54.08677 3.01106,-2.49896 4.25172,2.16882 6.00436,22.59047 0.84752,9.87525 2.42602,25.96377 3.50778,35.75228 1.08176,9.7885 1.65251,18.61637 1.26835,19.61749 -1.23986,3.23103 -5.69281,1.95544 -14.97538,-4.28984 z"
       id="path28"
       transform="scale(0.26458333)" /><path
       style="fill:#000000;stroke-width:1.33"
       d="m 731.73306,508.86903 c -0.8991,-0.55567 -4.63898,-9.64331 -8.31086,-20.19474 -3.67187,-10.55143 -8.44379,-23.80349 -10.60426,-29.44901 -6.90994,-18.05631 -7.50068,-16.80922 26.6385,-56.23539 6.96748,-8.0465 14.95038,-17.47287 17.73979,-20.9475 9.32347,-11.61378 9.5583,-8.97253 2.17816,24.49853 -2.95647,13.40843 -8.8874,38.14446 -13.17985,54.96895 -4.29245,16.8245 -8.53776,34.34519 -9.43401,38.93488 -1.73136,8.8662 -2.42683,10.03156 -5.02747,8.42428 z"
       id="path29"
       transform="scale(0.26458333)" /><path
       style="fill:#000000;stroke-width:1.33"
       d="m 710.04119,405.48023 c -0.34218,-7.31875 0.35711,-15.86475 2.21712,-27.09534 1.92558,-11.62651 11.32167,-94.60275 13.93115,-123.02496 3.22585,-35.1358 3.1811,-35.11291 14.30108,-7.315 3.65776,9.14375 12.40795,29.98733 19.44486,46.31908 13.58477,31.52847 15.03424,37.60055 10.54086,44.15746 -3.14185,4.5847 -55.88485,67.151 -58.29191,69.14869 -1.6513,1.37045 -1.99303,1.02126 -2.14316,-2.18993 z"
       id="path30"
       transform="scale(0.26458333)" /><path
       style="fill:#000000;stroke-width:1.33"
       d="m 686.05312,409.34879 c -1.12414,-1.3029 -9.11792,-12.84265 -17.76396,-25.6439 -15.81142,-23.41025 -76.55675,-111.17373 -88.69226,-128.14056 -3.58202,-5.00808 -6.32541,-10.07843 -6.09643,-11.26744 0.54914,-2.85146 5.98697,-4.77125 51.64755,-18.23382 21.22076,-6.25674 46.79876,-14.25609 56.84,-17.77634 10.04123,-3.52025 20.50031,-6.74999 23.24241,-7.1772 6.9579,-1.08402 7.97831,1.27999 6.28597,14.5629 -0.7307,5.73513 -2.83223,26.88625 -4.67008,47.0025 -1.83784,20.11624 -5.43712,54.52998 -7.9984,76.47497 -2.56128,21.945 -5.27914,46.48349 -6.03968,54.52999 -1.48304,15.69036 -3.23345,19.75056 -6.75512,15.6689 z"
       id="path31"
       transform="scale(0.26458333)" /><path
       style="fill:#000000;stroke-width:1.33"
       d="m 653.9965,434.99763 c -6.37929,-2.27607 -24.97635,-13.46862 -31.19351,-18.77366 l -4.75327,-4.05591 7.95706,-9.24409 c 9.17415,-10.65803 17.05857,-17.88908 19.50549,-17.88908 2.41405,0 7.74643,6.01315 13.56342,15.295 2.75061,4.389 8.57798,12.96842 12.94971,19.06539 9.03821,12.60499 8.85154,14.19758 -1.90786,16.27645 -7.84796,1.51633 -10.26506,1.41526 -16.12104,-0.6741 z"
       id="path32"
       transform="scale(0.26458333)" /><path
       style="fill:#000000;stroke-width:1.33"
       d="m 584.53484,404.29958 c -0.7315,-0.26142 -5.98097,-1.47405 -11.66549,-2.69473 -15.17321,-3.25828 -15.16501,-3.14535 -2.04664,-28.19672 6.03622,-11.52703 14.58332,-28.13513 18.99354,-36.90689 4.79911,-9.54526 8.91216,-16.11799 10.24418,-16.3704 1.43622,-0.27214 4.23546,2.31833 7.89223,7.30367 3.11665,4.24897 9.67465,13.11189 14.57333,19.69539 10.76726,14.47049 12.32565,17.35618 11.37934,21.07137 -0.40187,1.57775 -8.08363,10.51247 -17.07059,19.85495 l -16.33991,16.98633 -7.315,-0.13383 c -4.02325,-0.0736 -7.91349,-0.34772 -8.64499,-0.60914 z"
       id="path33"
       transform="scale(0.26458333)" /><path
       style="fill:#000000;stroke-width:1.33"
       d="m 461.13743,399.51556 c -7.635,-7.9741 -14.25756,-18.24984 -14.25756,-22.12242 0,-2.02057 2.58787,-5.97159 7.0375,-10.74448 3.87062,-4.15182 11.26191,-12.63601 16.4251,-18.85376 5.16319,-6.21775 17.06095,-19.68399 26.43946,-29.92499 16.24185,-17.73552 37.19166,-41.53658 49.58921,-56.33825 3.14945,-3.7602 6.83212,-6.83673 8.18371,-6.83673 1.58157,0 6.82347,5.74995 14.70751,16.13298 13.70552,18.04973 17.96326,26.13355 16.60827,31.5327 -1.3993,5.57571 -43.10251,88.32449 -46.16118,91.59443 -3.94098,4.21317 -15.15969,6.07076 -63.94203,10.58744 l -9.01744,0.8349 z"
       id="path34"
       transform="scale(0.26458333)" /><path
       style="fill:#000000;stroke-width:1.33"
       d="m 530.71665,891.85219 c -3.15694,-5.89879 -0.57928,-16.60706 4.3762,-18.17986 6.07557,-1.92831 8.60958,10.70202 3.46047,17.24806 -3.26684,4.15311 -5.94242,4.47124 -7.83667,0.9318 z"
       id="path35"
       transform="scale(0.26458333)" /><path
       style="fill:#000000;stroke-width:1.33"
       d="m 528.81715,852.42098 c -1.37161,-3.57434 -0.89981,-6.9237 1.2827,-9.10622 5.41381,-5.41381 11.52948,0.17236 7.89121,7.20799 -2.29061,4.42956 -7.76767,5.56285 -9.17391,1.89823 z"
       id="path36"
       transform="scale(0.26458333)" /><path
       style="fill:#000000;stroke-width:1.33"
       d="m 503.92665,863.56717 c -1.96066,-3.66352 -2.05598,-16.68522 -0.13619,-18.60501 0.78683,-0.78683 2.37756,-1.06721 3.53496,-0.62308 4.87089,1.86914 6.50993,16.13756 2.29221,19.95454 -3.16555,2.86479 -3.81326,2.78211 -5.69098,-0.72645 z"
       id="path37"
       transform="scale(0.26458333)" /><path
       style="fill:#000000;stroke-width:1.33"
       d=""
       id="path38"
       transform="scale(0.26458333)" /><path
       style="fill:#000000;stroke-width:1.33"
       d="m 505.61334,904.33717 c -3.5533,-7.79866 -0.40691,-20.58626 4.13731,-16.81489 2.8454,2.36147 3.85371,9.10947 2.25071,15.06256 -1.59526,5.92434 -4.16583,6.62949 -6.38802,1.75233 z"
       id="path39"
       transform="scale(0.26458333)" /><path
       style="fill:#000000;stroke-width:1.33"
       d="m 477.05556,913.32176 c -3.2303,-3.56944 -2.93716,-12.33324 0.53728,-16.06261 6.92268,-7.43063 13.40574,2.33051 8.38179,12.61993 -2.88832,5.91549 -5.69929,7.0005 -8.91907,3.44268 z"
       id="path40"
       transform="scale(0.26458333)" /><path
       style="fill:#000000;stroke-width:1.33"
       d="m 476.16243,874.51692 c -2.20292,-4.1162 -2.96506,-14.27508 -1.74931,-23.31716 1.03782,-7.71868 1.20214,-7.98 5.01807,-7.98 5.2759,0 7.30456,4.2348 7.327,15.295 0.0274,13.50121 -6.58761,23.49146 -10.59576,16.00216 z"
       id="path41"
       transform="scale(0.26458333)" /><path
       style="fill:#000000;stroke-width:1.33"
       d="m 447.90375,882.76367 c -3.51203,-0.75365 -5.18089,-9.37607 -5.43368,-28.07405 -0.24144,-17.85851 0.76281,-21.86022 5.89471,-23.48902 1.9535,-0.62001 3.68762,-0.0256 5.65391,1.93807 2.56871,2.56527 2.87792,4.55387 3.27871,21.08673 0.59383,24.49529 -1.30808,30.27337 -9.39365,28.53827 z"
       id="path42"
       transform="scale(0.26458333)" /><path
       style="fill:#000000;stroke-width:1.33"
       d="m 406.97989,882.45475 c -2.35312,-2.35312 -2.66,-4.43333 -2.66,-18.03104 0,-18.21694 1.51032,-25.18813 6.8643,-31.68343 4.93755,-5.9901 9.54235,-6.42693 12.20729,-1.15801 2.43985,4.82387 4.01749,49.86139 1.82348,52.05541 -0.81239,0.81239 -4.64913,1.47707 -8.52608,1.47707 -5.27566,0 -7.71818,-0.66918 -9.70899,-2.66 z"
       id="path43"
       transform="scale(0.26458333)" /><path
       style="fill:#000000;stroke-width:1.33"
       d="m 373.14031,882.15882 c -1.65361,-2.36087 -2.07041,-7.029 -2.07041,-23.18841 0,-11.12786 0.56985,-21.7313 1.26633,-23.5632 3.01796,-7.93783 11.99197,-7.08213 15.59033,1.48659 2.8648,6.82191 1.42596,42.25703 -1.86351,45.89345 -3.06861,3.39228 -10.3547,3.03796 -12.92274,-0.62843 z"
       id="path44"
       transform="scale(0.26458333)" /><path
       style="fill:#000000;stroke-width:1.33"
       d="m 343.8929,882.55199 c -3.46826,-3.83238 -4.67608,-11.05007 -4.71127,-28.1536 -0.0278,-13.53531 0.28018,-15.70363 2.5186,-17.72937 1.40267,-1.2694 3.88625,-2.11029 5.51906,-1.86863 7.05371,1.04395 11.14567,14.54126 10.34191,34.11271 -0.40172,9.78186 -0.83359,11.42219 -3.59627,13.65926 -3.99059,3.23139 -7.13498,3.22503 -10.07203,-0.0204 z"
       id="path45"
       transform="scale(0.26458333)" /><path
       style="fill:#000000;stroke-width:1.33"
       d="m 313.08855,874.33141 c -2.06191,-2.2814 -2.52729,-4.81958 -2.49956,-13.63249 0.0187,-5.95604 0.81481,-13.07813 1.76902,-15.82687 2.07243,-5.96992 6.02128,-8.64404 9.05124,-6.1294 1.67761,1.39229 1.95739,4.55713 1.57748,17.84403 -0.45907,16.05541 -1.71375,20.54807 -5.73854,20.54807 -0.89431,0 -2.76615,-1.2615 -4.15964,-2.80334 z"
       id="path46"
       transform="scale(0.26458333)" /><path
       style="fill:#000000;stroke-width:1.33"
       d="m 288.74003,863.63629 c -0.80306,-2.30366 -1.46011,-9.82653 -1.46011,-16.7175 0,-12.16577 0.0852,-12.51671 2.93798,-12.10403 3.66565,0.53027 4.73639,4.15746 4.90944,16.63092 0.20115,14.49888 -3.27191,21.12746 -6.38731,12.19061 z"
       id="path47"
       transform="scale(0.26458333)" /><path
       style="fill:#000000;stroke-width:1.33"
       d="m 259.17166,853.76653 c -4.09097,-9.24833 -1.86286,-19.19176 4.30046,-19.19176 5.09048,0 9.16175,12.32555 6.80937,20.61499 -0.84878,2.99095 -2.03466,4.0962 -4.73618,4.41415 -3.16159,0.37209 -3.9438,-0.34431 -6.37365,-5.83738 z"
       id="path48"
       transform="scale(0.26458333)" /><path
       style="fill:#000000;stroke-width:1.33"
       d="m 262.54005,900.39056 c -2.52048,-3.84675 -3.91443,-13.53887 -2.66383,-18.52166 0.6253,-2.4914 1.72656,-3.40415 4.10725,-3.40415 3.97328,0 5.89799,3.27587 6.8599,11.67558 1.30886,11.42943 -3.57795,17.46206 -8.30332,10.25023 z"
       id="path49"
       transform="scale(0.26458333)" /><path
       style="fill:#000000;stroke-width:1.33"
       d="m 288.65705,898.82574 c -0.0459,-8.02536 1.52104,-11.82462 3.1385,-7.60957 1.34185,3.49679 0.81798,9.00489 -1.19063,12.51858 -1.80327,3.15449 -1.90316,2.90275 -1.94787,-4.90901 z"
       id="path50"
       transform="scale(0.26458333)" /><path
       style="fill:#000000;stroke-width:1.33"
       d="m 309.93671,915.79218 c -1.77897,-3.32403 -1.77897,-15.47084 0,-18.79487 0.75723,-1.41491 2.50632,-2.57256 3.88685,-2.57256 3.11136,0 6.00051,7.86081 4.79201,13.03813 -2.42876,10.40501 -5.82406,13.66355 -8.67886,8.3293 z"
       id="path51"
       transform="scale(0.26458333)" /><path
       style="fill:#000000;stroke-width:1.33"
       d="m 339.22006,923.75489 c -3.20825,-3.20825 -5.83168,-12.50314 -4.63671,-16.42804 2.07105,-6.8024 7.91429,-9.44301 13.85747,-6.26231 5.54474,2.96745 6.61592,17.46936 1.69541,22.9527 -2.75828,3.07378 -7.69878,2.95505 -10.91617,-0.26235 z"
       id="path52"
       transform="scale(0.26458333)" /><path
       style="fill:#000000;stroke-width:1.33"
       d="m 373.80408,926.41892 c -4.89655,-4.89655 -5.12583,-16.47532 -0.42943,-21.68667 2.93044,-3.25176 9.20331,-3.01576 11.03957,0.41532 2.07499,3.87716 -0.52192,19.94456 -3.58564,22.18481 -3.0664,2.2422 -3.98879,2.12226 -7.0245,-0.91346 z"
       id="path53"
       transform="scale(0.26458333)" /><path
       style="fill:#000000;stroke-width:1.33"
       d="m 408.29332,929.25877 c -2.80647,-2.27255 -3.30967,-3.9622 -3.74452,-12.5735 -0.4642,-9.19241 -0.26742,-10.11272 2.59029,-12.11434 4.07355,-2.85322 8.14828,-2.73935 11.94343,0.33378 2.57375,2.0841 3.16834,4.01997 3.57437,11.6375 0.55606,10.43231 -0.85299,13.3272 -7.0817,14.5493 -2.90836,0.57063 -4.94768,0.0574 -7.28187,-1.83274 z"
       id="path54"
       transform="scale(0.26458333)" /><path
       style="fill:#000000;stroke-width:1.33"
       d="m 442.98641,925.50038 c -5.41025,-6.87801 -2.19267,-22.73684 5.08146,-25.04556 9.83156,-3.12042 14.90481,18.01193 6.13508,25.55534 -4.57027,3.93118 -7.84018,3.78256 -11.21654,-0.50978 z"
       id="path55"
       transform="scale(0.26458333)" /><path
       style="fill:#cccccc;stroke-width:1.33"
       d="m 301.90992,1118.6055 c -2.0835,-0.8504 -17.61061,-15.9064 -26.64151,-25.8332 -6.23003,-6.8481 -40.29957,-43.3177 -42.44514,-45.4352 -2.28595,-2.256 -16.0466,-17.1422 -31.93076,-34.5424 -3.36993,-3.6915 -27.59819,-29.85668 -30.68204,-33.13484 -0.74772,-0.79482 -7.73964,-8.392 -15.5376,-16.88261 -7.79797,-8.49063 -16.1767,-17.5566 -18.6194,-20.14661 -8.05293,-8.5386 -10.40613,-15.18082 -11.77116,-33.2256 -1.80747,-23.89358 -6.53122,-76.95834 -7.19406,-80.81527 -0.31428,-1.82875 -0.93656,-8.113 -1.38284,-13.965 -0.44628,-5.852 -1.40734,-16.02649 -2.13568,-22.60999 -0.72835,-6.5835 -1.85323,-21.57834 -2.49974,-33.32188 -1.42168,-25.82406 -2.97841,-32.74492 -8.61884,-38.31738 C 100.12926,718.08163 87.903446,710.2198 75.282667,702.9048 50.93793,688.7946 45.130029,684.37904 43.765796,678.9435 c -0.466522,-1.85876 -0.483988,-8.59938 -0.03881,-14.97913 2.566961,-36.7869 4.549763,-93.36772 4.135141,-117.99952 C 47.529468,526.2025 47.155762,523.40434 42.62213,506.72986 39.937144,496.85461 35.36471,479.19887 32.461165,467.49487 29.557619,455.79087 20.821999,420.66312 13.048677,389.4332 l -14.1333152,-56.78167 2.1359518,-8.65547 c 1.1747735,-4.76052 3.5833525,-11.82701 5.3523976,-15.70332 6.7400258,-14.76865 8.7220008,-19.27688 12.1615478,-27.66282 1.95019,-4.75475 4.362792,-10.4405 5.36134,-12.635 0.998546,-2.19449 5.796827,-14.16449 10.662845,-26.59999 20.211587,-51.65232 22.670885,-56.16046 38.800324,-71.12492 4.257116,-3.94965 12.852784,-12.00604 19.101485,-17.90311 6.248703,-5.89706 15.226197,-14.28045 19.949997,-18.62975 4.72379,-4.34929 19.74177,-18.80149 33.3733,-32.11599 27.17753,-26.545491 36.96984,-33.823191 51.0211,-37.919165 5.12286,-1.493328 19.78804,-5.904872 32.58929,-9.803432 12.80124,-3.898558 35.54424,-10.775075 50.53998,-15.281149 C 294.96067,34.111342 324.58641,24.638518 345.7999,17.566696 384.35521,4.7137308 384.37496,4.7088463 397.66989,4.7323701 l 13.29999,0.023533 39.89999,13.4804449 c 21.945,7.414244 59.35124,20.0888 83.12498,28.16568 23.77374,8.076879 50.40699,16.846001 59.18498,19.486936 14.48422,4.357699 30.29136,11.510245 34.55024,15.633588 0.91031,0.881333 3.94475,3.397924 6.74322,5.592424 2.79847,2.194499 12.60725,11.672906 21.79731,21.063124 9.19007,9.39023 23.59196,23.15561 32.00421,30.58975 39.51874,34.92384 43.3533,40.54516 65.92398,96.64208 19.93537,49.54711 25.39583,62.84069 30.86653,75.14498 7.43144,16.71428 8.71513,21.33422 7.70605,27.73393 -0.47836,3.03383 -7.69153,33.04706 -16.02928,66.69605 -8.33776,33.64899 -16.92733,68.36198 -19.08795,77.13997 -2.16061,8.778 -6.13038,24.339 -8.82172,34.58 -7.06838,26.89629 -7.18445,33.79393 -1.49939,89.10997 2.63127,25.60249 5.30656,49.77972 5.94508,53.72716 2.1537,13.31428 -0.0117,22.71639 -6.38338,27.71694 -2.49289,1.95641 -18.7794,12.87352 -25.36993,17.00584 -26.63174,16.69833 -35.30987,23.94434 -37.10488,30.98153 -0.68721,2.69416 -1.62245,11.48199 -2.07833,19.52849 -0.45588,8.0465 -1.09417,16.12624 -1.41845,17.95499 -0.32427,1.82875 -1.7916,18.58675 -3.26073,37.23999 -1.46915,18.65325 -2.95537,37.20674 -3.30271,41.22999 -0.34734,4.02325 -1.89457,23.47449 -3.43829,43.22499 -3.37324,43.15752 -3.53413,43.63054 -20.88799,61.40986 -44.49973,45.59069 -123.83222,132.39029 -135.32356,148.06089 -3.6575,4.9877 -9.01418,10.62 -11.90373,12.5163 l -5.25372,3.4479 -96.49125,-0.084 c -53.07019,-0.046 -97.68825,-0.5729 -99.15124,-1.1699 z m 190.9056,-16.9676 c 2.58811,-1.6097 6.10515,-5.4168 7.81564,-8.4602 4.96725,-8.8381 3.55392,-17.0607 -10.99049,-63.941 -6.95303,-22.4114 -14.84461,-48.7454 -17.53683,-58.51999 -7.31523,-26.55919 -7.38809,-26.64599 -21.89897,-26.08995 -4.02325,0.15417 -10.15903,-0.57929 -13.63507,-1.62991 -6.09512,-1.8422 -6.57327,-1.782 -13.43289,1.69135 -8.49541,4.30162 -10.09634,4.37855 -20.27307,0.97424 -9.89059,-3.3086 -10.79244,-3.30243 -18.54479,0.12682 l -6.37399,2.8195 -8.47273,-4.34565 -8.47274,-4.34567 -7.59984,2.28588 c -6.2913,1.8923 -8.72689,2.03081 -14.14556,0.80437 -5.30367,-1.20039 -6.89699,-1.13024 -8.39693,0.36969 -1.09719,1.0972 -5.3278,20.81539 -10.3868,48.41123 -4.69458,25.60799 -10.61852,55.56069 -13.1643,66.56159 -2.54578,11.0009 -5.02181,23.8387 -5.5023,28.5285 -0.80228,7.8307 -0.60234,8.8422 2.44885,12.3894 2.60987,3.0342 4.8543,4.0535 10.46482,4.7527 3.92832,0.4896 44.54862,0.8122 90.26736,0.717 l 83.12497,-0.1731 z m -223.4906,-42.4573 c 0,-1.1876 -7.71967,-28.8682 -17.15484,-61.51253 -23.71364,-82.04581 -22.83161,-78.56622 -24.03399,-94.81429 -1.26191,-17.05252 -2.11356,-18.44532 -15.22591,-24.90052 -4.57069,-2.25014 -9.823,-5.49306 -11.67181,-7.20647 -3.96715,-3.67662 -4.23562,-4.8115 -16.39005,-69.2833 -4.81228,-25.5262 -9.56896,-48.37227 -10.5704,-50.76903 -2.40514,-5.75632 -5.64219,-7.69895 -22.12148,-13.27561 -19.20615,-6.49944 -23.22179,-7.30849 -26.04142,-5.24673 -2.21049,1.61635 -2.209,3.01074 0.0307,28.77566 1.29455,14.89235 3.52471,36.0545 4.95591,47.02699 3.70377,28.39534 4.89823,41.09949 7.19031,76.47498 2.21049,34.11637 3.20006,39.57336 8.44143,46.54999 3.52071,4.68632 51.70194,57.29411 85.26632,93.09996 9.94274,10.6068 21.61695,23.3249 25.94267,28.2625 7.76461,8.863 11.38258,11.0302 11.38258,6.8184 z m 21.12015,-8.1484 c 0.82107,-2.0116 2.71742,-10.5068 4.2141,-18.8782 1.49667,-8.3714 5.33751,-27.2242 8.53521,-41.89501 3.19767,-14.67084 6.53575,-31.65093 7.41794,-37.73354 l 1.60398,-11.05927 -3.8232,-4.02195 c -5.286,-5.56083 -10.01944,-7.76945 -16.72463,-7.8037 -3.1452,-0.0161 -8.32753,-1.21306 -11.51628,-2.66 -3.1944,-1.4495 -8.66207,-2.63079 -12.17667,-2.63079 -5.34226,0 -7.28439,-0.7565 -11.95059,-4.655 -9.49984,-7.93689 -10.51921,-6.17646 -5.931,10.24273 4.22026,15.10246 27.26752,93.89203 32.6989,111.78473 2.16498,7.1321 4.43651,12.9675 5.04784,12.9675 0.61135,0 1.78332,-1.6459 2.6044,-3.6575 z m 228.67735,-7.7493 c 7.59272,-22.6071 34.86791,-122.91603 35.23249,-129.57316 0.23665,-4.32099 -0.0483,-4.68439 -3.97158,-5.06461 -8.53475,-0.82712 -15.03922,2.03952 -27.52514,12.13085 -3.72652,3.01185 -7.08457,4.11014 -17.22424,5.63336 -19.30194,2.89964 -24.83908,5.77064 -24.83908,12.87906 0,3.16801 27.55412,95.2732 32.00044,106.9679 1.713,4.5056 4.20926,3.3325 6.32711,-2.9734 z m 42.95331,-15.5257 c 11.29296,-11.8869 29.49474,-31.48036 40.44838,-43.5411 10.95365,-12.06073 25.484,-27.76798 32.28967,-34.90498 13.7504,-14.4198 16.94545,-20.22948 18.11618,-32.94138 0.43789,-4.75475 1.98315,-20.61499 3.43391,-35.24499 1.45075,-14.62999 3.83845,-43.65723 5.306,-64.50498 1.46753,-20.84774 3.30709,-43.59074 4.08791,-50.53998 0.78082,-6.94925 1.22895,-15.92675 0.99585,-19.95 -0.52624,-9.08273 -2.01379,-9.52115 -16.17512,-4.76734 -17.11775,5.74623 -27.26437,11.14468 -29.6622,15.78157 -1.18096,2.28372 -5.33569,22.43538 -9.23275,44.78148 -7.59585,43.55548 -10.15896,55.395 -13.31247,61.49323 -1.10079,2.12868 -7.28304,9.0781 -13.73833,15.44317 l -11.7369,11.57285 -0.83485,13.3 c -1.04492,16.64626 -5.26526,35.36322 -13.94495,61.84498 -7.20408,21.9796 -20.13121,73.24227 -20.13121,79.83047 0,2.4193 0.69204,3.9595 1.7791,3.9595 0.97851,0 11.01881,-9.7256 22.31178,-21.6125 z m -141.7354,-98.69201 c 2.59209,-2.59208 3.26455,-4.62899 3.26455,-9.88842 0,-11.29852 -3.68777,-17.30679 -10.67656,-17.39473 -1.84887,-0.0233 -4.69174,0.8894 -6.3175,2.02812 -5.53706,3.87832 -3.47886,23.91009 2.76674,26.92764 4.65964,2.25129 7.46724,1.82293 10.96277,-1.67261 z m -38.79675,-1.87167 c 2.58581,-2.85729 4.90404,-15.11144 3.87607,-20.48892 -0.77043,-4.03025 -4.85792,-5.83501 -9.72018,-4.29178 -6.83636,2.16977 -8.34714,17.85118 -2.33624,24.24948 3.43367,3.65498 5.24683,3.77272 8.18035,0.53122 z m 73.03472,-0.7043 c 6.26825,-5.80923 6.04485,-19.59696 -0.41222,-25.44053 -6.63089,-6.00088 -15.17161,3.93103 -14.22279,16.53951 0.84435,11.22027 7.65979,15.36543 14.63501,8.90102 z m -105.41113,-0.8321 c 3.63873,-1.94739 5.61862,-10.4898 4.04968,-17.47267 -1.40741,-6.26392 -4.24317,-9.1047 -9.08858,-9.1047 -8.06544,0 -12.09571,6.76591 -9.60908,16.13142 2.61922,9.86488 8.24172,13.87447 14.64798,10.44595 z m -33.52501,-8.34192 c 0.78261,-0.943 2.13054,-4.38437 2.99539,-7.6475 1.31034,-4.94402 1.22245,-6.7643 -0.52724,-10.92045 -3.71647,-8.82799 -9.12517,-5.98109 -9.90641,5.21431 -0.82134,11.77016 3.02363,18.67292 7.43826,13.35364 z m 169.01122,-4.40538 c 5.7648,-7.32877 4.24461,-19.15007 -2.46264,-19.15007 -6.50067,0 -10.50849,13.18225 -5.97546,19.65406 2.7149,3.87605 5.10504,3.73329 8.4381,-0.50399 z m 26.80699,-7.32117 c 2.00304,-3.74272 2.04999,-13.17737 0.0838,-16.85114 -3.73551,-6.97984 -8.88338,-0.33449 -7.75359,10.00901 0.9583,8.77354 4.80129,12.20185 7.66974,6.84213 z m -218.65485,-8.03432 c 0.31612,-3.18427 -0.0497,-6.68733 -0.81292,-7.78458 -2.30065,-3.30752 -4.00411,0.89161 -4.02732,9.9275 -0.0187,7.29447 0.15199,7.76014 2.12256,5.78957 1.17861,-1.1786 2.40157,-4.74823 2.71768,-7.93249 z m -21.63132,0.0564 c 0.85323,-4.41226 0.66735,-7.72399 -0.665,-11.84797 -5.09491,-15.76998 -15.21931,-6.10059 -10.46221,9.99201 2.02996,6.867 3.74035,8.8662 7.16655,8.37668 2.14119,-0.30592 3.04733,-1.79778 3.96066,-6.52072 z m 266.74709,-4.86205 c 5.76125,-4.66518 4.40944,-20.2689 -1.75597,-20.2689 -5.17866,0 -9.08616,11.74296 -6.30648,18.95249 1.63174,4.23217 3.98678,4.61668 8.06245,1.31641 z m -183.29123,-9.51454 c 2.99817,-2.43079 3.13758,-3.28595 3.08987,-18.9525 -0.0422,-13.855 -0.49259,-17.38173 -2.89575,-22.67473 -3.10558,-6.84005 -7.31544,-9.06116 -12.20969,-6.44183 -3.91128,2.09325 -4.52502,5.96124 -3.87238,24.4048 0.41349,11.68485 1.19561,17.41266 2.79066,20.43723 3.32701,6.30873 7.90499,7.4367 13.09729,3.22703 z m 31.05523,0.72578 c 2.02228,-1.47872 2.73175,-4.65735 3.78499,-16.9575 2.21927,-25.91764 -0.89817,-37.08263 -10.35407,-37.08263 -7.55435,0 -8.04631,1.72663 -8.04631,28.23952 0,22.06645 0.19234,23.98358 2.5817,25.73166 3.27093,2.39306 8.81186,2.4248 12.03369,0.0689 z m 39.2132,0.54049 c 1.61904,-1.02389 1.89665,-4.99806 1.60124,-22.92214 -0.19656,-11.92592 -0.68833,-23.58948 -1.09282,-25.91904 -1.68741,-9.71812 -9.95159,-10.80106 -15.69918,-2.05723 -4.50671,6.85605 -5.98237,14.52581 -6.02032,31.29073 -0.0306,13.49254 0.16425,14.55471 3.23203,17.62249 2.56691,2.56693 4.62749,3.2602 9.64249,3.24419 3.50788,-0.0112 7.25933,-0.57775 8.33656,-1.259 z m 30.84896,-4.37314 c 2.3234,-4.22365 3.19395,-36.57024 1.15082,-42.76099 -3.09301,-9.37189 -12.34233,-9.48012 -14.08988,-0.16486 -1.39871,7.45577 -0.0134,39.53131 1.85391,42.92585 1.12647,2.04776 2.87627,2.9925 5.54257,2.9925 2.66631,0 4.41611,-0.94474 5.54258,-2.9925 z m -134.39712,-5.2779 c 0.86845,-1.62273 1.86448,-9.88176 2.21339,-18.35341 0.55252,-13.41581 0.33491,-15.70245 -1.6868,-17.72417 -2.03652,-2.03651 -2.6692,-2.09237 -5.15909,-0.45546 -4.83342,3.17759 -6.12267,7.56373 -6.14331,20.90001 -0.0145,9.34128 0.52454,13.44844 2.0508,15.6275 2.65044,3.78403 6.70145,3.78659 8.72501,0.006 z m 162.91039,-1.31199 c 2.91143,-5.63008 3.943,-19.33328 1.91745,-25.47079 -1.89026,-5.72755 -6.93456,-7.85554 -10.40195,-4.38817 -2.7078,2.70781 -3.11663,26.46985 -0.53558,31.12885 2.39937,4.33108 6.41614,3.76558 9.02008,-1.26989 z m 86.57257,-3.54295 c 13.6642,-11.46631 13.088,-10.26958 18.99489,-39.45147 5.93715,-29.33133 7.95641,-45.84316 5.60624,-45.84316 -3.47805,0 -27.51669,31.71581 -34.34951,45.31966 -2.99064,5.95422 -3.62025,9.24889 -4.17657,21.85559 -0.6858,15.54039 0.92872,24.59472 4.3856,24.59472 1.00254,0 5.29525,-2.91391 9.53935,-6.47534 z m -329.34273,-0.35334 c 1.02252,-1.91058 1.21966,-6.58511 0.60298,-14.2975 -1.77523,-22.20183 -4.32028,-28.6689 -19.14296,-48.64294 -18.31552,-24.68073 -25.51723,-31.76488 -25.40814,-24.99335 0.0206,1.28013 3.23405,18.67175 7.14095,38.64806 8.06568,41.24043 7.86996,40.82284 22.58055,48.17381 9.39252,4.6935 12.19269,4.91235 14.22662,1.11192 z m 53.51409,-6.56178 c 0.65831,-2.51049 0.93261,-9.23397 0.60955,-14.94108 -0.62664,-11.06996 -2.83153,-15.34872 -7.07102,-13.72187 -1.99842,0.76686 -2.19691,2.59598 -1.66987,15.38785 0.58339,14.15925 2.1751,19.42607 5.53261,18.3069 0.77099,-0.25699 1.94041,-2.5213 2.59873,-5.0318 z m 215.6398,1.12453 c 4.12294,-5.88633 0.97919,-20.98406 -4.36943,-20.98406 -3.30421,0 -4.20016,2.45337 -4.20016,11.50122 0,11.53287 4.01881,15.97998 8.56959,9.48284 z m -240.30068,-7.68406 c 3.69106,-7.01125 -1.05214,-22.60999 -6.87515,-22.60999 -5.74331,0 -8.43543,7.29877 -6.02781,16.34233 2.72822,10.24778 9.1623,13.37316 12.90296,6.26766 z m 266.86349,-3.86559 c 3.4384,-3.79938 2.39028,-11.29518 -1.6596,-11.86878 -4.08214,-0.57817 -8.20281,3.28714 -8.20281,7.69451 0,6.5248 5.59292,8.892 9.86241,4.17427 z m 0.77759,-29.4806 c 2.56025,-0.88124 6.06376,-2.86599 7.78556,-4.41053 3.92036,-3.51675 41.74691,-50.92054 43.96447,-55.09577 1.95622,-3.68317 0.0133,-6.89748 -4.16921,-6.89748 -4.97291,0 -25.67619,-7.73305 -56.22582,-21.00135 -64.11788,-27.84765 -63.13456,-27.51965 -69.81683,-23.28873 -5.16258,3.26871 -14.63814,15.76133 -14.63814,19.29897 0,1.46949 2.77347,9.04028 6.16327,16.82395 3.38979,7.78369 9.92033,23.12965 14.51231,34.10215 12.47773,29.81547 17.46152,40.17306 20.1364,41.84868 3.1551,1.97644 45.80717,0.85084 52.28799,-1.37989 z m -222.46639,-4.35601 c 2.22684,-2.53625 7.20044,-12.69554 11.55734,-23.6075 4.20653,-10.5354 11.8535,-28.94868 16.99325,-40.91838 7.69181,-17.91301 9.20914,-22.60044 8.57692,-26.49631 -0.94536,-5.82558 -8.43617,-13.83844 -16.65742,-17.81827 -7.85962,-3.80478 -9.05553,-3.44262 -51.23171,15.51471 -43.97762,19.76703 -50.0997,21.807 -68.6256,22.86697 -9.68959,0.55439 -14.6363,1.35618 -14.6363,2.37232 0,2.25757 44.44326,61.09462 48.64521,64.39988 4.21217,3.3133 11.95373,3.65145 29.67403,1.29615 l 11.45574,-1.52265 7.98,4.11868 c 4.38899,2.26527 8.96536,4.14746 10.16972,4.18264 1.20434,0.0352 3.94881,-1.93953 6.09882,-4.38824 z m 46.11246,-1.53279 c 15.43364,-4.01 17.52016,-4.05917 29.29971,-0.69052 l 9.21229,2.63447 7.64224,-7.28947 c 4.33055,-4.13065 8.86241,-7.28948 10.45796,-7.28948 1.54865,0 5.79422,2.78605 9.43462,6.19122 l 6.6189,6.1912 7.20518,-1.72849 c 4.11473,-0.98712 9.80827,-1.3717 13.27412,-0.89665 3.36173,0.46077 6.06893,0.29291 6.06893,-0.37632 0,-4.33828 -24.03003,-63.1858 -29.29681,-71.74538 -6.01517,-9.77591 -26.51601,-21.47017 -37.50924,-21.39635 -10.88424,0.0731 -24.2979,10.36118 -29.03879,22.2723 -1.66887,4.19292 -8.91598,21.81218 -16.10471,39.15391 -7.18873,17.34172 -13.07041,32.70321 -13.07041,34.13665 0,5.13614 8.2224,5.40151 25.80601,0.83291 z M 614.45983,736.2486 c 15.0212,-3.66607 39.71093,-11.96174 44.22249,-14.85862 4.52265,-2.90402 3.68538,-6.88035 -4.04717,-19.22064 -3.87181,-6.17899 -12.91772,-20.94695 -20.10201,-32.81767 -7.18429,-11.87074 -14.57032,-23.09114 -16.41341,-24.93423 -3.63176,-3.63176 -7.41395,-4.86798 -46.4287,-15.17548 -30.72488,-8.11736 -41.18019,-12.12114 -63.16851,-24.18987 -31.9854,-17.55584 -30.6468,-16.08762 -62.61233,-68.67622 -20.3391,-33.4612 -22.87516,-38.77659 -21.66561,-45.40967 0.48657,-2.66823 6.48047,-18.91608 13.31979,-36.10633 6.83932,-17.19024 12.82809,-32.8316 13.30838,-34.75857 0.57857,-2.32139 -0.0277,-5.26952 -1.79673,-8.73712 -3.70246,-7.25745 -13.19145,-19.01429 -15.34648,-19.01429 -0.98092,0 -8.08306,6.34551 -15.78253,14.10113 -17.92405,18.05475 -16.52564,18.33251 -39.11367,-7.7692 -12.09646,-13.97814 -15.03241,-16.25792 -19.22397,-14.92756 -3.32935,1.05669 -17.84296,22.83761 -19.98765,29.99594 -2.10734,7.0337 -0.60759,13.23906 12.50652,51.7473 6.86627,20.16209 10.87043,34.08998 11.28045,39.23736 0.59099,7.41948 0.32187,8.41625 -3.83157,14.191 -11.50514,15.99619 -57.79203,76.7231 -61.36974,80.51513 -6.02718,6.38822 -18.382,12.23306 -51.49245,24.36017 -35.88362,13.1428 -57.55285,22.19176 -67.32632,28.11511 -5.15785,3.12598 -10.59986,8.58056 -18.99595,19.03981 -17.41672,21.69654 -29.3877,37.91957 -29.3877,39.82614 0,4.56873 10.63826,9.24705 33.52286,14.74211 29.93491,7.18799 51.59429,9.18261 64.23212,5.91518 11.30877,-2.92382 84.8075,-35.17091 86.69049,-38.03489 1.66798,-2.53695 1.35577,-4.63311 -2.8408,-19.0739 -2.5931,-8.92306 -4.70158,-18.41347 -4.68551,-21.08982 0.038,-6.33285 3.25347,-13.22677 12.90665,-27.67185 8.69054,-13.00456 30.23146,-47.76559 38.647,-62.36545 9.05523,-15.70965 14.18529,-16.1439 24.35895,-2.06194 6.17733,8.55041 10.40734,10.92827 14.07862,7.9142 1.21324,-0.99606 4.77994,-5.78052 7.92599,-10.63212 7.64993,-11.79715 11.98187,-13.35215 18.96155,-6.80639 5.86375,5.4992 58.82151,87.81072 60.86552,94.60247 0.97705,3.24652 1.77646,11.44368 1.77646,18.21591 0,11.49974 -0.30563,12.88927 -4.62652,21.03404 -2.54805,4.80303 -4.26816,9.65477 -3.82883,10.79965 1.03259,2.69087 3.28199,3.7968 31.06535,15.2735 12.80124,5.28792 32.25249,13.51148 43.22498,18.27457 10.9725,4.76309 21.44625,9.17292 23.275,9.7996 5.23134,1.79269 23.35804,0.18184 37.90499,-3.36849 z m 89.60968,-38.60138 c 22.10224,-14.18487 25.35575,-17.03975 23.27438,-20.42277 -0.76124,-1.2373 -10.61133,-7.76801 -21.88908,-14.51267 -24.48721,-14.64462 -29.15,-18.45876 -29.15,-23.84458 0,-4.62032 -0.79035,-3.0708 26.01731,-51.00736 19.49655,-34.8631 21.19768,-38.43866 21.19768,-44.55499 0,-5.12986 -3.34429,-15.87985 -14.63,-47.02715 -8.45505,-23.33499 -15.86624,-41.71948 -17.55899,-43.55749 -2.04092,-2.21606 -4.37258,-3.18034 -7.69021,-3.18034 -6.12864,0 -13.98579,3.28283 -13.98579,5.84345 0,1.09406 2.14605,6.66072 4.769,12.37037 6.54604,14.24952 9.98299,22.83419 11.34461,28.33617 0.63361,2.56025 1.18869,21.63569 1.2335,42.38987 l 0.0815,37.73485 -3.2282,4.82514 c -1.77551,2.65381 -13.15321,15.25201 -25.28376,27.99597 -14.65432,15.39536 -22.34342,24.48148 -22.91338,27.07647 -0.73871,3.36335 1.49787,7.80949 16.10943,32.02411 25.83176,42.80903 25.32711,42.08353 29.27314,42.08353 2.07437,0 11.21184,-4.98859 23.0289,-12.57258 z m -589.28656,6.25508 c 3.54199,-3.06164 40.06026,-50.65257 41.88487,-54.58472 1.79178,-3.86142 -1.77024,-11.61324 -9.29482,-20.22776 -2.87526,-3.29175 -8.88043,-10.82045 -13.34483,-16.73045 -8.21316,-10.87264 -13.07858,-15.18954 -17.1196,-15.18954 -4.53397,0 -12.70776,3.20919 -16.04038,6.29775 -4.728434,4.38218 -3.865331,10.52592 4.0755,29.01022 3.80953,8.86764 5.9643,15.63658 5.52932,17.36966 -0.88197,3.51405 -5.29761,6.84837 -24.355534,18.39124 -15.395081,9.32438 -17.245571,11.62289 -12.634997,15.69403 4.602532,4.06403 34.295151,22.19771 36.427651,22.24684 1.19908,0.0276 3.39185,-0.99714 4.87282,-2.27727 z M 71.531694,658.8359 c 9.46014,-4.77749 17.931827,-10.719 19.523077,-13.69228 1.473185,-2.75267 -1.348735,-12.0516 -9.916933,-32.67879 -8.597786,-20.69843 -14.011496,-31.25499 -16.028447,-31.25499 -1.063924,0 -2.004321,0.14962 -2.089771,0.3325 -0.921992,1.97321 -3.113305,75.58695 -2.316075,77.80498 1.367463,3.8045 2.37631,3.75686 10.828149,-0.51142 z m 665.237416,0.92594 c 0.98936,-1.60083 -5.84804,-72.83193 -7.37711,-76.85367 -1.68071,-4.42062 -4.53714,-3.7132 -7.91075,1.95917 -6.69093,11.25014 -25.22645,47.92474 -25.22645,49.91339 0,3.77424 5.63184,8.58458 20.50361,17.51284 14.08133,8.45373 18.40447,10.06718 20.0107,7.46827 z M 103.73997,584.7335 c 11.28792,-5.26265 10.64,-1.85681 10.64,-55.92968 0,-47.81662 -0.0123,-48.02871 -3.06627,-52.9403 -3.49601,-5.62248 -10.21633,-11.69365 -12.943962,-11.69365 -1.012629,0 -2.911834,1.15617 -4.220454,2.56927 -3.909601,4.22175 -27.027515,63.87739 -27.004484,69.68493 0.01841,4.64316 8.619078,28.93689 14.061179,39.71767 3.448935,6.83233 8.657857,11.71965 12.475326,11.7051 1.874767,-0.007 6.401165,-1.40815 10.058665,-3.11334 z m 633.13782,-81.08804 c 0.49169,-2.32683 5.04734,-21.28785 10.12368,-42.13559 17.09088,-70.18969 20.26013,-86.44998 16.84966,-86.44998 -1.861,0 -44.07254,48.72572 -51.30293,59.2201 -5.7017,8.27562 -4.99736,13.29541 6.15341,43.85488 10.89585,29.86083 12.71284,33.53342 15.46167,31.25209 1.00129,-0.831 2.22283,-3.41467 2.71451,-5.7415 z m -675.324404,-2.5681 c 3.330356,-4.05887 19.181744,-44.77377 19.844046,-50.97021 l 0.721226,-6.74773 -20.103316,-26.75548 C 31.65091,376.19195 25.934993,369.75713 25.934993,375.98567 c 0,2.88869 28.888415,119.77641 30.587295,123.76169 1.434346,3.36473 3.018051,3.7834 5.031098,1.33 z m 66.820874,-47.14287 c 4.60412,-7.25995 4.9536,-11.88481 1.41652,-18.7451 -2.81355,-5.45697 -7.52785,-10.91951 -9.4238,-10.91951 -1.85933,0 -7.7466,6.63114 -11.53172,12.98876 -4.21527,7.08011 -3.47184,10.89262 3.4795,17.84396 7.16082,7.16084 10.95233,6.88505 16.0595,-1.16811 z m 547.18446,-18.99378 c 2.07033,-0.78714 3.40609,-2.32669 3.40609,-3.92572 0,-2.98036 -23.81735,-39.06921 -28.80916,-43.6526 -1.79255,-1.64587 -4.17447,-2.9925 -5.29317,-2.9925 -2.09869,0 -21.70477,19.26304 -25.49732,25.0512 -2.06802,3.15621 -1.98882,3.38479 2.46398,7.11104 5.78106,4.83779 25.65355,16.81925 31.85143,19.20376 4.92373,1.8943 15.84865,1.49723 21.87815,-0.79518 z M 186.19995,423.41415 c 15.36149,-4.8618 28.97736,-9.74343 30.25749,-10.84808 1.28012,-1.10464 2.3275,-3.16953 2.3275,-4.58864 0,-2.31572 -32.15462,-55.48003 -37.00264,-61.18003 -2.68479,-3.15659 -5.87442,-2.92536 -9.17285,0.665 -2.47711,2.69635 -30.93418,42.96162 -36.62551,51.8232 -4.77514,7.43502 -1.22283,19.43043 8.68954,29.3428 6.35404,6.35404 4.06784,6.64111 41.52647,-5.21425 z m -80.2268,-9.45177 c 1.86772,-2.01162 8.35532,-11.13874 14.41691,-20.28249 6.06158,-9.14375 31.48743,-45.65224 56.50189,-81.12998 25.01444,-35.47774 46.1698,-65.81226 47.0119,-67.41004 3.91361,-7.42563 4.86345,-7.03175 -46.0362,-19.09009 -18.48127,-4.37828 -45.71301,-11.27895 -60.51499,-15.33481 -14.80197,-4.05586 -30.054809,-7.72368 -33.895183,-8.15073 l -6.982498,-0.77644 v 6.19025 c 0,3.40464 1.760654,20.09675 3.912565,37.09357 2.15191,16.99681 5.469873,47.36205 7.37325,67.47829 1.903377,20.11625 4.297946,44.05624 5.321262,53.19999 1.023316,9.14374 2.248309,22.31074 2.722205,29.25999 1.019054,14.94349 2.74093,22.60999 5.078139,22.60999 0.9322,0 3.22304,-1.64587 5.09075,-3.6575 z m -25.508173,-4.9705 c 0,-2.72922 -12.686252,-115.18184 -16.581652,-146.98195 -3.298163,-26.92458 -4.147732,-30.99519 -6.317954,-30.27179 -1.253624,0.41787 -15.45756,33.20543 -31.666552,73.09727 -8.030888,19.76476 -9.074014,24.39759 -6.553698,29.10684 2.447508,4.57322 34.490337,47.93469 46.342282,62.71201 10.856652,13.53635 14.777574,16.80988 14.777574,12.33762 z m 611.108783,-1.01449 c 2.22822,-9.66874 20.64104,-187.86716 20.64104,-199.76297 v -7.38448 h -4.83032 c -2.65667,0 -14.77629,3.23369 -26.93249,7.18595 -12.1562,3.95227 -34.37142,10.8648 -49.36717,15.36116 -39.14662,11.73784 -55.44801,17.24894 -57.17458,19.32933 -2.16145,2.60438 -0.65614,5.12245 25.61382,42.84684 12.63202,18.13993 37.2714,53.77956 54.75417,79.19918 31.92586,46.41959 35.58261,50.65772 37.29553,43.22499 z M 318.2001,406.38914 c 3.16272,-1.31891 8.43242,-5.41676 11.96999,-9.30818 6.19484,-6.81446 17.62481,-26.4368 17.62481,-30.25729 0,-3.3517 -7.95351,-13.32568 -30.70482,-38.50484 -12.13291,-13.42765 -29.13818,-32.49366 -37.78948,-42.36891 -23.0835,-26.34925 -32.69712,-35.90999 -36.10861,-35.90999 -2.31511,0 -7.24097,6.20457 -23.49378,29.59249 -25.52579,36.73184 -29.17576,42.59041 -29.17576,46.83009 0,4.17665 41.69433,74.6568 46.6122,78.79332 4.47009,3.75989 8.80607,4.11948 45.49027,3.77253 25.18587,-0.23818 30.81979,-0.65615 35.57518,-2.63922 z m 418.18562,-25.67675 c 36.97573,-43.80504 35.85782,-42.33807 36.62546,-48.06128 0.38073,-2.83859 -0.066,-7.47522 -0.99283,-10.30364 -2.85218,-8.70439 -38.38333,-92.64931 -39.82612,-94.0921 -0.89096,-0.89096 -1.80752,-0.90735 -2.66719,-0.0477 -0.72037,0.72037 -3.41897,21.63794 -5.99689,46.48349 -2.57793,24.84555 -6.77653,61.84328 -9.33024,82.21716 -4.66485,37.2169 -5.67592,52.73155 -3.43647,52.73155 0.66366,0 12.19458,-13.01738 25.62428,-28.9275 z m -238.10687,22.22273 c 28.15511,-2.98398 36.2199,-4.44003 40.67028,-7.34281 3.13732,-2.04634 48.25624,-90.68839 48.23271,-94.75951 -0.0258,-4.47066 -6.41439,-15.81454 -16.2463,-28.84788 -12.02311,-15.93802 -14.63209,-18.46071 -17.98995,-17.39497 -1.38593,0.43989 -8.64677,7.97303 -16.1352,16.74035 -7.48843,8.7673 -22.06309,25.31436 -32.38817,36.77123 -29.17027,32.36784 -55.72904,63.24199 -57.22297,66.52079 -1.90726,4.18599 0.5873,9.53376 9.93327,21.2947 9.07803,11.42372 5.43699,10.80269 41.14633,7.0181 z m 116.96926,-11.9193 c 17.31041,-18.58126 20.20785,-22.62126 19.17339,-26.73406 -0.79382,-3.15603 -22.04641,-33.21795 -29.00512,-41.02793 -4.18329,-4.69502 -5.08741,-4.89191 -7.92757,-1.72642 -3.40536,3.79545 -36.89397,70.15264 -36.89397,73.10488 0,1.49154 0.79815,3.3743 1.77366,4.1839 2.87727,2.38792 22.16381,6.54924 31.03888,6.69703 l 8.20755,0.13667 z m -208.8499,4.98995 c 1.87458,-1.64499 21.30319,-23.63912 43.1747,-48.87587 21.87151,-25.23674 48.18892,-55.46098 58.48313,-67.16498 25.9706,-29.52725 33.57656,-38.72143 34.53763,-41.7495 1.32169,-4.16428 -1.97351,-10.14512 -17.30036,-31.40048 C 517.38125,195.84245 499.54362,169.8077 485.65413,148.95996 459.53856,109.76118 409.34709,37.514065 404.57521,32.252491 398.97284,26.07522 396.97552,27.646826 380.91149,50.872486 365.95755,72.493158 290.76903,179.49791 269.54991,209.35704 c -6.19192,8.71316 -11.89032,17.51718 -12.6631,19.56452 -2.06267,5.46463 0.84359,10.4745 14.61365,25.19131 17.37134,18.56566 29.69084,32.50835 51.04637,57.77204 39.65005,46.90623 76.15133,87.11684 79.07739,87.11336 0.75111,-9e-4 2.89941,-1.34752 4.77399,-2.9925 z m 202.84854,-183.9367 c 21.88619,-6.96574 48.77057,-15.11465 59.74306,-18.10869 10.9725,-2.99403 21.59587,-6.27958 23.6075,-7.30122 6.74031,-3.42318 4.39959,-6.77159 -9.6425,-13.79363 -4.75475,-2.37771 -37.97149,-20.31009 -73.81498,-39.84974 C 573.29634,113.47614 523.3216,86.38365 498.08486,72.810258 472.84812,59.236865 448.01987,45.680803 442.91098,42.685676 433.792,37.3396 430.25488,36.13148 430.25488,38.36293 c 0,0.617617 4.57108,7.64999 10.15794,15.627495 5.58687,7.977505 29.35406,42.634048 52.81597,77.014535 23.46191,34.38049 46.33609,67.89648 50.8315,74.47998 11.56388,16.93522 15.89715,21.03061 21.19966,20.03585 2.30655,-0.43272 22.1006,-6.48598 43.9868,-13.45172 z m -367.1311,6.53007 c 1.78952,-1.93095 17.15095,-23.62657 34.13648,-48.21249 16.98554,-24.58593 42.52898,-61.16043 56.76319,-81.276675 26.80884,-37.887092 33.39958,-47.649071 33.39958,-49.470375 0,-2.93448 4.58823,-5.269433 -103.73997,52.793319 -19.38475,10.390011 -46.91574,25.057861 -61.17999,32.595221 -14.26424,7.53735 -33.11699,17.71055 -41.89498,22.6071 -8.778,4.89655 -24.63825,13.46526 -35.24499,19.04158 -28.663969,15.0696 -28.561337,15.0083 -29.022199,17.33608 -0.246328,1.2442 0.879891,2.73579 2.659999,3.52299 1.697961,0.75088 28.82269,7.9056 60.27719,15.8994 31.45449,7.99381 59.88323,15.40661 63.17498,16.47293 9.95096,3.22344 16.87659,2.78483 20.67071,-1.30908 z m -98.59899,-81.44093 c 7.38281,-4.29647 25.99179,-14.15217 41.35329,-21.90156 15.36149,-7.74938 39.89999,-20.746213 54.52998,-28.881837 14.63,-8.135623 32.58499,-17.792435 39.89999,-21.459581 31.17227,-15.627247 32.68484,-19.711774 4.35361,-11.75651 -26.82422,7.532107 -87.73134,27.866619 -93.37599,31.174605 -5.45098,3.194484 -50.0194,43.748503 -58.94008,53.631183 -8.61344,9.5423 -5.2169,9.31744 12.1792,-0.8063 z m 522.14815,5.32845 c 0,-1.43311 -39.94263,-40.99451 -47.21498,-46.76435 -8.69724,-6.900329 -15.01009,-9.45076 -66.06851,-26.692124 -61.80194,-20.869222 -64.83457,-20.361039 -20.04458,3.358905 27.2582,14.435429 83.71048,45.252179 112.04808,61.165939 17.33001,9.73215 21.27999,11.39003 21.27999,8.93163 z"
       id="path56"
       transform="scale(0.26458333)" /></g></svg>
